<svg xmlns="http://www.w3.org/2000/svg" xmlns:xlink="http://www.w3.org/1999/xlink" width="100" height="100" viewBox="0 0 100 100">
  <defs>
    <clipPath id="clip-icon">
      <rect width="100" height="100"/>
    </clipPath>
  </defs>
  <g id="icon" clip-path="url(#clip-icon)">
    <g id="Layer_2" data-name="Layer 2" transform="translate(3 41.992)">
      <g id="Blue" transform="translate(0 0.008)">
        <path id="Path_3040" data-name="Path 3040" d="M100.24,7.88c2.706,0,4.009,1.333,4.009,3.47a2.7,2.7,0,0,1-2.221,2.949c1.96.324,2.928,1.393,2.928,3.27,0,2.121-1.434,3.575-4.4,3.575H95.09V7.88ZM96.905,9.617v3.959h3.089c1.717,0,2.423-.787,2.423-2.065s-.767-1.9-2.423-1.9Zm0,5.574v4.131h3.718c1.737,0,2.524-.627,2.524-1.96,0-1.414-.748-2.18-2.563-2.18Z" transform="translate(-73.268 -6.074)"/>
        <path id="Path_3041" data-name="Path 3041" d="M151.982,29.3a3.558,3.558,0,0,1-3.413,2.02c-2.685,0-4.039-2.281-4.039-5.251,0-2.848,1.414-5.251,4.241-5.251a3.314,3.314,0,0,1,3.213,1.978V21.022h1.737v10.1h-1.74Zm-2.949.4c1.556,0,2.949-.989,2.949-3.231v-.808c0-2.242-1.271-3.231-2.754-3.231-1.96,0-2.97,1.292-2.97,3.635.011,2.423.982,3.635,2.779,3.635Z" transform="translate(-111.362 -16.044)"/>
        <path id="Path_3042" data-name="Path 3042" d="M204.59,31.117h-1.737v-6.1c0-1.818-.727-2.625-2.382-2.625-1.606,0-2.726,1.069-2.726,3.11v5.616H196v-10.1h1.737v1.657a3.539,3.539,0,0,1,3.19-1.859,3.3,3.3,0,0,1,3.392,2.465,3.67,3.67,0,0,1,3.594-2.465c2.263,0,3.514,1.535,3.514,4.383v5.916h-1.737V25.5c0-2.079-.728-3.11-2.382-3.11-1.606,0-2.726,1.069-2.726,3.11Z" transform="translate(-151.02 -16.041)"/>
        <path id="Path_3043" data-name="Path 3043" d="M278.76,17.83a3.314,3.314,0,0,1-3.213-1.978v1.776H273.81V3.31h1.737V9.348a3.558,3.558,0,0,1,3.413-2.02c2.685,0,4.039,2.281,4.039,5.251C283,15.425,281.587,17.83,278.76,17.83ZM278.5,8.944c-1.556,0-2.949.989-2.949,3.231v.808c0,2.242,1.271,3.231,2.754,3.231,1.96,0,2.97-1.292,2.97-3.635-.009-2.423-.98-3.635-2.777-3.635Z" transform="translate(-210.973 -2.552)"/>
        <path id="Path_3044" data-name="Path 3044" d="M320,26.05c0-3.029,1.776-5.23,4.806-5.23s4.767,2.2,4.767,5.23-1.758,5.278-4.767,5.278S320,29.079,320,26.05Zm1.7,0c0,1.919.95,3.656,3.11,3.656s3.075-1.73,3.075-3.656-.918-3.615-3.068-3.615-3.112,1.7-3.112,3.615Z" transform="translate(-246.563 -16.044)"/>
        <path id="Path_3045" data-name="Path 3045" d="M367.89,26.05c0-3.029,1.776-5.23,4.806-5.23s4.767,2.2,4.767,5.23-1.758,5.278-4.767,5.278S367.89,29.079,367.89,26.05Zm1.7,0c0,1.919.95,3.656,3.11,3.656s3.071-1.73,3.071-3.656-.918-3.615-3.068-3.615S369.586,24.132,369.586,26.05Z" transform="translate(-283.462 -16.044)"/>
        <path id="Path_3046" data-name="Path 3046" d="M38.637,41.81H35.128a.459.459,0,0,0-.459.39,2.885,2.885,0,0,1-2.859,2.485l.95,4.34A7.3,7.3,0,0,0,39.1,42.3a.459.459,0,0,0-.459-.491Z" transform="translate(-24.51 -32.217)"/>
        <path id="Path_3047" data-name="Path 3047" d="M32.565,9.491l5.049-4.34a.459.459,0,0,0,0-.688L32.565.117a.459.459,0,0,0-.755.349V9.142a.459.459,0,0,0,.755.349Z" transform="translate(-24.51 -0.008)"/>
        <path id="Path_3048" data-name="Path 3048" d="M.3,42.758a7.3,7.3,0,0,0,7.231,6.336V44.686A2.882,2.882,0,0,1,4.649,41.81Z" transform="translate(-0.231 -32.217)"/>
        <path id="Path_3049" data-name="Path 3049" d="M0,17.516v.069H4.418A2.882,2.882,0,0,1,7.3,14.71l-.948-4.34A7.3,7.3,0,0,0,0,17.516" transform="translate(0 -7.992)"/>
      </g>
    </g>
  </g>
</svg>
