<svg xmlns="http://www.w3.org/2000/svg" xmlns:xlink="http://www.w3.org/1999/xlink" width="100" height="100" viewBox="0 0 100 100">
  <defs>
    <clipPath id="clip-path">
      <path id="Path_3050" data-name="Path 3050" d="M6.985,19.051a1.631,1.631,0,0,1-1.636-1.558,1.581,1.581,0,0,1,1.636-1.558,1.581,1.581,0,0,1,1.636,1.558,1.631,1.631,0,0,1-1.636,1.558Zm20.1-8.492a4.64,4.64,0,0,0-1.948-3.038l-.39-.312-.312.39a4.219,4.219,0,0,0-.078,4.83c-.312.156-.7.312-1.013.467a6.562,6.562,0,0,1-2.1.312H1.065l-.078.467a8.765,8.765,0,0,0,.7,4.441L2,18.661v.078c1.87,3.116,5.22,4.518,8.881,4.518,7.011,0,12.776-3.038,15.5-9.582,1.792.078,3.584-.39,4.441-2.1l.234-.39-.39-.234a4.754,4.754,0,0,0-3.584-.39ZM17.035,9.313H14v3.038h3.038Zm0-3.817H14V8.534h3.038Zm0-3.9H14V4.638h3.038V1.6Zm3.739,7.713H17.736v3.038h3.038Zm-11.3,0H6.44v3.038H9.478V9.313Zm3.817,0H10.257v3.038H13.3Zm-7.557,0H2.7v3.038H5.739V9.313ZM13.3,5.5H10.257V8.534H13.3Zm-3.817,0H6.44V8.534H9.478V5.5Z" transform="translate(-0.94 -1.6)"/>
    </clipPath>
    <clipPath id="clip-icon">
      <rect width="100" height="100"/>
    </clipPath>
  </defs>
  <g id="icon" clip-path="url(#clip-icon)">
    <g id="docker-1" transform="translate(2.06 37.4)">
      <path id="SVGID_1_" d="M6.985,19.051a1.631,1.631,0,0,1-1.636-1.558,1.581,1.581,0,0,1,1.636-1.558,1.581,1.581,0,0,1,1.636,1.558,1.631,1.631,0,0,1-1.636,1.558Zm20.1-8.492a4.64,4.64,0,0,0-1.948-3.038l-.39-.312-.312.39a4.219,4.219,0,0,0-.078,4.83c-.312.156-.7.312-1.013.467a6.562,6.562,0,0,1-2.1.312H1.065l-.078.467a8.765,8.765,0,0,0,.7,4.441L2,18.661v.078c1.87,3.116,5.22,4.518,8.881,4.518,7.011,0,12.776-3.038,15.5-9.582,1.792.078,3.584-.39,4.441-2.1l.234-.39-.39-.234a4.754,4.754,0,0,0-3.584-.39ZM17.035,9.313H14v3.038h3.038Zm0-3.817H14V8.534h3.038Zm0-3.9H14V4.638h3.038V1.6Zm3.739,7.713H17.736v3.038h3.038Zm-11.3,0H6.44v3.038H9.478V9.313Zm3.817,0H10.257v3.038H13.3Zm-7.557,0H2.7v3.038H5.739V9.313ZM13.3,5.5H10.257V8.534H13.3Zm-3.817,0H6.44V8.534H9.478V5.5Z"/>
      <g id="Group_3500" data-name="Group 3500" transform="translate(0.94 1.6)" clip-path="url(#clip-path)">
        <path id="SVGID_3_" d="M-48.8-21H944.331V96.948H-48.8Z" transform="translate(10.05 3.394)"/>
      </g>
      <path id="docker_2_" d="M89.5,18.485c1.324-1.169,2.649-2.259,3.973-3.428.467-.39.935-.779,1.4-1.246A3.87,3.87,0,0,0,93.4,12.8a3.516,3.516,0,0,0-3.038.312,3.316,3.316,0,0,0-1.714,3.272,2.809,2.809,0,0,0,.467,1.558,1.8,1.8,0,0,1,.39.545m1.558,1.091a3.838,3.838,0,0,0,2.1.078,3.978,3.978,0,0,1,1.558-.467h.156a.7.7,0,0,1,.467.467.8.8,0,0,1-.312,1.169l-.156.078a5.029,5.029,0,0,1-5.22-.078,5.371,5.371,0,0,1-1.87-1.87l-.078-.156a5.063,5.063,0,0,1,.312-5.687,4.977,4.977,0,0,1,1.636-1.48l.234-.156A5.158,5.158,0,0,1,94.88,11.4a5.079,5.079,0,0,1,2.1,1.948l.078.156c.39.623-.078,1.169-.623,1.558l-1.636,1.4c-1.4,1.091-2.571,2.1-3.739,3.116Zm12.7-8.57h.156a.9.9,0,0,1,.935.935c0,.779-.7.935-1.324.935a3.176,3.176,0,0,0-2.1,1.013,3.41,3.41,0,0,0-1.013,2.493v4.363a.881.881,0,0,1-.857.935H99.4a.84.84,0,0,1-.857-.935v-4.6a5.039,5.039,0,0,1,2.259-4.207,5.506,5.506,0,0,1,2.96-.935ZM81.48,14.044l2.1-2.1c.234-.156.935-1.013,1.246-1.013h.312a.769.769,0,0,1,.7.779v.156c0,.312-.39.623-.545.857-.39.467-.857.857-1.246,1.324L81.87,16.225l2.8,2.8.779.779.312.312c.078.156.156.234.156.39v.234a.828.828,0,0,1-.779.7h-.156c-.312,0-.623-.312-.857-.545-.39-.39-.857-.779-1.246-1.246l-1.4-1.324V20.51a.881.881,0,0,1-.857.935h-.156a.84.84,0,0,1-.857-.935v-12a.817.817,0,0,1,.857-.857h.156a.817.817,0,0,1,.857.857Zm-5.765-1.169a2.476,2.476,0,0,0-1.091-.156,3.276,3.276,0,0,0-3.194,2.1,3.161,3.161,0,0,0-.312,1.48A3.375,3.375,0,0,0,73.3,19.575a4.192,4.192,0,0,0,1.714.312,5.171,5.171,0,0,0,1.558-.467h.39a.769.769,0,0,1,.7.779v.156c0,1.091-2.026,1.324-2.727,1.4a5.164,5.164,0,0,1-5.453-3.817,3.859,3.859,0,0,1-.156-1.324v-.39a4.85,4.85,0,0,1,2.649-4.441,4.9,4.9,0,0,1,2.571-.7h.39a4.587,4.587,0,0,1,2.649.779l.078.078.078.078a1.107,1.107,0,0,1,.156.467v.156c0,.467-.312.7-.779.779H77.04a8.607,8.607,0,0,1-1.324-.545Zm-16.36,3.35a3.537,3.537,0,0,0,1.792,3.038,3.619,3.619,0,0,0,1.792.467,3.537,3.537,0,0,0,3.038-1.792,3.619,3.619,0,0,0,.467-1.792,3.531,3.531,0,0,0-1.636-2.96,3.269,3.269,0,0,0-1.87-.545,3.387,3.387,0,0,0-3.194,2.1,2.24,2.24,0,0,0-.39,1.48Zm3.272-5.3h.234a5.115,5.115,0,0,1,4.674,2.8,4.759,4.759,0,0,1,.623,2.337v.39A4.85,4.85,0,0,1,65.51,20.9a4.9,4.9,0,0,1-2.571.7h-.39a4.85,4.85,0,0,1-4.441-2.649,4.9,4.9,0,0,1-.7-2.571v-.39a4.85,4.85,0,0,1,2.649-4.441A5.951,5.951,0,0,1,62.627,10.928Zm-15.114,5.3a3.338,3.338,0,0,0,1.948,3.116,3.621,3.621,0,0,0,1.636.39,3.416,3.416,0,0,0,3.116-1.792,3.619,3.619,0,0,0,.467-1.792,3.327,3.327,0,0,0-1.558-2.882,3.658,3.658,0,0,0-2.026-.623,3.387,3.387,0,0,0-3.194,2.1,3.81,3.81,0,0,0-.39,1.48Zm7.167-3.973V8.435a.881.881,0,0,1,.857-.935h.156a.84.84,0,0,1,.857.935v8.024A4.85,4.85,0,0,1,53.9,20.9a4.9,4.9,0,0,1-2.571.7h-.39A4.85,4.85,0,0,1,46.5,18.952a4.9,4.9,0,0,1-.7-2.571v-.39a4.85,4.85,0,0,1,2.649-4.441,4.9,4.9,0,0,1,2.571-.7h.39a5.377,5.377,0,0,1,3.272,1.4Z" transform="translate(-9.912 -1.304)"/>
    </g>
  </g>
</svg>
