<svg xmlns="http://www.w3.org/2000/svg" xmlns:xlink="http://www.w3.org/1999/xlink" width="100" height="100" viewBox="0 0 100 100">
  <defs>
    <clipPath id="clip-icon">
      <rect width="100" height="100"/>
    </clipPath>
  </defs>
  <g id="icon" clip-path="url(#clip-icon)">
    <g id="git" transform="translate(2.999 29.077)">
      <path id="Path_3001" data-name="Path 3001" d="M136.659,14.287c-2.061,0-3.6,1.012-3.6,3.447,0,1.835,1.012,3.109,3.485,3.109,2.1,0,3.52-1.235,3.52-3.185a3.07,3.07,0,0,0-3.409-3.371Zm-4.121,17.2a3.32,3.32,0,0,0-.974,1.985c0,1.5,1.91,1.948,4.533,1.948,2.173,0,5.133-.152,5.133-2.173,0-1.2-1.424-1.275-3.223-1.388l-5.468-.373ZM143.627,14.4a5.942,5.942,0,0,1,1.386,3.784c0,4.158-3.259,6.593-7.979,6.593a11.911,11.911,0,0,1-2.96-.337l-1.237,1.985,3.671.225c6.482.413,10.3.6,10.3,5.581,0,4.309-3.783,6.743-10.3,6.743-6.78,0-9.366-1.723-9.366-4.683,0-1.686.749-2.583,2.061-3.822A2.5,2.5,0,0,1,127.555,28a3.359,3.359,0,0,1,1.087-2.286c.674-.711,1.423-1.423,2.322-2.247a5.984,5.984,0,0,1-3.222-5.62c0-4.307,2.848-7.266,8.578-7.266a12.837,12.837,0,0,1,3.447.375h7.306v3.183l-3.447.263Zm10.038-6.808a3.077,3.077,0,0,1-3.372-3.373,3.021,3.021,0,0,1,3.372-3.3c2.173,0,3.409,1.163,3.409,3.3A3.088,3.088,0,0,1,153.665,7.592Zm-4.834,22.513V27.147l1.911-.261c.525-.075.6-.187.6-.75V15.121c0-.411-.112-.675-.488-.786l-2.022-.713.412-3.034H157V26.135c0,.6.036.675.6.751l1.91.261v2.958Zm25.492-1.452a14.981,14.981,0,0,1-6.108,1.5c-4.458,0-6.143-1.8-6.143-6.032V14.305c0-.225,0-.375-.3-.375H159.15V10.6c3.3-.376,4.608-2.024,5.02-6.107h3.559V9.809c0,.261,0,.375.3.375h5.282V13.93H167.73v8.953c0,2.21.525,3.071,2.547,3.071a8.916,8.916,0,0,0,3.034-.6l1.013,3.3" transform="translate(-80.323)"/>
      <path id="Path_3002" data-name="Path 3002" d="M38.493,18.875,21.363,1.747a2.526,2.526,0,0,0-3.573,0L14.233,5.3l4.512,4.512a3,3,0,0,1,3.8,3.825l4.348,4.349a3,3,0,1,1-1.8,1.7L21.038,15.63V26.3a3.037,3.037,0,0,1,.8.569,3.007,3.007,0,1,1-3.267-.656V15.443a2.97,2.97,0,0,1-.984-.656,3.006,3.006,0,0,1-.648-3.287L12.486,7.052.741,18.8a2.527,2.527,0,0,0,0,3.574L17.87,39.5a2.527,2.527,0,0,0,3.573,0L38.493,22.45a2.528,2.528,0,0,0,0-3.575" transform="translate(0 -0.053)"/>
    </g>
  </g>
</svg>
