<svg xmlns="http://www.w3.org/2000/svg" xmlns:xlink="http://www.w3.org/1999/xlink" width="100" height="100" viewBox="0 0 100 100">
  <defs>
    <clipPath id="clip-icon">
      <rect width="100" height="100"/>
    </clipPath>
  </defs>
  <g id="icon" clip-path="url(#clip-icon)">
    <g id="Group_3498" data-name="Group 3498" transform="translate(-5.312 0)">
      <path id="Path_3003" data-name="Path 3003" d="M70.624,77.185c0,18.618-14.761,33.725-32.98,33.725S4.664,95.8,4.664,77.185,19.425,43.46,37.644,43.46s32.98,15.107,32.98,33.725" transform="translate(17.659 -28.89)"/>
      <path id="Path_3004" data-name="Path 3004" d="M5,91.346S2.609,56.186,35.031,55.175L32.77,51.4,15.189,57.3l-5.027,5.772-4.388,8.4-2.5,9.788.745,6.543" transform="translate(18.676 -34.7)"/>
      <path id="Path_3005" data-name="Path 3005" d="M12.3,51.71a33.276,33.276,0,0,0,0,46.278,31.414,31.414,0,0,0,45.161,0,33.277,33.277,0,0,0,0-46.279,31.414,31.414,0,0,0-45.161,0ZM10.84,99.4a35.3,35.3,0,0,1,0-49.124,33.469,33.469,0,0,1,48.087,0,35.3,35.3,0,0,1,0,49.124,33.469,33.469,0,0,1-48.087,0Z" transform="translate(20.419 -26.421)"/>
      <path id="Path_3006" data-name="Path 3006" d="M82.757,49.337l-5.027.745-6.782.771-4.388.106-4.282-.133-3.271-1.011-2.9-3.139-2.261-6.41-.505-1.383-3.005-1.011-1.756-2.9-1.25-4.149,1.383-3.644,3.271-1.144,2.633,1.25,1.25,2.766,1.516-.24.505-.638-.505-2.9-.133-3.644L58,17.607l-.027-2.872,2.287-3.67,4.016-2.9L71.294,5.16,79.087,6.3,85.869,11.2l3.139,5.027,2.021,3.644.506,9.043L90.018,36.7l-2.766,6.915-2.606,3.7" transform="translate(-13.57 -0.856)"/>
      <path id="Path_3007" data-name="Path 3007" d="M66.809,186.836l-17.953.745v3.005l1.516,10.559-.745.878L37.073,197.74l-.878-1.516-1.25-14.2-2.952-8.511-.638-2.021,10.054-6.915,3.139-1.25,2.766,3.4,2.394,2.128,2.766.878,1.25.373,1.516,6.543,1.144,1.383,2.9-1.011-2.021,3.909,10.9,5.16-1.356.745" transform="translate(-1.878 -116.625)"/>
      <path id="Path_3008" data-name="Path 3008" d="M51.11,30.5l3.271-1.143,2.633,1.25,1.25,2.766,1.516-.239.373-1.516-.745-2.9.745-6.915-.638-3.777L61.776,15.4l4.894-3.883L65.286,9.625l-6.915,3.4-2.9,2.261L53.85,18.8l-2.5,3.4L50.6,26.221,51.11,30.5" transform="translate(-15.968 -4.124)"/>
      <path id="Path_3009" data-name="Path 3009" d="M56.27,19.92S58.158,15.265,65.685,13s.373-1.622.373-1.622l-8.166,3.139-3.138,3.138-1.383,2.5,2.9-.239M52.493,30.851s-2.633-8.8,7.42-10.054l-.372-1.516L52.626,20.9l-2.021,6.543.505,4.282,1.383-.878" transform="translate(-15.968 -5.35)"/>
      <path id="Path_3010" data-name="Path 3010" d="M53.823,35.383l1.649-1.6a1.06,1.06,0,0,1,.878.957c.133.878.505,8.8,5.9,13.059.505.4-4.016-.638-4.016-.638l-4.016-6.277m22.714-7.9s.292-3.8,1.33-3.511a1.421,1.421,0,0,1,1.037,1.33s-2.5,1.6-2.367,2.181M87.361,19.052s-2.075.425-2.261,2.261,2.261.372,2.633.239M72.174,19.185s-2.766.372-2.766,2.128,3.139,1.622,4.016.878M55.1,27.351s-4.76-2.9-5.266-.133-1.622,4.76.745,7.66l-1.622-.505L47.44,30.489l-.506-3.777,2.9-3.005,3.271.239,1.888,1.516.106,1.888m2.261-7.926S59.487,8.36,70.286,6.233c8.883-1.755,13.564.373,15.32,2.394,0,0-7.926-9.415-15.453-6.543-7.527,2.9-13.059,8.165-12.926,11.543.213,5.8.133,5.8.133,5.8M86.483,9.876s-3.644-.133-3.777,3.138a2.634,2.634,0,0,0,.24,1.011s2.9-3.271,4.654-1.516" transform="translate(-13.281 1.795)" fill="#16191a"/>
      <path id="Path_3011" data-name="Path 3011" d="M115.332,41.208s-.638-5-4.894-2.1c-2.766,1.888-2.5,4.521-2.021,5.027.505.505.372,1.516.745.825s.266-2.952,1.649-3.591c1.356-.638,3.644-1.33,4.521-.159" transform="translate(-58.061 -25.042)"/>
      <path id="Path_3012" data-name="Path 3012" d="M47.412,166.437,35.6,171.7S40.5,191.172,38,197.209l-1.755-.638-.133-7.421-3.271-14.043-1.383-3.883,12.314-8.3,3.644,3.511m1.2,10.772,1.676,2.048v7.527H48.289s-.239-5.266-.239-5.9.239-2.9.239-2.9m.372,9.947L43,188.167l1.622,1.144,4.016.638" transform="translate(-1.949 -116.334)"/>
      <path id="Path_3013" data-name="Path 3013" d="M167.789,251.172l4.654-.133,1.144,11.543-4.761.638-1.037-12.049" transform="translate(-101.741 -180.828)" fill="#1a1a1a"/>
      <path id="Path_3014" data-name="Path 3014" d="M172.453,181.885l7.021-.373s2.9-7.287,2.9-7.66,2.5-10.559,2.5-10.559l-5.665-5.9-1.144-1.011-3.005,3.005V171.06l-2.606,10.825" transform="translate(-105.155 -111.542)"/>
      <path id="Path_3015" data-name="Path 3015" d="M172.177,181.08l-4.388.878.639,3.511c1.622.745,4.388-1.25,4.388-1.25m-.506-25.134,8.8,6.543.239-3.006-6.649-6.144-2.394,2.606" transform="translate(-101.741 -111.614)"/>
      <path id="Path_3016" data-name="Path 3016" d="M100.669,276.2l-2.606-10.559-1.3-7.793-.213-5.772,11.782-.638h7.314l-.665,13.192,1.143,10.186-.133,1.888-9.548.745-5.771-1.25" transform="translate(-49.594 -181.119)"/>
      <path id="Path_3017" data-name="Path 3017" d="M139.8,249s-.638,13.059,1.25,22.368a23.825,23.825,0,0,1-9.282,3.005l10.559-.372,1.25-.745-1.516-20.586-.4-4.415" transform="translate(-75.377 -178.794)" fill="#16191a"/>
      <path id="Path_3018" data-name="Path 3018" d="M186.483,252.3l4.894-1.383,9.282-.505,1.383-4.282-2.5-7.421-2.9-.372-4.016,1.25-3.83,1.888-2.048-.373-1.6.638" transform="translate(-114.451 -171.532)"/>
      <path id="Path_3019" data-name="Path 3019" d="M189.817,256.6s3.271-1.516,3.777-1.383l-1.383-6.915,1.622-.638s1.144,6.543,1.144,7.288c0,0,7.021.372,7.66.372a11.435,11.435,0,0,0,1.144-5.9l1.383,4.016.133,2.261-2.021,3.005-2.261.506-3.777-.133-1.25-1.622-4.388.638-1.383.506" transform="translate(-117.864 -178.359)" fill="#1c1c1c"/>
      <path id="Path_3020" data-name="Path 3020" d="M155.891,212.467l-2.766-7.021-2.9-4.149s.638-1.755,1.516-1.755h2.9l2.766,1.011-.24,4.655-1.277,7.261" transform="translate(-88.886 -143.134)" fill="#16191a"/>
      <path id="Path_3021" data-name="Path 3021" d="M155.942,209.275s-3.511-6.782-3.511-7.793c0,0,.638-1.516,1.516-1.143s2.766,1.383,2.766,1.383v-2.394l-4.282-.878-2.9.372,4.894,11.6,1.011.133" transform="translate(-88.377 -142.336)" fill="#16191a"/>
      <path id="Path_3022" data-name="Path 3022" d="M97.646,173.24l-3.484-.373-3.272-1.011V173l1.6,1.755,5.027,2.261" transform="translate(-45.454 -122.871)"/>
      <path id="Path_3023" data-name="Path 3023" d="M94.213,178.406s3.883,1.622,5.16,1.25l.133,1.516-3.511-.745-2.128-1.516.346-.505" transform="translate(-47.634 -127.664)"/>
      <path id="Path_3024" data-name="Path 3024" d="M173.047,182.119a23.222,23.222,0,0,1-5.745-.8,13.133,13.133,0,0,1,.08-1.862,4.388,4.388,0,0,1,1.968-.425,3.4,3.4,0,0,0-2.181-.239,3.614,3.614,0,0,0-.373-1.144c1.2-.426,4.016-3.218,5.612-2.314.771.452,1.091,2.952,1.144,4.2a4.4,4.4,0,0,1-.505,2.58" transform="translate(-101.014 -125.287)" fill="#d33833"/>
      <path id="Path_3025" data-name="Path 3025" d="M173.047,182.119a23.222,23.222,0,0,1-5.745-.8,13.133,13.133,0,0,1,.08-1.862,4.388,4.388,0,0,1,1.968-.425,3.4,3.4,0,0,0-2.181-.239,3.614,3.614,0,0,0-.373-1.144c1.2-.426,4.016-3.218,5.612-2.314.771.452,1.091,2.952,1.144,4.2A4.4,4.4,0,0,1,173.047,182.119Z" transform="translate(-101.014 -125.287)" stroke="#000" stroke-width="2"/>
      <path id="Path_3026" data-name="Path 3026" d="M126.637,180.05a2.866,2.866,0,0,1-.027.479c-.665.426-1.729.426-2.474.8a6.971,6.971,0,0,1,2.66.665c-.027.4-.027.825-.053,1.224-1.224.825-2.341,2.075-3.777,2.872-.692.373-3.059,1.33-3.777,1.144-.4-.106-.452-.612-.612-1.09a15.794,15.794,0,0,1-1.224-4.2c-.08-1.941-.292-5.213,1.809-4.814a18.341,18.341,0,0,1,4.974,1.809,5.051,5.051,0,0,0,2.5,1.117" transform="translate(-64.791 -126.702)" fill="#d33833"/>
      <path id="Path_3027" data-name="Path 3027" d="M126.637,180.05a2.866,2.866,0,0,1-.027.479c-.665.426-1.729.426-2.474.8a6.971,6.971,0,0,1,2.66.665c-.027.4-.027.825-.053,1.224-1.224.825-2.341,2.075-3.777,2.872-.692.373-3.059,1.33-3.777,1.144-.4-.106-.452-.612-.612-1.09a15.794,15.794,0,0,1-1.224-4.2c-.08-1.941-.292-5.213,1.809-4.814a18.341,18.341,0,0,1,4.974,1.809A5.051,5.051,0,0,0,126.637,180.05Z" transform="translate(-64.791 -126.702)" stroke="#000" stroke-width="2"/>
      <path id="Path_3028" data-name="Path 3028" d="M155.658,189.367a7.275,7.275,0,0,1-.319-2.288c2.846-1.888,3.351,3.245.319,2.288" transform="translate(-92.615 -133.705)" fill="#d33833"/>
      <path id="Path_3029" data-name="Path 3029" d="M155.658,189.367a7.275,7.275,0,0,1-.319-2.288c2.846-1.888,3.351,3.245.319,2.288Z" transform="translate(-92.615 -133.705)" stroke="#000" stroke-width="2"/>
      <path id="Path_3030" data-name="Path 3030" d="M129.437,179.312s-.878-1.25-.239-1.622,1.25,0,1.622-.638,0-1.011.133-1.755.745-.878,1.383-1.011,2.394-.373,2.633.239l-.745-2.261-1.516-.505-4.761,2.766-.239,1.383v2.766m-11.463,4.787c-.159-1.968-.319-3.91-.479-5.878-.266-2.925.692-2.42,3.245-2.42a6.551,6.551,0,0,1,2.527.745c.692,1.409-1.144,1.09.8,2.154,1.622.878,4.522-.532,3.857-2.527-.373-.452-1.915-.133-2.474-.426l-2.952-1.516c-1.25-.638-4.123-1.6-5.452-.692-3.378,2.287.213,8.032,1.41,10.426" transform="translate(-62.299 -122.798)"/>
      <path id="Path_3031" data-name="Path 3031" d="M77.306,43.884c-3.431-.8-5.133,1.436-6.17,3.75-.931-.213-.559-1.489-.319-2.127.611-1.676,3.085-3.937,5.106-3.617.851.106,2.021.9,1.383,1.995m16.676,3.883h.159a35.992,35.992,0,0,0,2.42,4.734c-.665,1.543-4.947,2.872-4.894.159.931-.4,2.527-.08,3.351-.612a9.33,9.33,0,0,1-1.037-4.282m-14.947.053c.745,1.356.984,2.766,2.021,3.777.479.452,1.383,1.011.931,2.287a2.927,2.927,0,0,1-1.33,1.091c-1.622.479-5.426.106-4.149-1.942,1.356.053,3.165.878,4.176-.106-.771-1.223-2.155-3.67-1.649-5.106M93.37,61.491c-2.447,1.569-5.187,3.3-9.229,2.9a2.722,2.722,0,0,1-.346-3.511c.425.745.159,2.128,1.383,2.34,2.287.4,4.947-1.41,6.6-2.021,1.011-1.729-.08-2.341-1.011-3.458-1.888-2.261-4.388-5.08-4.309-8.458.771-.559.825.851.931,1.09.984,2.287,3.458,5.239,5.239,7.208.452.479,1.17.957,1.25,1.277.239.9-.612,2.021-.505,2.633m-32.4-1.649c-.771-.452-.957-2.367-1.862-2.42-1.3-.08-1.064,2.5-1.064,4.016-.878-.8-1.037-3.3-.4-4.574-.745-.373-1.064.4-1.49.665.559-3.856,5.665-1.782,4.814,2.314m33.938,3.271c-1.144,2.181-2.766,4.575-6.117,4.655a7.611,7.611,0,0,1,0-2.208c2.58-.266,4.176-1.569,6.117-2.447m-16.065,1.41c2.128,1.117,6.064,1.25,8.99,1.17A9.7,9.7,0,0,1,88,67.9c-3.75.159-8.165-.771-9.149-3.378m-.4,2.075c1.489,3.723,6.569,3.3,10.851,3.192a2.153,2.153,0,0,1-1.117,1.25c-1.383.559-5.16.984-7.075-.027-1.2-.638-1.995-2.1-2.66-2.952-.293-.4-1.888-1.436,0-1.463" transform="translate(-20.035 -27.718)" fill="#16191a"/>
      <path id="Path_3032" data-name="Path 3032" d="M179.394,206.027a74.4,74.4,0,0,1-5.452,8.644,42.333,42.333,0,0,0,1.356-10.027,3.151,3.151,0,0,1,4.1,1.383" transform="translate(-106.244 -146.642)"/>
      <path id="Path_3033" data-name="Path 3033" d="M214.875,250.543c-1.941.4-3.3,2.287-5.213,2.154,1.064-1.463,2.872-2.1,5.213-2.154m.851,3.032a29.278,29.278,0,0,1-5.053.293c.771-1.17,3.7-.745,5.053-.293m.559,2.633c-1.782.027-3.99,0-5.692-.133,1.011-1.09,4.548-.4,5.692.133" transform="translate(-132.39 -180.465)" fill="#16191a"/>
      <path id="Path_3034" data-name="Path 3034" d="M175.932,298.383c.266,2.234,1.144,4.5,1.037,6.942a7.524,7.524,0,0,1-2.873.612c-.08-2.075-.372-5.266-.292-7.261.638.053,1.6-.452,2.128-.293" transform="translate(-106.134 -215.459)" fill="#dcd9d8"/>
      <path id="Path_3035" data-name="Path 3035" d="M152.326,175.429c-.9.585-1.649,1.3-2.527,1.941a5.456,5.456,0,0,1-4.335-1.223c.027-.08.159-.053.159-.16,2.048.9,4.654-.372,6.7-.559" transform="translate(-85.4 -125.485)"/>
      <path id="Path_3036" data-name="Path 3036" d="M131.175,213.6c.559-2.42,2.766-3.7,4.761-5.027,2.048,2.606,3.3,5.958,4.681,9.2a47.125,47.125,0,0,1-9.442-4.176" transform="translate(-74.941 -149.744)"/>
      <path id="Path_3037" data-name="Path 3037" d="M66.545,80.539c-.08,1.995.186,5.16.292,7.261a7.52,7.52,0,0,0,2.873-.612c.106-2.447-.771-4.708-1.037-6.942C68.141,80.06,67.183,80.565,66.545,80.539ZM46.012,69.262a104.277,104.277,0,0,0,4.442,21.809,28.767,28.767,0,0,0,15.852.292c-.825-3.989-.479-8.857-.957-13.139-.373-3.218-.186-6.436-.692-9.708C59.151,67.374,51.385,68.251,46.012,69.262ZM65.96,68.57c-.053,3.431.159,6.835.426,10.266a32.764,32.764,0,0,0,3.431-.612c-.4-3.3-.346-7.048-1.17-9.974a8.461,8.461,0,0,0-2.686.319Zm6.676-.559a9.471,9.471,0,0,0-1.941,0c.292,2.793.957,5.878,1.2,8.83.931.027,1.436-.426,2.208-.559.053-2.58-.213-6.144-1.463-8.272Zm10.133,9.256c1.968-.479,3.192-2.872,2.633-5.346-.372-1.649-1.011-4.787-1.729-5.851-.505-.771-1.915-1.809-3.058-1.09-1.835,1.17-5.053,1.516-6.383,2.926a46.6,46.6,0,0,1,1.143,8.085c2.287.133,5.08-.638,7,.186-1.33.426-3.032.426-4.176,1.064a8.811,8.811,0,0,0,4.575.027ZM64.524,65.325c-1.383-3.245-2.633-6.6-4.681-9.2-1.995,1.33-4.176,2.606-4.761,5.027a48.506,48.506,0,0,0,9.442,4.176Zm3.4-10.027a42.306,42.306,0,0,1-1.356,10.027,76.683,76.683,0,0,0,5.452-8.644,3.152,3.152,0,0,0-4.1-1.383Zm-3.856-1.356c-.771-.08-1.436.9-2.447.478-.239.266-.452.532-.692.8,2.234,2.713,3.272,6.543,5,9.708.931-3.058.825-6.383,1.037-9.708-1.277.053-1.995-1.2-2.9-1.277ZM61.6,50.671a7.282,7.282,0,0,0,.319,2.288C64.949,53.916,64.444,48.782,61.6,50.671ZM58.22,49.554a18.319,18.319,0,0,0-4.974-1.808c-2.1-.4-1.888,2.872-1.809,4.814a16.1,16.1,0,0,0,1.224,4.2c.159.479.213.984.612,1.09.718.16,3.112-.771,3.777-1.144a39.014,39.014,0,0,0,3.777-2.872c.027-.4.027-.825.053-1.223a6.4,6.4,0,0,0-2.66-.665c.718-.373,1.809-.373,2.474-.8a2.872,2.872,0,0,1,.027-.479,5.566,5.566,0,0,1-2.5-1.117Zm-12.5-2.261c-1.09,1.117,3.058,2.606,4.362,2.686,0-.692.4-1.356.319-1.862-1.569-.266-3.617-.08-4.681-.825Zm13.4.505c0,.106-.133.08-.16.16A5.515,5.515,0,0,0,63.3,49.181c.851-.612,1.622-1.356,2.527-1.942-2.075.186-4.681,1.463-6.7.559Zm12.288,3.724c-.053-1.224-.373-3.75-1.144-4.2-1.6-.931-4.415,1.888-5.612,2.314a3.613,3.613,0,0,1,.372,1.143,3.383,3.383,0,0,1,2.181.239,4.392,4.392,0,0,0-1.968.426c-.16.505.053,1.17-.08,1.862a24.533,24.533,0,0,0,5.745.8A4.307,4.307,0,0,0,71.412,51.522ZM43.884,48.357c-.346-.239-2.66-3.245-2.979-3.112-4.176,1.649-8.085,4.5-11.57,7.208,3.325,7.155,4.681,15.905,4.921,24.336,3.8,1.782,7.154,4.362,12.341,4.628-.612-4.229-1.143-8.032-1.489-12.022-1.3-.558-3.165.027-4.388-.159,0-1.463,1.862-.638,2.021-1.622.107-.745-1.037-.8-.665-1.968.957.346,1.463,1.117,2.474,1.41.931-2.021,0-5.612.133-7.314.027-.319.159-1.755.878-1.516.638.213-.027,3.857.027,5.452.053,1.49-.186,2.9.425,3.83A142.827,142.827,0,0,1,61.518,66.23a34.584,34.584,0,0,1-4.149-1.862c-.851-.479-3.484-1.463-3.723-2.261-.4-1.277,1.011-1.941,1.25-3.032-2.527,1.383-3.005-1.33-3.617-3.218a26.525,26.525,0,0,1-.984-4.016,50.432,50.432,0,0,1-6.41-3.484ZM69.2,45.591c3.484-1.675,4.123,6.3,2.739,8.884.213.771.931,1.064,1.224,1.755-1.942,3.484-4.1,6.729-6.091,10.16,1.463-.931,3.591-.159,5.319-.851.638-.239,1.091-1.7,1.569-2.872A61.365,61.365,0,0,0,77.29,52.4a12.09,12.09,0,0,0,.425-2.82c-.159-1.117-1.649-1.941-2.42-2.606-1.409-1.277-2.287-2.367-3.777-3.564-.558.878-1.835,1.463-2.314,2.181ZM35.932,14.712c-1.649,1.835-1.3,5.24-1.117,7.686,3.005-1.888,6.968.16,6.942,3.351,1.436-.027.532-1.782.266-2.926-.851-3.7,1.436-7.686.106-11.064a9.042,9.042,0,0,0-6.2,2.952ZM47.794,4.1c-3.75,1.064-8.564,3.8-10.107,7.181,1.2-.186,2.021-.771,3.192-.851a7.357,7.357,0,0,0,1.543.053c1.011-.266,1.888-2.553,2.66-3.4.745-.825,1.649-1.2,2.261-1.941.4-.186.984-.186,1.011-.771a.577.577,0,0,0-.559-.266ZM67.343,5.11C63.433,2.9,56.837,1.254,52.688,3.328,49.337,5,44.816,7.77,43.273,11.254c1.436,3.377-.425,6.463-.559,9.894-.053,1.835.851,3.4.931,5.4-.505.825-1.995.9-3.032.851-.346-1.756-.957-3.724-2.766-3.937A4.187,4.187,0,0,0,33.3,27.505c-.133,2.606,1.995,6.915,5.027,6.623,1.17-.106,1.463-1.277,2.739-1.277.692,1.383-1.064,1.809-1.25,2.793a6.677,6.677,0,0,0,.266,1.729,24.025,24.025,0,0,0,2.979,6.942c1.543,2.207,4.548,2.527,7.793,2.739.585-1.25,2.713-1.144,4.1-.825a13.688,13.688,0,0,1-4.495-3.67c-1.463-1.622-2.952-3.351-3.032-5.479,2.793,3.856,5.08,7.234,10.133,8.937,3.83,1.276,8.3-.585,11.25-2.66A13.282,13.282,0,0,0,71.625,39.9c3.245-4.681,4.761-11.33,4.442-17.793-.133-2.66-.133-5.319-1.037-7.1-.931-1.862-4.1-3.564-5.958-1.862-.346-1.835,1.543-2.952,3.75-2.287C71.253,8.808,69.6,6.387,67.343,5.11ZM74.63,65.246c3.059-1.516,8.75-4.069,10.639,0a31.639,31.639,0,0,1,1.888,5.612c.505,2.181-.559,6.809-2.819,7.527a13.5,13.5,0,0,1-6.7.133,3.88,3.88,0,0,1-.825-1.064,9.176,9.176,0,0,0-4.655.8c.133,1.276-.718,1.463-1.543,1.729-.585,2.367,1.2,5.452.771,7.58-.293,1.543-2.181,1.782-3.564,2.048a10.407,10.407,0,0,0,.159,2.287c-.319,1.17-1.729,1.835-3.085,1.995-4.442.532-11.171.771-15.426-.771-1.2-2.925-2.128-6.463-3.112-9.787-4.149.452-7.527-1.782-10.692-3.271-1.09-.505-2.606-.8-3.032-1.676-.4-.851-.239-2.474-.346-3.99A61.314,61.314,0,0,0,30.8,62.719c-.452-1.809-1.277-3.378-1.835-5.106a35.634,35.634,0,0,1-1.676-5.187c-.346-2.367,1.888-2.5,3.3-3.537,2.208-1.6,3.936-2.474,6.33-3.91.718-.425,2.846-1.489,3.085-1.995.479-.984-.824-2.367-1.17-3.138a9.456,9.456,0,0,1-.931-3.458,6.7,6.7,0,0,1-4.442-2.846c-1.516-2.234-2.58-6.357-1.25-9.468.106-.239.612-.745.692-1.117a12.18,12.18,0,0,0-.319-2.527c-.133-4.069.692-7.58,3.431-8.8,1.117-4.442,5.106-5.9,8.857-8.112a27.877,27.877,0,0,1,4.548-1.942c5.718-2.1,14.522-1.7,19.283,1.888,2.021,1.516,5.239,4.734,6.383,7.075,3.058,6.144,2.819,16.437.692,23.937a24.609,24.609,0,0,1-1.277,3.7c-.4.851-1.649,2.527-1.516,3.271.16.771,2.873,2.819,3.458,3.378,1.037,1.011,3.032,2.341,3.191,3.617.186,1.356-.585,3.218-.984,4.521-1.277,4.362-2.553,8.378-4.016,12.288Z" transform="translate(1.125 2.704)" fill="#16191a"/>
      <path id="Path_3038" data-name="Path 3038" d="M127.863,129.089c.159-.213,1.064-.558,2.34.053,0,0-1.516.239-1.383,2.766l-.638-.133c.027.027-.638-2.261-.319-2.686" transform="translate(-72.453 -91.353)" fill="#16191a"/>
      <path id="Path_3039" data-name="Path 3039" d="M165.4,208.568a.692.692,0,1,1-.692-.692.687.687,0,0,1,.692.692m.692,3.218a.692.692,0,1,1-.692-.692.671.671,0,0,1,.692.692" transform="translate(-98.981 -149.235)" fill="#1d1919"/>
    </g>
  </g>
</svg>
