<svg xmlns="http://www.w3.org/2000/svg" xmlns:xlink="http://www.w3.org/1999/xlink" width="330" height="400" viewBox="0 0 330 400">
  <defs>
    <linearGradient id="linear-gradient" x1="0.5" y1="1.144" x2="0.5" gradientUnits="objectBoundingBox">
      <stop offset="0"/>
      <stop offset="0.33" stop-color="#1c1c1c" stop-opacity="0.718"/>
      <stop offset="1" stop-color="#515151" stop-opacity="0.176"/>
      <stop offset="1" stop-color="#545454" stop-opacity="0.149"/>
    </linearGradient>
  </defs>
  <g id="Group_3540" data-name="Group 3540" transform="translate(-7367 -2097)">
    <rect id="Rectangle_873" data-name="Rectangle 873" width="330" height="400" rx="30" transform="translate(7367 2097)" fill="#0d0f10"/>
    <g id="logo" transform="translate(7399 2188.7)">
      <circle id="Ellipse_711" data-name="Ellipse 711" cx="2.728" cy="2.728" r="2.728" transform="translate(128.071 18.447)" fill="#fff"/>
      <circle id="Ellipse_712" data-name="Ellipse 712" cx="2.728" cy="2.728" r="2.728" transform="translate(166.915 62.855)" fill="#fff"/>
      <circle id="Ellipse_713" data-name="Ellipse 713" cx="2.728" cy="2.728" r="2.728" transform="translate(149.13 200.226)" fill="#fff"/>
      <circle id="Ellipse_714" data-name="Ellipse 714" cx="2.728" cy="2.728" r="2.728" transform="translate(122.834 202.844)" fill="#fff"/>
      <rect id="Rectangle_750" data-name="Rectangle 750" width="0.982" height="42.881" transform="translate(196.266 48.344)" fill="#fff"/>
      <rect id="Rectangle_751" data-name="Rectangle 751" width="0.982" height="27.059" transform="translate(205.758 93.734)" fill="#fff"/>
      <rect id="Rectangle_752" data-name="Rectangle 752" width="0.982" height="21.604" transform="translate(215.033 99.844)" fill="#fff"/>
      <rect id="Rectangle_753" data-name="Rectangle 753" width="0.982" height="36.116" transform="translate(222.67 92.206)" fill="#fff"/>
      <rect id="Rectangle_754" data-name="Rectangle 754" width="0.982" height="15.057" transform="translate(177.171 84.568)" fill="#fff"/>
      <rect id="Rectangle_755" data-name="Rectangle 755" width="0.982" height="10.147" transform="translate(184.591 77.804)" fill="#fff"/>
      <rect id="Rectangle_756" data-name="Rectangle 756" width="0.982" height="38.298" transform="translate(187.864 36.451)" fill="#fff"/>
      <rect id="Rectangle_757" data-name="Rectangle 757" width="0.982" height="16.585" transform="translate(154.149 93.843)" fill="#fff"/>
      <rect id="Rectangle_758" data-name="Rectangle 758" width="0.982" height="10.802" transform="translate(140.074 13.319)" fill="#fff"/>
      <rect id="Rectangle_759" data-name="Rectangle 759" width="0.982" height="14.621" transform="translate(134.509 29.686)" fill="#fff"/>
      <rect id="Rectangle_760" data-name="Rectangle 760" width="0.982" height="4.91" transform="translate(174.334 29.031)" fill="#fff"/>
      <rect id="Rectangle_761" data-name="Rectangle 761" width="0.982" height="21.167" transform="translate(164.951 89.042)" fill="#fff"/>
      <g id="Group_3520" data-name="Group 3520" transform="translate(138.001 90.788)">
        <circle id="Ellipse_715" data-name="Ellipse 715" cx="2.728" cy="2.728" r="2.728" fill="#fff"/>
        <rect id="Rectangle_762" data-name="Rectangle 762" width="0.982" height="36.989" transform="translate(2.182 5.019)" fill="#fff"/>
      </g>
      <rect id="Rectangle_763" data-name="Rectangle 763" width="0.982" height="45.499" transform="translate(120.106 96.461)" fill="#fff"/>
      <rect id="Rectangle_764" data-name="Rectangle 764" width="0.982" height="43.863" transform="translate(109.741 100.28)" fill="#fff"/>
      <rect id="Rectangle_765" data-name="Rectangle 765" width="0.982" height="48.227" transform="translate(100.248 72.784)" fill="#fff"/>
      <rect id="Rectangle_766" data-name="Rectangle 766" width="0.982" height="24.877" transform="translate(92.61 66.783)" fill="#fff"/>
      <rect id="Rectangle_767" data-name="Rectangle 767" width="0.982" height="12.766" transform="translate(109.246 63.757) rotate(45)" fill="#fff"/>
      <rect id="Rectangle_768" data-name="Rectangle 768" width="0.982" height="58.483" transform="translate(82.136 64.492)" fill="#fff"/>
      <rect id="Rectangle_769" data-name="Rectangle 769" width="0.982" height="18.549" transform="translate(60.859 48.453)" fill="#fff"/>
      <rect id="Rectangle_770" data-name="Rectangle 770" width="0.982" height="7.965" transform="matrix(0.809, 0.588, -0.588, 0.809, 65.618, 41.97)" fill="#fff"/>
      <rect id="Rectangle_771" data-name="Rectangle 771" width="0.982" height="6.547" transform="matrix(0.652, 0.758, -0.758, 0.652, 76.525, 45.574)" fill="#fff"/>
      <rect id="Rectangle_772" data-name="Rectangle 772" width="0.982" height="34.588" transform="translate(37.291 98.753)" fill="#fff"/>
      <rect id="Rectangle_773" data-name="Rectangle 773" width="0.982" height="14.294" transform="translate(47.657 129.849)" fill="#fff"/>
      <rect id="Rectangle_774" data-name="Rectangle 774" width="0.982" height="11.566" transform="translate(73.734 59.691)" fill="#fff"/>
      <rect id="Rectangle_775" data-name="Rectangle 775" width="0.982" height="7.092" transform="translate(47.439 104.317)" fill="#fff"/>
      <rect id="Rectangle_776" data-name="Rectangle 776" width="0.982" height="7.747" transform="matrix(0.732, -0.682, 0.682, 0.732, 48.848, 72.106)" fill="#fff"/>
      <rect id="Rectangle_777" data-name="Rectangle 777" width="0.982" height="30.878" transform="translate(151.312 169.784)" fill="#fff"/>
      <rect id="Rectangle_778" data-name="Rectangle 778" width="0.982" height="24.332" transform="translate(164.405 174.585)" fill="#fff"/>
      <rect id="Rectangle_779" data-name="Rectangle 779" width="0.982" height="22.149" transform="matrix(0.678, -0.735, 0.735, 0.678, 172.007, 177.16)" fill="#fff"/>
      <rect id="Rectangle_780" data-name="Rectangle 780" width="0.982" height="21.931" transform="translate(98.83 175.567)" fill="#fff"/>
      <rect id="Rectangle_781" data-name="Rectangle 781" width="0.982" height="22.149" transform="translate(99.812 139.124)" fill="#fff"/>
      <rect id="Rectangle_782" data-name="Rectangle 782" width="0.982" height="21.277" transform="translate(92.61 107.591)" fill="#fff"/>
      <rect id="Rectangle_783" data-name="Rectangle 783" width="0.982" height="22.804" transform="translate(122.398 16.374)" fill="#fff"/>
      <rect id="Rectangle_784" data-name="Rectangle 784" width="0.982" height="16.585" transform="translate(112.905 18.884)" fill="#fff"/>
      <rect id="Rectangle_785" data-name="Rectangle 785" width="0.982" height="18.112" transform="translate(74.935 159.309)" fill="#fff"/>
      <rect id="Rectangle_786" data-name="Rectangle 786" width="0.982" height="11.457" transform="translate(113.887 160.837)" fill="#fff"/>
      <rect id="Rectangle_787" data-name="Rectangle 787" width="0.982" height="10.038" transform="translate(54.64 153.199)" fill="#fff"/>
      <rect id="Rectangle_788" data-name="Rectangle 788" width="0.982" height="9.82" transform="matrix(0.669, -0.743, 0.743, 0.669, 54.629, 163.154)" fill="#fff"/>
      <rect id="Rectangle_789" data-name="Rectangle 789" width="0.982" height="11.893" transform="translate(73.734 122.975)" fill="#fff"/>
      <rect id="Rectangle_790" data-name="Rectangle 790" width="0.982" height="10.802" transform="matrix(0.719, 0.695, -0.695, 0.719, 72.281, 106.635)" fill="#fff"/>
      <rect id="Rectangle_791" data-name="Rectangle 791" width="0.982" height="19.313" transform="matrix(0.719, 0.695, -0.695, 0.719, 72.627, 91.502)" fill="#fff"/>
      <rect id="Rectangle_792" data-name="Rectangle 792" width="0.982" height="12.002" transform="translate(65.446 83.682) rotate(43.379)" fill="#fff"/>
      <rect id="Rectangle_793" data-name="Rectangle 793" width="0.982" height="25.095" transform="translate(99.503 46.493) rotate(44.25)" fill="#fff"/>
      <rect id="Rectangle_794" data-name="Rectangle 794" width="0.982" height="18.985" transform="matrix(0.774, 0.633, -0.633, 0.774, 85.816, 45.073)" fill="#fff"/>
      <rect id="Rectangle_795" data-name="Rectangle 795" width="0.982" height="17.458" transform="translate(105.349 54.653) rotate(46.378)" fill="#fff"/>
      <rect id="Rectangle_796" data-name="Rectangle 796" width="0.982" height="5.783" transform="translate(61.405 127.122)" fill="#fff"/>
      <rect id="Rectangle_797" data-name="Rectangle 797" width="0.982" height="21.713" transform="translate(47.452 111.453) rotate(-41.018)" fill="#fff"/>
      <rect id="Rectangle_798" data-name="Rectangle 798" width="0.982" height="14.184" transform="translate(172.043 163.019)" fill="#fff"/>
      <rect id="Rectangle_799" data-name="Rectangle 799" width="0.982" height="9.82" transform="translate(84.427 165.529)" fill="#fff"/>
      <rect id="Rectangle_800" data-name="Rectangle 800" width="0.982" height="7.201" transform="matrix(0.797, -0.605, 0.605, 0.797, 84.414, 175.364)" fill="#fff"/>
      <rect id="Rectangle_801" data-name="Rectangle 801" width="0.982" height="6.328" transform="matrix(0.692, -0.722, 0.722, 0.692, 94.464, 171.785)" fill="#fff"/>
      <rect id="Rectangle_802" data-name="Rectangle 802" width="0.982" height="16.585" transform="translate(85.627 29.031)" fill="#fff"/>
      <rect id="Rectangle_803" data-name="Rectangle 803" width="0.982" height="9.711" transform="translate(76.135 36.56)" fill="#fff"/>
      <rect id="Rectangle_804" data-name="Rectangle 804" width="0.982" height="11.457" transform="translate(105.922 21.066)" fill="#fff"/>
      <rect id="Rectangle_805" data-name="Rectangle 805" width="0.982" height="4.692" transform="translate(102.876 18.427) rotate(-45)" fill="#fff"/>
      <rect id="Rectangle_806" data-name="Rectangle 806" width="0.982" height="14.184" transform="translate(144.547 173.93)" fill="#fff"/>
      <rect id="Rectangle_807" data-name="Rectangle 807" width="0.982" height="10.366" transform="translate(144.873 187.466) rotate(45)" fill="#fff"/>
      <rect id="Rectangle_808" data-name="Rectangle 808" width="0.982" height="9.602" transform="translate(138.179 167.616) rotate(-43.663)" fill="#fff"/>
      <rect id="Rectangle_809" data-name="Rectangle 809" width="0.982" height="12.002" transform="translate(215.469 134.868)" fill="#fff"/>
      <rect id="Rectangle_810" data-name="Rectangle 810" width="0.982" height="7.529" transform="translate(211.869 162.91)" fill="#fff"/>
      <rect id="Rectangle_811" data-name="Rectangle 811" width="0.982" height="6.219" transform="matrix(0.676, -0.737, 0.737, 0.676, 207.619, 159.37)" fill="#fff"/>
      <rect id="Rectangle_812" data-name="Rectangle 812" width="0.982" height="7.201" transform="translate(182.627 160.182)" fill="#fff"/>
      <rect id="Rectangle_813" data-name="Rectangle 813" width="0.982" height="6.874" transform="translate(182.648 167.365) rotate(-50.816)" fill="#fff"/>
      <rect id="Rectangle_814" data-name="Rectangle 814" width="0.982" height="8.947" transform="translate(176.953 181.568)" fill="#fff"/>
      <rect id="Rectangle_815" data-name="Rectangle 815" width="0.982" height="33.715" transform="translate(130.145 104.863)" fill="#fff"/>
      <rect id="Rectangle_816" data-name="Rectangle 816" width="0.982" height="20.404" transform="translate(206.086 56.745)" fill="#fff"/>
      <rect id="Rectangle_817" data-name="Rectangle 817" width="0.982" height="9.165" transform="translate(178.699 52.926)" fill="#fff"/>
      <rect id="Rectangle_818" data-name="Rectangle 818" width="3.819" height="0.982" transform="translate(135.055 166.947)" fill="#fff"/>
      <rect id="Rectangle_819" data-name="Rectangle 819" width="40.917" height="0.982" transform="translate(151.421 122.757)" fill="#fff"/>
      <rect id="Rectangle_820" data-name="Rectangle 820" width="32.406" height="0.982" transform="translate(111.596 82.932)" fill="#fff"/>
      <rect id="Rectangle_821" data-name="Rectangle 821" width="30.987" height="0.982" transform="translate(109.195 63.728)" fill="#fff"/>
      <rect id="Rectangle_822" data-name="Rectangle 822" width="26.623" height="0.982" transform="translate(116.287 73.003)" fill="#fff"/>
      <rect id="Rectangle_823" data-name="Rectangle 823" width="19.203" height="0.982" transform="translate(105.267 54.672)" fill="#fff"/>
      <rect id="Rectangle_824" data-name="Rectangle 824" width="26.187" height="0.982" transform="translate(155.895 132.141)" fill="#fff"/>
      <rect id="Rectangle_825" data-name="Rectangle 825" width="0.982" height="2.728" transform="translate(220.379 74.53)" fill="#fff"/>
      <rect id="Rectangle_826" data-name="Rectangle 826" width="8.511" height="0.982" transform="translate(180.117 113.265)" fill="#fff"/>
      <rect id="Rectangle_827" data-name="Rectangle 827" width="5.456" height="0.982" transform="translate(138.655 159.855)" fill="#fff"/>
      <rect id="Rectangle_828" data-name="Rectangle 828" width="16.803" height="0.982" transform="translate(144.111 150.908)" fill="#fff"/>
      <rect id="Rectangle_829" data-name="Rectangle 829" width="19.313" height="0.982" transform="matrix(0.723, 0.691, -0.691, 0.723, 130.795, 137.81)" fill="#fff"/>
      <rect id="Rectangle_830" data-name="Rectangle 830" width="9.711" height="0.982" transform="translate(187.868 113.598) rotate(-48.718)" fill="#fff"/>
      <rect id="Rectangle_831" data-name="Rectangle 831" width="22.695" height="0.982" transform="translate(205.735 93.767) rotate(-49.161)" fill="#fff"/>
      <rect id="Rectangle_832" data-name="Rectangle 832" width="15.276" height="0.982" transform="matrix(0.721, -0.693, 0.693, 0.721, 177.08, 84.556)" fill="#fff"/>
      <rect id="Rectangle_833" data-name="Rectangle 833" width="26.187" height="0.982" transform="translate(151.203 140.651)" fill="#fff"/>
      <rect id="Rectangle_834" data-name="Rectangle 834" width="14.075" height="0.982" transform="matrix(0.784, 0.621, -0.621, 0.784, 140.778, 132.113)" fill="#fff"/>
      <rect id="Rectangle_835" data-name="Rectangle 835" width="4.91" height="0.982" transform="translate(96.538 38.305)" fill="#fff"/>
      <rect id="Rectangle_836" data-name="Rectangle 836" width="4.692" height="0.982" transform="translate(99.594 46.489)" fill="#fff"/>
      <rect id="Rectangle_837" data-name="Rectangle 837" width="0.982" height="6.001" transform="translate(86.064 188.333)" fill="#fff"/>
      <rect id="Rectangle_838" data-name="Rectangle 838" width="0.982" height="16.148" transform="translate(74.949 177.465) rotate(-44.55)" fill="#fff"/>
      <rect id="Rectangle_839" data-name="Rectangle 839" width="3.819" height="0.982" transform="translate(61.95 168.693)" fill="#fff"/>
      <rect id="Rectangle_840" data-name="Rectangle 840" width="0.982" height="7.201" transform="translate(114.15 171.578) rotate(45)" fill="#fff"/>
      <rect id="Rectangle_841" data-name="Rectangle 841" width="0.982" height="16.367" transform="translate(123.816 159.2)" fill="#fff"/>
      <rect id="Rectangle_842" data-name="Rectangle 842" width="0.982" height="21.713" transform="matrix(0.722, 0.692, -0.692, 0.722, 124.178, 174.906)" fill="#fff"/>
      <rect id="Rectangle_843" data-name="Rectangle 843" width="0.982" height="30.551" transform="matrix(0.695, 0.719, -0.719, 0.695, 134.493, 179.752)" fill="#fff"/>
      <rect id="Rectangle_844" data-name="Rectangle 844" width="0.982" height="19.531" transform="matrix(0.695, -0.719, 0.719, 0.695, 181.415, 132.871)" fill="#fff"/>
      <rect id="Rectangle_845" data-name="Rectangle 845" width="0.982" height="12.33" transform="matrix(0.695, -0.719, 0.719, 0.695, 174.003, 152.31)" fill="#fff"/>
      <rect id="Rectangle_846" data-name="Rectangle 846" width="0.982" height="17.021" transform="translate(160.292 151.642) rotate(-45)" fill="#fff"/>
      <rect id="Rectangle_847" data-name="Rectangle 847" width="0.982" height="29.133" transform="translate(176.843 141.289) rotate(-45)" fill="#fff"/>
      <rect id="Rectangle_848" data-name="Rectangle 848" width="0.982" height="6.547" transform="matrix(0.695, -0.719, 0.719, 0.695, 99.887, 161.291)" fill="#fff"/>
      <rect id="Rectangle_849" data-name="Rectangle 849" width="0.982" height="5.565" transform="matrix(0.669, -0.743, 0.743, 0.669, 110.066, 157.732)" fill="#fff"/>
      <rect id="Rectangle_850" data-name="Rectangle 850" width="0.982" height="21.386" transform="matrix(0.74, -0.672, 0.672, 0.74, 109.692, 144.112)" fill="#fff"/>
      <rect id="Rectangle_851" data-name="Rectangle 851" width="0.982" height="26.514" transform="matrix(0.715, -0.699, 0.699, 0.715, 120.13, 141.904)" fill="#fff"/>
      <rect id="Rectangle_852" data-name="Rectangle 852" width="0.982" height="40.044" transform="matrix(0.704, 0.71, -0.71, 0.704, 92.781, 128.186)" fill="#fff"/>
      <rect id="Rectangle_853" data-name="Rectangle 853" width="0.982" height="20.949" transform="translate(89.773 144.585) rotate(45)" fill="#fff"/>
      <rect id="Rectangle_854" data-name="Rectangle 854" width="0.982" height="8.838" transform="matrix(0.772, 0.635, -0.635, 0.772, 89.98, 158.671)" fill="#fff"/>
      <rect id="Rectangle_855" data-name="Rectangle 855" width="0.982" height="10.038" transform="matrix(0.788, 0.616, -0.616, 0.788, 60.898, 145.266)" fill="#fff"/>
      <rect id="Rectangle_856" data-name="Rectangle 856" width="0.982" height="15.603" transform="translate(143.33 83.653) rotate(-45.365)" fill="#fff"/>
      <rect id="Rectangle_857" data-name="Rectangle 857" width="0.982" height="8.511" transform="translate(158.757 85.262) rotate(-48.99)" fill="#fff"/>
      <rect id="Rectangle_858" data-name="Rectangle 858" width="0.982" height="11.02" transform="matrix(0.951, 0.308, -0.308, 0.951, 167.979, 79.542)" fill="#fff"/>
      <rect id="Rectangle_859" data-name="Rectangle 859" width="0.982" height="5.456" transform="translate(172.301 76.152) rotate(51.741)" fill="#fff"/>
      <rect id="Rectangle_860" data-name="Rectangle 860" width="0.982" height="21.495" transform="translate(158.76 59.587) rotate(50.453)" fill="#fff"/>
      <rect id="Rectangle_861" data-name="Rectangle 861" width="0.982" height="24.55" transform="matrix(0.716, 0.698, -0.698, 0.716, 156.588, 46.487)" fill="#fff"/>
      <rect id="Rectangle_862" data-name="Rectangle 862" width="0.982" height="12.766" transform="matrix(0.716, 0.698, -0.698, 0.716, 144.743, 45.037)" fill="#fff"/>
      <rect id="Rectangle_863" data-name="Rectangle 863" width="0.982" height="6.001" transform="translate(122.631 38.604) rotate(36.407)" fill="#fff"/>
      <rect id="Rectangle_864" data-name="Rectangle 864" width="0.982" height="8.729" transform="translate(106.164 31.866) rotate(38.94)" fill="#fff"/>
      <rect id="Rectangle_865" data-name="Rectangle 865" width="0.982" height="15.712" transform="matrix(0.716, 0.698, -0.698, 0.716, 134.768, 43.695)" fill="#fff"/>
      <rect id="Rectangle_866" data-name="Rectangle 866" width="0.982" height="22.913" transform="translate(150.284 13.184) rotate(43.821)" fill="#fff"/>
      <rect id="Rectangle_867" data-name="Rectangle 867" width="0.982" height="4.474" transform="translate(177.836 26.364) rotate(53.192)" fill="#fff"/>
      <rect id="Rectangle_868" data-name="Rectangle 868" width="0.982" height="7.965" transform="translate(174.568 33.334) rotate(41.307)" fill="#fff"/>
      <circle id="Ellipse_716" data-name="Ellipse 716" cx="2.728" cy="2.728" r="2.728" transform="translate(127.853 100.389)" fill="#fff"/>
      <circle id="Ellipse_717" data-name="Ellipse 717" cx="2.728" cy="2.728" r="2.728" transform="translate(194.738 145.016)" fill="#fff"/>
      <circle id="Ellipse_718" data-name="Ellipse 718" cx="2.728" cy="2.728" r="2.728" transform="translate(189.173 180.477)" fill="#fff"/>
      <circle id="Ellipse_719" data-name="Ellipse 719" cx="2.728" cy="2.728" r="2.728" transform="translate(176.517 23.357)" fill="#fff"/>
      <circle id="Ellipse_720" data-name="Ellipse 720" cx="2.728" cy="2.728" r="2.728" transform="translate(176.517 48.125)" fill="#fff"/>
      <circle id="Ellipse_721" data-name="Ellipse 721" cx="2.728" cy="2.728" r="2.728" transform="translate(160.041 18.666)" fill="#fff"/>
      <circle id="Ellipse_722" data-name="Ellipse 722" cx="2.728" cy="2.728" r="2.728" transform="translate(166.915 53.145)" fill="#fff"/>
      <circle id="Ellipse_723" data-name="Ellipse 723" cx="2.728" cy="2.728" r="2.728" transform="translate(156.877 56.636)" fill="#fff"/>
      <circle id="Ellipse_724" data-name="Ellipse 724" cx="2.728" cy="2.728" r="2.728" transform="translate(151.858 109.773)" fill="#fff"/>
      <circle id="Ellipse_725" data-name="Ellipse 725" cx="2.728" cy="2.728" r="2.728" transform="translate(155.676 42.561)" fill="#fff"/>
      <circle id="Ellipse_726" data-name="Ellipse 726" cx="2.728" cy="2.728" r="2.728" transform="translate(176.517 61.655)" fill="#fff"/>
      <circle id="Ellipse_727" data-name="Ellipse 727" cx="2.728" cy="2.728" r="2.728" transform="translate(171.607 72.566)" fill="#fff"/>
      <circle id="Ellipse_728" data-name="Ellipse 728" cx="2.728" cy="2.728" r="2.728" transform="translate(174.88 99.189)" fill="#fff"/>
      <circle id="Ellipse_729" data-name="Ellipse 729" cx="2.728" cy="2.728" r="2.728" transform="translate(174.771 111.191)" fill="#fff"/>
      <circle id="Ellipse_730" data-name="Ellipse 730" cx="2.728" cy="2.728" r="2.728" transform="translate(162.769 109.664)" fill="#fff"/>
      <circle id="Ellipse_731" data-name="Ellipse 731" cx="2.728" cy="2.728" r="2.728" transform="translate(182.299 87.296)" fill="#fff"/>
      <circle id="Ellipse_732" data-name="Ellipse 732" cx="2.728" cy="2.728" r="2.728" transform="translate(193.32 102.135)" fill="#fff"/>
      <circle id="Ellipse_733" data-name="Ellipse 733" cx="2.728" cy="2.728" r="2.728" transform="translate(154.476 70.711)" fill="#fff"/>
      <circle id="Ellipse_734" data-name="Ellipse 734" cx="2.728" cy="2.728" r="2.728" transform="translate(154.476 80.75)" fill="#fff"/>
      <g id="Group_3521" data-name="Group 3521" transform="translate(144.425 24.012)">
        <rect id="Rectangle_869" data-name="Rectangle 869" width="0.982" height="12.875" transform="translate(0.013 8.838)" fill="#fff"/>
        <rect id="Rectangle_870" data-name="Rectangle 870" width="0.982" height="7.529" transform="translate(5.324 3.474) rotate(45)" fill="#fff"/>
        <circle id="Ellipse_735" data-name="Ellipse 735" cx="2.728" cy="2.728" r="2.728" transform="translate(4.923)" fill="#fff"/>
      </g>
      <circle id="Ellipse_736" data-name="Ellipse 736" cx="2.728" cy="2.728" r="2.728" transform="translate(157.095 29.686)" fill="#fff"/>
      <circle id="Ellipse_737" data-name="Ellipse 737" cx="2.728" cy="2.728" r="2.728" transform="translate(185.573 31.104)" fill="#fff"/>
      <circle id="Ellipse_738" data-name="Ellipse 738" cx="2.728" cy="2.728" r="2.728" transform="translate(194.083 90.679)" fill="#fff"/>
      <circle id="Ellipse_739" data-name="Ellipse 739" cx="2.728" cy="2.728" r="2.728" transform="translate(203.467 120.575)" fill="#fff"/>
      <circle id="Ellipse_740" data-name="Ellipse 740" cx="2.728" cy="2.728" r="2.728" transform="translate(213.178 129.631)" fill="#fff"/>
      <circle id="Ellipse_741" data-name="Ellipse 741" cx="2.728" cy="2.728" r="2.728" transform="translate(217.979 157.345)" fill="#fff"/>
      <circle id="Ellipse_742" data-name="Ellipse 742" cx="2.728" cy="2.728" r="2.728" transform="translate(213.178 146.434)" fill="#fff"/>
      <circle id="Ellipse_743" data-name="Ellipse 743" cx="2.728" cy="2.728" r="2.728" transform="translate(192.229 120.575)" fill="#fff"/>
      <circle id="Ellipse_744" data-name="Ellipse 744" cx="2.728" cy="2.728" r="2.728" transform="translate(196.593 132.904)" fill="#fff"/>
      <circle id="Ellipse_745" data-name="Ellipse 745" cx="2.728" cy="2.728" r="2.728" transform="translate(196.375 172.184)" fill="#fff"/>
      <circle id="Ellipse_746" data-name="Ellipse 746" cx="2.728" cy="2.728" r="2.728" transform="translate(170.734 147.853)" fill="#fff"/>
      <circle id="Ellipse_747" data-name="Ellipse 747" cx="2.728" cy="2.728" r="2.728" transform="translate(154.476 157.673)" fill="#fff"/>
      <circle id="Ellipse_748" data-name="Ellipse 748" cx="2.728" cy="2.728" r="2.728" transform="translate(149.13 164.656)" fill="#fff"/>
      <circle id="Ellipse_749" data-name="Ellipse 749" cx="2.728" cy="2.728" r="2.728" transform="translate(135.164 202.408)" fill="#fff"/>
      <circle id="Ellipse_750" data-name="Ellipse 750" cx="2.728" cy="2.728" r="2.728" transform="translate(143.893 157.673)" fill="#fff"/>
      <circle id="Ellipse_751" data-name="Ellipse 751" cx="2.728" cy="2.728" r="2.728" transform="translate(129.817 164.765)" fill="#fff"/>
      <circle id="Ellipse_752" data-name="Ellipse 752" cx="2.728" cy="2.728" r="2.728" transform="translate(187.428 190.297)" fill="#fff"/>
      <circle id="Ellipse_753" data-name="Ellipse 753" cx="2.728" cy="2.728" r="2.728" transform="translate(174.771 190.297)" fill="#fff"/>
      <g id="Group_3522" data-name="Group 3522" transform="translate(215.027 120.8)">
        <rect id="Rectangle_871" data-name="Rectangle 871" width="0.982" height="7.092" transform="translate(12.335 11.668)" fill="#fff"/>
        <rect id="Rectangle_872" data-name="Rectangle 872" width="0.982" height="17.24" transform="matrix(0.68, -0.733, 0.733, 0.68, 0, 0.72)" fill="#fff"/>
        <circle id="Ellipse_754" data-name="Ellipse 754" cx="2.728" cy="2.728" r="2.728" transform="translate(10.044 18.651)" fill="#fff"/>
      </g>
      <circle id="Ellipse_755" data-name="Ellipse 755" cx="2.728" cy="2.728" r="2.728" transform="translate(133.963 194.334)" fill="#fff"/>
      <circle id="Ellipse_756" data-name="Ellipse 756" cx="2.728" cy="2.728" r="2.728" transform="translate(203.903 51.835)" fill="#fff"/>
      <circle id="Ellipse_757" data-name="Ellipse 757" cx="2.728" cy="2.728" r="2.728" transform="translate(203.903 76.603)" fill="#fff"/>
      <circle id="Ellipse_758" data-name="Ellipse 758" cx="2.728" cy="2.728" r="2.728" transform="translate(218.088 69.293)" fill="#fff"/>
      <circle id="Ellipse_759" data-name="Ellipse 759" cx="2.728" cy="2.728" r="2.728" transform="translate(220.488 87.187)" fill="#fff"/>
      <circle id="Ellipse_760" data-name="Ellipse 760" cx="2.728" cy="2.728" r="2.728" transform="translate(212.741 94.934)" fill="#fff"/>
      <circle id="Ellipse_761" data-name="Ellipse 761" cx="2.728" cy="2.728" r="2.728" transform="translate(209.686 169.566)" fill="#fff"/>
      <circle id="Ellipse_762" data-name="Ellipse 762" cx="2.728" cy="2.728" r="2.728" transform="translate(203.467 154.727)" fill="#fff"/>
      <circle id="Ellipse_763" data-name="Ellipse 763" cx="2.728" cy="2.728" r="2.728" transform="translate(133.963 176.112)" fill="#fff"/>
      <circle id="Ellipse_764" data-name="Ellipse 764" cx="2.728" cy="2.728" r="2.728" transform="translate(162.223 198.371)" fill="#fff"/>
      <circle id="Ellipse_765" data-name="Ellipse 765" cx="2.728" cy="2.728" r="2.728" transform="translate(162.223 169.675)" fill="#fff"/>
      <circle id="Ellipse_766" data-name="Ellipse 766" cx="2.728" cy="2.728" r="2.728" transform="translate(187.428 169.675)" fill="#fff"/>
      <circle id="Ellipse_767" data-name="Ellipse 767" cx="2.728" cy="2.728" r="2.728" transform="translate(196.375 160.619)" fill="#fff"/>
      <circle id="Ellipse_768" data-name="Ellipse 768" cx="2.728" cy="2.728" r="2.728" transform="translate(146.184 120.575)" fill="#fff"/>
      <circle id="Ellipse_769" data-name="Ellipse 769" cx="2.728" cy="2.728" r="2.728" transform="translate(151.094 129.849)" fill="#fff"/>
      <circle id="Ellipse_770" data-name="Ellipse 770" cx="2.728" cy="2.728" r="2.728" transform="translate(132.327 53.581)" fill="#fff"/>
      <circle id="Ellipse_771" data-name="Ellipse 771" cx="2.728" cy="2.728" r="2.728" transform="translate(105.922 153.09)" fill="#fff"/>
      <circle id="Ellipse_772" data-name="Ellipse 772" cx="2.728" cy="2.728" r="2.728" transform="translate(103.849 164.765)" fill="#fff"/>
      <circle id="Ellipse_773" data-name="Ellipse 773" cx="2.728" cy="2.728" r="2.728" transform="translate(105.158 175.458)" fill="#fff"/>
      <circle id="Ellipse_774" data-name="Ellipse 774" cx="2.728" cy="2.728" r="2.728" transform="translate(96.538 197.498)" fill="#fff"/>
      <circle id="Ellipse_775" data-name="Ellipse 775" cx="2.728" cy="2.728" r="2.728" transform="translate(117.815 91.006)" fill="#fff"/>
      <circle id="Ellipse_776" data-name="Ellipse 776" cx="2.728" cy="2.728" r="2.728" transform="translate(107.45 94.934)" fill="#fff"/>
      <circle id="Ellipse_777" data-name="Ellipse 777" cx="2.728" cy="2.728" r="2.728" transform="translate(110.832 70.82)" fill="#fff"/>
      <circle id="Ellipse_778" data-name="Ellipse 778" cx="2.728" cy="2.728" r="2.728" transform="translate(90.319 91.224)" fill="#fff"/>
      <circle id="Ellipse_779" data-name="Ellipse 779" cx="2.728" cy="2.728" r="2.728" transform="translate(90.319 104.208)" fill="#fff"/>
      <circle id="Ellipse_780" data-name="Ellipse 780" cx="2.728" cy="2.728" r="2.728" transform="translate(59.223 132.359)" fill="#fff"/>
      <circle id="Ellipse_781" data-name="Ellipse 781" cx="2.728" cy="2.728" r="2.728" transform="translate(60.314 155.818)" fill="#fff"/>
      <circle id="Ellipse_782" data-name="Ellipse 782" cx="2.728" cy="2.728" r="2.728" transform="translate(65.442 166.511)" fill="#fff"/>
      <circle id="Ellipse_783" data-name="Ellipse 783" cx="2.728" cy="2.728" r="2.728" transform="translate(60.314 179.277)" fill="#fff"/>
      <circle id="Ellipse_784" data-name="Ellipse 784" cx="2.728" cy="2.728" r="2.728" transform="translate(71.661 187.46)" fill="#fff"/>
      <circle id="Ellipse_785" data-name="Ellipse 785" cx="2.728" cy="2.728" r="2.728" transform="translate(83.773 193.897)" fill="#fff"/>
      <circle id="Ellipse_786" data-name="Ellipse 786" cx="2.728" cy="2.728" r="2.728" transform="translate(87.701 179.931)" fill="#fff"/>
      <circle id="Ellipse_787" data-name="Ellipse 787" cx="2.728" cy="2.728" r="2.728" transform="translate(90.646 166.838)" fill="#fff"/>
      <circle id="Ellipse_788" data-name="Ellipse 788" cx="2.728" cy="2.728" r="2.728" transform="translate(79.845 122.103)" fill="#fff"/>
      <circle id="Ellipse_789" data-name="Ellipse 789" cx="2.728" cy="2.728" r="2.728" transform="translate(97.63 133.996)" fill="#fff"/>
      <circle id="Ellipse_790" data-name="Ellipse 790" cx="2.728" cy="2.728" r="2.728" transform="translate(71.552 70.602)" fill="#fff"/>
      <circle id="Ellipse_791" data-name="Ellipse 791" cx="2.728" cy="2.728" r="2.728" transform="translate(110.614 13.865)" fill="#fff"/>
      <circle id="Ellipse_792" data-name="Ellipse 792" cx="2.728" cy="2.728" r="2.728" transform="translate(58.677 66.456)" fill="#fff"/>
      <circle id="Ellipse_793" data-name="Ellipse 793" cx="2.728" cy="2.728" r="2.728" transform="translate(48.312 57.4)" fill="#fff"/>
      <circle id="Ellipse_794" data-name="Ellipse 794" cx="2.728" cy="2.728" r="2.728" transform="translate(53.331 91.115)" fill="#fff"/>
      <circle id="Ellipse_795" data-name="Ellipse 795" cx="2.728" cy="2.728" r="2.728" transform="translate(64.678 79.877)" fill="#fff"/>
      <circle id="Ellipse_796" data-name="Ellipse 796" cx="2.728" cy="2.728" r="2.728" transform="translate(71.443 88.278)" fill="#fff"/>
      <circle id="Ellipse_797" data-name="Ellipse 797" cx="2.728" cy="2.728" r="2.728" transform="translate(71.443 103.117)" fill="#fff"/>
      <circle id="Ellipse_798" data-name="Ellipse 798" cx="2.728" cy="2.728" r="2.728" transform="translate(61.077 113.919)" fill="#fff"/>
      <circle id="Ellipse_799" data-name="Ellipse 799" cx="2.728" cy="2.728" r="2.728" transform="translate(55.404 104.317)" fill="#fff"/>
      <circle id="Ellipse_800" data-name="Ellipse 800" cx="2.728" cy="2.728" r="2.728" transform="translate(45.256 99.189)" fill="#fff"/>
      <circle id="Ellipse_801" data-name="Ellipse 801" cx="2.728" cy="2.728" r="2.728" transform="translate(45.038 67.002)" fill="#fff"/>
      <circle id="Ellipse_802" data-name="Ellipse 802" cx="2.728" cy="2.728" r="2.728" transform="translate(53.331 76.385)" fill="#fff"/>
      <circle id="Ellipse_803" data-name="Ellipse 803" cx="2.728" cy="2.728" r="2.728" transform="translate(45.147 83.477)" fill="#fff"/>
      <circle id="Ellipse_804" data-name="Ellipse 804" cx="2.728" cy="2.728" r="2.728" transform="translate(35 93.734)" fill="#fff"/>
      <circle id="Ellipse_805" data-name="Ellipse 805" cx="2.728" cy="2.728" r="2.728" transform="translate(35 132.359)" fill="#fff"/>
      <circle id="Ellipse_806" data-name="Ellipse 806" cx="2.728" cy="2.728" r="2.728" transform="translate(45.366 124.721)" fill="#fff"/>
      <circle id="Ellipse_807" data-name="Ellipse 807" cx="2.728" cy="2.728" r="2.728" transform="translate(45.366 143.706)" fill="#fff"/>
      <circle id="Ellipse_808" data-name="Ellipse 808" cx="2.728" cy="2.728" r="2.728" transform="translate(71.552 117.738)" fill="#fff"/>
      <circle id="Ellipse_809" data-name="Ellipse 809" cx="2.728" cy="2.728" r="2.728" transform="translate(71.552 134.105)" fill="#fff"/>
      <circle id="Ellipse_810" data-name="Ellipse 810" cx="2.728" cy="2.728" r="2.728" transform="translate(105.376 189.097)" fill="#fff"/>
      <circle id="Ellipse_811" data-name="Ellipse 811" cx="2.728" cy="2.728" r="2.728" transform="translate(108.868 200.226)" fill="#fff"/>
      <circle id="Ellipse_812" data-name="Ellipse 812" cx="2.728" cy="2.728" r="2.728" transform="translate(59.332 141.088)" fill="#fff"/>
      <circle id="Ellipse_813" data-name="Ellipse 813" cx="2.728" cy="2.728" r="2.728" transform="translate(89.01 154.945)" fill="#fff"/>
      <circle id="Ellipse_814" data-name="Ellipse 814" cx="2.728" cy="2.728" r="2.728" transform="translate(89.119 141.088)" fill="#fff"/>
      <circle id="Ellipse_815" data-name="Ellipse 815" cx="2.728" cy="2.728" r="2.728" transform="translate(97.957 120.575)" fill="#fff"/>
      <circle id="Ellipse_816" data-name="Ellipse 816" cx="2.728" cy="2.728" r="2.728" transform="translate(99.157 13.865)" fill="#fff"/>
      <circle id="Ellipse_817" data-name="Ellipse 817" cx="2.728" cy="2.728" r="2.728" transform="translate(106.468 80.64)" fill="#fff"/>
      <circle id="Ellipse_818" data-name="Ellipse 818" cx="2.728" cy="2.728" r="2.728" transform="translate(110.614 35.25)" fill="#fff"/>
      <circle id="Ellipse_819" data-name="Ellipse 819" cx="2.728" cy="2.728" r="2.728" transform="translate(115.306 42.779)" fill="#fff"/>
      <circle id="Ellipse_820" data-name="Ellipse 820" cx="2.728" cy="2.728" r="2.728" transform="translate(94.029 24.339)" fill="#fff"/>
      <circle id="Ellipse_821" data-name="Ellipse 821" cx="2.728" cy="2.728" r="2.728" transform="translate(91.41 36.123)" fill="#fff"/>
      <circle id="Ellipse_822" data-name="Ellipse 822" cx="2.728" cy="2.728" r="2.728" transform="translate(67.515 49.107)" fill="#fff"/>
      <circle id="Ellipse_823" data-name="Ellipse 823" cx="2.728" cy="2.728" r="2.728" transform="translate(73.843 32.413)" fill="#fff"/>
      <circle id="Ellipse_824" data-name="Ellipse 824" cx="2.728" cy="2.728" r="2.728" transform="translate(64.351 37.76)" fill="#fff"/>
      <circle id="Ellipse_825" data-name="Ellipse 825" cx="2.728" cy="2.728" r="2.728" transform="translate(83.336 24.339)" fill="#fff"/>
      <circle id="Ellipse_826" data-name="Ellipse 826" cx="2.728" cy="2.728" r="2.728" transform="translate(103.849 44.197)" fill="#fff"/>
      <circle id="Ellipse_827" data-name="Ellipse 827" cx="2.728" cy="2.728" r="2.728" transform="translate(120.215 11.137)" fill="#fff"/>
      <circle id="Ellipse_828" data-name="Ellipse 828" cx="2.728" cy="2.728" r="2.728" transform="translate(149.348 9.718)" fill="#fff"/>
      <circle id="Ellipse_829" data-name="Ellipse 829" cx="2.728" cy="2.728" r="2.728" transform="translate(137.891 8.3)" fill="#fff"/>
      <circle id="Ellipse_830" data-name="Ellipse 830" cx="2.728" cy="2.728" r="2.728" transform="translate(165.824 37.978)" fill="#fff"/>
      <circle id="Ellipse_831" data-name="Ellipse 831" cx="2.728" cy="2.728" r="2.728" transform="translate(194.083 43.543)" fill="#fff"/>
    </g>
    <rect id="Rectangle_874" data-name="Rectangle 874" width="330" height="400" rx="30" transform="translate(7367 2097)" fill="url(#linear-gradient)"/>
    <text id="Techverse_World" data-name="Techverse World" transform="translate(7397 2432)" fill="#fff" font-size="20" font-family="Gilroy-Bold" font-weight="700"><tspan x="0" y="0">Techverse World</tspan></text>
  </g>
</svg>
