<svg xmlns="http://www.w3.org/2000/svg" xmlns:xlink="http://www.w3.org/1999/xlink" width="100" height="100" viewBox="0 0 100 100">
  <defs>
    <clipPath id="clip-path">
      <path id="Path_3050" data-name="Path 3050" d="M19.808,56.065A5.092,5.092,0,0,1,14.7,51.2a4.935,4.935,0,0,1,5.106-4.863A4.935,4.935,0,0,1,24.914,51.2a5.092,5.092,0,0,1-5.106,4.863Zm62.732-26.5c-.486-3.89-2.918-7.051-6.079-9.483l-1.216-.973-.973,1.216c-1.945,2.188-2.675,6.079-2.431,9A13.084,13.084,0,0,0,74.03,35.4c-.973.486-2.188.973-3.161,1.459a20.479,20.479,0,0,1-6.565.973H1.329l-.243,1.459A27.355,27.355,0,0,0,3.274,53.147l.973,1.7v.243c5.835,9.726,16.291,14.1,27.719,14.1,21.883,0,39.876-9.483,48.386-29.907,5.592.243,11.185-1.216,13.859-6.565l.729-1.216-1.216-.729c-3.161-1.945-7.538-2.188-11.185-1.216Zm-31.366-3.89H41.691v9.483h9.483Zm0-11.914H41.691V23.24h9.483Zm0-12.157H41.691v9.483h9.483ZM62.845,25.671H53.362v9.483h9.483Zm-35.256,0H18.106v9.483h9.483V25.671Zm11.914,0H30.02v9.483H39.5Zm-23.585,0H6.435v9.483h9.483V25.671ZM39.5,13.757H30.02V23.24H39.5Zm-11.914,0H18.106V23.24h9.483V13.757Z" transform="translate(-0.94 -1.6)"/>
    </clipPath>
    <clipPath id="clip-icon">
      <rect width="100" height="100"/>
    </clipPath>
  </defs>
  <g id="icon" clip-path="url(#clip-icon)">
    <g id="Group_3500" data-name="Group 3500" transform="translate(3 16)" clip-path="url(#clip-path)">
      <path id="SVGID_3_" d="M-48.8-21H3050.817V347.122H-48.8Z" transform="translate(-72.141 -33.951)"/>
    </g>
  </g>
</svg>
