<svg xmlns="http://www.w3.org/2000/svg" xmlns:xlink="http://www.w3.org/1999/xlink" width="100" height="100" viewBox="0 0 100 100">
  <defs>
    <clipPath id="clip-icon">
      <rect width="100" height="100"/>
    </clipPath>
  </defs>
  <g id="icon" clip-path="url(#clip-icon)">
    <path id="git-icon" d="M92.227,42.812,51.186,1.773a6.054,6.054,0,0,0-8.561,0L34.1,10.3,44.914,21.107a7.189,7.189,0,0,1,9.1,9.165L64.437,40.69a7.194,7.194,0,1,1-4.314,4.061l-9.717-9.717v25.57a7.278,7.278,0,0,1,1.9,1.362A7.2,7.2,0,1,1,44.482,60.4V34.588a7.115,7.115,0,0,1-2.358-1.572,7.2,7.2,0,0,1-1.552-7.875L29.915,14.483,1.774,42.622a6.055,6.055,0,0,0,0,8.564l41.042,41.04a6.054,6.054,0,0,0,8.561,0l40.85-40.849a6.058,6.058,0,0,0,0-8.564" transform="translate(3 3)"/>
  </g>
</svg>
