<svg xmlns="http://www.w3.org/2000/svg" xmlns:xlink="http://www.w3.org/1999/xlink" width="100" height="100" viewBox="0 0 100 100">
  <defs>
    <clipPath id="clip-icon">
      <rect width="100" height="100"/>
    </clipPath>
  </defs>
  <g id="icon" clip-path="url(#clip-icon)">
    <g id="Group_3480" data-name="Group 3480" transform="translate(5499.249 252.999)">
      <path id="Path_2960" data-name="Path 2960" d="M182.725,195.676H119.716A15.544,15.544,0,0,1,104.2,180.16V119.716A15.544,15.544,0,0,1,119.716,104.2h62.968A15.515,15.515,0,0,1,198.2,119.716v60.4a15.491,15.491,0,0,1-15.475,15.557Z" transform="translate(-5600.449 -353.199)"/>
      <path id="Path_2961" data-name="Path 2961" d="M488.1,615.28l11.971,23c.213.341.086.685-.258.685h-7.44a.838.838,0,0,1-.9-.554c-2.737-5.643-5.515-11.285-8.38-17.355h-.086c-2.565,5.729-5.388,11.757-8.121,17.4a.825.825,0,0,1-.771.472h-7.046c-.427,0-.472-.341-.254-.6l11.712-22.316L467.2,593.44a.345.345,0,0,1,.254-.6h7.354c.427,0,.6.086.767.472,2.692,5.643,5.429,11.458,7.994,17.141h.086c2.479-5.643,5.216-11.5,7.867-17.1.213-.341.341-.554.771-.554h6.882c.341,0,.472.258.258.6Zm14.068,6.968c0-9.96,6.628-17.74,17.141-17.74a18.87,18.87,0,0,1,2.224.086V593.268a.426.426,0,0,1,.427-.427h6.755c.341,0,.427.127.427.341v39.244a30.526,30.526,0,0,0,.213,4.19c0,.258-.086.341-.341.472a25.448,25.448,0,0,1-10.945,2.479c-9.279.037-15.906-5.688-15.9-17.318Zm19.361-10.941a6.425,6.425,0,0,0-2.479-.427c-5.388,0-9.147,4.145-9.147,11.031,0,7.867,3.849,11.031,8.679,11.031a8.016,8.016,0,0,0,2.951-.472V611.308Z" transform="translate(-5948.063 -821.748)" fill="#fff"/>
    </g>
  </g>
</svg>
