<svg id="artificial-intelligence" xmlns="http://www.w3.org/2000/svg" width="40" height="47.678" viewBox="0 0 40 47.678">
  <g id="Group_2716" data-name="Group 2716" transform="translate(0 0)">
    <g id="Group_2715" data-name="Group 2715">
      <path id="Path_1205" data-name="Path 1205" d="M213.237,61.4l-1.545-2.574a2.563,2.563,0,0,0,1.063-1.195l2.772.554c0,.051-.015.1-.015.151a2.532,2.532,0,0,0,.4,1.351Z" transform="translate(-191.689 -52.353)" fill="#fff"/>
      <circle id="Ellipse_576" data-name="Ellipse 576" cx="0.851" cy="0.851" r="0.851" transform="translate(13.612 11.08)" fill="#fff"/>
      <circle id="Ellipse_577" data-name="Ellipse 577" cx="0.851" cy="0.851" r="0.851" transform="translate(17.866 3.421)" fill="#fff"/>
      <path id="Path_1206" data-name="Path 1206" d="M260.069,83.668h-2.016a2.543,2.543,0,0,0-.865-1.179l2.555-2.555,1.435,2.392A2.551,2.551,0,0,0,260.069,83.668Z" transform="translate(-241.195 -72.585)" fill="#fff"/>
      <path id="Path_1207" data-name="Path 1207" d="M171.245,93.406h-3.718a2.548,2.548,0,0,0-.622-.979l2.628-1.686a2.388,2.388,0,0,0,1.63-.069l1.088,1.448A2.558,2.558,0,0,0,171.245,93.406Z" transform="translate(-143.861 -82.323)" fill="#fff"/>
      <circle id="Ellipse_578" data-name="Ellipse 578" cx="0.851" cy="0.851" r="0.851" transform="translate(25.526 5.123)" fill="#fff"/>
      <circle id="Ellipse_579" data-name="Ellipse 579" cx="0.851" cy="0.851" r="0.851" transform="translate(20.42 11.08)" fill="#fff"/>
      <path id="Path_1208" data-name="Path 1208" d="M418.629,176.02a.216.216,0,0,0,0,.024.849.849,0,1,1,.071-.339.833.833,0,0,1-.062.305Z" transform="translate(-413.595 -158.665)" fill="#fff"/>
      <path id="Path_1209" data-name="Path 1209" d="M390.782,103.3a.2.2,0,0,0-.023,0l-.008.005a.845.845,0,0,1-.307.062.856.856,0,1,1,.338-.072Z" transform="translate(-383.642 -92.288)" fill="#fff"/>
      <circle id="Ellipse_580" data-name="Ellipse 580" cx="0.851" cy="0.851" r="0.851" transform="translate(11.059 5.123)" fill="#fff"/>
      <path id="Path_1210" data-name="Path 1210" d="M290.151,63.639l-2.772-.554c0-.051.015-.1.015-.151a2.535,2.535,0,0,0-.167-.883l1.425-1.184a2.515,2.515,0,0,0,1.294.364,2.556,2.556,0,0,0,2.553-2.553c0-.062-.013-.121-.019-.182l1.944-.486a2.564,2.564,0,0,0,.8,1l-3.116,3.116A2.557,2.557,0,0,0,290.151,63.639Z" transform="translate(-278.038 -52.701)" fill="#fff"/>
      <path id="Path_1211" data-name="Path 1211" d="M353.447,193.2l.008-.005a.846.846,0,0,1,.307-.062.854.854,0,1,1-.338.071A.122.122,0,0,0,353.447,193.2Z" transform="translate(-343.554 -175.238)" fill="#fff"/>
      <path id="Path_1212" data-name="Path 1212" d="M338.522,131.545l-2.756,2.2-1.573-3.932c.059-.052.118-.1.171-.159l3.372.674A2.541,2.541,0,0,0,338.522,131.545Z" transform="translate(-325.71 -117.679)" fill="#fff"/>
      <path id="Path_1213" data-name="Path 1213" d="M302.256,214.544a2.557,2.557,0,0,0,2.35-1.556l2.873.575a2.534,2.534,0,0,0,.545.979l-2.825,4.3a2.454,2.454,0,0,0-2.508,1.091l-1.436-1.148a2.5,2.5,0,0,0-1.032-2.98l1.05-1.455A2.545,2.545,0,0,0,302.256,214.544Z" transform="translate(-292.048 -193.248)" fill="#fff"/>
      <path id="Path_1214" data-name="Path 1214" d="M300.709,164.227a2.534,2.534,0,0,0-.787-1.211l2.377-1.9,1.77,2.95a2.541,2.541,0,0,0-.487.737Z" transform="translate(-288.065 -146.205)" fill="#fff"/>
      <path id="Path_1215" data-name="Path 1215" d="M381.524,142.362c0-.034.01-.066.01-.1a2.545,2.545,0,0,0-1.336-2.23l1.03-2.055a2.451,2.451,0,0,0,.306.031c.034,0,.067-.008.1-.01l1.624,4.06a2.554,2.554,0,0,0-.59.763Z" transform="translate(-374.731 -125.221)" fill="#fff"/>
      <circle id="Ellipse_581" data-name="Ellipse 581" cx="0.851" cy="0.851" r="0.851" transform="translate(11.91 27.249)" fill="#fff"/>
      <path id="Path_1216" data-name="Path 1216" d="M46.958,35.787a37.969,37.969,0,0,1-4.393-12.1c-1.226-6.663.738-15.8,7.951-20.111A20.213,20.213,0,0,1,65.623,1.69c7.164,1.916,12.214,6.828,13.86,13.479a12.594,12.594,0,0,1,.451,3.932,10.042,10.042,0,0,1-.236,1.507,8.776,8.776,0,0,0-3.3-1.637,4.3,4.3,0,0,0-2.07.113.851.851,0,0,0,.453,1.641,2.632,2.632,0,0,1,1.265-.088,8.5,8.5,0,0,1,3.209,1.769,11.953,11.953,0,0,0-.351,3.156c.049,1.916,1.224,3.687,2.169,5.109.441.663,1.26,1.9,1.137,2.193-.016.038-.2.205-.815.334a2.489,2.489,0,0,0-2.49,2.551,13.169,13.169,0,0,1-.054,1.679c-.18.022-.521.022-.829.022a.851.851,0,0,0-.375,1.615,2.372,2.372,0,0,1,.563.4,1.1,1.1,0,0,1-.458.177c-.869.2-1.448.63-1.448,2.064a10.747,10.747,0,0,0,.077,1.122c.136,1.315.193,1.859-1.224,2.322-2.237.732-12.258-1.661-14.666-4.812a.851.851,0,0,0-1.353,1.034c1.042,1.363,3.214,2.606,5.68,3.572a12.193,12.193,0,0,0-1.251,3.733H44.744c1.576-2.76,3.411-8.137,3.433-10.173a.827.827,0,0,0-.054-.393C47.83,37.413,47.426,36.66,46.958,35.787Zm2.07-7.534a2.534,2.534,0,0,0,1.34-.39l2.109,1.686a2.549,2.549,0,1,0,4.4-2.145l2.825-4.3a2.464,2.464,0,0,0,2.785-1.663h4.569a2.548,2.548,0,1,0,4.19-2.665l1.366-3.373a2.546,2.546,0,0,0-.146-4.979l-1.652-2.2a2.52,2.52,0,0,0,.34-1.25,2.547,2.547,0,0,0-4.4-1.749L63.38,4.553a2.537,2.537,0,0,0-4.883.03l-2.523.631a2.541,2.541,0,0,0-4.225,2.646L50.323,9.043A2.544,2.544,0,0,0,47.2,13l-1.278,2.55a2.549,2.549,0,1,0,2.464,4.166l1.578.631a2.49,2.49,0,0,0,.228.584l-1.63,2.259a2.552,2.552,0,0,0,.47,5.06Z" transform="translate(-42.225 -1)" fill="#fff"/>
      <circle id="Ellipse_582" data-name="Ellipse 582" cx="0.851" cy="0.851" r="0.851" transform="translate(28.93 11.08)" fill="#fff"/>
      <circle id="Ellipse_583" data-name="Ellipse 583" cx="0.851" cy="0.851" r="0.851" transform="translate(5.952 23.845)" fill="#fff"/>
      <circle id="Ellipse_584" data-name="Ellipse 584" cx="0.851" cy="0.851" r="0.851" transform="translate(17.015 18.739)" fill="#fff"/>
      <path id="Path_1217" data-name="Path 1217" d="M165.06,138.305h3.718a2.552,2.552,0,0,0,1.248,1.417l-1.16,2.863c-.083-.008-.162-.025-.246-.025a2.513,2.513,0,0,0-.484.049l-3.846-3.2A2.544,2.544,0,0,0,165.06,138.305Z" transform="translate(-141.393 -125.519)" fill="#fff"/>
      <circle id="Ellipse_585" data-name="Ellipse 585" cx="0.851" cy="0.851" r="0.851" transform="translate(26.377 18.739)" fill="#fff"/>
      <path id="Path_1218" data-name="Path 1218" d="M206.55,160.76a2.525,2.525,0,0,0-.388.707h-4.569a2.554,2.554,0,0,0-.646-1l1.423-3.192Z" transform="translate(-181.33 -142.725)" fill="#fff"/>
      <path id="Path_1219" data-name="Path 1219" d="M264.269,142.56a2.493,2.493,0,0,0-.348.035l-1.769-2.949a2.549,2.549,0,0,0,1.11-1.341h2.016a2.553,2.553,0,0,0,.646,1l-1.461,3.276C264.4,142.575,264.335,142.56,264.269,142.56Z" transform="translate(-246.403 -125.519)" fill="#fff"/>
    </g>
  </g>
</svg>
