<svg xmlns="http://www.w3.org/2000/svg" xmlns:xlink="http://www.w3.org/1999/xlink" width="100" height="100" viewBox="0 0 100 100">
  <defs>
    <clipPath id="clip-icon">
      <rect width="100" height="100"/>
    </clipPath>
  </defs>
  <g id="icon" clip-path="url(#clip-icon)">
    <g id="Group_3483" data-name="Group 3483" transform="translate(5580 238.625)">
      <path id="Path_2967" data-name="Path 2967" d="M43.591,18.235,37.34,19.251l-5.7,2.5L26.794,24.8l-4.609,5.624-2.6,2.758-2.518.928L16.4,32.48,17.562,30.8l.262-2.37.78.032.852.777-.23-2.414-.945-.634.029-.92-2.238,1.266-2.026,2.391-.423,2.137.867,1.711.808,2.907,1.644.778,1.729-.085,1.64-.953-1.094,5.547L20.31,47.14l-1.2,2.849-3.944,4.249.7,2.538,1.868,2.941L21.254,62.2l1.868.256,2.077.07-1.3,5.32L28.669,69.8l5.937.781,2.031-1.328.156-3.594,2.266-3.75.156-2.969,5.469.391,5.078-.469-5.078,3.046.86,3.672,3.2,5L51.871,71.9l2.5-1.016,1.015-2.031,5.234-3.984,1.016.859,8.2.313,1.64-1.328.156-2.344-.546-1.015L70.7,55.031l-2.734-5.469.469-2.422,1.64.86,4.609,4.3,2.266.157,2.5-1.016,2.5-1.875L83.2,45.5l7.344.469,4.453-1.718,3.593-3.36,2.578-4.844.624-5.7-.547-6.641-1.406-5.937-1.406-1.875-1.953-.625-3.438,3.75-3.125,1.094-2.734-4.531-2.734-2.5-1.484-.937L77.026,7.221,72.261,4.642,67.5,4.252l-5.546.937-4.844,1.8L53.746,9.72l-2.656,3.2-2.734.781L43.59,18.236" transform="translate(-5585.95 -226.334)"/>
      <path id="Path_2968" data-name="Path 2968" d="M35.588,56.631c-5.353,6.244-4.164,13.816-2.68,21.236l-2.375-6-.875-5.5q.125-2.813.25-5.626l2.25-5.376,3.376-5,5.251-4.376,5.751-2.376,6.752-.875L47.036,49.86c-5.02,1.628-7.98,2.725-11.448,6.771" transform="translate(-5596.074 -250.63)"/>
      <path id="Path_2969" data-name="Path 2969" d="M84.346,13.407a41.326,41.326,0,0,0-8.123,10.621C74.53,27.069,72.629,30,70.848,33a11.165,11.165,0,0,0-1.255,4.541l-2.626-3.126q.626-1.876,1.25-3.751l4.251-7.627,9-8.878,2.875-.751m18.38-9C99.745,5.522,94.8,5.891,94.452,9.311c-.244,2.43.183,3.651,1.648,6.222-3.617-3.743-4.512-3.164-11.5-2l3-4.251L92.849,6.03,99.6,4.53l3.126-.125" transform="translate(-5619.631 -226.431)"/>
      <path id="Path_2970" data-name="Path 2970" d="M118.848,70.646c.992.613.971,1.056.805,1.476L122,71.183l1.522-2.043,1.129-2.911-1.443-1.085-6.307.805q-.233.637-.469,1.275.067.905.134,1.811l.6,1.074.939.47.738.067m-.587-10.786c-3.162.912-3.137,1.164-4.07,4.3a12.457,12.457,0,0,1,4.07-4.3m21.02-23.471a3.057,3.057,0,0,0-1.46.9,8.622,8.622,0,0,1-2.655,2.814,8.278,8.278,0,0,1-1.949.853c-.554.172-.887.018-1.359.358l.84.146h1.85l2.281-1.409,1.342-1.409,1.11-2.252M88.923,43.406a49.538,49.538,0,0,1-4.214,9.4,28.21,28.21,0,0,0,5.26-7.752c.537-1.143.639-2.483,2.135-1.985.067,1.141.308,2.281.375,3.422.808-5.794,3.088-8.218,8.387-10.467l-4.5.537-4.227.939-2.08,3.019-1.141,2.885m10.266-.134c1.143,5.378,2.788,10.54,3.5,16,.464,3.55.515,5.256-1.271,8.319a11.759,11.759,0,0,0-5.053.713c-7.517,2.464-11.829,6.088-16.894-1.213l4.851,2.286,3.458-.68,6.106-3.555,4.763-.94,1.543-6.44-1.141-8.521q-.066-2.013-.134-4.025.135-.973.268-1.946m12.949,33.279c-.631,4.37,1.454,6.718.591,7.925-.244.341-.576.938-.946,1.1-1.322.584-3.138-.109-3.268.232h-4.361l-1.744-.738,2.684-3.154q1.308-2.851,2.617-5.7l1.677-5.77h.873l1.878,6.105" transform="translate(-5627.527 -246.395)"/>
      <path id="Path_2971" data-name="Path 2971" d="M65.017,44.341c.354,1.984.969,2.455,1.9,4.376a50.9,50.9,0,0,1-2.82,9.624,7.63,7.63,0,0,1-1.808,2.71,46.584,46.584,0,0,1-4.74,4.168c-1.231.948-2.09.473-3.608.258-.646,1.17-.824,1.821-2.013,2.415-1.828.913-3.463-1.055-4.9-2.214l3.107,4.853,2.147,2.013,1.812.269,2.415-1.477,1.275-2.415,2.684-2.013,3.288-2.818,2.08-2.952,1.878-3.489q1.209-3.623,2.416-7.246.1-1.376.2-2.751l-3.019-1.342c-.738-.693-1.56-1.274-2.3-1.968M40.947,58.319c3.386,0,6.963-.188,10.064-1.611a27.647,27.647,0,0,1,2.818-3.555,12.094,12.094,0,0,0-1.543,4.965L51.28,59.594l-7.649.2-2.483-.268-.268-.269q.034-.47.067-.939m-.469-2.348-.263-2.383c-.578,3.483-.439,5.817-2.042,8.937a11.77,11.77,0,0,1-4.36,3.325,6.35,6.35,0,0,1,.1,2.017c-.3,2.256-4.809,1.259-6.666,1.169l8.934,2.3L38.2,70.53q.336-1.945.671-3.892l1.878-3.489L41.081,61l-.6-5.032M35.445,36.312c-.093,1.694-.2,2.4.544,3.895.949,1.9,2.115,3.687,3.146,5.565l.335-3.757q-2.012-2.852-4.025-5.7M21.672,49.1q-.436.927-.871,1.855a23,23,0,0,0,3.032,6.751,5.037,5.037,0,0,1-1.073,2.146,24.029,24.029,0,0,0-3.887-.261l4.5,3.489,2.214-.4L27.8,60.466l-3.154-4.9q-1.486-3.232-2.971-6.465M99.5,15.993c.913,4.105,2.09,7.894,1.981,12.1-.134,5.159-1.139,11.676-5.92,14.787-5.353,3.484-11.637,1.836-17.511.343l7.179,2.952,6.71.335L96.5,45.168l3.556-2.952,2.684-5.635,1.006-6.508q-.4-3.188-.805-6.374l-1.476-6.307-1.967-1.4M19.613,28.23c-2.43,1.582-3.385,2.276-3.118,5.208l.726,2.634,1.03.7,1.272.424,2.3-.545q.591-1.832,1.181-3.663l-3.27,1.6h-.757l-.848-1.3,1.029-1.514L19.7,28.9l.7.212.848.666-.121-1.514-.575-.969-.575-.485-.364,1.423M74.136,5.13c2.157,2,4.8,3.744,6.529,6.191.668.947,1.409,1.432-.011,2.771a6.528,6.528,0,0,1,3.26-.237c2.186.265,4.235,3.372,4.365,5.6-.026.208-.607.681-2.3,1.148-.033.065-.954-.126-.931-.063.176.48.41.554.769.779a5.083,5.083,0,0,0,.492,1.944,14.74,14.74,0,0,1,3.144.3,2.835,2.835,0,0,1,.268,1.744l1.208-.2q-.167-1.376-.335-2.751.536-.906,1.073-1.811l-1.543-3.489-2.952-2.818-.284-.014-3.32-2.038-5.415-4.43L74.136,5.13m3.634,16.532a3.531,3.531,0,0,1-.506.737,4.87,4.87,0,0,1,1.662,2.621l-3.047,1.512L73.3,29a3.824,3.824,0,0,1-1.96-2.238,3.025,3.025,0,0,1-1.768.138,1.451,1.451,0,0,0,.873-.287l1.64-1.7,2.9-2.194,1.9-.618c.241-.1.648-.339.889-.439" transform="translate(-5587.736 -226.889)"/>
      <path id="Path_2972" data-name="Path 2972" d="M168.318,44.068c-3.231,1.74-6.326,3.489-7.978,6.793,0-4.194,4.211-6.04,7.977-6.794m-8.619-8.25a9.513,9.513,0,0,0-3.883,8.155c-.781-2.786-.5-5.418,1.895-7.343l1.215-.59.773-.222" transform="translate(-5675.482 -246.264)" fill="#404040"/>
      <path id="Path_2973" data-name="Path 2973" d="M95.965,21.305a25.035,25.035,0,0,0-2.158-7.322,2.875,2.875,0,0,0-.536-.7,5.525,5.525,0,0,0-1.994-1.216,2.984,2.984,0,0,0-2.33.019,1.939,1.939,0,0,0-.483.358,10.944,10.944,0,0,0-1.174,1.519,8.235,8.235,0,0,1-1.317,1.625,6.928,6.928,0,0,1-1.964,1.058,13.315,13.315,0,0,0-1.022-1.987,19,19,0,0,0-1.567-2.116,8.682,8.682,0,0,0-1.431-1.365c-.5-.381-1.01-.7-1.6-1.074A33.861,33.861,0,0,1,74.046,6.7c-.63-.552-1.265-1.11-1.887-1.622-3.3-2.72-6.376-4.04-9.667-4.247-3.269-.206-6.72.692-10.8,2.408A15.575,15.575,0,0,0,47,6.22a28.55,28.55,0,0,0-3.381,3.931,5.907,5.907,0,0,0-1.841.383,7.314,7.314,0,0,0-2.113,1.389q-.828.731-1.622,1.5-.727.705-1.428,1.437a46.4,46.4,0,0,0-9.44,2.3,24.771,24.771,0,0,0-7.715,4.77,20.288,20.288,0,0,0-2.686,2.884,21.265,21.265,0,0,0-1.987,3.155,21.938,21.938,0,0,1-1.547,1.6A5.662,5.662,0,0,1,11.507,30.7h0c-.368.142-.52.225-.537.219s-.029-.066-.055-.167a4.9,4.9,0,0,0,1.136-3.409,4.788,4.788,0,0,1,.323.459c.12.185.243.377.391.563l.617.779.217-.972a6.812,6.812,0,0,0,.106-2.838,2.615,2.615,0,0,0-.913-1.539c.047-.123.092-.237.136-.349.155-.4.314-.8.45-1.187l.268-.761-.8.138a11.646,11.646,0,0,0-4.94,3.1,7.692,7.692,0,0,0-1.443,2.018,3.846,3.846,0,0,0-.37,2.307,3.727,3.727,0,0,0,1.08,1.985c.113.456.217.852.329,1.208a8.3,8.3,0,0,0,.438,1.127,3.418,3.418,0,0,0,2.072,1.839,4.259,4.259,0,0,0,2.208.069,20.158,20.158,0,0,0-.275,2.7,34.9,34.9,0,0,0,.138,4.289c.031.356.077.748.136,1.174.052.363.113.72.179,1.075q-.21.574-.422,1.149l-.655,1.783L9.881,48.888,8.536,50.221c-.037.037-.188.182-.325.314-.909.874-1.089,1.048-.831,2.587a9.381,9.381,0,0,0,.952,2.82,10.15,10.15,0,0,0,1.813,2.447,12.791,12.791,0,0,0,4.174,2.779,5.548,5.548,0,0,0,2.818.386c-.046.14-.091.279-.143.42q-.216.6-.479,1.179c-1.116,2.446.029,3.723,1.812,4.536a18.591,18.591,0,0,0,2.932.938c.2.052.4.1.656.173a26.477,26.477,0,0,0,5.017,1.009c2.007.127,3.817-.288,4.3-2.089a10.128,10.128,0,0,0,.349-1.8,8.98,8.98,0,0,0-.032-1.62,11.519,11.519,0,0,1,1.233-2.236c.082-.121.181-.265.211-.311a3.866,3.866,0,0,0,.735-1.668,7,7,0,0,0-.081-1.8c-.009-.074-.022-.182-.042-.326a28.8,28.8,0,0,0,3.484.239c.585,0,1.169-.014,1.753-.044l-.456.234-.217.112c-1.55.8-1.614,2.306-1.129,3.859a16.177,16.177,0,0,0,1.9,3.7,13.31,13.31,0,0,0,3.693,4.22c1.439.882,3.084.986,5.207-.163a4.228,4.228,0,0,0,1.879-1.984c.14-.245.3-.512.468-.776.446-.3,1.557-1.212,2.647-2.113.371-.307.742-.612,1.16-.953a2.874,2.874,0,0,0,1.057.459,12.763,12.763,0,0,0,1.977.246c.584.043,2.486.041,3.716.041h.884a6.229,6.229,0,0,0,3.068-.5,3.107,3.107,0,0,0,1.421-2.782,5.034,5.034,0,0,0-.036-1.482,4.6,4.6,0,0,0-.539-1.258q-.026-.962-.051-1.925-.027-1.022-.055-2.044a9.278,9.278,0,0,0-.273-2.1,13.9,13.9,0,0,0-.7-1.986q-.288-.7-.545-1.4l-.445.163.069-.025.377-.138v0a22.22,22.22,0,0,0-.894-2.159c.024-.144.048-.3.071-.464l.708.682,1.043,1.005a13.25,13.25,0,0,0,2.377,1.967,5.447,5.447,0,0,0,3.164.763,7.528,7.528,0,0,0,3.975-1.506,6.592,6.592,0,0,0,2.454-3.255l.333-1.1.266-.875a21.95,21.95,0,0,0,5.874.218,14.485,14.485,0,0,0,5.289-1.519,13.34,13.34,0,0,0,5.3-5.213h0a20.549,20.549,0,0,0,2.47-8.185,35.722,35.722,0,0,0-.381-8.616ZM71.494,41.033a12.5,12.5,0,0,1-2.8-1.5,7.176,7.176,0,0,1,.032,3.585c-.55,1.859-1.438,4.9,1.085,5.46a3.261,3.261,0,0,0,2.751-.517,5.065,5.065,0,0,1-2.4.048,1.564,1.564,0,0,1-1.237-1.072,4.094,4.094,0,0,0,1.294.426c1.87.451,3.653-.45,4-1.747a11.537,11.537,0,0,1,.6-2.189q.581.18,1.2.328l-.7,2.267A5.5,5.5,0,0,1,70.3,49.625c-1.912-.034-3.124-1.231-4.444-2.405-.909-.809-1.784-1.583-2.651-2.35a20.471,20.471,0,0,1-6.5-3.263A11.494,11.494,0,0,0,61.544,45.4c-.318,3.251-1.449,5.622-2.412,8.734-.436,1.407-3.878,7.045-4.832,7.594-.68.392-4.941,3.98-5.742,4.454-.6.793-1.121,1.888-2.019,2.362-2.734,1.446-4.492-1.323-5.963-3.661-.67-1.065-2.531-4.134-.909-4.993a42.8,42.8,0,0,0,3.957-2.42c.23.419.624.824.881,1.242l-.17-1.373A10.818,10.818,0,0,1,44.3,55q.1-1.212.191-2.424c-.236.822-.706,1.643-.941,2.464-.094.329-.172.594-.217.84a27.649,27.649,0,0,1-10.508.136c-.224-1.3-.5-2.655-.726-3.626-.069,1.087-.025,4.095-.03,5.779a4.306,4.306,0,0,1-.732,2.861,27.7,27.7,0,0,0-1.778,3.03,7.618,7.618,0,0,1-.219,2.891c-.489,1.748-5.426.394-6.728.037-1.6-.439-4.919-1.091-4.085-3.229a27.538,27.538,0,0,0,1.557-6.5c-2.938-4.233-5.671-10.033-6.2-15.172-.407-3.99-.163-6.446.7-8.887a22.749,22.749,0,0,1,6.354-9.911c4.143-3.636,8.016-5.1,14.081-6.019-1.458,1.633-2.9,3.359-4.474,5.21A26.432,26.432,0,0,0,27,28.291c-1.4,2.831-1.366,3.908.485,6.393,1.6,2.142,2.456,3.106,3.153,5.2a10.827,10.827,0,0,0-.978,3.806c1.953,2.135,3.4,3.6,5.3,4.049a6.888,6.888,0,0,0,5.078-.494c3.7-1.89,7.116-4.33,11.286-4.431,1.929-4.742,1.734-8.7.808-13.293a66.4,66.4,0,0,1-1.083-9.3,22.209,22.209,0,0,0-.349,9.46c.7,3.949,1.243,8.312-.7,11.783-3.771.289-7,2.583-10.4,4.342a5.7,5.7,0,0,1-4.3.362c-1.4-.386-2.35-1.314-3.862-3.058a7.507,7.507,0,0,1,1.175-4.144c1.292-2.546,2.717-4.916,4.282-7.421a72.026,72.026,0,0,0-5.238,6.569c-.577-1.642-1.4-2.476-2.766-4.325-1.333-1.806-1.473-2.6-.476-4.686a21.077,21.077,0,0,1,3.559-5.788c2.948-3.184,5.649-6.727,8.873-9.862,1.751-1.7,2.461-1.644,4.783-2,2.1-.318,4.148-.72,6.288-1.217-2.07.193-4.071.264-6.086.313l-.063,0c1.983-2.532,3.134-3.943,6.354-5.342C60.055,1.778,65.092,1.405,71.32,6.64,72.934,8,74.344,9.315,75.98,10.485a5.911,5.911,0,0,0-1.781.423,7.488,7.488,0,0,1,2.628.155c.24.156.487.307.738.456a6.935,6.935,0,0,1,2.593,2.145,23.174,23.174,0,0,1,2.121,3.568c-.4-.142-.731-.262-1.028-.35a2.213,2.213,0,0,0-2.085.129l-.048.022a9.759,9.759,0,0,1-2.292.774,2.737,2.737,0,0,0,1.438.021,1.04,1.04,0,0,1,.145-.045,2.218,2.218,0,0,0-.059,2.139l0,0a1.2,1.2,0,0,0,.234.364c-.3.112-.612.239-.931.377a14.635,14.635,0,0,1,4.252-.074c.1.455.191.936.28,1.426l-.536.042-.043,0a2.686,2.686,0,0,0-2.481-.216c-3.158.72-2.416,2.492-3.869,5.162,1.508-1.844,1.4-3.773,3.855-4.356a3.975,3.975,0,0,1,1.351-.247,3.079,3.079,0,0,0-1.541,1.609c-.675,1.905-.256,3.511-1,5.29.918-1.591.974-3.144,1.795-4.818a3.363,3.363,0,0,1,2.061-1.578l.553-.012a14.052,14.052,0,0,1,.2,2.983,33.41,33.41,0,0,1-.776,4.858c.832-1.069,1.211-3.334,1.576-4.928a13.954,13.954,0,0,0-.049-5.435c-.457-2.447,2.063-2.048,3.526-3.2,1.075-.848,1.816-2.2,2.8-3.16s2.518.446,2.9,1.376A34.282,34.282,0,0,1,94.5,29.842c-.495,4.564-2.7,9.547-6.725,11.794-5.132,2.864-11.183,1.114-16.282-.6ZM64.2,61.305c-.167,1.883-.8,2.008-2.449,1.979-.751-.013-3.743-.027-4.5-.092a4.338,4.338,0,0,1-2-.433c1.685-1.237,4.549-6.345,5.107-8.1.591-1.858,1.237-3.479,1.717-5.2a21.674,21.674,0,0,0,.717,2.191,8.289,8.289,0,0,1,.838,3.427L63.75,59.4a2.4,2.4,0,0,1,.452,1.9ZM13.482,47.039a39.061,39.061,0,0,0,4.914,10.4v.053a3.909,3.909,0,0,1-.581,1.449c-1.445,1.933-5.119-.9-6.183-1.989a7.322,7.322,0,0,1-2.126-3.912c-.135-.961,0-.985.667-1.665l2.714-2.747.595-1.586ZM11.438,23.756a10.323,10.323,0,0,0-.6,1.494c-.576,1.99.261,3.766-1.546,5.208.849,1.713.81,2.4,2.785,1.6a6.484,6.484,0,0,0,1.951-1.24q-.407,1.058-.749,2.14c-.039.122-.076.244-.112.366-1.412.6-3.27.98-3.98-.5a13.612,13.612,0,0,1-.792-2.338c-2.326-2.409,1.151-5.591,3.045-6.731Zm1.143,2.552c-.287-.288-.517-.482-.888-.44a5.43,5.43,0,0,1,.132-.7c.029-.114.061-.225.1-.337.481.281.608.789.661,1.474Zm69.735-9q.132.278.259.564a2.4,2.4,0,0,0-.2.163,2.247,2.247,0,0,0-.487-.714c.139-.005.281-.01.428-.013ZM15.174,28.246h0ZM7.6,30.8Zm25.448,26.6h0Zm20.961,6.258h0Zm8.519-16.192h0ZM11.678,31.142h0l-.016-.041.016.041Zm81.78,6.723.011.007Zm-89.987-7.3c.37-4.19,1.185-6,4.162-9.153C3.9,24.041,2.968,25.237,3.472,30.562" transform="translate(-5579.461 -224.156)" fill="#16191a"/>
      <path id="Path_2974" data-name="Path 2974" d="M.994,27.224a8.653,8.653,0,0,1,1.957-4.146C1.065,24.4.819,24.937.994,27.224M44.805.934c-2.237.539-2.664.953-3.335,3.146A8.658,8.658,0,0,1,44.805.934" transform="translate(-5577.947 -224.239)"/>
      <path id="Path_2975" data-name="Path 2975" d="M111.953.067c-4.437,1.087-5.741,1.861-7.215,7,1.873-3.767,3.292-5.153,7.215-7m9.556,18.747a7.429,7.429,0,0,1,4.567-5.676c-4.313,1.08-5.122,2.892-4.567,5.677m27.443.144c2.554-.91,3.785-2.964,4.4-5.38a10.254,10.254,0,0,1-4.638,4.756,4.836,4.836,0,0,1-3.1.243c1.277.367,2.086.828,3.34.381m-17.4,2.053a2.9,2.9,0,0,0-1.627-1.478,8.511,8.511,0,0,0,1.722-1.122c-1.406.651-3.043.492-4.25,1.307-1.063.718-2.53,2.993-3.61,3.958a8.922,8.922,0,0,0,2.23-1.382,2.893,2.893,0,0,0,1.557,2.545,6.525,6.525,0,0,0-.943,1.721,16.543,16.543,0,0,1,7.842-5.065,8.349,8.349,0,0,0-2.657.446,2.887,2.887,0,0,0-.264-.929m-2.959,18.417c-.1.631-.237,1.416-.337,2.047.267-.714.589-1.545.9-2.226.33-.721.515-.789,1.214-1.169.5-.27,1.4-.641,1.892-.91-.51.086-1.424.274-1.934.359-1.362.23-1.523.557-1.734,1.9M105.32,15.062c-1.581,1.563-3.117,6.926-3.608,9.073.773-1.783,2.708-6.769,4.192-8.038a5.164,5.164,0,0,1,1-.723c-1.062,1.782-.984,2.225-.612,4.611.317-2.427,1.156-3.364,2.532-5.174a36.316,36.316,0,0,0,4.47-1.436q-2.616.3-5.236.543c-1.466.139-1.7.115-2.743,1.143" transform="translate(-5641.568 -223.692)"/>
      <path id="Path_2976" data-name="Path 2976" d="M169.738,55.155a1.215,1.215,0,1,1,2.261-.87,7.7,7.7,0,0,0-1.55,1.518,1.324,1.324,0,0,1-.711-.648m13.5-5.224a.894.894,0,0,1,.974-.819.908.908,0,0,1,.738,1.292,7.888,7.888,0,0,0-1.385.385,1.212,1.212,0,0,1-.326-.857" transform="translate(-5684.443 -254.655)" fill="#656565"/>
    </g>
  </g>
</svg>
