<svg id="notes" xmlns="http://www.w3.org/2000/svg" width="40" height="40" viewBox="0 0 40 40">
  <path id="Path_2169" data-name="Path 2169" d="M32.083,21.667a1.25,1.25,0,0,0-1.25,1.25v1.667H30V20H26.25a6.255,6.255,0,0,1-6.117-5H17.917V11.418a3.333,3.333,0,1,0-2.5,0V15h-7.5a4.581,4.581,0,0,0-4.583,4.583v5H2.5V22.917a1.25,1.25,0,0,0-2.5,0V28.75a1.25,1.25,0,0,0,2.5,0V27.083h.833v5a4.581,4.581,0,0,0,4.583,4.583h17.5A4.581,4.581,0,0,0,30,32.083v-5h.833V28.75a1.25,1.25,0,0,0,2.5,0V22.917A1.25,1.25,0,0,0,32.083,21.667ZM8.333,23.333a3.333,3.333,0,1,1,3.333,3.333A3.343,3.343,0,0,1,8.333,23.333Zm12.083,8.333h-7.5a1.25,1.25,0,1,1,0-2.5h7.5a1.25,1.25,0,0,1,0,2.5Zm1.25-5A3.333,3.333,0,1,1,25,23.333,3.343,3.343,0,0,1,21.667,26.667Z" transform="translate(0 3.333)" fill="#fff"/>
  <path id="Path_2170" data-name="Path 2170" d="M27.75,1.667H26.5V1.25a1.25,1.25,0,1,0-2.5,0v.417H20.667V1.25a1.25,1.25,0,1,0-2.5,0v.417h-1.25A2.92,2.92,0,0,0,14,4.583v12.5A2.92,2.92,0,0,0,16.917,20H27.75a2.92,2.92,0,0,0,2.917-2.917V4.583A2.92,2.92,0,0,0,27.75,1.667ZM24.833,15h-5a1.25,1.25,0,0,1,0-2.5h5a1.25,1.25,0,0,1,0,2.5Zm0-4.167h-5a1.25,1.25,0,0,1,0-2.5h5a1.25,1.25,0,0,1,0,2.5Z" transform="translate(9.333)" fill="#fff"/>
</svg>
