<svg xmlns="http://www.w3.org/2000/svg" xmlns:xlink="http://www.w3.org/1999/xlink" width="100" height="100" viewBox="0 0 100 100">
  <defs>
    <clipPath id="clip-icon">
      <rect width="100" height="100"/>
    </clipPath>
  </defs>
  <g id="icon" clip-path="url(#clip-icon)">
    <g id="Group_3493" data-name="Group 3493">
      <g id="Group_3487" data-name="Group 3487">
        <g id="artificial-intelligence" transform="translate(11 3)">
          <g id="Group_2716" data-name="Group 2716" transform="translate(0 0)">
            <g id="Group_2715" data-name="Group 2715">
              <path id="Path_1205" data-name="Path 1205" d="M214.738,65.057l-3.045-5.075a5.053,5.053,0,0,0,2.1-2.356l5.465,1.092c0,.1-.03.195-.03.3A4.992,4.992,0,0,0,220,61.68Z" transform="translate(-172.253 -47.23)"/>
              <ellipse id="Ellipse_576" data-name="Ellipse 576" cx="1.678" cy="1.678" rx="1.678" ry="1.678" transform="translate(26.836 21.845)"/>
              <ellipse id="Ellipse_577" data-name="Ellipse 577" cx="1.678" cy="1.678" rx="1.678" ry="1.678" transform="translate(35.225 6.745)"/>
              <path id="Path_1206" data-name="Path 1206" d="M262.868,87.3h-3.975a5.011,5.011,0,0,0-1.7-2.324l5.037-5.037,2.829,4.716A5.029,5.029,0,0,0,262.868,87.3Z" transform="translate(-225.656 -65.443)"/>
              <path id="Path_1207" data-name="Path 1207" d="M175.462,96.062h-7.33a5.025,5.025,0,0,0-1.227-1.929l5.181-3.324a4.708,4.708,0,0,0,3.215-.136l2.144,2.856A5.042,5.042,0,0,0,175.462,96.062Z" transform="translate(-121.472 -74.21)"/>
              <ellipse id="Ellipse_578" data-name="Ellipse 578" cx="1.678" cy="1.678" rx="1.678" ry="1.678" transform="translate(50.326 10.101)"/>
              <ellipse id="Ellipse_579" data-name="Ellipse 579" cx="1.678" cy="1.678" rx="1.678" ry="1.678" transform="translate(40.259 21.845)"/>
              <path id="Path_1208" data-name="Path 1208" d="M420.21,177.152a.471.471,0,0,0-.008.047,1.673,1.673,0,1,1,.141-.668,1.641,1.641,0,0,1-.123.6Z" transform="translate(-410.285 -142.936)"/>
              <path id="Path_1209" data-name="Path 1209" d="M391.945,104.892a.4.4,0,0,0-.045.008l-.015.01a1.666,1.666,0,0,1-.606.123,1.688,1.688,0,1,1,.666-.141Z" transform="translate(-377.867 -83.181)"/>
              <ellipse id="Ellipse_580" data-name="Ellipse 580" cx="1.678" cy="1.678" rx="1.678" ry="1.678" transform="translate(21.803 10.101)"/>
              <path id="Path_1210" data-name="Path 1210" d="M292.991,69.107l-5.464-1.092c0-.1.03-.195.03-.3a5,5,0,0,0-.329-1.742l2.81-2.334a4.958,4.958,0,0,0,2.552.718,5.04,5.04,0,0,0,5.033-5.033c0-.122-.027-.238-.037-.359l3.832-.958a5.054,5.054,0,0,0,1.574,1.963l-6.143,6.143A5.042,5.042,0,0,0,292.991,69.107Z" transform="translate(-269.11 -47.544)"/>
              <path id="Path_1211" data-name="Path 1211" d="M353.968,193.261l.015-.01a1.668,1.668,0,0,1,.606-.122,1.684,1.684,0,1,1-.666.139A.243.243,0,0,0,353.968,193.261Z" transform="translate(-334.463 -157.856)"/>
              <path id="Path_1212" data-name="Path 1212" d="M342.728,133.377l-5.434,4.347-3.1-7.752c.116-.1.232-.2.337-.314l6.647,1.329A5.008,5.008,0,0,0,342.728,133.377Z" transform="translate(-317.467 -106.039)"/>
              <path id="Path_1213" data-name="Path 1213" d="M304.231,216.055a5.041,5.041,0,0,0,4.632-3.067l5.664,1.133a5,5,0,0,0,1.075,1.929l-5.57,8.473a4.838,4.838,0,0,0-4.945,2.151l-2.832-2.263a4.925,4.925,0,0,0-2.034-5.876l2.07-2.869A5.017,5.017,0,0,0,304.231,216.055Z" transform="translate(-284.106 -174.069)"/>
              <path id="Path_1214" data-name="Path 1214" d="M301.474,167.251a5,5,0,0,0-1.552-2.388l4.686-3.748,3.49,5.817a5.009,5.009,0,0,0-.96,1.453Z" transform="translate(-276.545 -131.719)"/>
              <path id="Path_1215" data-name="Path 1215" d="M382.812,146.623c0-.067.02-.131.02-.2a5.017,5.017,0,0,0-2.634-4.4l2.032-4.052a4.823,4.823,0,0,0,.6.06c.068,0,.131-.017.2-.02l3.2,8a5.036,5.036,0,0,0-1.164,1.505Z" transform="translate(-369.418 -112.829)"/>
              <ellipse id="Ellipse_581" data-name="Ellipse 581" cx="1.678" cy="1.678" rx="1.678" ry="1.678" transform="translate(23.48 53.724)"/>
              <path id="Path_1216" data-name="Path 1216" d="M51.556,69.584A74.858,74.858,0,0,1,42.9,45.724C40.478,32.588,44.35,14.579,58.571,6.074A39.852,39.852,0,0,1,88.356,2.361c14.124,3.777,24.082,13.463,27.326,26.575a24.829,24.829,0,0,1,.889,7.752,19.8,19.8,0,0,1-.465,2.971,17.3,17.3,0,0,0-6.5-3.228,8.469,8.469,0,0,0-4.08.223,1.678,1.678,0,0,0,.892,3.235,5.19,5.19,0,0,1,2.493-.174,16.749,16.749,0,0,1,6.327,3.488,23.566,23.566,0,0,0-.693,6.223c.1,3.777,2.413,7.27,4.277,10.074.869,1.307,2.485,3.74,2.242,4.324-.032.075-.4.4-1.607.659a4.908,4.908,0,0,0-4.909,5.03,25.966,25.966,0,0,1-.107,3.31c-.354.044-1.027.044-1.634.044a1.678,1.678,0,0,0-.74,3.184,4.677,4.677,0,0,1,1.109.785,2.164,2.164,0,0,1-.9.349c-1.713.4-2.854,1.242-2.854,4.069a21.2,21.2,0,0,0,.151,2.213c.268,2.592.381,3.664-2.413,4.579-4.411,1.443-24.167-3.275-28.915-9.488A1.679,1.679,0,0,0,75.573,80.6c2.055,2.688,6.337,5.137,11.2,7.043A24.04,24.04,0,0,0,84.306,95H47.191c3.107-5.441,6.725-16.043,6.768-20.057a1.631,1.631,0,0,0-.106-.775C53.276,72.791,52.479,71.306,51.556,69.584Zm4.082-14.854a5,5,0,0,0,2.643-.769l4.158,3.324a5.026,5.026,0,1,0,8.674-4.228l5.57-8.473a4.858,4.858,0,0,0,5.492-3.278h9.008a5.023,5.023,0,1,0,8.26-5.255l2.693-6.649a5.019,5.019,0,0,0-.287-9.817l-3.257-4.339a4.969,4.969,0,0,0,.671-2.465A5.021,5.021,0,0,0,90.58,9.334L83.933,8.005a5,5,0,0,0-9.627.059L69.331,9.307A5.009,5.009,0,0,0,61,14.523l-2.81,2.334a5.016,5.016,0,0,0-6.166,7.805L49.5,29.691a5.026,5.026,0,1,0,4.859,8.215l3.111,1.245a4.91,4.91,0,0,0,.45,1.151l-3.213,4.453a5.031,5.031,0,0,0,.928,9.977Z" transform="translate(-42.225 -1)"/>
              <ellipse id="Ellipse_582" data-name="Ellipse 582" cx="1.678" cy="1.678" rx="1.678" ry="1.678" transform="translate(57.037 21.845)"/>
              <ellipse id="Ellipse_583" data-name="Ellipse 583" cx="1.678" cy="1.678" rx="1.678" ry="1.678" transform="translate(11.736 47.013)"/>
              <ellipse id="Ellipse_584" data-name="Ellipse 584" cx="1.678" cy="1.678" rx="1.678" ry="1.678" transform="translate(33.547 36.946)"/>
              <path id="Path_1217" data-name="Path 1217" d="M165.808,138.305h7.33A5.031,5.031,0,0,0,175.6,141.1l-2.287,5.644c-.163-.015-.319-.049-.485-.049a4.957,4.957,0,0,0-.955.1l-7.582-6.318A5.016,5.016,0,0,0,165.808,138.305Z" transform="translate(-119.146 -113.097)"/>
              <ellipse id="Ellipse_585" data-name="Ellipse 585" cx="1.678" cy="1.678" rx="1.678" ry="1.678" transform="translate(52.003 36.946)"/>
              <path id="Path_1218" data-name="Path 1218" d="M211.993,164.144a4.98,4.98,0,0,0-.765,1.394H202.22a5.035,5.035,0,0,0-1.273-1.968l2.805-6.294Z" transform="translate(-162.27 -128.586)"/>
              <path id="Path_1219" data-name="Path 1219" d="M266.327,146.694a4.925,4.925,0,0,0-.686.069l-3.488-5.814a5.026,5.026,0,0,0,2.188-2.644h3.975a5.036,5.036,0,0,0,1.273,1.968l-2.881,6.46C266.578,146.723,266.456,146.694,266.327,146.694Z" transform="translate(-231.101 -113.097)"/>
            </g>
          </g>
        </g>
        <path id="Path_2992" data-name="Path 2992" d="M20.506-2.115c17.3,2.6,28.9,8.022,24.791,26.925S20.172,60.57,8.022,60.57s-25.17-12.194-23.029-33.941S3.205-4.712,20.506-2.115Z" transform="translate(29 8)"/>
      </g>
      <g id="Group_3492" data-name="Group 3492" transform="translate(-75.815 -47)">
        <g id="Group_3490" data-name="Group 3490" transform="translate(96.815 59.991)">
          <path id="Path_2994" data-name="Path 2994" d="M132.815,80.006v-4.03h-4.178a13.9,13.9,0,0,0-2.628-6.33l2.958-2.958-2.85-2.85L123.16,66.8a13.9,13.9,0,0,0-6.33-2.627V59.991H112.8v4.178a13.9,13.9,0,0,0-6.33,2.627l-2.958-2.958-2.85,2.85,2.958,2.958a13.9,13.9,0,0,0-2.628,6.33H96.815v4.03h4.178a13.9,13.9,0,0,0,2.628,6.33l-2.958,2.958,2.85,2.85,2.958-2.958a13.9,13.9,0,0,0,6.33,2.627v4.178h4.03V91.813a13.9,13.9,0,0,0,6.33-2.627l2.958,2.958,2.85-2.85-2.958-2.958a13.9,13.9,0,0,0,2.627-6.33h4.178Zm-18,7.923a9.938,9.938,0,1,1,9.938-9.938A9.949,9.949,0,0,1,114.815,87.929Z" transform="translate(-96.815 -59.991)" fill="#fff"/>
        </g>
      </g>
    </g>
  </g>
</svg>
