<svg xmlns="http://www.w3.org/2000/svg" width="842.79" height="399.439" viewBox="0 0 842.79 399.439">
  <g id="Group_3264" data-name="Group 3264" transform="translate(-789 -2746)">
    <g id="amazon-web-services-2" transform="translate(1509.032 2907)">
      <path id="Path_2213" data-name="Path 2213" d="M35.244,20.632a9.56,9.56,0,0,0,.348,2.812A16.913,16.913,0,0,0,36.6,25.719a1.374,1.374,0,0,1,.221.727,1.251,1.251,0,0,1-.6.948l-1.991,1.327a1.515,1.515,0,0,1-.821.284,1.454,1.454,0,0,1-.948-.442,9.774,9.774,0,0,1-1.137-1.485c-.316-.537-.632-1.137-.979-1.864a11.672,11.672,0,0,1-9.289,4.36A8.657,8.657,0,0,1,14.738,27.3,8.117,8.117,0,0,1,12.4,21.233a8.134,8.134,0,0,1,2.875-6.509,11.494,11.494,0,0,1,7.741-2.464,25.016,25.016,0,0,1,3.349.253c1.169.158,2.37.411,3.634.7V10.9c0-2.4-.506-4.076-1.485-5.055C27.5,4.866,25.8,4.392,23.364,4.392a14.376,14.376,0,0,0-3.412.411,25.176,25.176,0,0,0-3.412,1.074,9.065,9.065,0,0,1-1.106.411,1.938,1.938,0,0,1-.506.095c-.442,0-.664-.316-.664-.979V3.855a2,2,0,0,1,.221-1.106,2.366,2.366,0,0,1,.885-.664A18.19,18.19,0,0,1,19.351.664a19.156,19.156,0,0,1,4.929-.6c3.76,0,6.509.853,8.278,2.559,1.738,1.706,2.622,4.3,2.622,7.773V20.632Zm-12.828,4.8a10.24,10.24,0,0,0,3.254-.569,7.041,7.041,0,0,0,3-2.022,5.015,5.015,0,0,0,1.074-2.022,11.343,11.343,0,0,0,.316-2.749V16.746a26.387,26.387,0,0,0-2.907-.537,23.807,23.807,0,0,0-2.97-.19,7.284,7.284,0,0,0-4.708,1.264,4.4,4.4,0,0,0-1.548,3.634A4.41,4.41,0,0,0,19.1,24.266,4.382,4.382,0,0,0,22.416,25.435Zm25.372,3.412a1.764,1.764,0,0,1-1.2-.316,2.575,2.575,0,0,1-.664-1.232L38.5,2.875a5.534,5.534,0,0,1-.284-1.264.693.693,0,0,1,.758-.79h3.1a1.751,1.751,0,0,1,1.232.316,2.585,2.585,0,0,1,.632,1.232l5.308,20.917L54.17,2.37a2.216,2.216,0,0,1,.6-1.232A2.173,2.173,0,0,1,56.034.821h2.528a1.9,1.9,0,0,1,1.264.316,2.129,2.129,0,0,1,.6,1.232l4.992,21.169L70.884,2.37a2.71,2.71,0,0,1,.632-1.232A2.062,2.062,0,0,1,72.748.821h2.938a.7.7,0,0,1,.79.79,3.151,3.151,0,0,1-.063.506,4.5,4.5,0,0,1-.221.79L68.578,27.331a2.423,2.423,0,0,1-.664,1.232,2.021,2.021,0,0,1-1.2.316H64a1.9,1.9,0,0,1-1.264-.316,2.24,2.24,0,0,1-.6-1.264L57.235,6.92,52.369,27.267a2.466,2.466,0,0,1-.6,1.264,1.958,1.958,0,0,1-1.264.316Zm40.6.853a20.908,20.908,0,0,1-4.866-.569,14.374,14.374,0,0,1-3.634-1.264,2.277,2.277,0,0,1-.979-.885,2.23,2.23,0,0,1-.19-.885V24.487c0-.664.253-.979.727-.979a1.789,1.789,0,0,1,.569.095c.19.063.474.19.79.316a17.186,17.186,0,0,0,3.476,1.106,18.974,18.974,0,0,0,3.76.379,8.525,8.525,0,0,0,4.613-1.043,3.4,3.4,0,0,0,1.643-3,3.077,3.077,0,0,0-.853-2.212A7.928,7.928,0,0,0,90.253,17.5l-4.581-1.422a9.637,9.637,0,0,1-5.055-3.223,7.528,7.528,0,0,1-1.58-4.581,7.032,7.032,0,0,1,.853-3.507A8.124,8.124,0,0,1,82.164,2.18,10.028,10.028,0,0,1,85.45.537,13.771,13.771,0,0,1,89.431,0a15.861,15.861,0,0,1,2.117.126c.727.095,1.39.221,2.054.348.632.158,1.232.316,1.8.506a6.9,6.9,0,0,1,1.327.569,2.732,2.732,0,0,1,.948.79,1.7,1.7,0,0,1,.284,1.043V4.866c0,.664-.253,1.011-.727,1.011a3.287,3.287,0,0,1-1.2-.379,14.455,14.455,0,0,0-6.066-1.232,8.155,8.155,0,0,0-4.2.885,3.051,3.051,0,0,0-1.485,2.812,2.984,2.984,0,0,0,.948,2.243A9.438,9.438,0,0,0,88.7,11.943l4.487,1.422a9.61,9.61,0,0,1,4.9,3.033,7.15,7.15,0,0,1,1.453,4.423,8.123,8.123,0,0,1-.822,3.665,8.5,8.5,0,0,1-2.307,2.78,10.185,10.185,0,0,1-3.507,1.769,15.024,15.024,0,0,1-4.518.664Z" transform="translate(-8.504)" fill="#fff"/>
      <path id="Path_2214" data-name="Path 2214" d="M85.856,125.8c-10.4,7.678-25.5,11.754-38.484,11.754A69.622,69.622,0,0,1,.389,119.641c-.979-.885-.095-2.085,1.074-1.39a94.753,94.753,0,0,0,47.015,12.48,93.82,93.82,0,0,0,35.861-7.33C86.077,122.611,87.562,124.538,85.856,125.8Z" transform="translate(0 -80.746)" fill="#fff"/>
      <path id="Path_2215" data-name="Path 2215" d="M257.308,116.8c-1.327-1.706-8.784-.821-12.164-.411-1.011.126-1.169-.758-.253-1.422,5.94-4.171,15.7-2.97,16.841-1.58,1.137,1.422-.316,11.185-5.877,15.861-.853.727-1.675.348-1.3-.6C255.823,125.523,258.635,118.477,257.308,116.8Z" transform="translate(-167.124 -76.676)" fill="#fff"/>
    </g>
    <g id="google_cloud-ar21" transform="translate(1477.564 3017.825)">
      <path id="Path_2216" data-name="Path 2216" d="M71.2,14.309l1.538.027,4.179-4.179.2-1.771a18.776,18.776,0,0,0-30.61,9.123,2.262,2.262,0,0,1,1.432-.081l8.353-1.374s.43-.713.645-.668A10.435,10.435,0,0,1,71.2,14.309Z" transform="translate(14.575)" fill="#fff"/>
      <path id="Path_2217" data-name="Path 2217" d="M78.416,16.3a18.813,18.813,0,0,0-5.669-9.139l-5.919,5.919a10.421,10.421,0,0,1,3.893,8.121v1.045a5.217,5.217,0,0,1,0,10.435H60.283l-1.045,1.049V40l1.045,1.039H70.72A13.56,13.56,0,0,0,78.4,16.3Z" transform="translate(18.963 1.218)" fill="#fff"/>
      <path id="Path_2218" data-name="Path 2218" d="M54.336,34.623H64.771V26.27H54.336a5.164,5.164,0,0,1-2.148-.467l-1.506.461L46.5,30.444l-.366,1.412a13.393,13.393,0,0,0,8.2,2.77Z" transform="translate(14.447 7.642)" fill="#fff"/>
      <path id="Path_2219" data-name="Path 2219" d="M55.714,12.175A13.567,13.567,0,0,0,47.519,36.56l6.051-6.051a5.217,5.217,0,1,1,6.9-6.9l6.051-6.051A13.55,13.55,0,0,0,55.708,12.18Z" transform="translate(13.069 2.945)" fill="#fff"/>
      <path id="Path_2220" data-name="Path 2220" d="M14.68,57.217a10.157,10.157,0,0,1-7.361-3.026,10.1,10.1,0,0,1,0-14.544A10.167,10.167,0,0,1,14.68,36.62a9.843,9.843,0,0,1,7.058,2.837l-1.986,1.986a7.154,7.154,0,0,0-5.074-2.01,7.059,7.059,0,0,0-5.239,2.188,7.611,7.611,0,0,0,0,10.6,7.06,7.06,0,0,0,5.239,2.188,7,7,0,0,0,5.2-2.063A5.946,5.946,0,0,0,21.415,48.8H14.684V45.988h9.472a8.985,8.985,0,0,1,.134,1.748,8.885,8.885,0,0,1-2.438,6.582,9.486,9.486,0,0,1-7.187,2.891Zm22.013-1.883a6.865,6.865,0,0,1-9.445,0,6.76,6.76,0,0,1,0-9.467,6.865,6.865,0,0,1,9.445,0,6.76,6.76,0,0,1,0,9.467Zm-7.361-1.856a3.621,3.621,0,0,0,5.279,0,4.334,4.334,0,0,0,.012-5.769,3.677,3.677,0,0,0-5.3,0,4.334,4.334,0,0,0,.012,5.769Zm21.883,1.856a6.865,6.865,0,0,1-9.445,0,6.76,6.76,0,0,1,0-9.467,6.865,6.865,0,0,1,9.445,0,6.76,6.76,0,0,1,0,9.467Zm-7.361-1.856a3.621,3.621,0,0,0,5.279,0,4.334,4.334,0,0,0,.012-5.769,3.677,3.677,0,0,0-5.3,0,4.334,4.334,0,0,0,.012,5.769ZM60.76,63.188A5.839,5.839,0,0,1,57.044,62a6.833,6.833,0,0,1-2.16-2.741l2.539-1.053a4.146,4.146,0,0,0,1.255,1.659,3.194,3.194,0,0,0,2.087.7,3.39,3.39,0,0,0,2.6-1,4.084,4.084,0,0,0,.941-2.891v-.941h-.1a4.237,4.237,0,0,1-3.491,1.509,6.065,6.065,0,0,1-4.447-1.934,6.4,6.4,0,0,1-1.909-4.674,6.482,6.482,0,0,1,1.909-4.711,6.05,6.05,0,0,1,4.447-1.946,4.762,4.762,0,0,1,2.047.428A4.175,4.175,0,0,1,64.2,45.46h.1V44.393H67.07V56.3A6.927,6.927,0,0,1,65.3,61.493a6.26,6.26,0,0,1-4.536,1.721Zm.2-8.569a3.241,3.241,0,0,0,2.527-1.142,4.134,4.134,0,0,0,1.017-2.853,4.226,4.226,0,0,0-1.017-2.891,3.227,3.227,0,0,0-2.527-1.154,3.452,3.452,0,0,0-2.611,1.154,4.069,4.069,0,0,0-1.081,2.891,3.99,3.99,0,0,0,1.081,2.853,3.464,3.464,0,0,0,2.611,1.143Zm11.029-17.3v19.5H69.077V37.32Zm7.988,19.9a6.334,6.334,0,0,1-4.7-1.909A6.457,6.457,0,0,1,73.4,50.584a6.528,6.528,0,0,1,1.821-4.774,5.984,5.984,0,0,1,4.435-1.861,5.614,5.614,0,0,1,2.236.44,5.271,5.271,0,0,1,1.708,1.13,7.853,7.853,0,0,1,1.081,1.343,8.23,8.23,0,0,1,.654,1.307l.3.753L76.765,52.6a3.371,3.371,0,0,0,3.217,2.01,3.8,3.8,0,0,0,3.265-1.833l2.259,1.509a7.368,7.368,0,0,1-2.135,2.035,6.074,6.074,0,0,1-3.394.9Zm-3.693-6.831L82.2,47.924a2.016,2.016,0,0,0-.941-1.017,3.039,3.039,0,0,0-1.533-.387,3.439,3.439,0,0,0-2.4,1.053,3.546,3.546,0,0,0-1.069,2.813Zm24.649,6.831a9.189,9.189,0,0,1-9.348-9.4,9.189,9.189,0,0,1,9.348-9.4,8.322,8.322,0,0,1,6.607,2.938l-1.607,1.56a6.051,6.051,0,0,0-5-2.286,6.859,6.859,0,0,0-7,7.185,6.967,6.967,0,0,0,2.022,5.2,6.816,6.816,0,0,0,4.975,1.986,7.048,7.048,0,0,0,5.513-2.611L108.053,54a8.754,8.754,0,0,1-3.093,2.349,9.44,9.44,0,0,1-4.04.863Zm11.505-.4h-2.313V38.83h2.313Zm3.769-10.838a6.457,6.457,0,0,1,9.1,0,7.046,7.046,0,0,1,0,9.373,6.457,6.457,0,0,1-9.1,0,7.046,7.046,0,0,1,0-9.373Zm1.721,7.911a3.882,3.882,0,0,0,5.648,0,4.369,4.369,0,0,0,1.194-3.227,4.415,4.415,0,0,0-1.194-3.227,3.882,3.882,0,0,0-5.648,0,4.369,4.369,0,0,0-1.194,3.227A4.415,4.415,0,0,0,117.931,53.89Zm21.946,2.927h-2.212V55.11h-.1a4.131,4.131,0,0,1-1.607,1.479,4.713,4.713,0,0,1-2.286.619,4.326,4.326,0,0,1-3.5-1.408,5.645,5.645,0,0,1-1.194-3.769V44.492h2.313v7.159q0,3.445,3.039,3.442a2.824,2.824,0,0,0,2.337-1.154,4.209,4.209,0,0,0,.9-2.664V44.492h2.313V56.806Zm7.837.4a5.415,5.415,0,0,1-4.12-1.885,7.173,7.173,0,0,1,0-9.348,5.417,5.417,0,0,1,4.12-1.885,5.287,5.287,0,0,1,2.528.6,4.213,4.213,0,0,1,1.671,1.509h.1l-.1-1.708V38.826h2.313V56.818h-2.212V55.11h-.1a4.272,4.272,0,0,1-1.671,1.509,5.324,5.324,0,0,1-2.528.6Zm.377-2.111a3.685,3.685,0,0,0,2.777-1.206,5.128,5.128,0,0,0,0-6.455,3.773,3.773,0,0,0-5.542.012,5.091,5.091,0,0,0,0,6.455,3.671,3.671,0,0,0,2.765,1.218Z" transform="translate(0 11.371)" fill="#fff"/>
    </g>
    <g id="docker-3" transform="translate(768.113 2670.1)">
      <path id="Path_2221" data-name="Path 2221" d="M260.518,290a1.5,1.5,0,0,0-1.556,1.451v7.6a8.417,8.417,0,0,0-11.818,1.293,8.5,8.5,0,0,0-1.847,5.276,8.4,8.4,0,1,0,16.8.29V291.554a1.555,1.555,0,0,0-.448-1.108,1.665,1.665,0,0,0-1.134-.448m-1.978,17.648a5.254,5.254,0,0,1-6.912,2.823,5.273,5.273,0,0,1,0-9.681,5.254,5.254,0,0,1,6.912,2.823,5.109,5.109,0,0,1,0,4.036m19.521-7.967a8.485,8.485,0,1,0,2.48,6.226v-.29a8.432,8.432,0,0,0-.633-3.218,8.014,8.014,0,0,0-1.847-2.717m-1.082,7.94a5.17,5.17,0,0,1-1.134,1.662,5.474,5.474,0,0,1-1.662,1.134,5.272,5.272,0,0,1-6.911-2.8,5.255,5.255,0,0,1,2.8-6.885,5.3,5.3,0,0,1,4.115,0,5.171,5.171,0,0,1,1.662,1.134,5.473,5.473,0,0,1,1.134,1.662,5.237,5.237,0,0,1,0,4.089m35.824-8.864a1.564,1.564,0,0,0-.132-.607,2.113,2.113,0,0,0-.343-.5,1.69,1.69,0,0,0-.5-.343,1.565,1.565,0,0,0-.607-.132,1.637,1.637,0,0,0-.844.237l-8.969,5.83v-11.66a1.555,1.555,0,0,0-.448-1.108,1.567,1.567,0,0,0-2.691,1.082v20.866a1.555,1.555,0,0,0,.448,1.108,1.53,1.53,0,0,0,2.216,0,1.453,1.453,0,0,0,.448-1.108v-5.408l1.82-1.187,6.938,7.782a1.429,1.429,0,0,0,1.055.4,1.2,1.2,0,0,0,.607-.132,1.547,1.547,0,0,0,.5-.343,2.115,2.115,0,0,0,.343-.5,1.565,1.565,0,0,0,.132-.607,1.635,1.635,0,0,0-.422-1.082l-6.437-7.254L312.2,300a1.347,1.347,0,0,0,.607-1.24m-26.037,3.113a5.284,5.284,0,0,1,1.688-1.134,5.517,5.517,0,0,1,2.058-.422,5.284,5.284,0,0,1,1.82.317,5.592,5.592,0,0,1,1.609.976,1.613,1.613,0,0,0,1.029.343,1.419,1.419,0,0,0,1.134-.448,1.617,1.617,0,0,0,.448-1.134,1.5,1.5,0,0,0-.554-1.187,7.916,7.916,0,0,0-5.487-2.031,8.415,8.415,0,1,0,5.461,14.8,1.574,1.574,0,0,0,.5-1.161,1.5,1.5,0,0,0-1.451-1.556h-.105a1.679,1.679,0,0,0-1,.317,5.462,5.462,0,0,1-1.583.976,5.4,5.4,0,0,1-1.82.317,5.043,5.043,0,0,1-2.058-.422,5.591,5.591,0,0,1-1.688-1.134,5.278,5.278,0,0,1-.026-7.439c.026.053.026.053.026.026m57.191-3.614a2.894,2.894,0,0,0-1.055-.633,6.318,6.318,0,0,0-1.4-.317,12.889,12.889,0,0,0-1.424-.079,7.963,7.963,0,0,0-2.823.5A8.622,8.622,0,0,0,334.8,299.1v-.317a1.571,1.571,0,0,0-3.139,0v13.691a1.571,1.571,0,0,0,3.139,0v-6.832a5.043,5.043,0,0,1,.422-2.058,4.784,4.784,0,0,1,1.134-1.662,5.219,5.219,0,0,1,3.72-1.556,6.04,6.04,0,0,1,2.058.369,1.43,1.43,0,0,0,.659.158,1.2,1.2,0,0,0,.607-.132,1.546,1.546,0,0,0,.5-.343,1.69,1.69,0,0,0,.343-.5,1.565,1.565,0,0,0,.132-.607,1.355,1.355,0,0,0-.422-1.055M329.4,302.4a8.568,8.568,0,0,0-7.782-5.17A8.4,8.4,0,1,0,327.1,312l.053-.053a1.242,1.242,0,0,0,.343-.4,1.6,1.6,0,0,0-.4-2.216,1.554,1.554,0,0,0-1.926.185c-.053.053-.211.185-.211.211l-.026.026a4.771,4.771,0,0,1-1.5.871,4.71,4.71,0,0,1-1.82.29,5.246,5.246,0,0,1-3.166-1.029,4.851,4.851,0,0,1-1.161-1.161,4.7,4.7,0,0,1-.739-1.5h11.871a1.555,1.555,0,0,0,1.108-.448,1.365,1.365,0,0,0,.448-1.108,8.558,8.558,0,0,0-.58-3.271m-12.847,1.688a4.447,4.447,0,0,1,.739-1.5,4.851,4.851,0,0,1,1.161-1.161,6.038,6.038,0,0,1,1.477-.765,5.367,5.367,0,0,1,3.324,0,5.338,5.338,0,0,1,3.4,3.429Zm22.054,7.65a1.095,1.095,0,1,0,1.108,1.108A1.092,1.092,0,0,0,338.6,311.735Zm0,1.952a.858.858,0,1,1,.818-.9v.053a.806.806,0,0,1-.791.844Z" transform="translate(-165.21 -33.201)" fill="#fff"/>
      <path id="Path_2222" data-name="Path 2222" d="M173.656,301.581a.288.288,0,0,0,.106-.5.843.843,0,0,0-.369-.079,2.268,2.268,0,0,0-.422.026v1.082h.237v-.422h.106a.212.212,0,0,1,.237.158c.026.079.053.185.079.264h.264a.509.509,0,0,1-.079-.264.251.251,0,0,0-.158-.264m-.317-.079h-.132v-.317h.132c.158,0,.237.079.237.158.026.106-.106.185-.237.158M77.211,282.271a7.471,7.471,0,0,0-4.643-1.213,14.757,14.757,0,0,0-2.4.211,9.044,9.044,0,0,0-4.062-6.094l-.818-.475-.528.765a11.28,11.28,0,0,0-1.451,3.377,8.016,8.016,0,0,0,.95,6.3,11.191,11.191,0,0,1-4.142,1H22.658a1.768,1.768,0,0,0-1.767,1.767,26.693,26.693,0,0,0,1.636,9.629,14.441,14.441,0,0,0,5.7,7.413c2.8,1.715,7.36,2.691,12.5,2.691a38.352,38.352,0,0,0,6.938-.633,28.633,28.633,0,0,0,9.075-3.3,24.838,24.838,0,0,0,6.173-5.065,33.585,33.585,0,0,0,6.041-10.42h.528a8.68,8.68,0,0,0,6.358-2.4,7.025,7.025,0,0,0,1.688-2.48l.237-.686Z" transform="translate(0 -21.939)" fill="#fff"/>
      <path id="Path_2223" data-name="Path 2223" d="M39.548,263.128h5.012a.445.445,0,0,0,.448-.448V258.2a.445.445,0,0,0-.448-.448H39.548a.445.445,0,0,0-.448.448v4.485A.462.462,0,0,0,39.548,263.128Zm6.912,0h5.012a.445.445,0,0,0,.448-.448V258.2a.445.445,0,0,0-.448-.448H46.46a.445.445,0,0,0-.448.448v4.485a.462.462,0,0,0,.448.448m7.043,0h5.012a.445.445,0,0,0,.448-.448V258.2a.445.445,0,0,0-.448-.448H53.5a.445.445,0,0,0-.448.448v4.485A.429.429,0,0,0,53.5,263.128Zm6.938,0h5.012a.445.445,0,0,0,.448-.448V258.2a.445.445,0,0,0-.448-.448H60.441a.445.445,0,0,0-.448.448v4.485A.445.445,0,0,0,60.441,263.128Zm-13.981-6.41h5.012a.462.462,0,0,0,.448-.448v-4.485a.445.445,0,0,0-.448-.448H46.46a.445.445,0,0,0-.448.448v4.485a.482.482,0,0,0,.448.448m7.043,0h5.012a.462.462,0,0,0,.448-.448v-4.485a.445.445,0,0,0-.448-.448H53.5a.445.445,0,0,0-.448.448v4.485a.445.445,0,0,0,.448.448m6.938,0h5.012a.462.462,0,0,0,.448-.448v-4.485a.462.462,0,0,0-.448-.448H60.441a.445.445,0,0,0-.448.448v4.485a.462.462,0,0,0,.448.448m0-6.437h5.012a.445.445,0,0,0,.448-.448v-4.485a.462.462,0,0,0-.448-.448H60.441a.445.445,0,0,0-.448.448v4.485a.462.462,0,0,0,.448.448m6.991,12.847h5.012a.445.445,0,0,0,.448-.448V258.2a.445.445,0,0,0-.448-.448H67.432a.445.445,0,0,0-.448.448v4.485a.462.462,0,0,0,.448.448" transform="translate(-13.408)" fill="#fff"/>
    </g>
    <g id="npm" transform="translate(914 2752)">
      <path id="Path_2224" data-name="Path 2224" d="M0,0V31.2H25.97v5.23h20.74V31.2H93.422V0Z" fill="#fff"/>
      <path id="Path_2225" data-name="Path 2225" d="M24.612,14.332H14.332v20.74h10.28V19.562h5.23v15.51h5.23V14.332Zm15.69,0V40.3h10.46v-5.23h10.28V14.332Zm15.51,15.51h-5.05V19.562h5.05Zm20.74-15.51H66.273v20.74h10.28V19.562h5.23v15.51h5.23V19.562h5.23v15.51h5.23V14.332Z" transform="translate(-9.102 -9.102)"/>
    </g>
    <g id="kubernets" transform="translate(946.468 3056.769)">
      <path id="Path_2226" data-name="Path 2226" d="M22.765,60.441a4.576,4.576,0,0,1-3.608-1.746L5.579,41.819a4.555,4.555,0,0,1-.892-3.957L9.536,16.8a4.589,4.589,0,0,1,2.522-3.142L31.688,4.264a4.6,4.6,0,0,1,4.035,0l19.631,9.35a4.589,4.589,0,0,1,2.522,3.142l4.849,21.066a4.68,4.68,0,0,1-.892,3.957L48.254,58.656A4.7,4.7,0,0,1,44.646,60.4l-21.881.039Z" transform="translate(-3.077 -2.78)" fill="#fff"/>
      <path id="Path_2227" data-name="Path 2227" d="M30.59,1.988a3.8,3.8,0,0,1,1.591.349l19.631,9.35a3.767,3.767,0,0,1,2.017,2.522l4.849,21.066a3.628,3.628,0,0,1-.737,3.181L44.362,55.333a3.7,3.7,0,0,1-2.91,1.4H19.688a3.7,3.7,0,0,1-2.91-1.4L3.2,38.456a3.883,3.883,0,0,1-.737-3.181L7.312,14.209A3.7,3.7,0,0,1,9.33,11.687L28.961,2.3a4.671,4.671,0,0,1,1.629-.31Zm0-1.823a5.873,5.873,0,0,0-2.405.543L8.554,10.1A5.494,5.494,0,0,0,5.528,13.86L.678,34.926a5.5,5.5,0,0,0,1.086,4.733L15.343,56.535a5.481,5.481,0,0,0,4.306,2.056H41.414a5.48,5.48,0,0,0,4.306-2.056L59.3,39.659a5.473,5.473,0,0,0,1.086-4.733L55.535,13.86A5.494,5.494,0,0,0,52.51,10.1L32.956.708A5.566,5.566,0,0,0,30.59.165Z" transform="translate(0)" fill="#fff"/>
      <path id="Path_2228" data-name="Path 2228" d="M81.255,62.8h-.039c-.039,0-.078,0-.078-.039-.078,0-.155-.039-.233-.039a5.306,5.306,0,0,0-.737-.078,1.449,1.449,0,0,1-.388-.039h-.039a10.235,10.235,0,0,1-2.1-.349.757.757,0,0,1-.427-.427c0-.039-.039-.039-.039-.078l-.5-.155a15.346,15.346,0,0,0-.272-5.47,15.985,15.985,0,0,0-2.173-5.082l.388-.349v-.078a.878.878,0,0,1,.194-.582,11.319,11.319,0,0,1,1.746-1.2c.116-.078.233-.116.349-.194a5.809,5.809,0,0,0,.66-.388c.039-.039.116-.078.194-.155.039-.039.078-.039.078-.078a1.3,1.3,0,0,0,.272-1.746,1.1,1.1,0,0,0-.892-.427,1.442,1.442,0,0,0-.853.31l-.078.078c-.078.039-.117.117-.194.155a6.409,6.409,0,0,0-.5.543,1.783,1.783,0,0,1-.272.272,9.862,9.862,0,0,1-1.552,1.4.626.626,0,0,1-.349.117.49.49,0,0,1-.233-.039h-.078l-.466.311a18.857,18.857,0,0,0-1.59-1.474,15.493,15.493,0,0,0-8.108-3.22l-.039-.5-.078-.078a.812.812,0,0,1-.311-.5,13.629,13.629,0,0,1,.117-2.1v-.039a1.38,1.38,0,0,1,.078-.388c.039-.233.078-.466.117-.737V39.6a1.184,1.184,0,0,0-2.056-.892,1.23,1.23,0,0,0-.349.892v.31a2.261,2.261,0,0,0,.116.737c.039.117.039.233.078.388v.039a10.033,10.033,0,0,1,.117,2.1.811.811,0,0,1-.31.5l-.078.078-.039.5a19.455,19.455,0,0,0-2.1.31,14.957,14.957,0,0,0-7.681,4.345l-.388-.272h-.078c-.078,0-.155.039-.233.039a.627.627,0,0,1-.349-.116,10.286,10.286,0,0,1-1.552-1.435,1.782,1.782,0,0,0-.272-.272,6.414,6.414,0,0,0-.5-.543c-.039-.039-.116-.078-.194-.155-.039-.039-.078-.039-.078-.078a1.356,1.356,0,0,0-.854-.311,1.1,1.1,0,0,0-.892.427,1.3,1.3,0,0,0,.272,1.746c.039,0,.039.039.078.039.078.039.117.116.194.155a5.883,5.883,0,0,0,.66.388,1.566,1.566,0,0,1,.349.194,11.311,11.311,0,0,1,1.746,1.2.712.712,0,0,1,.194.582v.078l.388.349a1.37,1.37,0,0,0-.194.31,15.11,15.11,0,0,0-2.173,10.242l-.5.155c0,.039-.039.039-.039.078a.9.9,0,0,1-.427.427,9.787,9.787,0,0,1-2.095.349h-.039a1.32,1.32,0,0,0-.388.039,5.3,5.3,0,0,0-.737.078c-.078,0-.155.039-.233.039a.143.143,0,0,0-.117.039,1.272,1.272,0,0,0-1.009,1.435,1.2,1.2,0,0,0,1.241.893.851.851,0,0,0,.311-.039c.039,0,.078,0,.078-.039.078,0,.155-.039.233-.039a3.718,3.718,0,0,0,.7-.272c.116-.039.233-.117.349-.155h.039a9.515,9.515,0,0,1,2.018-.582h.078a.862.862,0,0,1,.5.194c.039,0,.039.039.078.039l.543-.078a15.345,15.345,0,0,0,5.082,7.294,15.734,15.734,0,0,0,1.668,1.125l-.233.5c0,.039.039.039.039.078a.8.8,0,0,1,.078.621,10.915,10.915,0,0,1-1.009,1.823v.039c-.078.117-.155.194-.233.31-.155.194-.272.388-.427.621a.845.845,0,0,0-.116.194.135.135,0,0,1-.039.078,1.227,1.227,0,0,0,.5,1.668,1.034,1.034,0,0,0,.466.117,1.4,1.4,0,0,0,1.164-.737.135.135,0,0,1,.039-.078.855.855,0,0,1,.116-.194,7.29,7.29,0,0,0,.233-.7l.117-.349a9.121,9.121,0,0,1,.815-1.94,1,1,0,0,1,.5-.349c.039,0,.039,0,.078-.039l.272-.5a15.156,15.156,0,0,0,5.431,1.009,14.086,14.086,0,0,0,3.375-.388,17.244,17.244,0,0,0,2.017-.582l.233.427c.039,0,.039,0,.078.039a.719.719,0,0,1,.5.349,13.286,13.286,0,0,1,.815,1.94v.039l.117.349a4.918,4.918,0,0,0,.233.7c.039.077.078.117.117.194a.135.135,0,0,0,.039.078,1.318,1.318,0,0,0,1.164.737,1.034,1.034,0,0,0,.466-.117,1.156,1.156,0,0,0,.582-.7,1.4,1.4,0,0,0-.078-.97c0-.039-.039-.039-.039-.078a.855.855,0,0,0-.116-.194,3.521,3.521,0,0,0-.427-.621c-.078-.116-.155-.194-.233-.31v-.039a8.686,8.686,0,0,1-1.009-1.824,1.082,1.082,0,0,1,.039-.621c0-.039.039-.039.039-.078L69.5,72.5a15.389,15.389,0,0,0,6.75-8.5l.466.078c.039,0,.039-.039.078-.039a.987.987,0,0,1,.5-.194h.078a9.516,9.516,0,0,1,2.018.582h.039c.116.039.233.116.349.155a3.738,3.738,0,0,0,.7.272c.078,0,.155.039.233.039a.142.142,0,0,1,.116.039.856.856,0,0,0,.311.039,1.306,1.306,0,0,0,1.241-.892,1.493,1.493,0,0,0-1.125-1.28ZM63.293,60.9l-1.707.815L59.879,60.9l-.427-1.823L60.616,57.6h1.9l1.164,1.474L63.293,60.9Zm10.126-4.035a12.233,12.233,0,0,1,.272,3.918l-5.936-1.707a1.052,1.052,0,0,1-.737-1.241.925.925,0,0,1,.233-.427l4.694-4.229a12.441,12.441,0,0,1,1.474,3.686Zm-3.336-6.013L65,54.457a1.033,1.033,0,0,1-1.358-.233.865.865,0,0,1-.194-.427L63.1,47.474a11.775,11.775,0,0,1,6.983,3.375ZM58.831,47.667c.427-.078.815-.155,1.241-.233l-.349,6.207a1.062,1.062,0,0,1-1.048,1.009.923.923,0,0,1-.466-.116l-5.16-3.685a11.835,11.835,0,0,1,5.781-3.181Zm-7.643,5.509,4.617,4.112a1.033,1.033,0,0,1,.117,1.435.774.774,0,0,1-.466.311L49.443,60.78A12.489,12.489,0,0,1,51.189,53.176ZM50.141,63.69l6.169-1.048a1.046,1.046,0,0,1,1.086.815,1.109,1.109,0,0,1-.039.621l-2.367,5.7a12.229,12.229,0,0,1-4.849-6.091ZM64.3,71.41a12.67,12.67,0,0,1-2.716.31,13.138,13.138,0,0,1-3.918-.621l3.065-5.548a1.018,1.018,0,0,1,1.241-.272,1.654,1.654,0,0,1,.466.427L65.426,71.1c-.349.116-.737.194-1.125.31Zm7.565-5.393a12.316,12.316,0,0,1-3.724,3.763L65.7,63.923a1.044,1.044,0,0,1,.543-1.2,1.239,1.239,0,0,1,.543-.116l6.207,1.048a7.81,7.81,0,0,1-1.125,2.367Z" transform="translate(-30.996 -29.191)"/>
    </g>
    <g id="jenkins" transform="translate(1138 2736.003)">
      <path id="Path_2229" data-name="Path 2229" d="M47.983,66.088A17.493,17.493,0,0,1,30.691,83.775a17.692,17.692,0,0,1,0-35.375A17.493,17.493,0,0,1,47.983,66.088" transform="translate(-2.862 -32.331)" fill="#fff"/>
      <path id="Path_2230" data-name="Path 2230" d="M12.944,76.432S11.693,57.986,28.689,57.459L27.5,55.483l-9.222,3.1-2.635,3.03L13.34,66.023l-1.318,5.138.4,3.425" transform="translate(-1.702 -38.294)" fill="#fff"/>
      <path id="Path_2231" data-name="Path 2231" d="M15.986,51.513a17.439,17.439,0,0,0,0,24.263,16.484,16.484,0,0,0,23.687,0,17.439,17.439,0,0,0,0-24.263,16.485,16.485,0,0,0-23.687,0Zm-.768,25.014a18.511,18.511,0,0,1,0-25.765,17.557,17.557,0,0,1,25.223,0,18.511,18.511,0,0,1,0,25.765,17.556,17.556,0,0,1-25.222,0" transform="translate(0 -29.822)" fill="#fff"/>
      <path id="Path_2232" data-name="Path 2232" d="M69.89,37.768l-2.635.4-3.557.4-2.306.066-2.24-.066-1.713-.527-1.515-1.647-1.186-3.36-.264-.725-1.581-.527-.922-1.515-.659-2.174.725-1.911,1.713-.593,1.383.659.659,1.449.791-.132.264-.329-.264-1.515L56.517,23.8l.4-2.635L56.9,19.662l1.2-1.92,2.108-1.515L63.9,14.646l4.084.593,3.557,2.569,1.647,2.635,1.054,1.91L74.5,27.1l-.791,4.084L72.262,34.8l-1.383,1.91" transform="translate(-34.781 -3.914)" fill="#fff"/>
      <path id="Path_2233" data-name="Path 2233" d="M55.723,167.381l-9.42.4v1.581l.791,5.533-.4.461-6.588-2.24-.461-.791-.659-7.444-1.515-4.48-.329-1.054,5.27-3.623,1.647-.659,1.449,1.779,1.252,1.12,1.449.461.659.2.791,3.426.593.725,1.515-.527-1.054,2.042,5.731,2.7-.725.4" transform="translate(-22.854 -122.13)" fill="#fff"/>
      <path id="Path_2234" data-name="Path 2234" d="M54.493,29.33l1.713-.593,1.383.659.659,1.449.791-.132.2-.79-.4-1.515.4-3.623-.329-1.976,1.186-1.383,2.569-2.042-.724-.988-3.623,1.779L56.8,21.359,55.943,23.2l-1.317,1.779-.4,2.108.263,2.24" transform="translate(-37.237 -7.07)" fill="#fff"/>
      <path id="Path_2235" data-name="Path 2235" d="M57.193,24.317s.988-2.437,4.941-3.623.2-.857.2-.857L58.05,21.485,56.4,23.132l-.725,1.318,1.515-.132m-1.976,5.731s-1.383-4.611,3.886-5.27l-.2-.791-3.623.857L54.229,28.27l.263,2.24.725-.461" transform="translate(-37.236 -8.249)" fill="#fff"/>
      <path id="Path_2236" data-name="Path 2236" d="M54.518,28.9l.863-.836a.555.555,0,0,1,.455.506c.066.461.263,4.612,3.1,6.851.258.2-2.108-.33-2.108-.33L54.716,31.8m11.924-4.15s.154-2,.692-1.843a.74.74,0,0,1,.538.691s-1.306.845-1.229,1.152m5.467-7.312s-1.086.229-1.186,1.186,1.186.2,1.383.132M64.136,20.4s-1.449.2-1.449,1.12,1.647.856,2.108.461m-9.618,2.7s-2.5-1.515-2.767-.066-.857,2.5.4,4.019l-.857-.264-.791-2.042L50.9,24.353l1.515-1.581,1.713.132.988.791.066.988m1.186-4.15s1.12-5.8,6.785-6.917c4.665-.922,7.114.2,8.037,1.252,0,0-4.15-4.941-8.1-3.425S56.231,15.723,56.3,17.5a29.054,29.054,0,0,1,.066,3.03m15.283-5.007s-1.91-.066-1.976,1.647a1.307,1.307,0,0,0,.132.527s1.515-1.713,2.437-.791" transform="translate(-34.429 -0.973)" fill="#fff"/>
      <path id="Path_2237" data-name="Path 2237" d="M109.051,45.286s-.329-2.629-2.57-1.1c-1.45.988-1.318,2.372-1.054,2.635s.192.794.393.43.134-1.55.859-1.879,1.912-.7,2.372-.085" transform="translate(-80.2 -28.381)" fill="#fff"/>
      <path id="Path_2238" data-name="Path 2238" d="M45.511,156.49l-6.192,2.767s2.569,10.211,1.252,13.373l-.922-.329-.066-3.887-1.713-7.378-.725-2.042,6.456-4.348,1.91,1.844m.637,5.648.878,1.072v3.953H45.972s-.132-2.767-.132-3.1.132-1.515.132-1.515m.2,5.2-2.964.132.856.593,2.108.329" transform="translate(-22.853 -121.779)" fill="#fff"/>
      <path id="Path_2239" data-name="Path 2239" d="M158.4,233.044l2.438-.066.593,6.061-2.5.329-.527-6.324" transform="translate(-124.934 -187.727)" fill="#fff"/>
      <path id="Path_2240" data-name="Path 2240" d="M162.563,162.186l3.689-.2s1.515-3.821,1.515-4.018,1.318-5.534,1.318-5.534l-2.964-3.1-.593-.527-1.581,1.581v6.126l-1.383,5.665" transform="translate(-128.442 -116.869)" fill="#fff"/>
      <path id="Path_2241" data-name="Path 2241" d="M160.7,161.724l-2.306.461.33,1.845c.856.4,2.306-.659,2.306-.659m-.264-13.175,4.612,3.426.132-1.581-3.491-3.228-1.252,1.383" transform="translate(-124.933 -116.869)" fill="#fff"/>
      <path id="Path_2242" data-name="Path 2242" d="M97.217,246.373l-1.364-5.535-.678-4.083-.112-3.031,6.173-.329h3.84l-.349,6.918.593,5.336-.066.988-5.006.4-3.03-.658" transform="translate(-71.614 -188.077)" fill="#fff"/>
      <path id="Path_2243" data-name="Path 2243" d="M130.527,230.873a58.265,58.265,0,0,0,.659,11.726,12.584,12.584,0,0,1-4.875,1.581l5.534-.2.659-.4-.791-10.8-.2-2.306" transform="translate(-97.922 -185.622)" fill="#dcd9d8"/>
      <path id="Path_2244" data-name="Path 2244" d="M174.517,229.045l2.569-.725,4.875-.263.725-2.24-1.318-3.886-1.515-.2-2.108.659-2.023.988-1.074-.2-.837.329" transform="translate(-137.913 -178.26)" fill="#fff"/>
      <path id="Path_2245" data-name="Path 2245" d="M177.979,234.74a9.639,9.639,0,0,1,1.976-.724l-.725-3.623.856-.329s.593,3.425.593,3.821c0,0,3.689.2,4.018.2a5.983,5.983,0,0,0,.593-3.1l.725,2.108.066,1.186-1.054,1.581-1.186.264-1.976-.066-.659-.856-2.305.329-.725.264" transform="translate(-141.421 -185.273)" fill="#dcd9d8"/>
      <path id="Path_2246" data-name="Path 2246" d="M145.819,193.935l-1.449-3.689-1.515-2.174s.329-.922.791-.922h1.515l1.449.527-.132,2.437-.659,3.821" transform="translate(-111.85 -149.145)" fill="#fff"/>
      <path id="Path_2247" data-name="Path 2247" d="M145.506,191.976a30.708,30.708,0,0,1-1.844-4.084s.329-.791.791-.593,1.449.724,1.449.724v-1.252l-2.24-.461-1.515.2,2.569,6.061.527.066" transform="translate(-111.253 -148.438)" fill="#dcd9d8"/>
      <path id="Path_2248" data-name="Path 2248" d="M93.6,163.286l-1.825-.2-1.713-.527v.593l.837.923,2.635,1.186" transform="translate(-67.404 -128.443)" fill="#fff"/>
      <path id="Path_2249" data-name="Path 2249" d="M92.762,168.4s2.042.856,2.7.659l.065.79-1.844-.394-1.12-.791.2-.264" transform="translate(-69.51 -133.358)" fill="#dcd9d8"/>
      <path id="Path_2250" data-name="Path 2250" d="M160.769,169.128a12.529,12.529,0,0,1-3.012-.415,9.28,9.28,0,0,1,.038-.979,2.352,2.352,0,0,1,1.032-.216,1.8,1.8,0,0,0-1.146-.13,1.841,1.841,0,0,0-.19-.6c.628-.224,2.112-1.695,2.947-1.208.4.232.567,1.554.6,2.2a2.243,2.243,0,0,1-.266,1.355" transform="translate(-124.172 -130.898)" fill="#fff"/>
      <path id="Path_2251" data-name="Path 2251" d="M160.769,169.128a12.529,12.529,0,0,1-3.012-.415,9.28,9.28,0,0,1,.038-.979,2.352,2.352,0,0,1,1.032-.216,1.8,1.8,0,0,0-1.146-.13,1.841,1.841,0,0,0-.19-.6c.628-.224,2.112-1.695,2.947-1.208.4.232.567,1.554.6,2.2a2.243,2.243,0,0,1-.266,1.355Z" transform="translate(-124.172 -130.898)" fill="none" stroke="#fff" stroke-width="2.5"/>
      <path id="Path_2252" data-name="Path 2252" d="M118.412,168.844c0,.085-.007.17-.01.255-.349.229-.912.226-1.3.419a3.363,3.363,0,0,1,1.394.352l-.025.639a22.749,22.749,0,0,1-1.977,1.5,5.233,5.233,0,0,1-1.985.606c-.214-.05-.234-.316-.319-.567a8.1,8.1,0,0,1-.64-2.2c-.046-1.021-.15-2.732.951-2.521a9.821,9.821,0,0,1,2.607.954,2.694,2.694,0,0,0,1.3.562" transform="translate(-87.16 -132.442)" fill="#fff"/>
      <path id="Path_2253" data-name="Path 2253" d="M118.412,168.844c0,.085-.007.17-.01.255-.349.229-.912.226-1.3.419a3.363,3.363,0,0,1,1.394.352l-.025.639a22.749,22.749,0,0,1-1.977,1.5,5.233,5.233,0,0,1-1.985.606c-.214-.05-.234-.316-.319-.567a8.1,8.1,0,0,1-.64-2.2c-.046-1.021-.15-2.732.951-2.521a9.821,9.821,0,0,1,2.607.954A2.694,2.694,0,0,0,118.412,168.844Z" transform="translate(-87.16 -132.442)" fill="none" stroke="#fff" stroke-width="2.5"/>
      <path id="Path_2254" data-name="Path 2254" d="M147.5,177.15a3.763,3.763,0,0,1-.167-1.2c1.483-.989,1.762,1.7.167,1.2" transform="translate(-115.609 -139.53)" fill="#fff"/>
      <path id="Path_2255" data-name="Path 2255" d="M147.5,177.15a3.763,3.763,0,0,1-.167-1.2c1.483-.989,1.762,1.7.167,1.2Z" transform="translate(-115.609 -139.53)" fill="none" stroke="#fff" stroke-width="2.5"/>
      <path id="Path_2256" data-name="Path 2256" d="M118.552,166.518s-.461-.659-.132-.856.659,0,.856-.329,0-.527.066-.922.4-.461.725-.527,1.252-.2,1.383.132l-.4-1.186-.791-.264-2.5,1.449-.132.724v1.449m-6,2.5q-.119-1.542-.256-3.082c-.139-1.534.368-1.266,1.7-1.266a3.5,3.5,0,0,1,1.325.4c.359.734-.6.571.414,1.124.856.467,2.37-.283,2.024-1.322-.194-.231-1.009-.072-1.3-.223l-1.544-.8c-.655-.34-2.168-.835-2.866-.36-1.769,1.2.112,4.209.743,5.464" transform="translate(-84.517 -128.447)" fill="#fff"/>
      <path id="Path_2257" data-name="Path 2257" d="M70.306,48.012c-1.8-.418-2.688.751-3.232,1.964-.486-.118-.292-.779-.17-1.115.321-.884,1.617-2.06,2.675-1.9.455.068,1.072.485.727,1.052m8.748,2.045.085,0a18.579,18.579,0,0,0,1.268,2.48c-.343.8-2.6,1.505-2.562.071.487-.213,1.329-.043,1.761-.316a4.889,4.889,0,0,1-.553-2.239m-7.829.022a7.532,7.532,0,0,0,1.058,1.981c.247.24.726.533.488,1.2a1.521,1.521,0,0,1-.7.578c-.855.252-2.849.052-2.174-1.015.708.033,1.659.459,2.187-.054-.406-.649-1.13-1.934-.863-2.69m7.508,7.173A7.131,7.131,0,0,1,73.9,58.77a1.431,1.431,0,0,1-.185-1.841c.228.392.085,1.113.72,1.222,1.2.2,2.592-.733,3.453-1.061.534-.9-.046-1.232-.527-1.811-.985-1.188-2.307-2.66-2.259-4.437.4-.289.433.441.49.574a16.248,16.248,0,0,0,2.754,3.774c.232.254.614.5.656.665.123.488-.319,1.073-.268,1.4M61.751,56.38c-.4-.231-.5-1.246-.974-1.274-.677-.041-.554,1.316-.551,2.111a2.481,2.481,0,0,1-.206-2.4c-.391-.192-.565.212-.781.354.278-2.022,2.957-.938,2.512,1.206m17.8,1.713c-.6,1.141-1.448,2.4-3.207,2.435a4.35,4.35,0,0,1,0-1.152,9.239,9.239,0,0,0,3.205-1.283m-8.429.74a11.131,11.131,0,0,0,4.71.609,5.348,5.348,0,0,1,.083,1.155c-1.961.1-4.279-.387-4.793-1.763m-.213,1.1c.776,1.948,3.443,1.724,5.692,1.67a1.2,1.2,0,0,1-.58.66,5.706,5.706,0,0,1-3.71-.016,5.074,5.074,0,0,1-1.39-1.546c-.168-.216-1-.767-.013-.768" transform="translate(-41.454 -31.106)" fill="#231f20"/>
      <path id="Path_2258" data-name="Path 2258" d="M166.7,192.361a39.694,39.694,0,0,1-2.863,4.538,21.851,21.851,0,0,0,.715-5.26,1.658,1.658,0,0,1,2.147.723" transform="translate(-129.518 -152.787)" fill="#fff"/>
      <path id="Path_2259" data-name="Path 2259" d="M198.4,232.529c-1.02.2-1.736,1.2-2.731,1.131a3.256,3.256,0,0,1,2.731-1.131m.45,1.6a14.906,14.906,0,0,1-2.65.153c.4-.61,1.936-.4,2.65-.153m.288,1.376c-.934.02-2.095,0-2.982-.073.525-.564,2.377-.21,2.982.073" transform="translate(-156.314 -187.349)" fill="#231f20"/>
      <path id="Path_2260" data-name="Path 2260" d="M164.847,275.066a22.021,22.021,0,0,1,.541,3.646,3.819,3.819,0,0,1-1.505.326c-.049-1.092-.195-2.761-.151-3.8.34.023.842-.243,1.116-.17" transform="translate(-129.419 -223.15)" fill="#dcd9d8"/>
      <path id="Path_2261" data-name="Path 2261" d="M142.155,165.793c-.469.306-.868.689-1.319,1.015a2.9,2.9,0,0,1-2.278-.643c.012-.046.086-.025.089-.082,1.069.476,2.428-.194,3.508-.291" transform="translate(-108.234 -131.164)" fill="#fff"/>
      <path id="Path_2262" data-name="Path 2262" d="M125.806,197.869c.294-1.273,1.445-1.932,2.49-2.633a21.026,21.026,0,0,1,2.457,4.829,25.184,25.184,0,0,1-4.947-2.2" transform="translate(-97.497 -155.952)" fill="#fff"/>
      <path id="Path_2263" data-name="Path 2263" d="M54.074,52.086c-.044,1.041.1,2.71.151,3.8a3.814,3.814,0,0,0,1.505-.326,21.957,21.957,0,0,0-.541-3.646C54.916,51.843,54.414,52.109,54.074,52.086ZM43.3,46.167A54.412,54.412,0,0,0,45.63,57.6a15.157,15.157,0,0,0,8.311.151c-.436-2.1-.246-4.648-.5-6.885-.192-1.681-.094-3.373-.358-5.089C50.2,45.179,46.128,45.639,43.3,46.167Zm10.462-.362c-.024,1.8.081,3.578.218,5.381.692-.1,1.161-.173,1.8-.314a38.74,38.74,0,0,0-.608-5.226,4.275,4.275,0,0,0-1.414.159Zm3.509-.291a4.315,4.315,0,0,0-1.024,0c.148,1.468.505,3.089.631,4.63a4.292,4.292,0,0,0,1.163-.3A9.327,9.327,0,0,0,57.271,45.515Zm5.313,4.854a2.283,2.283,0,0,0,1.388-2.8,13.258,13.258,0,0,0-.9-3.063c-.272-.411-1.009-.95-1.6-.573-.958.613-2.645.791-3.343,1.534a24.752,24.752,0,0,1,.6,4.245c1.2.075,2.668-.329,3.663.1a13.9,13.9,0,0,0-2.2.554,4.581,4.581,0,0,0,2.388.007Zm-9.566-6.256a21.032,21.032,0,0,0-2.458-4.829c-1.045.7-2.2,1.36-2.49,2.633A25.182,25.182,0,0,0,53.019,44.113ZM54.8,38.852a21.857,21.857,0,0,1-.715,5.26,39.7,39.7,0,0,0,2.862-4.537,1.657,1.657,0,0,0-2.147-.723Zm-2.019-.717c-.409-.044-.757.471-1.289.248-.122.135-.233.281-.357.413,1.175,1.417,1.71,3.426,2.618,5.091a22.344,22.344,0,0,0,.538-5.1C53.621,38.832,53.25,38.184,52.781,38.134Zm-1.3-1.714a3.762,3.762,0,0,0,.167,1.2c1.595.5,1.316-2.189-.167-1.2Zm-1.769-.581a9.821,9.821,0,0,0-2.607-.954c-1.1-.211-1,1.5-.95,2.522a8.093,8.093,0,0,0,.64,2.2c.086.251.1.517.319.567a5.237,5.237,0,0,0,1.985-.606,22.72,22.72,0,0,0,1.977-1.5q.013-.32.025-.639a3.372,3.372,0,0,0-1.394-.352c.383-.193.946-.19,1.3-.419,0-.085.007-.17.01-.255a2.687,2.687,0,0,1-1.3-.562ZM43.15,34.647c-.57.579,1.6,1.368,2.291,1.411,0-.367.209-.712.166-.975a7.3,7.3,0,0,1-2.457-.436Zm7.026.272c0,.057-.077.036-.089.082a2.9,2.9,0,0,0,2.278.643c.45-.327.85-.709,1.319-1.015C52.6,34.725,51.245,35.4,50.176,34.919Zm6.449,1.956c-.031-.643-.2-1.966-.6-2.2-.835-.487-2.318.983-2.947,1.208a1.83,1.83,0,0,1,.19.6,1.8,1.8,0,0,1,1.147.13,2.355,2.355,0,0,0-1.032.216,9.3,9.3,0,0,0-.038.979,12.508,12.508,0,0,0,3.012.415,2.246,2.246,0,0,0,.266-1.355ZM42.19,35.208c-.179-.128-1.391-1.7-1.557-1.639a26.081,26.081,0,0,0-6.074,3.774,33.093,33.093,0,0,1,2.576,12.765c2,.936,3.758,2.285,6.473,2.426-.314-2.223-.6-4.206-.779-6.3-.682-.288-1.661.013-2.3-.089-.005-.769.975-.337,1.057-.854.062-.391-.54-.421-.344-1.037.5.182.761.582,1.293.733.486-1.064-.007-2.947.063-3.836.013-.167.083-.925.457-.792.331.118-.019,2.016.017,2.858a4.416,4.416,0,0,0,.22,2.013,74.9,74.9,0,0,1,8.128-.666,19.67,19.67,0,0,1-2.18-.98c-.441-.249-1.831-.766-1.958-1.185-.2-.667.533-1.023.658-1.6-1.324.723-1.583-.692-1.9-1.694A13.167,13.167,0,0,1,45.532,37,22.821,22.821,0,0,1,42.19,35.208ZM55.466,33.76c1.827-.886,2.156,3.31,1.44,4.662.111.4.491.557.647.92-1.019,1.826-2.151,3.531-3.192,5.335.774-.482,1.879-.086,2.789-.446.333-.132.574-.893.826-1.5a32.711,32.711,0,0,0,1.745-5.391,6.829,6.829,0,0,0,.228-1.483c-.08-.581-.868-1.012-1.269-1.371-.739-.664-1.2-1.247-1.975-1.868-.312.461-.983.771-1.238,1.146Zm-17.454-16.2c-.871.957-.688,2.752-.583,4.029a2.339,2.339,0,0,1,3.642,1.762c.751-.02.281-.938.145-1.53-.444-1.932.748-4.031.054-5.8A4.774,4.774,0,0,0,38.012,17.561ZM44.24,12c-1.97.558-4.5,1.99-5.305,3.76.627-.091,1.062-.407,1.681-.446a4.138,4.138,0,0,0,.809.031c.535-.133.987-1.333,1.391-1.78s.867-.623,1.191-1.02c.208-.1.516-.093.527-.406C44.443,12.045,44.348,11.972,44.24,12Zm10.258.525c-2.045-1.154-5.507-2.022-7.683-.937-1.755.876-4.128,2.324-4.938,4.159.756,1.771-.224,3.394-.286,5.192-.033.957.45,1.792.487,2.833-.259.427-1.049.479-1.6.45-.184-.921-.506-1.957-1.455-2.061a2.2,2.2,0,0,0-2.385,2.125c-.072,1.365,1.049,3.628,2.637,3.471.613-.061.765-.676,1.433-.67.362.723-.559.95-.654,1.467a4.168,4.168,0,0,0,.135.9A12.293,12.293,0,0,0,41.759,33.1c.8,1.152,2.383,1.325,4.081,1.438.3-.654,1.421-.6,2.149-.429a7.2,7.2,0,0,1-2.357-1.925,4.836,4.836,0,0,1-1.594-2.876c1.46,2.025,2.666,3.793,5.32,4.684,2.008.674,4.354-.309,5.9-1.392a6.776,6.776,0,0,0,1.478-1.819,15.423,15.423,0,0,0,2.323-9.335,10.361,10.361,0,0,0-.538-3.731c-.49-.983-2.148-1.863-3.118-.974-.18-.956.807-1.548,1.966-1.2A10.954,10.954,0,0,0,54.5,12.527Zm3.81,31.535c1.6-.794,4.584-2.138,5.586,0a18.159,18.159,0,0,1,1,2.939c.27,1.149-.293,3.566-1.475,3.952a7.008,7.008,0,0,1-3.518.067,1.919,1.919,0,0,1-.428-.561,4.857,4.857,0,0,0-2.447.417c.067.664-.382.77-.8.907-.312,1.237.624,2.853.4,3.982-.16.8-1.149.928-1.876,1.078a6.185,6.185,0,0,0,.081,1.2,1.814,1.814,0,0,1-1.618,1.046c-2.324.279-5.852.4-8.087-.4C44.495,57.16,44,55.3,43.483,53.553c-2.18.233-3.943-.941-5.606-1.709-.575-.267-1.372-.414-1.587-.872a7.841,7.841,0,0,1-.175-2.1,31.854,31.854,0,0,0-.786-6.129c-.243-.942-.667-1.774-.963-2.682a19.386,19.386,0,0,1-.875-2.72c-.185-1.244.986-1.313,1.735-1.852,1.158-.833,2.066-1.294,3.32-2.046A7.568,7.568,0,0,0,40.166,32.4c.253-.515-.435-1.241-.618-1.644a4.946,4.946,0,0,1-.484-1.81,3.491,3.491,0,0,1-2.33-1.5,5.741,5.741,0,0,1-.66-4.973c.054-.129.324-.384.364-.583a6.761,6.761,0,0,0-.162-1.329c-.072-2.136.361-3.977,1.8-4.621.584-2.326,2.674-3.1,4.642-4.255A14.589,14.589,0,0,1,45.1,10.671c3.006-1.106,7.617-.9,10.111.989a13.578,13.578,0,0,1,3.353,3.712c1.6,3.228,1.484,8.624.367,12.552a12.633,12.633,0,0,1-.672,1.936c-.212.442-.871,1.327-.791,1.718s1.5,1.482,1.807,1.776c.549.529,1.591,1.231,1.675,1.9a6.718,6.718,0,0,1-.518,2.368c-.683,2.288-1.35,4.4-2.126,6.443" transform="translate(-19.762 0)" fill="#231f20"/>
      <path id="Path_2264" data-name="Path 2264" d="M122.876,124.473c.087-.115.563-.291,1.23.031,0,0-.791.132-.725,1.45l-.329-.066s-.341-1.195-.177-1.414" transform="translate(-94.992 -96.248)" fill="#fff"/>
      <path id="Path_2265" data-name="Path 2265" d="M155.789,195.009a.362.362,0,1,1-.362-.362.362.362,0,0,1,.362.362m.362,1.68a.362.362,0,1,1-.362-.363.362.362,0,0,1,.362.363" transform="translate(-122.129 -155.456)" fill="#1d1919"/>
      <g id="Group_3259" data-name="Group 3259" transform="translate(56.027 23.619)">
        <path id="Path_2266" data-name="Path 2266" d="M317.091,99.032q-.556.07-.945.139-.441.081-.875.194a1,1,0,0,0-.729.542,2.329,2.329,0,0,0-.16.89v10.874a6.245,6.245,0,0,1-.6,2.753,6,6,0,0,1-1.66,2.1,7.659,7.659,0,0,1-2.39,1.258,9.171,9.171,0,0,1-2.821.424,6.586,6.586,0,0,1-4.19-1.251,4.127,4.127,0,0,1-1.591-3.432,3.164,3.164,0,0,1,.729-2.14,2.509,2.509,0,0,1,2.008-.848,2.616,2.616,0,0,1,1.924.709A2.367,2.367,0,0,1,306.5,113a2.552,2.552,0,0,1-.618,1.647,9.573,9.573,0,0,1-1.411,1.4v.181a1.035,1.035,0,0,0,.544.473,1.992,1.992,0,0,0,.85.194,3.176,3.176,0,0,0,2.626-1.2,5.73,5.73,0,0,0,.955-3.616V100.937a2,2,0,0,0-.154-.834,1.347,1.347,0,0,0-.74-.584,5.359,5.359,0,0,0-1.012-.306q-.593-.125-.984-.181V97.948h10.533v1.084Zm16.48,15.313a8.452,8.452,0,0,1-1.174,1.494,7.126,7.126,0,0,1-1.564,1.2,8.576,8.576,0,0,1-1.883.8,8.013,8.013,0,0,1-2.189.271,9.744,9.744,0,0,1-3.55-.584,6.964,6.964,0,0,1-2.466-1.57,6.284,6.284,0,0,1-1.452-2.328,8.589,8.589,0,0,1-.479-2.911,7.306,7.306,0,0,1,2-5.03,7.089,7.089,0,0,1,2.383-1.6,8.148,8.148,0,0,1,3.217-.611,9.166,9.166,0,0,1,3.2.472,5.66,5.66,0,0,1,2.07,1.306,4.738,4.738,0,0,1,1.153,1.869,7.051,7.051,0,0,1,.361,2.258v.9H323.8a7.231,7.231,0,0,0,1.1,4.335,4.576,4.576,0,0,0,5.836.771,6.7,6.7,0,0,0,1.779-1.813l1.056.764Zm-5.308-5.28q0-.834-.083-1.709a5.684,5.684,0,0,0-.292-1.431,2.2,2.2,0,0,0-.646-.987,1.588,1.588,0,0,0-1.035-.334,1.926,1.926,0,0,0-1.709,1.084,7.369,7.369,0,0,0-.695,3.432Zm24.985,8.6H344.9v-1.014l.639-.07a1.749,1.749,0,0,0,.57-.139.884.884,0,0,0,.417-.445,2.285,2.285,0,0,0,.125-.862v-6.5a3.606,3.606,0,0,0-.522-2.133,1.786,1.786,0,0,0-1.54-.716,3.141,3.141,0,0,0-1.038.167,3.882,3.882,0,0,0-.941.486,3.2,3.2,0,0,0-.648.57q-.212.252-.411.514v7.462a2.079,2.079,0,0,0,.139.813.967.967,0,0,0,.458.493,2.636,2.636,0,0,0,.556.222,4.322,4.322,0,0,0,.653.139v1.014H334.9v-1.014q.352-.028.7-.077a3.385,3.385,0,0,0,.6-.132,1.021,1.021,0,0,0,.612-.472,1.805,1.805,0,0,0,.167-.834v-8.088a1.784,1.784,0,0,0-.222-.847,1.988,1.988,0,0,0-.583-.681,2.3,2.3,0,0,0-.632-.278,4.466,4.466,0,0,0-.841-.153v-1.014l6.628-.361.208.209v2.015h.056q.47-.419.945-.834a9.1,9.1,0,0,1,1.028-.792,4.989,4.989,0,0,1,1.348-.57,6.5,6.5,0,0,1,1.779-.236,4.291,4.291,0,0,1,3.4,1.285,4.973,4.973,0,0,1,1.132,3.412v6.809a1.846,1.846,0,0,0,.153.82,1.079,1.079,0,0,0,.57.486,4.71,4.71,0,0,0,.549.194,4,4,0,0,0,.744.139v1.014Zm19.12,0h-6.55q-1.208-2.12-2.207-3.6-.932-1.377-1.888-2.737l-.819.692v3.029a1.984,1.984,0,0,0,.146.82.927.927,0,0,0,.563.472,3.538,3.538,0,0,0,.584.194,4.161,4.161,0,0,0,.667.111v1.014h-8.629v-1.014q.351-.028.7-.077a3.838,3.838,0,0,0,.615-.132,1,1,0,0,0,.609-.473,1.857,1.857,0,0,0,.161-.834V99.643a2.512,2.512,0,0,0-.2-.952,1.549,1.549,0,0,0-.59-.743,2.494,2.494,0,0,0-.792-.278,6.849,6.849,0,0,0-.959-.139V96.516l6.92-.361.209.222v14.34q1.027-.917,2.311-2.126t2.061-2a1.822,1.822,0,0,0,.507-.715,2.335,2.335,0,0,0,.049-.3q0-.25-.439-.417a6.561,6.561,0,0,0-1.321-.292v-.987h7.059v.959a14.594,14.594,0,0,0-2.116.729,12.588,12.588,0,0,0-1.589.91q-.565.373-1.1.786T365.1,108.29q1.359,1.973,2.511,3.653t2.414,3.555a2.1,2.1,0,0,0,1.068.875,5.241,5.241,0,0,0,1.277.278v1.015Zm8.935,0h-8.782v-1.014q.361-.028.709-.07a2.456,2.456,0,0,0,.6-.139,1.149,1.149,0,0,0,.625-.479,1.648,1.648,0,0,0,.181-.827v-8.088a1.624,1.624,0,0,0-.222-.855,1.848,1.848,0,0,0-.556-.591,2.959,2.959,0,0,0-.757-.319,4.918,4.918,0,0,0-.924-.194v-1.015l6.809-.361.209.209v11.033a1.557,1.557,0,0,0,.208.827,1.263,1.263,0,0,0,.6.507,4.623,4.623,0,0,0,.611.222,4.178,4.178,0,0,0,.7.139v1.014Zm-2.029-18.953a2.35,2.35,0,0,1-.813,1.8,2.881,2.881,0,0,1-3.863,0,2.406,2.406,0,0,1,0-3.606,2.87,2.87,0,0,1,3.87,0A2.382,2.382,0,0,1,379.274,98.712Zm21.65,18.953h-8.351v-1.014l.639-.07a1.751,1.751,0,0,0,.57-.139A.883.883,0,0,0,394.2,116a2.29,2.29,0,0,0,.125-.862v-6.5a3.6,3.6,0,0,0-.523-2.133,1.786,1.786,0,0,0-1.54-.716,3.144,3.144,0,0,0-1.038.167,3.881,3.881,0,0,0-.941.486,3.2,3.2,0,0,0-.648.57q-.212.252-.411.514v7.462a2.08,2.08,0,0,0,.139.813.969.969,0,0,0,.459.493,2.639,2.639,0,0,0,.556.222,4.326,4.326,0,0,0,.653.139v1.014h-8.449v-1.014q.352-.028.7-.077a3.386,3.386,0,0,0,.6-.132,1.021,1.021,0,0,0,.611-.472,1.8,1.8,0,0,0,.167-.834v-8.088a1.785,1.785,0,0,0-.222-.847,1.989,1.989,0,0,0-.584-.681,2.3,2.3,0,0,0-.632-.278,4.472,4.472,0,0,0-.841-.153v-1.014l6.628-.361.208.209v2.015h.055q.471-.419.945-.834a9.1,9.1,0,0,1,1.028-.792,4.991,4.991,0,0,1,1.348-.57,6.5,6.5,0,0,1,1.779-.236,4.291,4.291,0,0,1,3.4,1.285,4.973,4.973,0,0,1,1.133,3.412v6.809a1.842,1.842,0,0,0,.153.82,1.078,1.078,0,0,0,.57.486,4.73,4.73,0,0,0,.549.194,4.007,4.007,0,0,0,.744.139v1.014Zm7.726.473a8.892,8.892,0,0,1-2.633-.4,8.619,8.619,0,0,1-1.994-.841l-.417.945h-1.084l-.181-5.183h1.014a6.9,6.9,0,0,0,.695,1.41,7.792,7.792,0,0,0,1.112,1.411,6.294,6.294,0,0,0,1.494,1.056,3.89,3.89,0,0,0,1.8.431,2.989,2.989,0,0,0,1.883-.493,1.829,1.829,0,0,0,.619-1.522,1.461,1.461,0,0,0-.278-.917,2.374,2.374,0,0,0-.764-.625,7.076,7.076,0,0,0-1.188-.473q-.646-.194-1.591-.472a15.251,15.251,0,0,1-1.619-.563,5.527,5.527,0,0,1-1.4-.9,3.923,3.923,0,0,1-1.376-3.126,3.753,3.753,0,0,1,1.647-3.168,7.117,7.117,0,0,1,4.315-1.209,9.9,9.9,0,0,1,2.327.257,11.727,11.727,0,0,1,1.786.563l.292-.82h1.056l.222,4.738h-.973a5.748,5.748,0,0,0-1.668-2.494,3.766,3.766,0,0,0-2.543-1.049,2.809,2.809,0,0,0-1.681.445,1.443,1.443,0,0,0-.611,1.237,1.6,1.6,0,0,0,.895,1.529,11.945,11.945,0,0,0,2.5.889,8.167,8.167,0,0,1,3.635,1.744,3.731,3.731,0,0,1,1.151,2.814,4.059,4.059,0,0,1-1.786,3.529,7.961,7.961,0,0,1-4.662,1.251Z" transform="translate(-301.125 -96.155)" fill="#fff"/>
      </g>
    </g>
    <g id="Group_3260" data-name="Group 3260" transform="translate(4885.001 -1458.999)">
      <path id="Path_2267" data-name="Path 2267" d="M58.5,58.4H69.7V69.6H58.5Z" transform="translate(-3772.11 4509.965)" fill="#fff"/>
      <path id="Path_2268" data-name="Path 2268" d="M58.5,58.4H69.7V69.6H58.5Z" transform="translate(-3772.11 4509.965)" fill="none"/>
      <path id="Path_2269" data-name="Path 2269" d="M12.3,115.7H1.1v11.2H12.3Zm-3.709,7.465H4.856v-3.733H8.589Z" transform="translate(-3728.101 4466.035)" fill="#fff"/>
      <path id="Path_2270" data-name="Path 2270" d="M12.3,115.7H1.1v11.2H12.3Zm-3.709,7.465H4.856v-3.733H8.589Z" transform="translate(-3728.101 4466.035)" fill="none"/>
      <path id="Path_2271" data-name="Path 2271" d="M28.838,31.4,31.444,28.8l6.747,6.747-2.606,2.606Z" transform="translate(-3749.367 4532.665)" fill="#fff"/>
      <path id="Path_2272" data-name="Path 2272" d="M28.838,31.4,31.444,28.8l6.747,6.747-2.606,2.606Z" transform="translate(-3749.367 4532.665)" fill="none"/>
      <path id="Path_2273" data-name="Path 2273" d="M38.606,100.25l4.5-4.5,2.59,2.59-4.5,4.5Z" transform="translate(-3756.856 4481.332)" fill="#fff"/>
      <path id="Path_2274" data-name="Path 2274" d="M38.606,100.25l4.5-4.5,2.59,2.59-4.5,4.5Z" transform="translate(-3756.856 4481.332)" fill="none"/>
      <path id="Path_2275" data-name="Path 2275" d="M12.3,1.1H1.1V12.3H12.3ZM8.589,8.565H4.856V4.833H8.589Z" transform="translate(-3728.101 4553.899)" fill="#fff"/>
      <path id="Path_2276" data-name="Path 2276" d="M12.3,1.1H1.1V12.3H12.3ZM8.589,8.565H4.856V4.833H8.589Z" transform="translate(-3728.101 4553.899)" fill="none"/>
      <path id="Path_2277" data-name="Path 2277" d="M144.416,102.814a3.784,3.784,0,0,0,3.406,2.1c2.706,0,4.339-2.193,4.339-5.062,0-2.916-1.61-5.086-4.339-5.086a3.842,3.842,0,0,0-3.406,2.1Zm0,12.738H139.4V90.8h5.016v1.493a6.2,6.2,0,0,1,4.526-1.89c5.249,0,8.259,4.363,8.259,9.472,0,5.086-2.986,9.425-8.259,9.425a6.246,6.246,0,0,1-4.526-1.89Zm30.981-6.672h-5.016v-1.656a6.493,6.493,0,0,1-4.853,2.053c-4.036,0-6.345-2.66-6.345-6.672V90.8H164.2v10.8c0,1.913.933,3.2,2.916,3.2a3.228,3.228,0,0,0,3.243-2.5V90.823h5.062v18.057Zm8.352-6.066a3.784,3.784,0,0,0,3.406,2.1c2.706,0,4.339-2.193,4.339-5.062,0-2.916-1.61-5.086-4.339-5.086a3.842,3.842,0,0,0-3.406,2.1Zm0,12.738h-5.016V90.8h5.016v1.493a6.2,6.2,0,0,1,4.526-1.89c5.249,0,8.258,4.363,8.258,9.472,0,5.086-2.986,9.425-8.258,9.425a6.247,6.247,0,0,1-4.526-1.89Zm19.97-12.738a3.784,3.784,0,0,0,3.406,2.1c2.706,0,4.339-2.193,4.339-5.062,0-2.916-1.61-5.086-4.339-5.086a3.842,3.842,0,0,0-3.406,2.1Zm0,12.738H198.7V90.8h5.016v1.493a6.2,6.2,0,0,1,4.526-1.89c5.249,0,8.259,4.363,8.259,9.472,0,5.086-2.986,9.425-8.259,9.425a6.247,6.247,0,0,1-4.526-1.89Zm18.99-17.684h7a3.166,3.166,0,0,0-3.243-3.406c-1.936,0-3.313,1.19-3.756,3.406m11.8,5.109c-.653,3.849-3.476,6.322-8,6.322-5.249,0-8.772-3.849-8.772-9.425,0-5.459,3.639-9.472,8.7-9.472,5.3,0,8.212,3.686,8.212,8.982v1.54H222.593c.163,2.706,1.7,4.339,3.919,4.339,1.7,0,2.963-.723,3.359-2.263h4.643Zm3.406-8.142h-2.753V90.8h2.753V85.9h4.969v4.9h3.966v4.036h-3.966v7.932a1.827,1.827,0,0,0,2.053,2.053,4.287,4.287,0,0,0,2.193-.607v4.456a7.5,7.5,0,0,1-3.243.56c-3.686,0-6-1.82-6-5.832V94.835Z" transform="translate(-3834.136 4488.886)" fill="#fff"/>
    </g>
    <g id="_01" data-name="01" transform="translate(1003.001 2828.002)">
      <path id="Path_2316" data-name="Path 2316" d="M341.242,162.359l-98.12-103.1h-1.83l-30.132.84.675,30v1.5L309.7,194.426l.075-2.025.09-22.633a7.5,7.5,0,0,1,7.5-7.5h21.688Z" transform="translate(-44.962 -12.494)" fill="#fdfeff"/>
      <path id="Path_2317" data-name="Path 2317" d="M312.647,133H282.02l-.12,30v1.845a107.839,107.839,0,0,0,119.778,13.784l-2.01-.48-20.263-3.99a7.5,7.5,0,0,1-6-8.774l4.5-23.863.285-1.665A62.618,62.618,0,0,1,314.012,133Z" transform="translate(-9.603 24.365)" fill="#fff"/>
      <path id="Path_2318" data-name="Path 2318" d="M407.692,42.345a107.764,107.764,0,0,0-128.357,15.9l-.345.345-1.38,1.5,1.365.09,21.883.39a7.5,7.5,0,0,1,7.334,7.619l-.54,24.073v1.695l3.3-3.495A62.529,62.529,0,0,1,379.33,78.581l1.5-.075L411.4,74.921l-3.36-30Z" transform="translate(-11.747 -28.08)" fill="#fff"/>
      <path id="Path_2319" data-name="Path 2319" d="M353.889,181.051a62.5,62.5,0,0,0,1.5-102.694l1.35-.165,20.428-2.4a7.5,7.5,0,0,0,6.584-8.339l-2.685-24.208-.2-2.145a109.829,109.829,0,0,1,14.234,12,107.771,107.771,0,0,1-16.423,165.7l-2.325-.33-28.5-5.609,5.819-30.387Z" transform="translate(23.367 -21.571)" fill="#fff"/>
      <path id="Path_2320" data-name="Path 2320" d="M283.868,67.492l-8.549-9-.345-.345a107.644,107.644,0,0,0-150.765,1.5,109.744,109.744,0,0,0-8.549,9.614l.435,1.5L123.5,99.948l29.682-7.364L155.6,92a62.5,62.5,0,0,1,87.771-1.68l8.489,8.909v-2.64l-.48-20.638a7.5,7.5,0,0,1,7.274-7.724l23.443-.645Z" transform="translate(-92.697 -28.075)" fill="#fdfeff"/>
      <path id="Path_2321" data-name="Path 2321" d="M148.876,119.89a62.544,62.544,0,0,0,98.285,15.9L263.3,118.6h1.08l31.257.18v31.737l-16.5,17.1-.345.345a107.779,107.779,0,0,1-170.622-28.5l1.665.42,24,6.449a7.5,7.5,0,0,0,9.194-5.324l5.174-18.913Z" transform="translate(-96.441 17.167)" fill="#fff"/>
      <path id="Path_2322" data-name="Path 2322" d="M148.03,137.237a62.514,62.514,0,0,1,7.5-51.865l-2.325.495-20.143,4.994a7.5,7.5,0,0,1-9.239-5.429l-5.549-22.078-.7-2.5a108.184,108.184,0,0,0-9.524,98.63l2.775.69,28.9,7.754,7.829-28.572Z" transform="translate(-100.35 -11.699)" fill="#fdfeff"/>
      <path id="Path_2323" data-name="Path 2323" d="M300.511,120.813l30.087-31.9v-.84l.735-33.177-29.157-.525h-1L268.955,88.507l-34.916,35.8L216.31,143.191h1.5l23.833.135a7.5,7.5,0,0,1,7.5,7.5V174.7l16.813-17.4Z" transform="translate(-42.388 -14.938)" fill="#fff"/>
      <path id="Path_2324" data-name="Path 2324" d="M298.439,144.145l-1.5,6.824,5.474-4.335,2.07,1.32-4.845,7.679-1.59-1,1.335-2.1L301.829,149l-5.684,4.41-1.095-.69,1.5-7.019-2.13,3.72-1.32,2.1-1.59-1,4.859-7.679Z" transform="translate(-4.799 29.284)" fill="#010101"/>
      <path id="Path_2325" data-name="Path 2325" d="M306.77,154.177a5.744,5.744,0,0,1-1.11,1.5,3.96,3.96,0,0,1-1.335.9,3.584,3.584,0,0,1-1.5.225,3.93,3.93,0,0,1-1.5-.435,4.32,4.32,0,0,1-1.245-.99,3.615,3.615,0,0,1-.69-1.35,4.066,4.066,0,0,1-.075-1.6,5.534,5.534,0,0,1,.6-1.8l.18-.345a6,6,0,0,1,1.095-1.5,4.2,4.2,0,0,1,1.35-.885,3.435,3.435,0,0,1,1.5-.24,3.96,3.96,0,0,1,1.5.45,3.78,3.78,0,0,1,1.26.99,3.225,3.225,0,0,1,.675,1.335,4.155,4.155,0,0,1,.075,1.62,5.909,5.909,0,0,1-.6,1.8Zm-1.5-1.23a3.81,3.81,0,0,0,.525-2.16,1.8,1.8,0,0,0-2.595-1.335,3.885,3.885,0,0,0-1.5,1.695l-.195.375a5.8,5.8,0,0,0-.45,1.17,3,3,0,0,0-.075,1,1.769,1.769,0,0,0,.3.78,1.859,1.859,0,0,0,.66.555,1.635,1.635,0,0,0,1.635,0,3.885,3.885,0,0,0,1.5-1.695Z" transform="translate(-0.921 31.686)" fill="#010101"/>
      <path id="Path_2326" data-name="Path 2326" d="M311.284,160.774l-1.725-.69L308.4,153.17l-2.235,5.549-1.74-.69,3.39-8.429,1.74.69,1.155,6.914,2.235-5.549,1.725.69Z" transform="translate(1.659 32.663)" fill="#010101"/>
      <path id="Path_2327" data-name="Path 2327" d="M312.595,161.074l-1.785-.57,2.745-8.654,1.785.57Z" transform="translate(4.848 33.787)" fill="#010101"/>
      <path id="Path_2328" data-name="Path 2328" d="M321.654,155.76l-2.7-.645-1.785,7.349-1.815-.435,1.77-7.364-2.655-.645.345-1.5,7.2,1.74Z" transform="translate(6.677 34.122)" fill="#010101"/>
      <path id="Path_2329" data-name="Path 2329" d="M327.341,159.4a6,6,0,0,1-.51,1.815,4.262,4.262,0,0,1-.96,1.29,3.659,3.659,0,0,1-1.32.72,4,4,0,0,1-1.59.105,3.78,3.78,0,0,1-1.5-.51,3.3,3.3,0,0,1-1.11-1.02,4.334,4.334,0,0,1-.615-1.5,5.625,5.625,0,0,1,0-1.89v-.39a5.475,5.475,0,0,1,.525-1.815,4.1,4.1,0,0,1,.96-1.3,3.66,3.66,0,0,1,1.32-.72,3.75,3.75,0,0,1,1.59-.1,4,4,0,0,1,1.5.495,3.66,3.66,0,0,1,1.11,1.035,4.034,4.034,0,0,1,.6,1.5,5.638,5.638,0,0,1,0,1.89Zm-1.83-.66a3.9,3.9,0,0,0-.225-2.22,1.7,1.7,0,0,0-1.365-.915,1.65,1.65,0,0,0-1.5.555,3.9,3.9,0,0,0-.795,2.085v.4a5.3,5.3,0,0,0,0,1.275,2.8,2.8,0,0,0,.27.945,1.756,1.756,0,0,0,.54.645,1.875,1.875,0,0,0,.81.285,1.65,1.65,0,0,0,1.5-.555,3.9,3.9,0,0,0,.78-2.085Z" transform="translate(9.27 34.878)" fill="#010101"/>
      <path id="Path_2330" data-name="Path 2330" d="M329.6,160.274h-1.5v3.33h-1.86l.09-9.074H329.7a5.713,5.713,0,0,1,1.41.2,3,3,0,0,1,1.05.54,2.324,2.324,0,0,1,.645.87,2.88,2.88,0,0,1,.225,1.185,3.151,3.151,0,0,1-.12.885,2.353,2.353,0,0,1-.33.7,2.25,2.25,0,0,1-.525.54,3,3,0,0,1-.675.39l1.92,3.735v.09h-2.01Zm-1.5-1.5h1.5a2.161,2.161,0,0,0,.645-.09,1.306,1.306,0,0,0,.465-.27,1.125,1.125,0,0,0,.27-.42,1.333,1.333,0,0,0-1.365-1.89h-1.5Z" transform="translate(12.561 35.127)" fill="#010101"/>
      <path id="Path_2331" data-name="Path 2331" d="M219.515,71.134l-2.325,2.2-1.29-1.365,6.584-6.254,2.445,2.565a4.3,4.3,0,0,1,.825,1.2,3.255,3.255,0,0,1,.285,1.2,3,3,0,0,1-.225,1.155,3.21,3.21,0,0,1-.72.99,2.79,2.79,0,0,1-1.02.645,2.565,2.565,0,0,1-1.11.15,3.269,3.269,0,0,1-1.17-.39,4.364,4.364,0,0,1-1.125-.9Zm1.095-1.05,1.155,1.215a2.2,2.2,0,0,0,.54.42,1.035,1.035,0,0,0,.525.15.915.915,0,0,0,.495-.09,1.814,1.814,0,0,0,.465-.315,2,2,0,0,0,.345-.45,1.335,1.335,0,0,0,.165-.525,1.26,1.26,0,0,0-.09-.57,1.5,1.5,0,0,0-.39-.585l-1.14-1.215Z" transform="translate(-42.592 -9.265)" fill="#010101"/>
      <path id="Path_2332" data-name="Path 2332" d="M222.355,76.584l2.73,2.88L224,80.5l-4-4.23L226.554,70l1.29,1.365Z" transform="translate(-40.543 -7.125)" fill="#010101"/>
      <path id="Path_2333" data-name="Path 2333" d="M228.574,81.749l-2.265-2.37-1.785.84-1.365-1.5L232.069,75l1.185,1.26-4.23,8.729-1.38-1.5Zm-.81-3,1.5,1.65,1.68-3.165Z" transform="translate(-38.964 -4.626)" fill="#010101"/>
      <path id="Path_2334" data-name="Path 2334" d="M232.849,89.779l-1.29-1.35,1.815-6.764-4.335,4.125-1.29-1.35,6.584-6.269,1.29,1.365L233.809,86.3l4.335-4.125,1.275,1.35Z" transform="translate(-36.669 -3.041)" fill="#010101"/>
      <path id="Path_2335" data-name="Path 2335" d="M251.449,102.856l-1.02,1.08,2.4,2.295-1.29,1.35L245,101.252l2.325-2.445a4.876,4.876,0,0,1,1.11-.885,2.714,2.714,0,0,1,1.095-.4,2.385,2.385,0,0,1,1.08.105,3,3,0,0,1,1.02.66,3.3,3.3,0,0,1,.57.69,2.4,2.4,0,0,1,.3.78,3.152,3.152,0,0,1,0,.75,3.543,3.543,0,0,1-.18.765l4.035,1.14h.075l-1.395,1.5Zm-2.115,0,1.035-1.095a1.905,1.905,0,0,0,.375-.525,1.156,1.156,0,0,0,.12-.525.93.93,0,0,0-.12-.495,1.335,1.335,0,0,0-.33-.45,1.38,1.38,0,0,0-.975-.435,1.59,1.59,0,0,0-1.05.555l-1.035,1.095Z" transform="translate(-28.047 6.619)" fill="#010101"/>
      <path id="Path_2336" data-name="Path 2336" d="M256.5,96.86l-2.475,2.595,1.755,1.68,2.91-3,1.095,1.035-4.2,4.41L249,97.265l4.185-4.395,1.095,1.05-2.895,3,1.5,1.5,2.49-2.595Z" transform="translate(-26.048 4.306)" fill="#010101"/>
      <path id="Path_2337" data-name="Path 2337" d="M259.394,96.364l2.79-2.88,1.095,1.035-4.095,4.23-6.554-6.3,1.29-1.35Z" transform="translate(-24.233 3.422)" fill="#010101"/>
      <path id="Path_2338" data-name="Path 2338" d="M263.6,89.4,261.125,92l1.755,1.74,2.91-3,1.095,1.035-4.215,4.41L256.1,89.915l4.2-4.395,1.095,1.035-2.91,3,1.575,1.5,2.475-2.595Z" transform="translate(-22.499 0.632)" fill="#010101"/>
      <path id="Path_2339" data-name="Path 2339" d="M267.874,86.915l-2.31,2.325.93,1.74-1.38,1.5-4.245-8.714,1.2-1.245,8.969,3.72-1.38,1.5Zm-3,.96,1.575-1.65-3.255-1.5Z" transform="translate(-20.114 -0.867)" fill="#010101"/>
      <path id="Path_2340" data-name="Path 2340" d="M271.723,82.593a1.14,1.14,0,0,0-.36-.255,1,1,0,0,0-.435,0,2.28,2.28,0,0,0-.6.165c-.24.1-.525.24-.855.42a11.105,11.105,0,0,1-1.14.54,3.853,3.853,0,0,1-1.095.3,2.879,2.879,0,0,1-1.02,0,2.235,2.235,0,0,1-.915-.54,2.444,2.444,0,0,1-.585-.9,2.265,2.265,0,0,1-.09-1.05,3.6,3.6,0,0,1,.345-1.125,4.5,4.5,0,0,1,.81-1.11,4.033,4.033,0,0,1,1.095-.84,3.164,3.164,0,0,1,1.155-.375,2.79,2.79,0,0,1,1.11.135,2.685,2.685,0,0,1,.975.6l-1.29,1.365a2.056,2.056,0,0,0-.45-.315,1.14,1.14,0,0,0-.495-.075,1.215,1.215,0,0,0-.525.15,2.355,2.355,0,0,0-.525.4,2.144,2.144,0,0,0-.375.525,1.26,1.26,0,0,0-.15.48.8.8,0,0,0,0,.42.946.946,0,0,0,.24.36.915.915,0,0,0,.855.18,4.74,4.74,0,0,0,1.335-.585,7.26,7.26,0,0,1,1.275-.585,4.05,4.05,0,0,1,1.11-.255,2.369,2.369,0,0,1,.975.15,2.415,2.415,0,0,1,.855.54,2.519,2.519,0,0,1,.615.915,2.325,2.325,0,0,1,.105,1.02,3.24,3.24,0,0,1-.36,1.095,4.783,4.783,0,0,1-.81,1.095,5.086,5.086,0,0,1-.675.6,3.93,3.93,0,0,1-.765.45,2.8,2.8,0,0,1-.825.27,2.55,2.55,0,0,1-.825,0,2.7,2.7,0,0,1-.825-.225,2.819,2.819,0,0,1-.78-.54l1.3-1.35a1.891,1.891,0,0,0,.585.39,1.3,1.3,0,0,0,.585,0,1.5,1.5,0,0,0,.585-.225,3.225,3.225,0,0,0,.57-.48,2.219,2.219,0,0,0,.375-.51,1.2,1.2,0,0,0,.15-.465.885.885,0,0,0,0-.4.946.946,0,0,0-.24-.36Z" transform="translate(-18.248 -3.219)" fill="#010101"/>
      <path id="Path_2341" data-name="Path 2341" d="M275.359,77.095l-2.49,2.595,1.77,1.68,2.91-3,1.08,1.035-4.2,4.41-6.569-6.269,4.2-4.395,1.095,1.035-2.91,3,1.575,1.5,2.475-2.595Z" transform="translate(-16.62 -5.551)" fill="#010101"/>
      <path id="Path_2342" data-name="Path 2342" d="M160.563,48.41a3.915,3.915,0,0,1,.2,1.29,3,3,0,0,1-.3,1.2,3.15,3.15,0,0,1-.78,1.02,4.5,4.5,0,0,1-1.3.795,3.78,3.78,0,0,1-1.575.315,3.27,3.27,0,0,1-1.41-.36,3.764,3.764,0,0,1-1.215-.99,6.147,6.147,0,0,1-.93-1.5l-.225-.555a6,6,0,0,1-.435-1.785,3.765,3.765,0,0,1,.18-1.5,3.209,3.209,0,0,1,.765-1.26,3.615,3.615,0,0,1,1.335-.87,4.3,4.3,0,0,1,1.5-.36,3.21,3.21,0,0,1,1.275.21,2.9,2.9,0,0,1,1.05.66,4.335,4.335,0,0,1,.78,1.065l-1.725.72a2.43,2.43,0,0,0-.4-.615,1.5,1.5,0,0,0-.495-.375,1.3,1.3,0,0,0-.6-.09,2.37,2.37,0,0,0-.78.195,1.5,1.5,0,0,0-1.035,1.17,3.869,3.869,0,0,0,.375,2.16l.225.57a6.705,6.705,0,0,0,.57,1.095,2.67,2.67,0,0,0,.63.7,1.5,1.5,0,0,0,.735.27,1.8,1.8,0,0,0,.855-.165,2.2,2.2,0,0,0,.675-.375,1.394,1.394,0,0,0,.375-.48,1.3,1.3,0,0,0,.12-.6,2.236,2.236,0,0,0-.135-.72Z" transform="translate(-74.247 -20.197)" fill="#010101"/>
      <path id="Path_2343" data-name="Path 2343" d="M166.353,45.7a6,6,0,0,1,.18,1.875,4.275,4.275,0,0,1-.42,1.5,3.555,3.555,0,0,1-.975,1.14,4.02,4.02,0,0,1-1.5.69,3.84,3.84,0,0,1-1.455.15,3.615,3.615,0,0,1-1.41-.555,3.959,3.959,0,0,1-1.11-1.17,5.249,5.249,0,0,1-.735-1.74l-.1-.39a5.894,5.894,0,0,1-.18-1.875,4.2,4.2,0,0,1,.435-1.5,3.3,3.3,0,0,1,.975-1.155,4.02,4.02,0,0,1,1.5-.69,3.839,3.839,0,0,1,1.59,0,3.5,3.5,0,0,1,1.41.57,3.959,3.959,0,0,1,1.11,1.17,6.136,6.136,0,0,1,.735,1.74Zm-1.935,0a3.824,3.824,0,0,0-1.02-1.98,1.8,1.8,0,0,0-2.835.7,3.765,3.765,0,0,0,0,2.235l.09.39a6,6,0,0,0,.435,1.185,2.834,2.834,0,0,0,.6.795,1.755,1.755,0,0,0,.75.4,1.845,1.845,0,0,0,.855,0,1.635,1.635,0,0,0,1.23-1.08,3.8,3.8,0,0,0,0-2.235Z" transform="translate(-71.218 -21.174)" fill="#010101"/>
      <path id="Path_2344" data-name="Path 2344" d="M165.9,50.194,165,41.1l2.775-.285a4.5,4.5,0,0,1,1.71.135,3.93,3.93,0,0,1,1.395.75,3.99,3.99,0,0,1,.99,1.275,4.8,4.8,0,0,1,.48,1.725v.42a4.964,4.964,0,0,1-.12,1.785,4,4,0,0,1-.72,1.5,3.644,3.644,0,0,1-1.215,1,4.5,4.5,0,0,1-1.65.48Zm1.095-7.709.615,6,.9-.09a2.07,2.07,0,0,0,1.6-.915,3.315,3.315,0,0,0,.36-2.13v-.42a3.24,3.24,0,0,0-.78-2.04,2.025,2.025,0,0,0-1.74-.54Z" transform="translate(-68.035 -21.725)" fill="#010101"/>
      <path id="Path_2345" data-name="Path 2345" d="M176.894,45.789l-3.6-.09v2.43l4.215.1v1.5l-6.089-.165.24-9,6,.15v1.5l-4.2-.1v2.16l3.585.1Z" transform="translate(-64.826 -21.836)" fill="#010101"/>
      <path id="Path_2346" data-name="Path 2346" d="M312.82,54.344l-3.39-8.429,2.595-1.035a4.245,4.245,0,0,1,1.68-.33,3.57,3.57,0,0,1,1.5.33,3.975,3.975,0,0,1,1.3.96,4.5,4.5,0,0,1,.945,1.5l.15.375a4.74,4.74,0,0,1,.375,1.755,3.749,3.749,0,0,1-.285,1.59,3.945,3.945,0,0,1-.885,1.3,4.366,4.366,0,0,1-1.5.915Zm-1.035-7.709,2.25,5.624.84-.345a2.025,2.025,0,0,0,1.3-1.3,3.329,3.329,0,0,0-.24-2.16l-.165-.39a3.36,3.36,0,0,0-1.3-1.74,2.055,2.055,0,0,0-1.83,0Z" transform="translate(4.158 -19.846)" fill="#010101"/>
      <path id="Path_2347" data-name="Path 2347" d="M322.194,47.274l-3.48.9.6,2.355,4.08-1.05.375,1.5-5.894,1.5L315.61,43.69l5.894-1.5.375,1.5-4.08,1.05.54,2.085,3.48-.885Z" transform="translate(7.247 -21.026)" fill="#010101"/>
      <path id="Path_2348" data-name="Path 2348" d="M323.86,47.6l.39,3.18-1.86.225-1.11-9,3.525-.435a4.214,4.214,0,0,1,1.5,0,3.119,3.119,0,0,1,1.14.48,2.879,2.879,0,0,1,.78.87,3.21,3.21,0,0,1,.285,2.385,2.534,2.534,0,0,1-.555.975,3.09,3.09,0,0,1-.99.7,5.22,5.22,0,0,1-1.41.375Zm-.195-1.5,1.665-.21a2.009,2.009,0,0,0,.675-.18,1.23,1.23,0,0,0,.435-.33,1.035,1.035,0,0,0,.21-.45,1.709,1.709,0,0,0,0-.555,2.34,2.34,0,0,0-.15-.555,1.59,1.59,0,0,0-.33-.435,1.319,1.319,0,0,0-.51-.285,2.145,2.145,0,0,0-.7,0l-1.665.195Z" transform="translate(10.081 -21.368)" fill="#010101"/>
      <path id="Path_2349" data-name="Path 2349" d="M329.56,48.789h3.975v1.5H327.7V41.2h1.95Z" transform="translate(13.29 -21.521)" fill="#010101"/>
      <path id="Path_2350" data-name="Path 2350" d="M340.151,46.9a5.732,5.732,0,0,1-.525,1.815,3.9,3.9,0,0,1-.975,1.29,3.315,3.315,0,0,1-1.32.7,3.735,3.735,0,0,1-1.59.1,4.109,4.109,0,0,1-1.5-.51,3.479,3.479,0,0,1-1.095-1.05,3.869,3.869,0,0,1-.6-1.5,5.624,5.624,0,0,1,0-1.89v-.4a5.76,5.76,0,0,1,.525-1.8,3.9,3.9,0,0,1,.975-1.29,3.315,3.315,0,0,1,1.335-.72,3.735,3.735,0,0,1,1.59-.1,3.87,3.87,0,0,1,1.5.525,3.435,3.435,0,0,1,1.095,1.035,4.318,4.318,0,0,1,.6,1.5,6.09,6.09,0,0,1,0,1.89Zm-1.815-.66a3.9,3.9,0,0,0-.225-2.22,1.7,1.7,0,0,0-1.35-.93,1.725,1.725,0,0,0-1.5.54,3.9,3.9,0,0,0-.8,2.085v.42a5.164,5.164,0,0,0,0,1.26,2.9,2.9,0,0,0,.27.96,1.4,1.4,0,0,0,.54.63,1.845,1.845,0,0,0,2.34-.24,3.9,3.9,0,0,0,.795-2.085Z" transform="translate(15.673 -21.37)" fill="#010101"/>
      <path id="Path_2351" data-name="Path 2351" d="M341.91,47.164l2.895-3.45,1.98.525-4.395,4.815-.855,3.18-1.845-.495.87-3.18L339.18,42.2l1.98.525Z" transform="translate(19.029 -21.021)" fill="#010101"/>
      <path id="Path_2352" data-name="Path 2352" d="M124.327,116.7l-9,1.575-.555-3.135a5.835,5.835,0,0,1-.09-1.41,2.82,2.82,0,0,1,.255-1.125,2.13,2.13,0,0,1,.66-.795,2.565,2.565,0,0,1,1.05-.4,2.024,2.024,0,0,1,.6,0,1.86,1.86,0,0,1,.57.135,2.041,2.041,0,0,1,.51.315,2.43,2.43,0,0,1,.435.51,1.815,1.815,0,0,1,.18-.72,1.74,1.74,0,0,1,.375-.54,2.039,2.039,0,0,1,.525-.36,1.92,1.92,0,0,1,.63-.195,2.355,2.355,0,0,1,2.115.48,3.84,3.84,0,0,1,1.08,2.28Zm-5.519-.93-.24-1.365a1.71,1.71,0,0,0-.48-.99,1.02,1.02,0,0,0-.87-.21,1.1,1.1,0,0,0-.825.51,1.935,1.935,0,0,0,0,1.17l.225,1.29Zm1.3-.225,2.415-.435-.285-1.5a1.665,1.665,0,0,0-.195-.6,1.38,1.38,0,0,0-.315-.39,1.155,1.155,0,0,0-.42-.18,1.29,1.29,0,0,0-.48,0,1.5,1.5,0,0,0-.495.165.885.885,0,0,0-.36.3,1.02,1.02,0,0,0-.18.45,1.755,1.755,0,0,0,0,.615Z" transform="translate(-93.19 13.108)" fill="#010101"/>
      <path id="Path_2353" data-name="Path 2353" d="M113.71,105.193l6-.555a3.494,3.494,0,0,1,1.395.12,2.835,2.835,0,0,1,1.785,1.665,4.5,4.5,0,0,1,.345,1.38,4.844,4.844,0,0,1-.075,1.41,3.225,3.225,0,0,1-.51,1.155,2.865,2.865,0,0,1-.93.81,3.465,3.465,0,0,1-1.365.39l-6,.555-.165-1.86,6-.555a1.71,1.71,0,0,0,1.245-.555,1.9,1.9,0,0,0-.225-2.355,1.77,1.77,0,0,0-1.335-.3l-6,.57Z" transform="translate(-93.672 10.177)" fill="#010101"/>
      <path id="Path_2354" data-name="Path 2354" d="M122.679,101.71v1.875l-9.089.315v-1.875Z" transform="translate(-93.732 8.725)" fill="#010101"/>
      <path id="Path_2355" data-name="Path 2355" d="M121.144,100.265l.075-3.975h1.5l-.12,5.834-9-.165v-1.875Z" transform="translate(-93.727 6.016)" fill="#010101"/>
      <path id="Path_2356" data-name="Path 2356" d="M122.739,97.729l-9-.84.255-2.775a4.5,4.5,0,0,1,.48-1.65,3.615,3.615,0,0,1,1-1.215,3.824,3.824,0,0,1,1.5-.72,4.635,4.635,0,0,1,1.785-.15h.42a4.8,4.8,0,0,1,1.725.465,3.75,3.75,0,0,1,1.275.975,3.959,3.959,0,0,1,.765,1.395,4.275,4.275,0,0,1,.15,1.71Zm-7.364-2.565,6,.57v-.9a2.025,2.025,0,0,0-.57-1.755,3.21,3.21,0,0,0-2.025-.765h-.42a3.3,3.3,0,0,0-2.145.375,2.055,2.055,0,0,0-.87,1.6Z" transform="translate(-93.657 3.047)" fill="#010101"/>
      <path id="Path_2357" data-name="Path 2357" d="M384.215,85.68a5.864,5.864,0,0,1-1.86.375,4.394,4.394,0,0,1-1.575-.27,3.554,3.554,0,0,1-1.245-.855,3.779,3.779,0,0,1-.825-1.365,3.914,3.914,0,0,1-.24-1.5,3.479,3.479,0,0,1,.42-1.5,4.005,4.005,0,0,1,1.05-1.23,6,6,0,0,1,1.65-.9l.375-.135a5.43,5.43,0,0,1,1.86-.36,3.9,3.9,0,0,1,1.59.27,3.21,3.21,0,0,1,1.245.84,4.155,4.155,0,0,1,1.065,3,3.27,3.27,0,0,1-.42,1.5,4.065,4.065,0,0,1-1.05,1.23,5.52,5.52,0,0,1-1.665.9Zm-.255-1.92a3.99,3.99,0,0,0,1.875-1.215,1.71,1.71,0,0,0,.195-1.635,1.665,1.665,0,0,0-1.185-1.11,3.69,3.69,0,0,0-2.22.255l-.39.135a5.387,5.387,0,0,0-1.14.555,2.4,2.4,0,0,0-.72.675,1.725,1.725,0,0,0-.33.765,1.874,1.874,0,0,0,.105.855,1.68,1.68,0,0,0,1.2,1.125,3.825,3.825,0,0,0,2.22-.27Z" transform="translate(38.667 -3.157)" fill="#010101"/>
      <path id="Path_2358" data-name="Path 2358" d="M383.335,86.99l-3.135.6-.36-1.83,9-1.74.66,3.48a4.41,4.41,0,0,1,0,1.5,3.089,3.089,0,0,1-.4,1.17,2.551,2.551,0,0,1-.81.84,3.209,3.209,0,0,1-1.14.465,3.3,3.3,0,0,1-1.215,0,2.685,2.685,0,0,1-1.02-.495,3,3,0,0,1-.765-.945,4.3,4.3,0,0,1-.465-1.365Zm1.5-.3.33,1.65a2.01,2.01,0,0,0,.225.66,1.365,1.365,0,0,0,.36.4.945.945,0,0,0,.48.18,1.32,1.32,0,0,0,.54,0,1.665,1.665,0,0,0,.54-.195,1.215,1.215,0,0,0,.42-.36,1.14,1.14,0,0,0,.24-.525,1.5,1.5,0,0,0,0-.69l-.315-1.65Z" transform="translate(39.352 -0.117)" fill="#010101"/>
      <path id="Path_2359" data-name="Path 2359" d="M385.165,96.194l-.27-3.585-2.43.18L382.78,97l-1.5.1-.45-6,9-.69.465,6-1.5.1-.21-4.185-2.16.165.27,3.585Z" transform="translate(39.847 3.082)" fill="#010101"/>
      <path id="Path_2360" data-name="Path 2360" d="M384.46,99.31v-1.5h-3.315V95.92l9.089.1V99.4a5.715,5.715,0,0,1-.195,1.41,3,3,0,0,1-.54,1.05,2.324,2.324,0,0,1-.87.645,2.7,2.7,0,0,1-1.185.21,3.345,3.345,0,0,1-.9-.12,2.1,2.1,0,0,1-.69-.33,2.25,2.25,0,0,1-.54-.525,3,3,0,0,1-.39-.675l-3.735,1.92h-.09v-2.01Zm1.5-1.5v1.5a2.1,2.1,0,0,0,.09.645,1.186,1.186,0,0,0,.27.465,1.155,1.155,0,0,0,.42.285,2.025,2.025,0,0,0,.555.1,1.38,1.38,0,0,0,1-.36,1.5,1.5,0,0,0,.39-1.11v-1.5Z" transform="translate(39.982 5.831)" fill="#010101"/>
      <path id="Path_2361" data-name="Path 2361" d="M382.695,107.189l.285-3.27-1.815-.78.165-1.98,8.759,4.125-.15,1.74-9.329,2.61.165-1.98Zm1.74-2.64-.18,2.265,3.48-.855Z" transform="translate(39.737 8.45)" fill="#010101"/>
      <path id="Path_2362" data-name="Path 2362" d="M387.119,114.929l.45-2.745-7.5-1.23.315-1.845,7.5,1.23.45-2.7,1.5.24-1.2,7.3Z" transform="translate(39.467 11.689)" fill="#010101"/>
      <path id="Path_2363" data-name="Path 2363" d="M382.5,118.944l.915-3.465-2.355-.63L380,118.929l-1.5-.375,1.5-5.894,8.789,2.31-1.5,5.879-1.5-.39,1.065-4.065-2.085-.54-.915,3.465Z" transform="translate(38.682 14.198)" fill="#010101"/>
      <path id="Path_2364" data-name="Path 2364" d="M166.029,154.255l-3.855-.78-2.1,10.5-2.595-.525,2.115-10.5-3.795-.765.42-2.085,10.229,2.055Z" transform="translate(-72.633 32.912)" fill="#010101"/>
      <path id="Path_2365" data-name="Path 2365" d="M171.544,159.464l-5.054-.42-.285,3.435,6,.48-.18,2.115-8.564-.7,1.065-12.779,8.549.72-.18,2.13-6-.495-.255,3,5.054.42Z" transform="translate(-68.804 33.657)" fill="#010101"/>
      <path id="Path_2366" data-name="Path 2366" d="M178.149,161.46a1.859,1.859,0,0,0-.12-.6,1.065,1.065,0,0,0-.39-.48,3.359,3.359,0,0,0-.78-.435,9.753,9.753,0,0,0-1.29-.375c-.6-.18-1.155-.375-1.68-.585a6.915,6.915,0,0,1-1.395-.795,3.78,3.78,0,0,1-.945-1.08,3,3,0,0,1-.39-1.5,3.225,3.225,0,0,1,.3-1.5,3.344,3.344,0,0,1,.945-1.155,4.814,4.814,0,0,1,1.5-.78,6.764,6.764,0,0,1,3.84-.075,4.394,4.394,0,0,1,1.5.78,3.39,3.39,0,0,1,.975,1.23,3.6,3.6,0,0,1,.39,1.575h-2.64a2.384,2.384,0,0,0-.15-.75,1.409,1.409,0,0,0-.4-.57,1.619,1.619,0,0,0-.675-.36,3,3,0,0,0-.945-.12,3.134,3.134,0,0,0-.9.15,1.844,1.844,0,0,0-.615.33,1.5,1.5,0,0,0-.48,1.08,1.245,1.245,0,0,0,.675,1.035,7.139,7.139,0,0,0,1.92.735,11.77,11.77,0,0,1,1.875.675,4.964,4.964,0,0,1,1.35.855,3.3,3.3,0,0,1,.84,1.11,3.42,3.42,0,0,1,.315,1.41,3.18,3.18,0,0,1-1.185,2.655,4.648,4.648,0,0,1-1.5.735,7.5,7.5,0,0,1-1.92.3,7.111,7.111,0,0,1-1.26,0,6.4,6.4,0,0,1-1.23-.3,6,6,0,0,1-1.08-.54,3.737,3.737,0,0,1-.885-.795,3.542,3.542,0,0,1-.6-1.035,3.959,3.959,0,0,1-.255-1.3l2.655-.09a2.685,2.685,0,0,0,.21.99,1.71,1.71,0,0,0,.54.63,1.98,1.98,0,0,0,.81.345,4.5,4.5,0,0,0,1.035.09,3.539,3.539,0,0,0,.885-.135,1.829,1.829,0,0,0,.615-.33,1.185,1.185,0,0,0,.36-.465A1.5,1.5,0,0,0,178.149,161.46Z" transform="translate(-65.106 33.792)" fill="#010101"/>
      <path id="Path_2367" data-name="Path 2367" d="M188.8,152.91l-3.885.585,1.59,10.5-2.61.39-1.59-10.5-3.825.57-.315-2.115,10.319-1.5Z" transform="translate(-61.452 33.282)" fill="#010101"/>
    </g>
    <g id="Group_3263" data-name="Group 3263" transform="translate(4415.29 -1879)">
      <path id="Path_2368" data-name="Path 2368" d="M207.2,1.66c4.245,0,6.317,2.088,6.317,5.461,0,2.533-1.147,4.057-3.492,4.639,3.081.514,4.6,2.191,4.6,5.135,0,3.338-2.26,5.615-6.916,5.615H199.1V1.66Zm-5.238,2.722V10.6h4.861c2.7,0,3.817-1.232,3.817-3.252s-1.2-2.979-3.817-2.979Zm0,8.764v6.488H207.8c2.739,0,3.971-.993,3.971-3.081,0-2.225-1.181-3.424-4.023-3.424ZM219.282.548a1.78,1.78,0,0,1,1.9,1.643v.257a1.9,1.9,0,0,1-3.8,0,1.78,1.78,0,0,1,1.643-1.9.648.648,0,0,1,.257,0ZM217.9,6.642h2.739V22.51H217.9Zm13.146,13.2a8.229,8.229,0,0,0,1.712-.223v2.636a6.666,6.666,0,0,1-1.832.257c-3.406,0-5.05-2-5.05-4.947V9.175H223.3V6.642h2.568V3.27h2.653V6.642h4.228V9.175h-4.228v8.336A2.208,2.208,0,0,0,231.042,19.84Zm12.975,2.978a5.209,5.209,0,0,1-5.05-3.115v2.79h-2.739V0h2.756V9.483a5.593,5.593,0,0,1,5.358-3.167c4.228,0,6.351,3.578,6.351,8.251C250.676,19.052,248.468,22.818,244.017,22.818ZM243.606,8.85c-2.448,0-4.622,1.558-4.622,5.084V15.2c0,3.526,2,5.084,4.331,5.084,3.081,0,4.673-2.037,4.673-5.717-.034-3.8-1.558-5.717-4.382-5.717Zm9.928-2.208h2.739v9.6c0,2.859,1.147,4.125,3.749,4.125,2.533,0,4.279-1.678,4.279-4.9V6.642h2.739V22.51H264.3v-2.6a5.6,5.6,0,0,1-5.016,2.927c-3.646,0-5.752-2.533-5.752-6.9ZM282.361,22.1a8.729,8.729,0,0,1-3.869.719c-5.649,0-8.3-3.424-8.3-8.3,0-4.793,2.636-8.217,8.3-8.217a8.261,8.261,0,0,1,3.783.787V9.62a7.966,7.966,0,0,0-3.612-.753c-4.125,0-5.8,2.6-5.8,5.683s1.712,5.683,5.871,5.683a9.977,9.977,0,0,0,3.612-.565l.017,2.431Zm3.115.411V0h2.739V14.071l6.83-7.429h3.56l-7.463,7.789,7.772,8.08H295.2l-6.984-7.429V22.51Zm22.476.308c-5.94,0-8.542-3.424-8.542-8.3,0-4.793,2.67-8.217,7.5-8.217,4.9,0,6.847,3.406,6.847,8.217v1.232H302.166c.377,2.7,2.123,4.451,5.871,4.451a14.062,14.062,0,0,0,4.827-.856v2.533a11.2,11.2,0,0,1-4.913.941Zm-5.8-9.381H311c-.154-2.944-1.489-4.639-4.228-4.639-2.893-.017-4.348,1.866-4.639,4.622v.017Zm21.141,6.4A8.229,8.229,0,0,0,325,19.617v2.636a6.666,6.666,0,0,1-1.832.257c-3.406,0-5.05-2-5.05-4.947V9.175h-2.568V6.642h2.568V3.27h2.67V6.642h4.228V9.175h-4.228v8.336A2.187,2.187,0,0,0,323.29,19.84Z" transform="translate(-3146.019 4638)" fill="#fff"/>
      <path id="Path_2369" data-name="Path 2369" d="M46.05,59.542h4.707L51.9,52.9H44.8Z" transform="translate(-3018.132 4594.156)" fill="none"/>
      <path id="Path_2370" data-name="Path 2370" d="M.736,13.2A.716.716,0,0,0,0,13.919a.291.291,0,0,0,.017.12l3.064,18.59a.989.989,0,0,0,.959.822H18.727a.721.721,0,0,0,.719-.6l3.064-18.8a.707.707,0,0,0-.6-.822c-.034,0-.086-.017-.12-.017L.736,13.2Zm12.89,13.437H8.936L7.669,20h7.1Z" transform="translate(-2981 4627.06)" fill="#fff"/>
      <path id="Path_2371" data-name="Path 2371" d="M37.945,52.9H31.183l-1.13,6.642H25.346L19.8,66.115a.94.94,0,0,0,.633.24h14.7a.721.721,0,0,0,.719-.6Z" transform="translate(-2997.41 4594.156)" fill="#e6e6e6"/>
    </g>
  </g>
</svg>
