<svg xmlns="http://www.w3.org/2000/svg" width="30" height="29.98" viewBox="0 0 30 29.98">
  <g id="cloud" transform="translate(0 -0.173)">
    <path id="Path_1220" data-name="Path 1220" d="M205.224,401.871h0a3.23,3.23,0,1,0,2.352,3.109A3.235,3.235,0,0,0,205.224,401.87Z" transform="translate(-189.337 -378.057)"/>
    <path id="Path_1221" data-name="Path 1221" d="M310.409,341.272a3.236,3.236,0,0,0-3.108,2.352h-1.659v-4.257a1.86,1.86,0,0,0-1.858-1.858h-2.5v1.757h2.5a.1.1,0,0,1,.1.1v4.385a1.631,1.631,0,0,0,1.629,1.629H307.3a3.23,3.23,0,1,0,3.108-4.109Z" transform="translate(-283.639 -317.58)"/>
    <path id="Path_1222" data-name="Path 1222" d="M6.146,17.506l7.984-.017v4.522a5.027,5.027,0,0,1,1.757,0V17.486l8.021-.017A6.077,6.077,0,0,0,30,11.4a6.368,6.368,0,0,0-7.418-6.419,4.6,4.6,0,0,0-3.865-1.986A6.06,6.06,0,0,0,7.785,4.526C2.425,3.453-1.655,9.255.665,14.095a6.092,6.092,0,0,0,5.48,3.412Z" transform="translate(0 0)"/>
    <path id="Path_1223" data-name="Path 1223" d="M12.638,337.508h-2.5a1.86,1.86,0,0,0-1.858,1.858v4.257H6.621a3.231,3.231,0,1,0,0,1.757H8.407a1.631,1.631,0,0,0,1.629-1.629v-4.385a.1.1,0,0,1,.1-.1h2.5Z" transform="translate(-0.265 -317.58)"/>
  </g>
</svg>
