<svg xmlns="http://www.w3.org/2000/svg" width="848.865" height="588.999" viewBox="0 0 848.865 588.999">
  <g id="Group_3262" data-name="Group 3262" transform="translate(-140 -1465)">
    <g id="Ellipse_678" data-name="Ellipse 678" transform="translate(658 1544)" fill="none" stroke="#fff" stroke-width="4">
      <circle cx="9" cy="9" r="9" stroke="none"/>
      <circle cx="9" cy="9" r="7" fill="none"/>
    </g>
    <g id="Ellipse_679" data-name="Ellipse 679" transform="translate(627 1652)" fill="none" stroke="#fff" stroke-width="4">
      <circle cx="9" cy="9" r="9" stroke="none"/>
      <circle cx="9" cy="9" r="7" fill="none"/>
    </g>
    <g id="Ellipse_680" data-name="Ellipse 680" transform="translate(832 1630)" fill="none" stroke="#fff" stroke-width="4">
      <circle cx="9" cy="9" r="9" stroke="none"/>
      <circle cx="9" cy="9" r="7" fill="none"/>
    </g>
    <g id="Ellipse_681" data-name="Ellipse 681" transform="translate(708 1694)" fill="none" stroke="#fff" stroke-width="4">
      <circle cx="9" cy="9" r="9" stroke="none"/>
      <circle cx="9" cy="9" r="7" fill="none"/>
    </g>
    <g id="Ellipse_682" data-name="Ellipse 682" transform="translate(802 1811)" fill="none" stroke="#fff" stroke-width="4">
      <circle cx="9" cy="9" r="9" stroke="none"/>
      <circle cx="9" cy="9" r="7" fill="none"/>
    </g>
    <g id="Ellipse_683" data-name="Ellipse 683" transform="translate(899 1895)" fill="none" stroke="#fff" stroke-width="4">
      <circle cx="9" cy="9" r="9" stroke="none"/>
      <circle cx="9" cy="9" r="7" fill="none"/>
    </g>
    <g id="Ellipse_684" data-name="Ellipse 684" transform="translate(680 1902)" fill="none" stroke="#fff" stroke-width="4">
      <circle cx="9" cy="9" r="9" stroke="none"/>
      <circle cx="9" cy="9" r="7" fill="none"/>
    </g>
    <g id="Ellipse_685" data-name="Ellipse 685" transform="translate(760 1967)" fill="none" stroke="#fff" stroke-width="4">
      <circle cx="9" cy="9" r="9" stroke="none"/>
      <circle cx="9" cy="9" r="7" fill="none"/>
    </g>
    <g id="Ellipse_686" data-name="Ellipse 686" transform="translate(573 1899)" fill="none" stroke="#fff" stroke-width="4">
      <circle cx="9" cy="9" r="9" stroke="none"/>
      <circle cx="9" cy="9" r="7" fill="none"/>
    </g>
    <g id="Ellipse_688" data-name="Ellipse 688" transform="translate(463 1898)" fill="none" stroke="#fff" stroke-width="4">
      <circle cx="9" cy="9" r="9" stroke="none"/>
      <circle cx="9" cy="9" r="7" fill="none"/>
    </g>
    <g id="Ellipse_687" data-name="Ellipse 687" transform="translate(573 1966)" fill="none" stroke="#fff" stroke-width="4">
      <circle cx="9" cy="9" r="9" stroke="none"/>
      <circle cx="9" cy="9" r="7" fill="none"/>
    </g>
    <g id="Ellipse_689" data-name="Ellipse 689" transform="translate(343 2001)" fill="none" stroke="#fff" stroke-width="4">
      <circle cx="9" cy="9" r="9" stroke="none"/>
      <circle cx="9" cy="9" r="7" fill="none"/>
    </g>
    <g id="Ellipse_690" data-name="Ellipse 690" transform="translate(226 1818)" fill="none" stroke="#fff" stroke-width="4">
      <circle cx="9" cy="9" r="9" stroke="none"/>
      <circle cx="9" cy="9" r="7" fill="none"/>
    </g>
    <g id="Ellipse_691" data-name="Ellipse 691" transform="translate(327 1818)" fill="none" stroke="#fff" stroke-width="4">
      <circle cx="9" cy="9" r="9" stroke="none"/>
      <circle cx="9" cy="9" r="7" fill="none"/>
    </g>
    <g id="Ellipse_692" data-name="Ellipse 692" transform="translate(403 1723)" fill="none" stroke="#fff" stroke-width="4">
      <circle cx="9" cy="9" r="9" stroke="none"/>
      <circle cx="9" cy="9" r="7" fill="none"/>
    </g>
    <g id="Ellipse_693" data-name="Ellipse 693" transform="translate(269 1669)" fill="none" stroke="#fff" stroke-width="4">
      <circle cx="9" cy="9" r="9" stroke="none"/>
      <circle cx="9" cy="9" r="7" fill="none"/>
    </g>
    <g id="Ellipse_694" data-name="Ellipse 694" transform="translate(373 1586)" fill="none" stroke="#fff" stroke-width="4">
      <circle cx="9" cy="9" r="9" stroke="none"/>
      <circle cx="9" cy="9" r="7" fill="none"/>
    </g>
    <g id="Ellipse_695" data-name="Ellipse 695" transform="translate(473 1669)" fill="none" stroke="#fff" stroke-width="4">
      <circle cx="9" cy="9" r="9" stroke="none"/>
      <circle cx="9" cy="9" r="7" fill="none"/>
    </g>
    <g id="Rectangle_729" data-name="Rectangle 729" transform="translate(390 1593)" fill="#fff" stroke="#fff" stroke-width="1">
      <rect width="94" height="4" stroke="none"/>
      <rect x="0.5" y="0.5" width="93" height="3" fill="none"/>
    </g>
    <rect id="Rectangle_732" data-name="Rectangle 732" width="28" height="4" transform="translate(637 1616)" fill="#fff"/>
    <rect id="Rectangle_734" data-name="Rectangle 734" width="116" height="4" transform="translate(725 1701)" fill="#fff"/>
    <rect id="Rectangle_736" data-name="Rectangle 736" width="92" height="4" transform="translate(818 1818)" fill="#fff"/>
    <rect id="Rectangle_739" data-name="Rectangle 739" width="74" height="4" transform="translate(690 1974)" fill="#fff"/>
    <rect id="Rectangle_742" data-name="Rectangle 742" width="123" height="4" transform="translate(351 1957)" fill="#fff"/>
    <rect id="Rectangle_744" data-name="Rectangle 744" width="87" height="4" transform="translate(242 1825)" fill="#fff"/>
    <rect id="Rectangle_745" data-name="Rectangle 745" width="124" height="4" transform="translate(280 1731)" fill="#fff"/>
    <rect id="Rectangle_730" data-name="Rectangle 730" width="4" height="74" transform="translate(480 1597)" fill="#fff"/>
    <rect id="Rectangle_731" data-name="Rectangle 731" width="4" height="59" transform="translate(665 1561)" fill="#fff"/>
    <rect id="Rectangle_735" data-name="Rectangle 735" width="4" height="58" transform="translate(839 1647)" fill="#fff"/>
    <rect id="Rectangle_737" data-name="Rectangle 737" width="4" height="76" transform="translate(906 1821)" fill="#fff"/>
    <rect id="Rectangle_738" data-name="Rectangle 738" width="4" height="59" transform="translate(687 1919)" fill="#fff"/>
    <rect id="Rectangle_740" data-name="Rectangle 740" width="4" height="55" transform="translate(580 1915)" fill="#fff"/>
    <rect id="Rectangle_741" data-name="Rectangle 741" width="4" height="47" transform="translate(470 1913)" fill="#fff"/>
    <rect id="Rectangle_743" data-name="Rectangle 743" width="4" height="42" transform="translate(351 1961)" fill="#fff"/>
    <rect id="Rectangle_733" data-name="Rectangle 733" width="4" height="38" transform="translate(634 1616)" fill="#fff"/>
    <rect id="Rectangle_746" data-name="Rectangle 746" width="4" height="48" transform="translate(276 1687)" fill="#fff"/>
    <path id="Path_2189" data-name="Path 2189" d="M59.63,23.878a1.926,1.926,0,0,0-1.555-.791H14.759a1.87,1.87,0,0,0-.248.016l-1.783-5.139A1.927,1.927,0,0,0,11.614,16.8L2.63,13.274a1.925,1.925,0,0,0-1.409,3.584l8.16,3.205,9.988,28.789a1.6,1.6,0,0,0-.985.965L15.5,57.839a1.6,1.6,0,0,0,1.509,2.148h1.483a5.775,5.775,0,1,0,8.585,0H39.665a5.775,5.775,0,1,0,8.585,0h1.8a1.6,1.6,0,0,0,0-3.209H19.288l1.788-4.968a1.907,1.907,0,0,0,.742.155H50.053a1.924,1.924,0,0,0,1.833-1.337L59.908,25.6A1.924,1.924,0,0,0,59.63,23.878ZM22.781,66.4a2.567,2.567,0,1,1,2.567-2.567A2.569,2.569,0,0,1,22.781,66.4Zm21.176,0a2.567,2.567,0,1,1,2.567-2.567A2.569,2.569,0,0,1,43.957,66.4ZM54.048,31.269H44.225V26.938H55.437ZM51.22,40.093H44.225V35.12h8.589Zm-19.723,0V35.12h8.877v4.973Zm8.877,3.851v4.171H31.5V43.943ZM18.68,35.12h8.967v4.973H20.405ZM31.5,31.269V26.938h8.877v4.332Zm-3.85-4.332v4.332h-10.3l-1.5-4.332ZM21.741,43.943h5.906v4.171H23.188Zm22.483,4.171V43.944h5.762L48.65,48.115Z" transform="translate(303.845 1516.888)" fill="#fff"/>
    <path id="world" d="M33,66a32.372,32.372,0,0,1-12.826-2.611A32.29,32.29,0,0,1,2.611,45.826a32.812,32.812,0,0,1,0-25.652A32.29,32.29,0,0,1,20.174,2.611a32.812,32.812,0,0,1,25.652,0A32.29,32.29,0,0,1,63.389,20.174a32.812,32.812,0,0,1,0,25.652A32.29,32.29,0,0,1,45.826,63.389,32.372,32.372,0,0,1,33,66ZM18.885,18.885l-3.095-2.708a10.369,10.369,0,0,0-1.676.161,10.665,10.665,0,0,1-1.74.161q-.064-.064-1.16-2.385A27.993,27.993,0,0,0,4.125,33q0,.193.033.515t.033.451a18.149,18.149,0,0,0,1.9,1.45A17.3,17.3,0,0,1,8.25,37.125h4.125a1.951,1.951,0,0,1,.354-.192q.161-.064.354-.128-.645-.709-1.9-2.1t-1.9-2.031q.258-1.483.71-4.479t.645-4.479q5.542-2.321,8.25-3.416V18.887ZM31.84,8.38q-.9-.387-1.676-.709-.192-.515-.259-.774-.387,1.225-1.225,3.674a7.245,7.245,0,0,0,.741.128,7.245,7.245,0,0,1,.741.128h1.676V8.378Zm-.259,30.358a3.779,3.779,0,0,0-.451.515q-.774,1.353-2.191,4.125T26.813,47.5q.9,1.353,2.739,4.125t2.739,4.125q8.378.515,12.7.774a2.676,2.676,0,0,0,1.032,2.191A28.865,28.865,0,0,0,55.946,50.5,27.809,27.809,0,0,0,61.3,38.736q-1.225-.258-2.675-.709t-2.1-.612a19.66,19.66,0,0,0-2.547-.323,14.7,14.7,0,0,0-3.964.225q-.774.064-1-1a10.532,10.532,0,0,1-.225-2.191q0-1.127-.259-1.192a20.631,20.631,0,0,0-5.736.484,20.631,20.631,0,0,1-5.736.484q-.838.774-5.478,4.834Zm3.8-32.291q-.192,1.289-.676,3.867t-.741,3.931q.323-.064,1.063-.161a9.33,9.33,0,0,1,1.065-.1,4.316,4.316,0,0,0-.451-.259q.966-.323,1.417-.515-1.1-4.512-1.676-6.767Zm7.476-.579a11.912,11.912,0,0,0-.128,2,12.453,12.453,0,0,1-.645,3.415.736.736,0,0,0,.259.259q1.289-.128,4.317-.451a3.9,3.9,0,0,1,1.353-2.708,31.694,31.694,0,0,0-5.157-2.514Zm8.057,4.512a5.68,5.68,0,0,1-.451.71,12.239,12.239,0,0,1,1.611.323Q51.3,10.7,50.917,10.38Zm1.74,1.547q-.193.387-.612,1.16t-.612,1.16q-1.87.064-5.027.193l-.258-2.191a3.2,3.2,0,0,1-.451.161,1.9,1.9,0,0,1-.515.1v3.159q-1.353.128-4.158.387t-4.158.387q-.451.645-.966,1.417,1.74,3.738,2.642,5.608-1.289.323-5.285,1.417v2.191a1.235,1.235,0,0,0,.1.387q.1.259.161.387,1.1.515,3.416,1.547t3.48,1.611l1.417-1.74q-.064-.645-.323-2.03t-.387-2.1q.192-.128.612-.354t.612-.354q1.74-.515,2.642-.709.838,1.353,2.352,3.866t1.9,3.159q.579-.515,1.611-1.578t1.547-1.579q-3.48-2.449-4.576-3.159.064-.515.258-1.483h2.385q3.61,3.095,7.412,6.316.064,0,.128-.1t.128-.1q-.258-.515-1.676-3.159,0-.064.193-.258l.258-.258h2.642a11.721,11.721,0,0,1,1.1-.579,28.2,28.2,0,0,0-7.992-12.89Z" transform="translate(636 1465)" fill="#fff"/>
    <path id="md-laptop" d="M62.639,54.917a6.129,6.129,0,0,0,6.111-6.111V10.611A6.129,6.129,0,0,0,62.639,4.5H10.694a6.129,6.129,0,0,0-6.111,6.111V48.806a6.129,6.129,0,0,0,6.111,6.111H0C0,58.278,9.167,59.5,13.75,59.5H59.583c4.583,0,13.75-1.222,13.75-4.583ZM10.694,10.611H62.639V49.569H10.694ZM36.667,57.589a3.056,3.056,0,1,1,3.056-3.056A3.065,3.065,0,0,1,36.667,57.589Z" transform="translate(798.333 1942.5)" fill="#fff"/>
    <path id="Path_2190" data-name="Path 2190" d="M246.183,42.667h-5.8a1.45,1.45,0,1,0,0,2.9h5.8a1.45,1.45,0,1,0,0-2.9Z" transform="translate(-9.266 1570.167)" fill="#fff"/>
    <path id="Path_2191" data-name="Path 2191" d="M131.4,0H108.2a5.807,5.807,0,0,0-5.8,5.8V52.2a5.807,5.807,0,0,0,5.8,5.8h23.2a5.807,5.807,0,0,0,5.8-5.8V5.8A5.807,5.807,0,0,0,131.4,0Zm2.9,52.2a2.9,2.9,0,0,1-2.9,2.9H108.2a2.9,2.9,0,0,1-2.9-2.9V5.8a2.9,2.9,0,0,1,2.9-2.9h23.2a2.9,2.9,0,0,1,2.9,2.9Z" transform="translate(111.8 1608)" fill="#fff"/>
    <circle id="Ellipse_696" data-name="Ellipse 696" cx="2.9" cy="2.9" r="2.9" transform="translate(228.7 1655.367)" fill="#fff"/>
    <circle id="Ellipse_697" data-name="Ellipse 697" cx="1.45" cy="1.45" r="1.45" transform="translate(224.833 1612.833)" fill="#fff"/>
    <path id="XMLID_811_" d="M97.66,32.795V20.255a20.255,20.255,0,0,0-40.51,0V32.794a27.4,27.4,0,1,0,40.51,0ZM77.4,7.149A13.121,13.121,0,0,1,90.511,20.255v6.918a27.364,27.364,0,0,0-26.212,0V20.255A13.121,13.121,0,0,1,77.4,7.149Zm0,64.34A20.255,20.255,0,1,1,97.66,51.234,20.278,20.278,0,0,1,77.4,71.489Z" transform="translate(90 1785.681)" fill="#fff"/>
    <path id="XMLID_815_" d="M145.957,175a5.955,5.955,0,0,0-3.574,10.72v4.769a3.574,3.574,0,1,0,7.149,0V185.72A5.955,5.955,0,0,0,145.957,175Z" transform="translate(21.447 1652.383)" fill="#fff"/>
    <path id="Path_2203" data-name="Path 2203" d="M47.183,76H4.547A4.553,4.553,0,0,0,0,80.547v27.279a4.553,4.553,0,0,0,4.547,4.547H47.183a4.552,4.552,0,0,0,4.547-4.547V80.547A4.551,4.551,0,0,0,47.183,76Zm-.637,3.031L29.08,96.406a4.547,4.547,0,0,1-6.433,0L5.183,79.031ZM3.031,107.209V81.165l13.1,13.029Zm2.154,2.132,13.093-13.01,2.229,2.217a7.578,7.578,0,0,0,10.714,0l2.232-2.22,13.093,13.01ZM48.7,107.209,35.6,94.194,48.7,81.165Z" transform="translate(937.135 1809.814)" fill="#fff"/>
    <circle id="Ellipse_698" data-name="Ellipse 698" cx="11.666" cy="11.666" r="11.666" transform="translate(570.333 2004)" fill="#fff"/>
    <circle id="Ellipse_699" data-name="Ellipse 699" cx="8.333" cy="8.333" r="8.333" transform="translate(597 2017.333)" fill="#fff"/>
    <circle id="Ellipse_700" data-name="Ellipse 700" cx="8.333" cy="8.333" r="8.333" transform="translate(550.571 2017.333)" fill="#fff"/>
    <path id="Path_2200" data-name="Path 2200" d="M128.332,256a21.691,21.691,0,0,0-21.666,21.666,1.667,1.667,0,0,0,1.667,1.667h40A1.667,1.667,0,0,0,150,277.666,21.691,21.691,0,0,0,128.332,256Z" transform="translate(453.668 1774.666)" fill="#fff"/>
    <path id="Path_2201" data-name="Path 2201" d="M18.11,299.027a14.951,14.951,0,0,0-3.11-.36,15.018,15.018,0,0,0-15,15,1.667,1.667,0,0,0,1.667,1.667H13.64a4.942,4.942,0,0,1-.307-1.667A24.843,24.843,0,0,1,18.11,299.027Z" transform="translate(543.667 1738.666)" fill="#fff"/>
    <path id="Path_2202" data-name="Path 2202" d="M377.873,298.667a14.953,14.953,0,0,0-3.11.36,24.843,24.843,0,0,1,4.777,14.64,4.942,4.942,0,0,1-.307,1.667h11.973a1.667,1.667,0,0,0,1.667-1.667A15.018,15.018,0,0,0,377.873,298.667Z" transform="translate(227.46 1738.666)" fill="#fff"/>
    <path id="Path_2192" data-name="Path 2192" d="M244.266,59.99a3.281,3.281,0,1,0,0,6.561,19.708,19.708,0,0,1,19.688,19.684,3.281,3.281,0,1,0,6.561,0A26.277,26.277,0,0,0,244.266,59.99Z" transform="translate(20.74 1858.14)" fill="#fff"/>
    <path id="Path_2193" data-name="Path 2193" d="M106.92.891A39.347,39.347,0,0,0,85.944,65.5a25.558,25.558,0,0,1,6.467,16.749v6.561a9.858,9.858,0,0,0,6.8,9.359,16.363,16.363,0,0,0,32.329,0,9.858,9.858,0,0,0,6.8-9.359V82.244A25.9,25.9,0,0,1,145,65.278,39.374,39.374,0,0,0,106.92.891Zm8.457,104.537a10.04,10.04,0,0,1-9.28-6.8h18.56A10.039,10.039,0,0,1,115.376,105.428Zm16.4-16.622a3.284,3.284,0,0,1-3.281,3.281H102.253a3.284,3.284,0,0,1-3.281-3.281V85.525H131.78Zm8.285-27.852a32.9,32.9,0,0,0-8.1,18.01H98.793a32.422,32.422,0,0,0-7.946-17.829,32.807,32.807,0,1,1,49.218-.181Z" transform="translate(149.633 1905)" fill="#fff"/>
    <path id="Path_2194" data-name="Path 2194" d="M9.842,179.99H3.281a3.281,3.281,0,1,0,0,6.561H9.842a3.281,3.281,0,1,0,0-6.561Z" transform="translate(209.018 1764.385)" fill="#fff"/>
    <path id="Path_2195" data-name="Path 2195" d="M14.634,84.984l-4.64-4.64a3.281,3.281,0,0,0-4.64,4.64l4.64,4.64a3.281,3.281,0,0,0,4.64-4.64Z" transform="translate(205.585 1842.988)" fill="#fff"/>
    <path id="Path_2196" data-name="Path 2196" d="M14.634,260.344a3.281,3.281,0,0,0-4.64,0l-4.64,4.64a3.281,3.281,0,0,0,4.64,4.64l4.64-4.64A3.281,3.281,0,0,0,14.634,260.344Z" transform="translate(205.585 1702.356)" fill="#fff"/>
    <path id="Path_2197" data-name="Path 2197" d="M461.842,179.99h-6.561a3.281,3.281,0,0,0,0,6.561h6.561a3.281,3.281,0,0,0,0-6.561Z" transform="translate(-144.123 1764.385)" fill="#fff"/>
    <path id="Path_2198" data-name="Path 2198" d="M466.634,80.344a3.281,3.281,0,0,0-4.64,0l-4.64,4.64a3.281,3.281,0,1,0,4.64,4.64l4.64-4.64A3.281,3.281,0,0,0,466.634,80.344Z" transform="translate(-147.556 1842.988)" fill="#fff"/>
    <path id="Path_2199" data-name="Path 2199" d="M466.634,264.984l-4.64-4.64a3.281,3.281,0,1,0-4.64,4.64l4.64,4.64a3.281,3.281,0,0,0,4.64-4.64Z" transform="translate(-147.556 1702.356)" fill="#fff"/>
    <path id="Path_2204" data-name="Path 2204" d="M422.248,231.077a3.788,3.788,0,0,0,5.569,3.345l1.015,1.015a1.107,1.107,0,0,0,1.565-1.565l-1.015-1.015a3.789,3.789,0,1,0-7.135-1.78Zm5.366,0a1.568,1.568,0,0,1-.421,1.069c-.015.014-.031.027-.045.041s-.027.03-.041.046a1.574,1.574,0,1,1,.508-1.156Z" transform="translate(510.284 1405.904)" fill="#fff"/>
    <path id="Path_2205" data-name="Path 2205" d="M74.446,76.992H71.416a1.107,1.107,0,0,0,0,2.213h1.923V92.793H59.751V79.206h6.5a1.107,1.107,0,0,0,0-2.213H65.8A29.674,29.674,0,0,0,55.666,62.631a29.16,29.16,0,0,0-17.713-6.058c-.126,0,0,0-.354,0a29.4,29.4,0,0,0-14.94,4.173,1.107,1.107,0,1,0,1.138,1.9A27.048,27.048,0,0,1,30.4,59.8a24.2,24.2,0,0,0-5.607,8.843H16.815A27.383,27.383,0,0,1,19.8,65.571a1.107,1.107,0,0,0-1.462-1.662A29.362,29.362,0,0,0,9.754,76.992H1.107A1.107,1.107,0,0,0,0,78.1V93.9a1.107,1.107,0,0,0,1.107,1.107H9.754a29.674,29.674,0,0,0,10.132,14.361A29.16,29.16,0,0,0,37.6,115.426c.057,0,.086,0,.354,0a29.16,29.16,0,0,0,17.713-6.058A29.674,29.674,0,0,0,65.8,95.007h8.647A1.107,1.107,0,0,0,75.552,93.9V78.1A1.107,1.107,0,0,0,74.446,76.992Zm-15.8,0H53.035a44.919,44.919,0,0,0-1.486-6.134h8.829a26.868,26.868,0,0,1,3.085,6.134Zm-33.88,0a41.511,41.511,0,0,1,1.579-6.134H36.669v6.134Zm14.118-6.134H49.209a41.529,41.529,0,0,1,1.578,6.134h-11.9Zm0-11.983c3.714.606,7.128,4.241,9.478,9.769H38.883Zm19.831,9.769H50.762a24.246,24.246,0,0,0-5.578-8.818,27.548,27.548,0,0,1,13.53,8.818ZM36.669,58.877v9.768H27.192C29.541,63.12,32.953,59.487,36.669,58.877ZM15.16,70.858H24a44.914,44.914,0,0,0-1.486,6.134H12.091A27.061,27.061,0,0,1,15.16,70.858Zm-1.9,21.935H2.213V79.206H57.538V92.793H18.425a1.107,1.107,0,1,0,0,2.213h4.092A44.919,44.919,0,0,0,24,101.141H15.174a26.868,26.868,0,0,1-3.085-6.134H13.26a1.107,1.107,0,0,0,0-2.213Zm23.409,10.561v9.769c-3.714-.606-7.128-4.241-9.478-9.769Zm-10.326-2.213a41.529,41.529,0,0,1-1.578-6.134h11.9v6.134Zm12.54,11.982v-9.768H48.36C46.011,108.879,42.6,112.512,38.883,113.122Zm0-11.982V95.007h11.9a41.511,41.511,0,0,1-1.579,6.134H38.883Zm-22.044,2.213H24.79a24.246,24.246,0,0,0,5.578,8.818,27.548,27.548,0,0,1-13.53-8.818Zm28.341,8.819a24.235,24.235,0,0,0,5.582-8.819h7.952A27.547,27.547,0,0,1,45.18,112.173Zm15.2-11.033H51.549a44.913,44.913,0,0,0,1.486-6.134H63.464A26.872,26.872,0,0,1,60.378,101.141Z" transform="translate(870.224 1551.429)" fill="#fff"/>
    <path id="Path_2206" data-name="Path 2206" d="M246.68,281.781H53.32A53.277,53.277,0,0,1,15.8,266.392a52.045,52.045,0,0,1,0-74.691,53.338,53.338,0,0,1,28.743-14.671q-.007-.357-.007-.718A70.392,70.392,0,0,1,114.844,106,69.6,69.6,0,0,1,154.8,118.517a70.424,70.424,0,0,1,20.266,21.7,52.718,52.718,0,0,1,79.77,36.709A53.319,53.319,0,0,1,284.2,191.7a52.046,52.046,0,0,1,0,74.691A53.279,53.279,0,0,1,246.68,281.781ZM53.32,193.891c-19.709,0-35.742,15.771-35.742,35.156S33.612,264.2,53.32,264.2H246.68c19.709,0,35.742-15.771,35.742-35.156s-16.034-35.156-35.742-35.156h-8.789V185.1a35.12,35.12,0,0,0-59.763-25.059l-9.461,9.292L163.8,157A52.663,52.663,0,0,0,62.109,176.313a47.6,47.6,0,0,0,.67,6.667l1.574,10.911Z" transform="translate(421 1590.219)" fill="#fff"/>
  </g>
</svg>
