<svg id="vision" xmlns="http://www.w3.org/2000/svg" width="40" height="46.667" viewBox="0 0 40 46.667">
  <path id="Path_2174" data-name="Path 2174" d="M224,1.125a5,5,0,0,1,1.667-.292,5.062,5.062,0,0,1,.833.077V.833A.833.833,0,0,0,225.667,0h-.833A.833.833,0,0,0,224,.833Zm0,0" transform="translate(-200.667 0)" fill="#fff"/>
  <path id="Path_2175" data-name="Path 2175" d="M40,306.5V304H0v2.5A2.5,2.5,0,0,0,2.5,309h35A2.5,2.5,0,0,0,40,306.5Zm-3.333.833H35v-1.667h1.667Zm0,0" transform="translate(0 -272.333)" fill="#fff"/>
  <path id="Path_2176" data-name="Path 2176" d="M215.584,25.677V31.6a5.8,5.8,0,0,1,6.742-1.152l-1.547-4.768a1.6,1.6,0,0,0-.436-.788,3.334,3.334,0,0,0-4.808.3A2.547,2.547,0,0,1,215.584,25.677Zm0,0" transform="translate(-193.084 -21.51)" fill="#fff"/>
  <path id="Path_2177" data-name="Path 2177" d="M249.667,128.833a.833.833,0,1,1-.833-.833A.833.833,0,0,1,249.667,128.833Zm0,0" transform="translate(-222.167 -114.667)" fill="#fff"/>
  <path id="Path_2178" data-name="Path 2178" d="M31.782,83.033A5.833,5.833,0,1,1,20.874,86.5a2.372,2.372,0,0,1-1.75,0A5.833,5.833,0,1,1,8.217,83.033L9.2,80H2.5A2.5,2.5,0,0,0,0,82.5v19.167H40V82.5A2.5,2.5,0,0,0,37.5,80H30.8ZM15.833,96.667H14.167V95h1.667Zm3.333,0H17.5V95h1.667Zm3.333,0H20.833V95H22.5Zm3.333,0H24.167V95h1.667Zm0,0" transform="translate(0 -71.667)" fill="#fff"/>
  <path id="Path_2179" data-name="Path 2179" d="M122.333,432H104v1.667h18.333Zm0,0" transform="translate(-93.167 -387)" fill="#fff"/>
  <path id="Path_2180" data-name="Path 2180" d="M147.883,368h-10.2l-.625,5h11.445Zm0,0" transform="translate(-122.785 -329.667)" fill="#fff"/>
  <path id="Path_2181" data-name="Path 2181" d="M88,100.167A4.167,4.167,0,1,0,92.167,96,4.167,4.167,0,0,0,88,100.167Zm6.667,0a2.5,2.5,0,1,1-2.5-2.5A2.5,2.5,0,0,1,94.667,100.167Zm0,0" transform="translate(-78.833 -86)" fill="#fff"/>
  <path id="Path_2182" data-name="Path 2182" d="M136,.911a5.063,5.063,0,0,1,.833-.077,5,5,0,0,1,1.667.292V.833A.833.833,0,0,0,137.667,0h-.833A.833.833,0,0,0,136,.833Zm0,0" transform="translate(-121.833 0)" fill="#fff"/>
  <path id="Path_2183" data-name="Path 2183" d="M185.667,112.833a.833.833,0,1,1-.833-.833A.833.833,0,0,1,185.667,112.833Zm0,0" transform="translate(-164.833 -100.333)" fill="#fff"/>
  <path id="Path_2184" data-name="Path 2184" d="M121.667,128.833a.833.833,0,1,1-.833-.833A.833.833,0,0,1,121.667,128.833Zm0,0" transform="translate(-107.5 -114.667)" fill="#fff"/>
  <path id="Path_2185" data-name="Path 2185" d="M110.009,25.68a2.547,2.547,0,0,1,.048-.481,3.334,3.334,0,0,0-4.808-.3,1.541,1.541,0,0,0-.424.745l-1.559,4.812a5.8,5.8,0,0,1,6.743,1.151Zm0,0" transform="translate(-92.509 -21.514)" fill="#fff"/>
  <path id="Path_2186" data-name="Path 2186" d="M185.667,32.833a.833.833,0,1,0-1.667,0V38.82a2.339,2.339,0,0,1,1.667,0Zm0,0" transform="translate(-164.833 -28.667)" fill="#fff"/>
  <path id="Path_2187" data-name="Path 2187" d="M220.167,104.333A4.167,4.167,0,1,0,216,100.167,4.167,4.167,0,0,0,220.167,104.333Zm0-6.667a2.5,2.5,0,1,1-2.5,2.5A2.5,2.5,0,0,1,220.167,97.667Zm0,0" transform="translate(-193.5 -86)" fill="#fff"/>
</svg>
