<svg xmlns="http://www.w3.org/2000/svg" width="40" height="40.01" viewBox="0 0 40 40.01">
  <path id="learning" d="M37.886,22.623a4.209,4.209,0,0,0-5.274,1.846l-3.53-1.454a2.034,2.034,0,0,0-3.654-1.5L21.76,20l3.663-1.526a2.035,2.035,0,0,0,3.648-1.52l3.523-1.468a4.207,4.207,0,1,0-.374-.9l-3.525,1.468a2.036,2.036,0,0,0-3.649,1.52L21.385,19.1l1.51-3.666a2,2,0,0,0,.3.023,2.035,2.035,0,0,0,1.2-3.677l1.455-3.532a4.2,4.2,0,1,0-.9-.372L23.5,11.4a2.035,2.035,0,0,0-1.505,3.654l-1.511,3.668-1.526-3.662a2.035,2.035,0,0,0-1.52-3.648L15.97,7.892a4.214,4.214,0,1,0-.9.375l1.468,3.525a2.036,2.036,0,0,0,1.52,3.649L19.582,19.1l-3.666-1.51a2.035,2.035,0,0,0-3.654-1.505L8.729,14.632a4.2,4.2,0,1,0-.371.9l3.529,1.454a2.035,2.035,0,0,0,3.654,1.5L19.21,20,15.548,21.53A2.035,2.035,0,0,0,11.9,23.05L8.376,24.518a4.2,4.2,0,1,0,.375.9l3.525-1.469a2.035,2.035,0,0,0,3.648-1.52l3.661-1.525-1.51,3.667a2.035,2.035,0,0,0-1.505,3.654l-1.455,3.532a4.2,4.2,0,1,0,.9.372l1.454-3.53a2.006,2.006,0,0,0,.3.023,2.035,2.035,0,0,0,1.2-3.677l1.511-3.669,1.526,3.662a2.034,2.034,0,0,0,1.519,3.648L25,32.111a4.2,4.2,0,1,0,.9-.375l-1.469-3.525a2.035,2.035,0,0,0-1.52-3.649L21.389,20.9l3.666,1.51a2.035,2.035,0,0,0,3.654,1.505l3.532,1.455a4.2,4.2,0,1,0,5.646-2.748Zm0,0" transform="translate(-0.49 0.003)" fill="#fff"/>
</svg>
