<svg xmlns="http://www.w3.org/2000/svg" width="500" height="410.143" viewBox="0 0 500 410.143">
  <g id="Group_3293" data-name="Group 3293" transform="translate(4367 -3208)">
    <g id="agile_3_" data-name="agile(3)" transform="translate(-4367 3208)">
      <path id="Path_2400" data-name="Path 2400" d="M418.151,359.939l-59.51,0a191.645,191.645,0,0,1-59.2,58.606H418.151v43.931l88.867-73.228-88.867-73.242Z" transform="translate(-7.018 -52.335)" fill="#fff"/>
      <path id="Path_2401" data-name="Path 2401" d="M192.519,412.163a161.1,161.1,0,0,0,160.02-161.078c0-84.044-64.369-152.984-146.484-160.395V46.007l-87.891,73.242,87.891,73.227v-42.45c49.561,7.185,87.891,49.54,87.891,101.059A102.663,102.663,0,0,1,191.406,353.624H0v58.594H192.585C192.556,412.2,192.547,412.181,192.519,412.163Z" transform="translate(0 -46.007)" fill="#fff"/>
      <path id="Path_2402" data-name="Path 2402" d="M120.6,326.343a102.117,102.117,0,0,1-31-73.242c0-34.046,16.862-64.059,42.484-82.718L86.046,132.028A159.447,159.447,0,0,0,49.106,326.343Z" transform="translate(-0.727 -48.023)" fill="#fff"/>
    </g>
    <g id="Group_3290" data-name="Group 3290" transform="translate(-4045.376 3404.712) rotate(14)">
      <path id="Path_2357" data-name="Path 2357" d="M7.184,9.678a7.33,7.33,0,0,1-2.325.469A5.493,5.493,0,0,1,2.89,9.809,4.443,4.443,0,0,1,1.334,8.74,4.723,4.723,0,0,1,.3,7.034,4.893,4.893,0,0,1,0,5.16,4.349,4.349,0,0,1,.528,3.285,5.006,5.006,0,0,1,1.841,1.747,7.5,7.5,0,0,1,3.9.623L4.372.454A6.787,6.787,0,0,1,6.7,0,4.876,4.876,0,0,1,8.684.341a4.012,4.012,0,0,1,1.556,1.05,5.193,5.193,0,0,1,1.331,3.75,4.087,4.087,0,0,1-.525,1.875A5.081,5.081,0,0,1,9.734,8.553,6.9,6.9,0,0,1,7.652,9.678Zm-.319-2.4A4.987,4.987,0,0,0,9.209,5.76a2.138,2.138,0,0,0,.244-2.044A2.081,2.081,0,0,0,7.971,2.329,4.612,4.612,0,0,0,5.2,2.647l-.487.169a6.734,6.734,0,0,0-1.425.694,3,3,0,0,0-.9.844,2.157,2.157,0,0,0-.412.956A2.343,2.343,0,0,0,2.1,6.378,2.1,2.1,0,0,0,3.6,7.784a4.781,4.781,0,0,0,2.775-.337Z" transform="translate(0 0)" fill="#010101"/>
      <path id="Path_2358" data-name="Path 2358" d="M4.368,3.712.45,4.462,0,2.175,11.249,0l.825,4.35a5.512,5.512,0,0,1,0,1.875,3.861,3.861,0,0,1-.506,1.462,3.188,3.188,0,0,1-1.012,1.05,4.012,4.012,0,0,1-1.425.581,4.125,4.125,0,0,1-1.519,0A3.356,3.356,0,0,1,6.337,8.7a3.75,3.75,0,0,1-.956-1.181A5.38,5.38,0,0,1,4.8,5.812Zm1.875-.375L6.655,5.4a2.513,2.513,0,0,0,.281.825,1.705,1.705,0,0,0,.45.506,1.182,1.182,0,0,0,.6.225,1.65,1.65,0,0,0,.675,0,2.081,2.081,0,0,0,.675-.244,1.519,1.519,0,0,0,.525-.45,1.425,1.425,0,0,0,.3-.656,1.874,1.874,0,0,0,0-.862L9.768,2.681Z" transform="translate(2.572 11.403)" fill="#010101"/>
      <path id="Path_2359" data-name="Path 2359" d="M5.418,7.218,5.081,2.737l-3.037.225L2.437,8.23.562,8.362,0,.862,11.249,0l.581,7.5L9.955,7.63,9.693,2.4l-2.7.206L7.33,7.087Z" transform="translate(4.427 23.402)" fill="#010101"/>
      <path id="Path_2360" data-name="Path 2360" d="M4.2,4.237V2.362H.056V0L11.418.131V4.35a7.145,7.145,0,0,1-.244,1.762A3.75,3.75,0,0,1,10.5,7.424a2.905,2.905,0,0,1-1.087.806,3.375,3.375,0,0,1-1.481.262,4.182,4.182,0,0,1-1.125-.15,2.624,2.624,0,0,1-.862-.412,2.812,2.812,0,0,1-.675-.656,3.743,3.743,0,0,1-.488-.844L.112,8.83H0V6.318ZM6.074,2.362V4.237a2.627,2.627,0,0,0,.112.806,1.483,1.483,0,0,0,.337.581,1.444,1.444,0,0,0,.525.356,2.531,2.531,0,0,0,.694.131A1.725,1.725,0,0,0,9,5.662a1.875,1.875,0,0,0,.487-1.387V2.4Z" transform="translate(4.933 33.713)" fill="#010101"/>
      <path id="Path_2361" data-name="Path 2361" d="M2.606,7.537,2.962,3.45.694,2.475.9,0,11.849,5.156l-.188,2.175L0,10.593.206,8.118Zm2.175-3.3L4.556,7.068,8.905,6Z" transform="translate(4.015 43.537)" fill="#010101"/>
      <path id="Path_2362" data-name="Path 2362" d="M8.812,9.112l.562-3.431L0,4.143.394,1.837,9.768,3.375,10.33,0,12.2.3l-1.5,9.13Z" transform="translate(3.003 55.686)" fill="#010101"/>
      <path id="Path_2363" data-name="Path 2363" d="M5.006,7.855,6.149,3.525,3.206,2.737l-1.331,5.1L0,7.368,1.875,0,12.861,2.887l-1.875,7.349L9.111,9.749l1.331-5.081L7.837,3.993,6.693,8.324Z" transform="translate(0.059 65.097)" fill="#010101"/>
    </g>
    <g id="Group_3292" data-name="Group 3292" transform="translate(-4309.674 3380.241) rotate(3)">
      <path id="Path_2352" data-name="Path 2352" d="M12.067,7.782.818,9.751.125,5.832A7.294,7.294,0,0,1,.012,4.07,3.525,3.525,0,0,1,.331,2.664a2.662,2.662,0,0,1,.825-.994,3.206,3.206,0,0,1,1.312-.506,2.53,2.53,0,0,1,.75,0,2.325,2.325,0,0,1,.712.169,2.552,2.552,0,0,1,.637.394,3.037,3.037,0,0,1,.544.637,2.269,2.269,0,0,1,.225-.9A2.175,2.175,0,0,1,5.805.789a2.55,2.55,0,0,1,.656-.45A2.4,2.4,0,0,1,7.249.1,2.943,2.943,0,0,1,9.892.7a4.8,4.8,0,0,1,1.35,2.85ZM5.168,6.62l-.3-1.706a2.138,2.138,0,0,0-.6-1.237A1.275,1.275,0,0,0,3.18,3.414a1.369,1.369,0,0,0-1.031.637,2.419,2.419,0,0,0,0,1.462l.281,1.612ZM6.8,6.339l3.018-.544L9.461,3.92a2.081,2.081,0,0,0-.244-.75,1.725,1.725,0,0,0-.394-.487A1.444,1.444,0,0,0,8.3,2.458a1.612,1.612,0,0,0-.6,0,1.875,1.875,0,0,0-.619.206,1.106,1.106,0,0,0-.45.375,1.275,1.275,0,0,0-.225.562,2.194,2.194,0,0,0,0,.769Z" transform="translate(2.032 37.736)" fill="#010101"/>
      <path id="Path_2353" data-name="Path 2353" d="M0,.723,7.5.029a4.368,4.368,0,0,1,1.744.15A3.543,3.543,0,0,1,11.474,2.26a5.624,5.624,0,0,1,.431,1.725,6.054,6.054,0,0,1-.094,1.762,4.031,4.031,0,0,1-.637,1.444A3.581,3.581,0,0,1,10.011,8.2a4.331,4.331,0,0,1-1.706.487l-7.5.694L.6,7.06l7.5-.694a2.137,2.137,0,0,0,1.556-.694,1.987,1.987,0,0,0,.375-1.519,2.006,2.006,0,0,0-.656-1.425,2.212,2.212,0,0,0-1.669-.375l-7.5.712Z" transform="translate(0.225 26.741)" fill="#010101"/>
      <path id="Path_2354" data-name="Path 2354" d="M11.361,0V2.344L0,2.737V.394Z" transform="translate(0 21.296)" fill="#010101"/>
      <path id="Path_2355" data-name="Path 2355" d="M9.43,4.968,9.524,0H11.4l-.15,7.293L0,7.087V4.743Z" transform="translate(0.019 11.135)" fill="#010101"/>
      <path id="Path_2356" data-name="Path 2356" d="M11.249,9.222,0,8.172.319,4.7a5.625,5.625,0,0,1,.6-2.062A4.518,4.518,0,0,1,2.175,1.123,4.78,4.78,0,0,1,4.05.223,5.793,5.793,0,0,1,6.281.035h.525A6,6,0,0,1,8.962.617a4.687,4.687,0,0,1,1.594,1.219,4.949,4.949,0,0,1,.956,1.744A5.343,5.343,0,0,1,11.7,5.716ZM2.044,6.016l7.5.712V5.6A2.531,2.531,0,0,0,8.83,3.41,4.012,4.012,0,0,0,6.3,2.454H5.774a4.124,4.124,0,0,0-2.681.469A2.568,2.568,0,0,0,2.006,4.929Z" transform="translate(0.282 0)" fill="#010101"/>
    </g>
    <g id="Group_3286" data-name="Group 3286" transform="matrix(0.951, 0.309, -0.309, 0.951, -4203.222, 3268.389)">
      <path id="Path_2342" data-name="Path 2342" d="M9.99,5.7a4.893,4.893,0,0,1,.244,1.612,3.75,3.75,0,0,1-.375,1.5,3.937,3.937,0,0,1-.975,1.275,5.623,5.623,0,0,1-1.631.994,4.724,4.724,0,0,1-1.969.394,4.087,4.087,0,0,1-1.762-.45A4.705,4.705,0,0,1,2,9.79,7.684,7.684,0,0,1,.841,7.915L.56,7.221A7.5,7.5,0,0,1,.016,4.99,4.707,4.707,0,0,1,.241,3.115,4.011,4.011,0,0,1,1.2,1.54,4.518,4.518,0,0,1,2.866.453,5.381,5.381,0,0,1,4.741,0,4.012,4.012,0,0,1,6.334.266a3.619,3.619,0,0,1,1.312.825,5.418,5.418,0,0,1,.975,1.331l-2.156.9a3.037,3.037,0,0,0-.506-.769,1.874,1.874,0,0,0-.619-.469,1.631,1.631,0,0,0-.75-.112,2.963,2.963,0,0,0-.975.244A1.875,1.875,0,0,0,2.322,3.678a4.836,4.836,0,0,0,.469,2.7l.281.712a8.381,8.381,0,0,0,.712,1.369,3.338,3.338,0,0,0,.787.881,1.875,1.875,0,0,0,.919.337,2.25,2.25,0,0,0,1.069-.206A2.755,2.755,0,0,0,7.4,9a1.743,1.743,0,0,0,.469-.6,1.631,1.631,0,0,0,.15-.75,2.8,2.8,0,0,0-.169-.9Z" transform="translate(0 6.146)" fill="#010101"/>
      <path id="Path_2343" data-name="Path 2343" d="M9.652,4.754A7.5,7.5,0,0,1,9.877,7.1a5.343,5.343,0,0,1-.525,1.875A4.444,4.444,0,0,1,8.133,10.4a5.025,5.025,0,0,1-1.875.862,4.8,4.8,0,0,1-1.819.188,4.519,4.519,0,0,1-1.762-.694A4.949,4.949,0,0,1,1.29,9.291,6.561,6.561,0,0,1,.372,7.116L.24,6.628A7.368,7.368,0,0,1,.015,4.285,5.25,5.25,0,0,1,.559,2.41,4.125,4.125,0,0,1,1.778.966,5.024,5.024,0,0,1,3.653.1,4.8,4.8,0,0,1,5.64.1,4.368,4.368,0,0,1,7.4.816,4.949,4.949,0,0,1,8.79,2.279a7.67,7.67,0,0,1,.919,2.175Zm-2.419,0A4.78,4.78,0,0,0,5.959,2.279a2.25,2.25,0,0,0-3.543.881,4.706,4.706,0,0,0,0,2.793l.112.487a7.5,7.5,0,0,0,.544,1.481,3.542,3.542,0,0,0,.75.994,2.194,2.194,0,0,0,.937.506,2.306,2.306,0,0,0,1.069,0,2.044,2.044,0,0,0,1.537-1.35,4.744,4.744,0,0,0,0-2.793Z" transform="translate(11.362 2.483)" fill="#010101"/>
      <path id="Path_2344" data-name="Path 2344" d="M1.125,11.753,0,.392,3.468.036A5.624,5.624,0,0,1,5.606.2a4.912,4.912,0,0,1,1.744.937A4.987,4.987,0,0,1,8.587,2.736a6,6,0,0,1,.6,2.156v.525a6.2,6.2,0,0,1-.15,2.231,5.006,5.006,0,0,1-.9,1.875,4.555,4.555,0,0,1-1.519,1.256,5.624,5.624,0,0,1-2.062.6ZM2.494,2.117l.769,7.5L4.387,9.5A2.587,2.587,0,0,0,6.393,8.36,4.143,4.143,0,0,0,6.843,5.7V5.173a4.05,4.05,0,0,0-.975-2.55,2.531,2.531,0,0,0-2.175-.675Z" transform="translate(23.301 0.414)" fill="#010101"/>
      <path id="Path_2345" data-name="Path 2345" d="M6.843,6.524l-4.5-.112V9.449l5.268.131v1.875L0,11.249.3,0,7.8.187V2.062L2.55,1.931v2.7l4.481.131Z" transform="translate(35.338 0)" fill="#010101"/>
    </g>
    <g id="Group_3291" data-name="Group 3291" transform="matrix(0.574, 0.819, -0.819, 0.574, -4084.37, 3298.637)">
      <path id="Path_2346" data-name="Path 2346" d="M4.237,12.243,0,1.706,3.243.413A5.306,5.306,0,0,1,5.343,0,4.463,4.463,0,0,1,7.219.413a4.968,4.968,0,0,1,1.63,1.2A5.624,5.624,0,0,1,10.03,3.487l.188.469a5.924,5.924,0,0,1,.469,2.194,4.685,4.685,0,0,1-.356,1.987A4.931,4.931,0,0,1,9.224,9.768a5.457,5.457,0,0,1-1.875,1.144ZM2.943,2.606,5.756,9.637l1.05-.431A2.531,2.531,0,0,0,8.437,7.574a4.161,4.161,0,0,0-.3-2.7L7.93,4.387A4.2,4.2,0,0,0,6.3,2.213a2.568,2.568,0,0,0-2.287,0Z" transform="translate(0 6.28)" fill="#010101"/>
      <path id="Path_2347" data-name="Path 2347" d="M8.23,6.356,3.881,7.48l.75,2.943,5.1-1.312.469,1.875L2.831,12.861,0,1.875,7.368,0l.469,1.875-5.1,1.312.675,2.606,4.35-1.106Z" transform="translate(11.586 1.856)" fill="#010101"/>
      <path id="Path_2348" data-name="Path 2348" d="M3.225,7.621,3.712,11.6l-2.325.281L0,.628,4.406.084a5.268,5.268,0,0,1,1.875,0,3.9,3.9,0,0,1,1.425.6A3.6,3.6,0,0,1,8.68,1.771a4.012,4.012,0,0,1,.356,2.981,3.168,3.168,0,0,1-.694,1.219,3.863,3.863,0,0,1-1.237.881,6.525,6.525,0,0,1-1.762.469ZM2.981,5.746l2.081-.262a2.511,2.511,0,0,0,.844-.225,1.537,1.537,0,0,0,.544-.412,1.293,1.293,0,0,0,.262-.562,2.135,2.135,0,0,0,0-.694A2.926,2.926,0,0,0,6.524,2.9a1.987,1.987,0,0,0-.413-.544A1.649,1.649,0,0,0,5.474,2a2.681,2.681,0,0,0-.881,0L2.512,2.24Z" transform="translate(22.217 0.572)" fill="#010101"/>
      <path id="Path_2349" data-name="Path 2349" d="M2.325,9.487H7.293v1.875H0V0H2.437Z" transform="translate(34.253 0)" fill="#010101"/>
      <path id="Path_2350" data-name="Path 2350" d="M9.605,6.745a7.165,7.165,0,0,1-.656,2.269A4.875,4.875,0,0,1,7.73,10.626a4.143,4.143,0,0,1-1.65.881,4.668,4.668,0,0,1-1.987.131A5.137,5.137,0,0,1,2.218,11,4.349,4.349,0,0,1,.85,9.688,4.837,4.837,0,0,1,.1,7.813a7.03,7.03,0,0,1,0-2.362V4.945A7.2,7.2,0,0,1,.756,2.7,4.874,4.874,0,0,1,1.975,1.083a4.144,4.144,0,0,1,1.669-.9A4.668,4.668,0,0,1,5.631.052,4.837,4.837,0,0,1,7.505.708,4.293,4.293,0,0,1,8.874,2a5.4,5.4,0,0,1,.75,1.875,7.614,7.614,0,0,1,0,2.362ZM7.337,5.92a4.874,4.874,0,0,0-.281-2.775A2.119,2.119,0,0,0,5.368,1.983a2.156,2.156,0,0,0-1.875.675A4.875,4.875,0,0,0,2.5,5.264v.525a6.454,6.454,0,0,0,0,1.575,3.618,3.618,0,0,0,.338,1.2,1.744,1.744,0,0,0,.675.787,2.306,2.306,0,0,0,2.925-.3A4.874,4.874,0,0,0,7.43,6.445Z" transform="translate(43.189 0.567)" fill="#010101"/>
      <path id="Path_2351" data-name="Path 2351" d="M3.412,6.206,7.031,1.894l2.475.656L4.012,8.568,2.944,12.542.638,11.924,1.725,7.949,0,0,2.475.656Z" transform="translate(55.775 1.875)" fill="#010101"/>
    </g>
    <text id="PLAN" transform="translate(-4344.5 3551.25)" font-size="16" font-family="Gilroy-Bold" font-weight="700" letter-spacing="0.01em"><tspan x="0" y="0">PLAN</tspan></text>
    <text id="TEST" transform="translate(-4252 3551.25)" font-size="16" font-family="Gilroy-Bold" font-weight="700" letter-spacing="0.01em"><tspan x="0" y="0">TEST</tspan></text>
    <text id="RELESE" transform="translate(-4175.75 3551.25)" font-size="16" font-family="Gilroy-Bold" font-weight="700" letter-spacing="0.01em"><tspan x="0" y="0">RELESE</tspan></text>
    <text id="MONITER" transform="translate(-3997 3551.25)" font-size="16" font-family="Gilroy-Bold" font-weight="700" letter-spacing="0.01em"><tspan x="0" y="0">MONITER</tspan></text>
  </g>
</svg>
