<svg xmlns="http://www.w3.org/2000/svg" xmlns:xlink="http://www.w3.org/1999/xlink" width="499.915" height="500.251" viewBox="0 0 499.915 500.251">
  <defs>
    <linearGradient id="linear-gradient" x1="0.823" y1="1.025" x2="0.379" y2="0.318" gradientUnits="objectBoundingBox">
      <stop offset="0" stop-color="#fdf53f"/>
      <stop offset="0.281" stop-color="#f3c14a"/>
      <stop offset="1" stop-color="#d93c65"/>
    </linearGradient>
    <linearGradient id="linear-gradient-2" x1="0.499" y1="1.312" x2="0.499" y2="5.872" gradientUnits="objectBoundingBox">
      <stop offset="0" stop-color="#171a20"/>
      <stop offset="1" stop-color="#593092"/>
    </linearGradient>
    <linearGradient id="linear-gradient-6" x1="-125.533" y1="-41.694" x2="-126.272" y2="-39.152" gradientUnits="objectBoundingBox">
      <stop offset="0"/>
      <stop offset="1" stop-color="#150e42"/>
    </linearGradient>
  </defs>
  <g id="Illustration" transform="translate(-1605 -1596.477)">
    <g id="Group_3511" data-name="Group 3511">
      <path id="Path_2938" data-name="Path 2938" d="M2046.9,2026.4c-10.2,10.8-19.9,17.7-27.5,23.2-89.8,64.4-196.1,45.6-218.6,41.1-33.3-6.8-97.8-19.9-144.4-74.7-70.5-82.9-59.5-213.5-4.8-299.8,10-15.8,62.8-103.3,170.2-117.4,65-8.5,140.8,8.6,195.6,54.6C2132.6,1749.9,2124.4,1944.8,2046.9,2026.4Z" fill="#6e6e6e" opacity="0.3"/>
      <g id="Group_3485" data-name="Group 3485">
        <g id="Group_3483" data-name="Group 3483" opacity="0.58">
          <path id="Path_2939" data-name="Path 2939" d="M1834.8,1947.7s-57.1-200.2-164.4-305.4c-7.2-7.1-19.9-3.5-22.3,6.3C1632.1,1714.1,1603.8,1911.8,1834.8,1947.7Z" fill="#a1a1a1"/>
          <path id="Path_2940" data-name="Path 2940" d="M1813.4,1935.8a.571.571,0,0,1-.7.9c-21.8-14.1-106.7-84.6-142.4-232.2a.413.413,0,0,1,.8-.2C1682.6,1738.3,1729.3,1863.5,1813.4,1935.8Z" fill="#fff" opacity="0.5"/>
        </g>
        <g id="Group_3484" data-name="Group 3484" opacity="0.79">
          <path id="Path_2941" data-name="Path 2941" d="M1846.8,1884s-25.3-179.3-97.8-281.6c-4.9-6.9-14.9-5.1-17.6,3.1C1713,1660.5,1673.1,1828.7,1846.8,1884Z" fill="#6e6e6e"/>
          <path id="Path_2942" data-name="Path 2942" d="M1831.5,1871.4c.4.5-.2,1.1-.6.7-15.4-14.5-74-84.4-87.7-215.9,0-.4.5-.5.6-.1C1749.5,1686.7,1773.7,1800,1831.5,1871.4Z" fill="#fff" opacity="0.5"/>
        </g>
      </g>
      <g id="Group_3492" data-name="Group 3492">
        <g id="Group_3487" data-name="Group 3487">
          <g id="Group_3486" data-name="Group 3486">
            <path id="Path_2943" data-name="Path 2943" d="M1867.5,1714.5a1.473,1.473,0,0,1-1.5-1.5c0-.3-.7-26.3,6.9-53.3,4.5-15.9,10.9-29.1,19.1-39.1,10.4-12.6,23.6-20.2,39.3-22.7,13.8-2.1,26.1,1.1,36.5,9.7,14.3,11.8,24.9,33.1,31.5,63.4a268.769,268.769,0,0,1,5.7,41.9,1.551,1.551,0,0,1-3.1.1c0-.8-3.3-76-36.2-103.1-9.7-8-21.2-11-34.1-9-27.2,4.2-46,24.3-56,59.6a194.647,194.647,0,0,0-6.7,52.4c.2.8-.5,1.5-1.4,1.6Z" fill="#171a20"/>
            <path id="Path_2944" data-name="Path 2944" d="M1741.3,2038.6l51.5-349.3,193.5-3.2,62.4,371.9H1758A16.874,16.874,0,0,1,1741.3,2038.6Z" fill="#171a20"/>
            <path id="Path_2945" data-name="Path 2945" d="M2023.9,1689.4l-37.6-3.2,62.4,371.9H2086a11.983,11.983,0,0,0,11.7-14.4Z" fill="#232324"/>
            <path id="Path_2946" data-name="Path 2946" d="M1826,1713.7a1.473,1.473,0,0,1-1.5-1.5c0-.3-.7-26.3,6.9-53.3,4.5-15.9,10.9-29.1,19.1-39.1,10.4-12.6,23.6-20.2,39.3-22.7,13.8-2.1,26.1,1.1,36.5,9.7,14.3,11.8,24.9,33.1,31.5,63.4a268.769,268.769,0,0,1,5.7,41.9,1.551,1.551,0,0,1-3.1.1c0-.8-3.3-76-36.2-103.1-9.7-8-21.2-11-34.1-9-27.2,4.2-46,24.3-56,59.6a194.647,194.647,0,0,0-6.7,52.4,1.537,1.537,0,0,1-1.4,1.6Z" fill="#171a20"/>
          </g>
        </g>
        <g id="Group_3491" data-name="Group 3491">
          <g id="Group_3489" data-name="Group 3489">
            <path id="Path_2947" data-name="Path 2947" d="M2018,1767a3.048,3.048,0,0,0,0-2.3c-4.4-10.9-20-49.8-20.6-50.3-.7-.6-23.1-21.9-23.1-21.9-4.1-3.9-5.7-.4-5.7-.4l-10.6,36.6,20.8,50.1a2.9,2.9,0,0,0,3.6,1.6l33.8-11.9A2.766,2.766,0,0,0,2018,1767Zm-47.1-61.2a4.131,4.131,0,1,1,5.8-.7A4.226,4.226,0,0,1,1970.9,1705.8Z" fill="#6e6e6e"/>
            <g id="Group_3488" data-name="Group 3488">
              <path id="Path_2948" data-name="Path 2948" d="M1981.7,1739.2c2.9,5.6,1.9,9.7-.7,11.1-2.7,1.4-6.5-.3-9.1-5.4-2.6-5-2.2-9.5.8-11C1975.7,1732.3,1979.2,1734.4,1981.7,1739.2Zm5.1,22.2-2.9-33.4,2.1-1.1,2.9,33.4Zm-12.3-18.1c1.6,3.1,3.5,4.9,5,4.2,1.5-.8,1.1-3.3-.6-6.5-1.5-2.9-3.4-5-5-4.2C1972.5,1737.5,1973,1740.3,1974.5,1743.3Zm26.4,0c2.9,5.6,2,9.7-.7,11.1s-6.5-.3-9.1-5.5c-2.6-5-2.2-9.5.8-11C1994.9,1736.3,1998.4,1738.5,2000.9,1743.3Zm-7.1,4c1.5,3,3.5,4.9,5,4.2,1.5-.8,1.1-3.3-.6-6.5-1.5-3-3.4-5-5-4.2C1991.7,1741.6,1992.2,1744.3,1993.8,1747.3Z" fill="#a1a1a1"/>
            </g>
          </g>
          <g id="Group_3490" data-name="Group 3490">
            <path id="Path_2949" data-name="Path 2949" d="M1972.7,1701.6a1.085,1.085,0,0,1-.8-.8h0a13.045,13.045,0,0,0-8.5-8.4,1.012,1.012,0,0,1,.7-1.9,14.669,14.669,0,0,1,9.8,9.9,1.012,1.012,0,0,1-.8,1.2Z" fill="#a1a1a1"/>
          </g>
        </g>
      </g>
      <g id="Group_3493" data-name="Group 3493">
        <path id="Path_2950" data-name="Path 2950" d="M1935.2,2037.2l86.6-166h-17.7a3.843,3.843,0,0,1-3-6.3l92.3-112.5a6.481,6.481,0,0,1,11.5,4.5l-6.5,110a11.052,11.052,0,0,1-12.2,10.3l-12.4-1.4-86,186.1a13.682,13.682,0,0,1-12.4,7.9h-29.8Z" fill="#6e6e6e"/>
        <path id="Path_2951" data-name="Path 2951" d="M1863.6,1920.8l61.2,135.9a22.45,22.45,0,0,0,20.5,13.2h31.5a11.724,11.724,0,0,0,10.1-5.9l1.1-2h0a8.928,8.928,0,0,1-8-4.9l-81.5-159.7Z" fill="#6e6e6e"/>
        <path id="Path_2952" data-name="Path 2952" d="M1906.7,1913.5h0a13.389,13.389,0,0,0-19.4,3.1l-89.9,135.1a38.8,38.8,0,0,1-32.3,17.3h-12.7l-10.3-29.7s83.6-128.2,105.1-147.6c0,0,21.5-19.3,42.6-4.7a35.448,35.448,0,0,1,12.4,15.7Z" fill="#a1a1a1"/>
        <path id="Path_2953" data-name="Path 2953" d="M1644.2,1959.6s15.1-18.8,44.2-21.7c0,0,13.9,4.7,41.5,54.2s45.9,72,67.4,59.7l-1.8,3a32.562,32.562,0,0,1-27.8,15.7h-11.9a40.609,40.609,0,0,1-33-16.9C1701.4,2023.6,1657.4,1964.2,1644.2,1959.6Z" fill="url(#linear-gradient)"/>
        <path id="Path_2954" data-name="Path 2954" d="M2094.6,1791.7h-.1a.9.9,0,0,1-.8-1l.6-5.4a.906.906,0,0,1,1.8.2l-.6,5.4A.948.948,0,0,1,2094.6,1791.7Z" fill="#a1a1a1"/>
        <path id="Path_2955" data-name="Path 2955" d="M2017.5,1859.6a1.421,1.421,0,0,1-.6-.2.948.948,0,0,1-.2-1.3l76.2-99.1a3.105,3.105,0,0,1,3.8-1,3.17,3.17,0,0,1,2,3.4l-1.3,11.9a.906.906,0,1,1-1.8-.2l1.3-11.9a1.386,1.386,0,0,0-.9-1.5,1.363,1.363,0,0,0-1.7.5l-76.2,99.1A.856.856,0,0,1,2017.5,1859.6Z" fill="#a1a1a1"/>
        <path id="Path_2956" data-name="Path 2956" d="M1844.5,1963.4a.764.764,0,0,1-.5-.2.932.932,0,0,1-.2-1.3l39.4-58.4a6.924,6.924,0,0,1,6.3-3.1,7.03,7.03,0,0,1,5.8,4,.894.894,0,0,1-1.6.8,5.276,5.276,0,0,0-4.3-3,5.21,5.21,0,0,0-4.7,2.3l-39.4,58.4A.824.824,0,0,1,1844.5,1963.4Z" fill="#6e6e6e"/>
        <path id="Path_2957" data-name="Path 2957" d="M1834.3,1978.6a.764.764,0,0,1-.5-.2.932.932,0,0,1-.2-1.3l2.5-3.7a.93.93,0,1,1,1.5,1.1l-2.5,3.7A.91.91,0,0,1,1834.3,1978.6Z" fill="#fff"/>
      </g>
      <g id="Group_3506" data-name="Group 3506">
        <g id="Group_3495" data-name="Group 3495">
          <g id="Group_3494" data-name="Group 3494">
            <path id="Path_2958" data-name="Path 2958" d="M1836.2,2076.6a12.989,12.989,0,0,1-13.2,12.5l-175.1.4c-7.3,0-13.4-5.6-13.5-12.5l-8.2-326.2a13.542,13.542,0,0,1,13.7-14l185.9.9a13.831,13.831,0,0,1,13.8,14.1Z" fill="#262626"/>
            <path id="Path_2959" data-name="Path 2959" d="M1820.4,1770.6a13.636,13.636,0,0,0-13.7-13.6l-147.5-.6a13.259,13.259,0,0,0-13.5,13.5l6.1,277.3c.1,6.8,6.2,12.3,13.4,12.3l140.2-.2c7.2,0,13.1-5.5,13.2-12.3Z" fill="#171a20"/>
            <path id="Path_2960" data-name="Path 2960" d="M1755.2,1746.5a2.647,2.647,0,0,1-2.6,2.6l-38.4-.2a2.647,2.647,0,0,1-2.6-2.6h0a2.582,2.582,0,0,1,2.6-2.6l38.4.2a2.582,2.582,0,0,1,2.6,2.6Z" fill="#6e6e6e"/>
          </g>
        </g>
        <g id="Group_3504" data-name="Group 3504">
          <g id="Group_3499" data-name="Group 3499">
            <path id="Path_2961" data-name="Path 2961" d="M1640.2,1756.4a2.73,2.73,0,0,0-2.4,1.2c-10.8,17-21.6,34.7-32.4,51h31.8c8.3-16.3,16.6-34.5,24.9-52.1C1654.9,1756.4,1647.5,1756.4,1640.2,1756.4Z" fill="url(#linear-gradient-2)"/>
            <path id="Path_2962" data-name="Path 2962" d="M1669.1,1808.9h-31.8c8.3-17.5,16.6-34.9,24.9-52.4h23.5Q1677.45,1782.75,1669.1,1808.9Z" fill="#6e6e6e"/>
            <g id="Group_3496" data-name="Group 3496">
              <path id="Path_2963" data-name="Path 2963" d="M1701,1808.9h-31.8c5.5-17.5,11.1-34.9,16.6-52.4h23.5Q1705.1,1782.75,1701,1808.9Z" fill="url(#linear-gradient-2)"/>
            </g>
            <path id="Path_2964" data-name="Path 2964" d="M1732.8,1808.9H1701c2.8-17.5,5.5-34.9,8.3-52.4h23.5Z" fill="#6e6e6e"/>
            <g id="Group_3497" data-name="Group 3497">
              <path id="Path_2965" data-name="Path 2965" d="M1764.6,1808.9h-31.8v-52.4h23.5C1759.1,1774,1761.8,1791.5,1764.6,1808.9Z" fill="url(#linear-gradient-2)"/>
            </g>
            <path id="Path_2966" data-name="Path 2966" d="M1796.4,1808.9h-31.8c-2.8-17.5-5.5-34.9-8.3-52.4h23.5Q1788.2,1782.75,1796.4,1808.9Z" fill="#6e6e6e"/>
            <g id="Group_3498" data-name="Group 3498">
              <path id="Path_2967" data-name="Path 2967" d="M1828.3,1808.9h-31.8c-5.5-17.5-11.1-34.9-16.6-52.4h23.5Q1815.85,1782.75,1828.3,1808.9Z" fill="url(#linear-gradient-2)"/>
            </g>
            <path id="Path_2968" data-name="Path 2968" d="M1827.7,1757.6a2.73,2.73,0,0,0-2.4-1.2h-22c8.3,17.7,16.6,35.8,24.9,52.1H1860C1849.3,1792.2,1838.5,1774.6,1827.7,1757.6Z" fill="#6e6e6e"/>
          </g>
          <g id="Group_3500" data-name="Group 3500">
            <path id="Path_2969" data-name="Path 2969" d="M1605,1808.5v9.1c0,7.6,7.7,13.3,16.4,13.3h.3c8.8,0,15.8-5.7,15.8-13.3v-9.1Z" fill="#262626"/>
            <path id="Path_2970" data-name="Path 2970" d="M1637.6,1808.5v9.1c0,7.6,6.8,13.3,15.4,13.3h.3c8.6,0,15.5-5.7,15.5-13.3v-9.1Z" fill="#262626"/>
          </g>
          <g id="Group_3501" data-name="Group 3501">
            <path id="Path_2971" data-name="Path 2971" d="M1668.8,1808.5v9.1c0,7.6,7.5,13.3,16.3,13.3h.3c8.8,0,15.5-5.7,15.5-13.3v-9.1Z" fill="#262626"/>
            <path id="Path_2972" data-name="Path 2972" d="M1700.9,1808.5v9.1c0,7.6,7.1,13.3,15.7,13.3h.3c8.6,0,15.6-5.7,15.6-13.3v-9.1Z" fill="#262626"/>
          </g>
          <g id="Group_3502" data-name="Group 3502">
            <path id="Path_2973" data-name="Path 2973" d="M1732.6,1808.5v9.1c0,7.6,7.3,13.3,16.1,13.3h.3c8.8,0,15.2-5.7,15.2-13.3v-9.1Z" fill="#262626"/>
            <path id="Path_2974" data-name="Path 2974" d="M1764.2,1808.5v9.1c0,7.6,7.4,13.3,16,13.3h.3c8.6,0,15.8-5.7,15.8-13.3v-9.1Z" fill="#262626"/>
          </g>
          <g id="Group_3503" data-name="Group 3503">
            <path id="Path_2975" data-name="Path 2975" d="M1796.3,1808.5v9.1c0,7.6,7.2,13.3,15.9,13.3h.3c8.8,0,15.9-5.7,15.9-13.3v-9.1Z" fill="#262626"/>
            <path id="Path_2976" data-name="Path 2976" d="M1828.5,1808.5v9.1c0,7.6,6.7,13.3,15.3,13.3h.3c8.6,0,15.5-5.7,15.5-13.3v-9.1Z" fill="#262626"/>
          </g>
        </g>
        <g id="Group_3505" data-name="Group 3505">
          <path id="Path_2977" data-name="Path 2977" d="M1782.9,1871.2a3.174,3.174,0,0,0-2.5-1l-89.7,1.9-2.3-7.2a2.373,2.373,0,0,0-2.3-1.6l-12.3.3a2.348,2.348,0,0,0-2.4,2.3,2.268,2.268,0,0,0,2.4,2.2l10.5-.2,19,60.8a2.494,2.494,0,0,0,2.4,1.7l62.9.8a2.436,2.436,0,0,0,2.7-2.3,2.51,2.51,0,0,0-2.7-2.4l-61.1-.7-4.9-15.8,67.1.1a3.162,3.162,0,0,0,3-2.1l10.6-34.3A2.345,2.345,0,0,0,1782.9,1871.2Z" fill="#6e6e6e"/>
          <path id="Path_2978" data-name="Path 2978" d="M1715,1934.1a9.057,9.057,0,0,0-9.4,9,9.586,9.586,0,0,0,9.4,9.4,9.143,9.143,0,0,0,9.5-9A9.676,9.676,0,0,0,1715,1934.1Zm0,13.5a4.506,4.506,0,0,1-4.4-4.4,4.271,4.271,0,0,1,4.4-4.2,4.439,4.439,0,0,1,4.4,4.4A4.209,4.209,0,0,1,1715,1947.6Z" fill="#6e6e6e"/>
          <path id="Path_2979" data-name="Path 2979" d="M1756.9,1934.8a9.382,9.382,0,0,0-9.8,9.2,9.842,9.842,0,0,0,9.8,9.6,9.41,9.41,0,0,0,9.9-9.2A9.865,9.865,0,0,0,1756.9,1934.8Zm0,13.8a4.7,4.7,0,0,1-4.6-4.5,4.467,4.467,0,0,1,4.6-4.3,4.634,4.634,0,0,1,4.6,4.5A4.4,4.4,0,0,1,1756.9,1948.6Z" fill="#6e6e6e"/>
        </g>
        <path id="Path_2980" data-name="Path 2980" d="M1782.5,2011.6h-97.2a10.029,10.029,0,0,1-10-10v-16.2a10.029,10.029,0,0,1,10-10h97.2a10.029,10.029,0,0,1,10,10v16.2A10.029,10.029,0,0,1,1782.5,2011.6Z" fill="#6e6e6e" opacity="0.7"/>
        <path id="Path_2981" data-name="Path 2981" d="M1778,2038.1h-90.6a8.493,8.493,0,0,1-8.5-8.5h0a8.493,8.493,0,0,1,8.5-8.5H1778a8.493,8.493,0,0,1,8.5,8.5h0A8.623,8.623,0,0,1,1778,2038.1Z" fill="#6e6e6e" opacity="0.7"/>
      </g>
      <g id="Group_3510" data-name="Group 3510">
        <path id="Path_2982" data-name="Path 2982" d="M1940.9,1828.6s-5.7,2.8-6.7,6c-.8,2.6-7.1,2.9-7.8,7.9a5.734,5.734,0,0,1-4.8,5.1c-6.4,1-16.4,4.3-17.9,15.5-1.2,8.5,3.1,11.8,7.7,12.9a6.421,6.421,0,0,1,4.9,7.5c-.7,3.2.3,7,5.9,10,12.6,6.6,25.2-15.7,25.2-15.7l2.6-39.1Z" fill="#6e6e6e"/>
        <path id="Path_2983" data-name="Path 2983" d="M2009.5,1819.3s-25.2,39.8-55.1,47.5c0,0,5.8,16.6,10.3,18.5,0,0,36.8-30.7,46.3-60.3Z" fill="#6e6e6e"/>
        <path id="Path_2984" data-name="Path 2984" d="M1889.1,2073.8l-.8,6.7a2.758,2.758,0,0,1-2.4,2.4,43.567,43.567,0,0,1-9,.1,2.44,2.44,0,0,1-2-3.1c.8-2.6,2.3-6.5,4.5-8.8h7.4A2.421,2.421,0,0,1,1889.1,2073.8Z" fill="#171a20"/>
        <path id="Path_2985" data-name="Path 2985" d="M1947.4,1995.3l1.3,7.4s-4.2,42.6-4.9,59.6a13.553,13.553,0,0,0,2,7.6l7.3,11.9-18.6-11-.4-2.3,3-4.2-4-47.7a14.336,14.336,0,0,1,1.7-8.1l3.8-7.2Z" fill="#a1a1a1"/>
        <path id="Path_2986" data-name="Path 2986" d="M1954.2,2083.4h-5.9a3.369,3.369,0,0,1-2.8-1.4c-1.8-2.4-5.7-7.1-7.5-7.2-2.5-.2-2.1,8.6-2.1,8.6h-1.4l-1.7-10.9a6.375,6.375,0,0,1,3.4-6.7s.6,4.2,3.6,6,12.4,8.4,12.4,8.4a6.582,6.582,0,0,1,2.4.1C1956.3,2080.6,1956.1,2083.4,1954.2,2083.4Z" fill="#171a20"/>
        <path id="Path_2987" data-name="Path 2987" d="M1921.9,1998.8s-24.6,46.7-28.5,57.4a99.262,99.262,0,0,0-5.3,20.4c-.1,1.3-1.7,2.6-6.2,2.6-2.3,0-3.5-.9-4-1.8a2.489,2.489,0,0,1-.1-2.5c1.4-2.9,5.9-12.1,7.6-16.3,2-5,6.3-27.6,8.7-35.4,2.4-7.9,5-16.4,15.3-24.2C1909.3,1998.8,1916.3,1991.9,1921.9,1998.8Z" fill="#a1a1a1"/>
        <path id="Path_2988" data-name="Path 2988" d="M1937.5,1922.2c6.4-26.9-9.7-42.1-9.7-42.1,10.2-9.7,28.6-14.2,28.6-14.2s17.6,12.9,15.6,23c-1.2,5.9-12.4,35.5-12.4,35.5A24.547,24.547,0,0,1,1937.5,1922.2Z" fill="#a1a1a1"/>
        <path id="Path_2989" data-name="Path 2989" d="M1923.4,1935.6c2.6-7.8,14.1-13.3,14.1-13.3a24.711,24.711,0,0,0,22.1,2.1s2.3,8.9.7,17.1-11.6,61.1-11.6,61.1c-15.8,3.2-40.1-3.2-40.1-3.2C1918.6,1981.5,1920.8,1943.4,1923.4,1935.6Z"/>
        <path id="Path_2990" data-name="Path 2990" d="M1944.8,1848.2l-5.2,23.2c-.5,2,1.4,1.7,3.4,1.3,3.4-.6,7.7-2,9.2-4.6l.3-.9,2.2-16.1a2.76,2.76,0,0,0-1.7-3l-4.3-1.9A2.888,2.888,0,0,0,1944.8,1848.2Z" fill="#5f5e5e"/>
        <g id="Group_3507" data-name="Group 3507">
          <path id="Path_2991" data-name="Path 2991" d="M1954.7,1827s5.5,3.7,7.9,13.2-1.5,12.9-5.4,12.7-9.6-1.4-14.6-8.2S1947.5,1822.5,1954.7,1827Z" fill="#6e6e6e"/>
          <path id="Path_2992" data-name="Path 2992" d="M1947.6,1840.8s-2-13.6,9.3-11.5l2.3,2.4s5.5-6.2-.6-10.9-14.6-3.5-19.3,5.1-6.4,14.6-2.5,19.9,6.9.8,6.9.8-1.8-4.6-.3-6.6,3.4,1.1,3.4,1.1Z" fill="#171a20"/>
          <path id="Path_2993" data-name="Path 2993" d="M1947.1,1843.2s-1-7-4.6-5,1.3,6.5,3.2,8.1Z" fill="#6e6e6e"/>
        </g>
        <g id="Group_3508" data-name="Group 3508">
          <path id="Path_2994" data-name="Path 2994" d="M2009.3,1827.5c.1.8-3,1.4-3.9-2.1.3-1.5.7-8.2,1.9-9.2,6.2-5.5,17.3-11.7,17.3-11.7a2.245,2.245,0,0,1-.4,3.1l-5.5,3.7a21.49,21.49,0,0,1,1.5,5.8,6.249,6.249,0,0,1-1.6,4.5,49.923,49.923,0,0,1-3.9,4.1A6.471,6.471,0,0,1,2009.3,1827.5Z" fill="#6e6e6e"/>
          <path id="Path_2995" data-name="Path 2995" d="M2012.3,1824.8l-.8-.3c.1-.3,2.8-6.7,4-8.1a1.877,1.877,0,0,0,.7-1.3.864.864,0,0,0-.3-.6l-4.5,2.4-2,3.1-.8-.5,2.1-3.3,5.2-2.8.2.2a1.873,1.873,0,0,1,.8,1.4,2.928,2.928,0,0,1-1,2A73.184,73.184,0,0,0,2012.3,1824.8Z" fill="#a1a1a1"/>
        </g>
        <g id="Group_3509" data-name="Group 3509">
          <path id="Path_2996" data-name="Path 2996" d="M1943.2,1936.4h46.2a2.094,2.094,0,0,0,2.1-2,1.97,1.97,0,0,0-2.1-2h-46.1a2,2,0,1,0-.1,4Z" fill="url(#linear-gradient-6)"/>
          <path id="Path_2997" data-name="Path 2997" d="M2030.9,1895h-38.4a7.255,7.255,0,0,0-6.6,4.2l-17.8,37.3h47.7a4.339,4.339,0,0,0,4.1-2.8l13.8-34.5A2.994,2.994,0,0,0,2030.9,1895Z"/>
          <path id="Path_2998" data-name="Path 2998" d="M2003.9,1914.1c-.8,2.6-.2,5,1.4,5.6,1.6.5,3.6-1.2,4.4-3.7s.2-5-1.4-5.6C2006.7,1909.9,2004.7,1911.5,2003.9,1914.1Z" fill="#6e6e6e"/>
        </g>
        <path id="Path_2999" data-name="Path 2999" d="M1927.7,1880.2c-6.3,6.4-14.3,34.5-10.3,39.2,3.5,5.5,15.4,12.9,26.7,12.9h16.7c-7-7.4-11.8-9.3-17.6-4.1-4.6-1.9-10.5-9.5-14.4-12.9a4.156,4.156,0,0,1-.9-5.3c3.1-5.3,7.1-10.8,8.3-16.1C1936.4,1887.7,1931.8,1880.6,1927.7,1880.2Z" fill="#6e6e6e"/>
      </g>
    </g>
  </g>
</svg>
