<svg xmlns="http://www.w3.org/2000/svg" xmlns:xlink="http://www.w3.org/1999/xlink" width="100" height="100" viewBox="0 0 100 100">
  <defs>
    <clipPath id="clip-icon">
      <rect width="100" height="100"/>
    </clipPath>
  </defs>
  <g id="icon" clip-path="url(#clip-icon)">
    <g id="Group_3478" data-name="Group 3478" transform="translate(5483 266)">
      <path id="Path_2958" data-name="Path 2958" d="M4.7,9A4.7,4.7,0,0,0,0,13.7V56a4.7,4.7,0,0,0,4.7,4.7H7.05a4.7,4.7,0,0,0,4.7-4.7V20.75H32.9a4.7,4.7,0,0,0,4.7-4.7V13.7A4.7,4.7,0,0,0,32.9,9H4.7Zm47,0H49.35a4.7,4.7,0,0,0-4.7,4.7V56a4.7,4.7,0,0,0,4.7,4.7H51.7A4.7,4.7,0,0,0,56.4,56V13.7A4.7,4.7,0,0,0,51.7,9ZM89.3,9H86.95a4.7,4.7,0,0,0-4.7,4.7V56a4.7,4.7,0,0,0,4.7,4.7H89.3A4.7,4.7,0,0,0,94,56V13.7A4.7,4.7,0,0,0,89.3,9ZM68.15,18.4H70.5a4.7,4.7,0,0,1,4.7,4.7V48.95a4.7,4.7,0,0,1-4.7,4.7H68.15a4.7,4.7,0,0,1-4.7-4.7V23.1A4.7,4.7,0,0,1,68.15,18.4ZM25.85,32.5h-4.7a4.7,4.7,0,0,0-4.7,4.7v2.35a4.7,4.7,0,0,0,4.7,4.7h4.7a4.7,4.7,0,0,0,4.7-4.7V37.2A4.7,4.7,0,0,0,25.85,32.5Z" transform="translate(-5480 -251)" fill-rule="evenodd"/>
    </g>
  </g>
</svg>
