<svg xmlns="http://www.w3.org/2000/svg" xmlns:xlink="http://www.w3.org/1999/xlink" width="100" height="100" viewBox="0 0 100 100">
  <defs>
    <clipPath id="clip-icon">
      <rect width="100" height="100"/>
    </clipPath>
  </defs>
  <g id="icon" clip-path="url(#clip-icon)">
    <g id="gradle-1_1_" data-name="gradle-1(1)" transform="translate(2.97 39.975)">
      <path id="Path_2995" data-name="Path 2995" d="M31.658,9.851A6.509,6.509,0,0,0,31.931,5.2c-.547-1.6-2.79-3.719-3.5-2.881-.091.109-1.386-.036-1.586.237-.31.4-.128.529.018.675A5.025,5.025,0,0,1,29,5.439c.219.583.729,1.933-.164,2.753-1,.912-2.133,1.13-6.764-3.172C17.145.443,10.545,2.3,8.357,3.032S5.166,4.491,6.023,6.168A29.486,29.486,0,0,0,7.956,9.65c1.8,3.008,5.78-1.386,5.78-1.386-2.954,4.449-5.488,3.373-6.454,1.823A24.521,24.521,0,0,1,5.732,7.08C-1.744,9.778.28,21.666.28,21.666H4c.948-4.376,4.339-4.212,4.9,0H11.73c2.5-8.551,7.858,0,7.858,0H22.76c0-4.558-.474-6.272,1.86-6.6C28.595,14.537,30.454,12.677,31.658,9.851Z" transform="translate(0 -1.644)"/>
      <path id="Path_2996" data-name="Path 2996" d="M233.835,15.623v1.8c.383-.656,1.258-2.151,4.1-2.06l-.018,3.118a4.546,4.546,0,0,0-2.735.748c-1.294.985-1.349,2.279-1.349,4.376v4.8H230.9v-12.8Zm5.324,3.829a4.527,4.527,0,0,1,.51-1.987c1.222-2.206,4.23-2.188,5.05-2.188a7.675,7.675,0,0,1,3.792.82c1.5.912,1.513,2.115,1.513,3.482l-.018,6.709a2.851,2.851,0,0,0,.547,2.115h-3.592c-.018-.31-.073-.893-.073-1.057a6.042,6.042,0,0,1-3.756,1.276c-2.862-.018-4.576-1.787-4.576-3.975a3.721,3.721,0,0,1,.419-1.714c.912-1.823,2.862-2.224,4.084-2.443,4.139-.693,3.9-1.094,3.829-1.714-.055-.583-.656-1.13-2.06-1.13a2.749,2.749,0,0,0-2.261.8,1.3,1.3,0,0,0-.31,1.021Zm7.8,2.571a8.38,8.38,0,0,1-2.662.748c-1.094.146-2.534.4-2.534,1.732,0,.985.839,1.5,2.042,1.5a3.135,3.135,0,0,0,2.972-1.459,2.5,2.5,0,0,0,.182-1.13ZM263.627,10.5l-.055,17.9h-3.008v-1.24a4.426,4.426,0,0,1-3.519,1.586c-3.008-.018-5.616-2.279-5.6-6.454.018-3.774,2.151-6.983,5.78-6.965a4.3,4.3,0,0,1,3.355,1.422V10.5Zm-3.756,8.806a2.559,2.559,0,0,0-2.224-1.167c-2.06,0-3.045,1.841-3.045,3.847,0,.237.018,4.029,2.972,4.029,1.568,0,2.99-1.149,2.972-3.883a5.8,5.8,0,0,0-.675-2.826Zm9.043-8.806-.055,17.9H265.8V10.5ZM282.5,25.432a5.976,5.976,0,0,1-5.78,3.391c-3.318-.018-6.509-2.115-6.491-6.782.018-4.248,2.753-6.655,6.327-6.637a5.781,5.781,0,0,1,4.977,2.388,9.429,9.429,0,0,1,1.276,4.941l-9.371-.036a3.415,3.415,0,0,0,3.592,3.154,3.155,3.155,0,0,0,3.008-1.75Zm-3.008-4.941a2.7,2.7,0,0,0-2.826-2.662,3,3,0,0,0-3.1,2.644Z" transform="translate(-188.777 -8.565)"/>
      <g id="Group_3494" data-name="Group 3494" transform="translate(24.073 1.388)">
        <path id="Path_2997" data-name="Path 2997" d="M140.6,16.6v2.625h4.485V22.3a7.646,7.646,0,0,1-4.339,1.149c-3.027,0-5.524-2.534-5.524-6.491,0-3.883,2.3-6.472,5.8-6.472a4.072,4.072,0,0,1,4.029,3.191h3.063A7.141,7.141,0,0,0,140.743,7.5c-5.561,0-8.843,3.938-8.843,9.481,0,5.761,3.938,9.371,8.642,9.371,6.965,0,7.566-3.482,7.566-3.482V16.6H140.6Z" transform="translate(-131.9 -7.5)"/>
      </g>
      <path id="Path_2998" data-name="Path 2998" d="M32.3,6.709a10.3,10.3,0,0,0-1.987.346c-.018.018-.036.055-.055.073a3.31,3.31,0,0,1-1.057.82.648.648,0,0,1-.164.073l-.109.109c-1,.912-2.224,1.13-6.764-3.172C17.3.346,10.645,2.242,8.457,2.971S5.266,4.43,6.123,6.107A29.486,29.486,0,0,0,8.056,9.59c1.8,3.008,5.78-1.386,5.78-1.386-2.954,4.449-5.488,3.373-6.454,1.823a24.521,24.521,0,0,1-1.55-3.008C-1.644,9.717.38,21.6.38,21.6H4.1c.948-4.376,4.339-4.212,4.9,0H11.83c2.5-8.551,7.858,0,7.858,0H22.86c0-4.558-.474-6.272,1.86-6.6,3.993-.547,5.834-2.407,7.038-5.214A7.04,7.04,0,0,0,32.3,6.709Z" transform="translate(-0.082 -1.584)"/>
      <g id="Group_3495" data-name="Group 3495" transform="translate(18.624 6.31)">
        <path id="Path_2999" data-name="Path 2999" d="M102.139,34.5s1.714.565,4.011,1.331a2.185,2.185,0,0,1-2.753,1.294A1.984,1.984,0,0,1,102.139,34.5Z" transform="translate(-102.014 -34.5)" fill="#fff"/>
        <ellipse id="Ellipse_664" data-name="Ellipse 664" cx="1.039" cy="1.003" rx="1.039" ry="1.003" transform="translate(0.937 0.352) rotate(-6.066)"/>
      </g>
      <path id="Path_3000" data-name="Path 3000" d="M146.35,1.607a4.931,4.931,0,0,0,.456.328c.766-.638,1.769-.62,2.625-.966-.748-.693-1.951-1.222-2.316-.784a9.15,9.15,0,0,0-.766.748C146.022,1.333,146.186,1.461,146.35,1.607Z" transform="translate(-119.488 0)"/>
    </g>
  </g>
</svg>
