<svg xmlns="http://www.w3.org/2000/svg" width="40" height="36.668" viewBox="0 0 40 36.668">
  <g id="image" transform="translate(0 -0.492)">
    <path id="Path_2171" data-name="Path 2171" d="M10.416,165.989a6.241,6.241,0,0,1-5.9-4.252l-.058-.192a6.084,6.084,0,0,1-.288-1.807V148.375l-4.043,13.5a3.785,3.785,0,0,0,2.653,4.592l25.772,6.9a3.823,3.823,0,0,0,.96.123,3.716,3.716,0,0,0,3.6-2.725l1.5-4.775Zm0,0" transform="translate(0 -136.329)" fill="#fff"/>
    <path id="Path_2172" data-name="Path 2172" d="M152.654,71.159a3.334,3.334,0,1,0-3.334-3.334A3.337,3.337,0,0,0,152.654,71.159Zm0,0" transform="translate(-137.654 -59)" fill="#fff"/>
    <path id="Path_2173" data-name="Path 2173" d="M114.488.492h-25A4.173,4.173,0,0,0,85.32,4.659V22.993a4.173,4.173,0,0,0,4.167,4.167h25a4.173,4.173,0,0,0,4.167-4.167V4.659A4.173,4.173,0,0,0,114.488.492Zm-25,3.334h25a.834.834,0,0,1,.833.833V16.491l-5.265-6.144a2.985,2.985,0,0,0-2.235-1.025,2.913,2.913,0,0,0-2.227,1.052L99.4,17.8l-2.017-2.012a2.926,2.926,0,0,0-4.133,0l-4.6,4.6V4.659A.834.834,0,0,1,89.487,3.826Zm0,0" transform="translate(-78.654)" fill="#fff"/>
  </g>
</svg>
