<svg xmlns="http://www.w3.org/2000/svg" width="912.84" height="410.143" viewBox="0 0 912.84 410.143">
  <g id="Group_3519" data-name="Group 3519" transform="translate(-504.3 -2575)">
    <g id="Group_3518" data-name="Group 3518">
      <g id="amazon-web-services-2" transform="translate(550.032 2632)">
        <path id="Path_2213" data-name="Path 2213" d="M24.423,10.859a5.032,5.032,0,0,0,.183,1.48,8.9,8.9,0,0,0,.532,1.2.723.723,0,0,1,.116.382.658.658,0,0,1-.316.5l-1.048.7a.8.8,0,0,1-.432.15.765.765,0,0,1-.5-.233,5.144,5.144,0,0,1-.6-.782c-.166-.283-.333-.6-.516-.981a6.143,6.143,0,0,1-4.889,2.295,4.556,4.556,0,0,1-3.326-1.2A4.272,4.272,0,0,1,12.4,11.175a4.281,4.281,0,0,1,1.513-3.426,6.05,6.05,0,0,1,4.074-1.3,13.166,13.166,0,0,1,1.763.133c.615.083,1.247.216,1.912.366V5.737a3.685,3.685,0,0,0-.782-2.661,3.828,3.828,0,0,0-2.711-.765,7.566,7.566,0,0,0-1.8.216,13.251,13.251,0,0,0-1.8.565A4.771,4.771,0,0,1,14,3.309a1.02,1.02,0,0,1-.266.05c-.233,0-.349-.166-.349-.516V2.029a1.052,1.052,0,0,1,.116-.582,1.245,1.245,0,0,1,.466-.349,9.574,9.574,0,0,1,2.1-.748A10.082,10.082,0,0,1,18.653.033,6.077,6.077,0,0,1,23.01,1.38a5.5,5.5,0,0,1,1.38,4.091v5.388Zm-6.752,2.528a5.389,5.389,0,0,0,1.713-.3,3.706,3.706,0,0,0,1.58-1.064,2.64,2.64,0,0,0,.565-1.064A5.97,5.97,0,0,0,21.7,9.512v-.7a13.888,13.888,0,0,0-1.53-.283,12.53,12.53,0,0,0-1.563-.1,3.834,3.834,0,0,0-2.478.665,2.318,2.318,0,0,0-.815,1.912,2.146,2.146,0,0,0,2.361,2.378Zm13.353,1.8a.928.928,0,0,1-.632-.166,1.355,1.355,0,0,1-.349-.649L26.136,1.513a2.912,2.912,0,0,1-.15-.665.365.365,0,0,1,.4-.416h1.63A.922.922,0,0,1,28.664.6,1.361,1.361,0,0,1,29,1.247L31.79,12.256,34.384,1.247A1.166,1.166,0,0,1,34.7.6a1.144,1.144,0,0,1,.665-.166H36.7A1,1,0,0,1,37.361.6a1.121,1.121,0,0,1,.316.649L40.3,12.389,43.181,1.247A1.426,1.426,0,0,1,43.514.6a1.085,1.085,0,0,1,.649-.166h1.547a.37.37,0,0,1,.416.416,1.658,1.658,0,0,1-.033.266,2.366,2.366,0,0,1-.116.416L41.967,14.385a1.275,1.275,0,0,1-.349.649,1.064,1.064,0,0,1-.632.166h-1.43a1,1,0,0,1-.665-.166,1.179,1.179,0,0,1-.316-.665L36,3.642,33.436,14.351a1.3,1.3,0,0,1-.316.665,1.031,1.031,0,0,1-.665.166Zm21.369.449a11,11,0,0,1-2.561-.3,7.565,7.565,0,0,1-1.912-.665,1.2,1.2,0,0,1-.516-.466,1.174,1.174,0,0,1-.1-.466v-.848c0-.349.133-.516.382-.516a.942.942,0,0,1,.3.05c.1.033.249.1.416.166a9.045,9.045,0,0,0,1.829.582,9.986,9.986,0,0,0,1.979.2,4.487,4.487,0,0,0,2.428-.549,1.791,1.791,0,0,0,.865-1.58,1.62,1.62,0,0,0-.449-1.164,4.172,4.172,0,0,0-1.68-.865l-2.411-.748a5.072,5.072,0,0,1-2.661-1.7,3.962,3.962,0,0,1-.831-2.411,3.7,3.7,0,0,1,.449-1.846,4.276,4.276,0,0,1,1.2-1.364A5.278,5.278,0,0,1,50.847.283,7.248,7.248,0,0,1,52.943,0a8.348,8.348,0,0,1,1.114.067c.382.05.732.116,1.081.183.333.083.649.166.948.266a3.63,3.63,0,0,1,.7.3,1.438,1.438,0,0,1,.5.416.9.9,0,0,1,.15.549v.782c0,.349-.133.532-.382.532a1.73,1.73,0,0,1-.632-.2,7.608,7.608,0,0,0-3.193-.649,4.292,4.292,0,0,0-2.212.466,1.606,1.606,0,0,0-.782,1.48,1.57,1.57,0,0,0,.5,1.181,4.967,4.967,0,0,0,1.829.915l2.361.748a5.058,5.058,0,0,1,2.578,1.6,3.763,3.763,0,0,1,.765,2.328,4.275,4.275,0,0,1-.432,1.929,4.473,4.473,0,0,1-1.214,1.463,5.361,5.361,0,0,1-1.846.931,7.908,7.908,0,0,1-2.378.349Z" transform="translate(-10.365 0)" fill="#fff"/>
        <path id="Path_2214" data-name="Path 2214" d="M45.172,122.127c-5.471,4.041-13.42,6.186-20.255,6.186A36.643,36.643,0,0,1,.189,118.884c-.516-.466-.05-1.1.565-.732A49.87,49.87,0,0,0,25.5,124.721a49.379,49.379,0,0,0,18.874-3.858C45.289,120.447,46.07,121.462,45.172,122.127Z" transform="translate(0 -98.413)" fill="#fff"/>
        <path id="Path_2215" data-name="Path 2215" d="M251.14,114.571c-.7-.9-4.623-.432-6.4-.216-.532.067-.615-.4-.133-.748,3.126-2.2,8.265-1.563,8.863-.831.6.748-.166,5.887-3.093,8.348-.449.382-.881.183-.682-.316C250.359,119.161,251.839,115.453,251.14,114.571Z" transform="translate(-203.69 -93.452)" fill="#fff"/>
      </g>
      <path id="Path_3006" data-name="Path 3006" d="M10.3,0,9.46-2.52H3.88L3.04,0H.06l4.9-14H8.38L13.3,0ZM4.76-5.1H8.6L6.68-10.82ZM16.78,0,12.86-14h2.9L18.44-3.62,21.36-14h2.36L26.66-3.62,29.34-14h2.9L28.32,0H25.18L22.54-9.24,19.92,0ZM38.22.28a6.254,6.254,0,0,1-3.5-.93,4.974,4.974,0,0,1-2-2.53l2.36-1.38A3.145,3.145,0,0,0,38.3-2.42,2.771,2.771,0,0,0,40-2.84a1.29,1.29,0,0,0,.54-1.06,1.285,1.285,0,0,0-.66-1.15,10.179,10.179,0,0,0-2.36-.89,14.663,14.663,0,0,1-1.59-.56,6.857,6.857,0,0,1-1.3-.75,3.059,3.059,0,0,1-.99-1.19,3.9,3.9,0,0,1-.34-1.68,3.749,3.749,0,0,1,1.35-3.03,4.9,4.9,0,0,1,3.25-1.13,5.4,5.4,0,0,1,2.99.83,5.578,5.578,0,0,1,2.01,2.31L40.58-9.8a2.8,2.8,0,0,0-2.68-1.8,2.113,2.113,0,0,0-1.35.39,1.232,1.232,0,0,0-.49,1.01,1.275,1.275,0,0,0,.55,1.07,7.689,7.689,0,0,0,2.11.89q.64.2.97.31t.9.34a5.425,5.425,0,0,1,.88.43,6.94,6.94,0,0,1,.71.54,2.766,2.766,0,0,1,.61.7,3.929,3.929,0,0,1,.36.87,3.92,3.92,0,0,1,.15,1.11A3.753,3.753,0,0,1,41.89-.86,5.655,5.655,0,0,1,38.22.28Z" transform="translate(553 2698)" fill="#fff"/>
      <path id="azure-1" d="M27.318,0,12.578,12.782,0,35.359H11.341Zm1.961,2.991L22.988,20.721,35.05,35.876,11.65,39.9H50Z" transform="translate(550 2733)" fill="#fff"/>
      <path id="Path_3005" data-name="Path 3005" d="M15-14V0H12.26V-9.08L8.32-2.58H8L4.06-9.06V0H1.3V-14H4.14L8.16-7.38l4-6.62Zm2.6,0h2.76V0H17.6ZM27.6.28a5.1,5.1,0,0,1-3.77-1.52A5.125,5.125,0,0,1,22.32-5a5.125,5.125,0,0,1,1.51-3.76,5.1,5.1,0,0,1,3.77-1.52,5.182,5.182,0,0,1,2.66.7A4.654,4.654,0,0,1,32.08-7.7L29.86-6.4a2.263,2.263,0,0,0-.91-.98,2.644,2.644,0,0,0-1.37-.36,2.585,2.585,0,0,0-1.92.77A2.686,2.686,0,0,0,24.9-5a2.661,2.661,0,0,0,.76,1.95,2.585,2.585,0,0,0,1.92.77,2.743,2.743,0,0,0,1.39-.35,2.2,2.2,0,0,0,.91-.97l2.24,1.28A5.009,5.009,0,0,1,30.26-.43,5.126,5.126,0,0,1,27.6.28Zm8.54-8.56a2.694,2.694,0,0,1,1.19-1.44,3.628,3.628,0,0,1,1.85-.48v2.88a3.038,3.038,0,0,0-2.11.48,2.291,2.291,0,0,0-.93,2.06V0H33.56V-10h2.58ZM48.82-1.24A5.15,5.15,0,0,1,45.06.28a5.1,5.1,0,0,1-3.75-1.53A5.1,5.1,0,0,1,39.78-5a5.1,5.1,0,0,1,1.53-3.75,5.1,5.1,0,0,1,3.75-1.53,5.132,5.132,0,0,1,3.76,1.53A5.082,5.082,0,0,1,50.36-5,5.115,5.115,0,0,1,48.82-1.24Zm-5.7-1.78a2.634,2.634,0,0,0,1.94.78A2.634,2.634,0,0,0,47-3.02,2.683,2.683,0,0,0,47.78-5,2.683,2.683,0,0,0,47-6.98a2.634,2.634,0,0,0-1.94-.78,2.6,2.6,0,0,0-1.93.78A2.7,2.7,0,0,0,42.36-5,2.721,2.721,0,0,0,43.12-3.02ZM54.34-7.16q0,.4.53.65a7.067,7.067,0,0,0,1.29.44,13.333,13.333,0,0,1,1.52.48,2.95,2.95,0,0,1,1.29.97,2.682,2.682,0,0,1,.53,1.7A2.747,2.747,0,0,1,58.35-.55a4.777,4.777,0,0,1-2.87.83,4.207,4.207,0,0,1-4.2-2.38l2.24-1.26a1.854,1.854,0,0,0,1.96,1.3q1.38,0,1.38-.86,0-.4-.53-.65a7.565,7.565,0,0,0-1.29-.45,13.487,13.487,0,0,1-1.52-.5,3.121,3.121,0,0,1-1.29-.95A2.5,2.5,0,0,1,51.7-7.1a2.794,2.794,0,0,1,1.09-2.33,4.273,4.273,0,0,1,2.71-.85,4.529,4.529,0,0,1,2.22.55A4.02,4.02,0,0,1,59.3-8.16l-2.2,1.2a1.646,1.646,0,0,0-1.6-1.02,1.465,1.465,0,0,0-.83.22A.686.686,0,0,0,54.34-7.16Zm15.2,5.92A5.15,5.15,0,0,1,65.78.28a5.1,5.1,0,0,1-3.75-1.53A5.1,5.1,0,0,1,60.5-5a5.1,5.1,0,0,1,1.53-3.75,5.1,5.1,0,0,1,3.75-1.53,5.132,5.132,0,0,1,3.76,1.53A5.082,5.082,0,0,1,71.08-5,5.115,5.115,0,0,1,69.54-1.24Zm-5.7-1.78a2.634,2.634,0,0,0,1.94.78,2.634,2.634,0,0,0,1.94-.78A2.683,2.683,0,0,0,68.5-5a2.683,2.683,0,0,0-.78-1.98,2.634,2.634,0,0,0-1.94-.78,2.6,2.6,0,0,0-1.93.78A2.7,2.7,0,0,0,63.08-5,2.721,2.721,0,0,0,63.84-3.02ZM77.96-11.8q-2.12-.16-2.12,1.7v.1h2.12v2.48H75.84V0H73.26V-7.52H71.82V-10h1.44v-.1a4.189,4.189,0,0,1,1.18-3.22,4.572,4.572,0,0,1,3.52-.96Zm7.22,4.28H82.92v4.16a.989.989,0,0,0,.26.76,1.194,1.194,0,0,0,.76.27,11.2,11.2,0,0,0,1.24-.01V0q-2.66.3-3.75-.5a3.328,3.328,0,0,1-1.09-2.86V-7.52H78.6V-10h1.74v-2.02l2.58-.78V-10h2.26ZM101.28,0l-.84-2.52H94.86L94.02,0H91.04l4.9-14h3.42l4.92,14ZM95.74-5.1h3.84l-1.92-5.72Zm12.92,2.68h4.44V0h-7.9V-1.72l4.22-5.86H105.4V-10h7.5v1.72ZM121.6-10h2.58V0H121.6V-1.12a3.331,3.331,0,0,1-2.98,1.4,3.62,3.62,0,0,1-2.71-1.1,4.175,4.175,0,0,1-1.07-3.04V-10h2.58v5.82a2.049,2.049,0,0,0,.54,1.53,1.967,1.967,0,0,0,1.44.53,2.124,2.124,0,0,0,1.6-.62,2.579,2.579,0,0,0,.6-1.86Zm7.52,1.72a2.694,2.694,0,0,1,1.19-1.44,3.628,3.628,0,0,1,1.85-.48v2.88a3.038,3.038,0,0,0-2.11.48,2.291,2.291,0,0,0-.93,2.06V0h-2.58V-10h2.58Zm6.34,4.34a2.563,2.563,0,0,0,2.82,1.88,2.639,2.639,0,0,0,2.24-1l2.08,1.2A4.96,4.96,0,0,1,138.24.28a5.38,5.38,0,0,1-3.98-1.5A5.125,5.125,0,0,1,132.76-5a5.17,5.17,0,0,1,1.48-3.77,5.09,5.09,0,0,1,3.8-1.51,4.768,4.768,0,0,1,3.63,1.52A5.278,5.278,0,0,1,143.1-5a6.04,6.04,0,0,1-.1,1.06Zm-.04-2h5.1a2.417,2.417,0,0,0-.91-1.52,2.608,2.608,0,0,0-1.57-.5,2.714,2.714,0,0,0-1.72.53A2.533,2.533,0,0,0,135.42-5.94Z" transform="translate(503 2808)" fill="#fff"/>
      <g id="Group_3271" data-name="Group 3271" transform="translate(4307.017 -59.857)">
        <path id="Path_2216" data-name="Path 2216" d="M70.169,14.309l1.474.027,4.005-4.179.193-1.771A17.517,17.517,0,0,0,63.887,3.633,18.184,18.184,0,0,0,46.509,17.508c.438-.319,1.372-.081,1.372-.081l8-1.374s.412-.713.619-.668a9.7,9.7,0,0,1,13.666-1.076Z" transform="translate(-3795.896 2907.224)" fill="#fff"/>
        <path id="Path_2217" data-name="Path 2217" d="M77.616,16.3a18.951,18.951,0,0,0-5.433-9.139l-5.672,5.919a10.6,10.6,0,0,1,3.731,8.121v1.045a5.222,5.222,0,0,1,0,10.435h-10l-1,1.049V40l1,1.039h10c7.171-.02,12.979-6.084,12.993-13.568A13.766,13.766,0,0,0,77.6,16.3Z" transform="translate(-3792.222 2908.442)" fill="#fff"/>
        <path id="Path_2218" data-name="Path 2218" d="M53.994,34.623h10V26.27h-10a4.775,4.775,0,0,1-2.058-.467l-1.443.461-4.005,4.179-.351,1.412a12.491,12.491,0,0,0,7.858,2.77Z" transform="translate(-3796.003 2914.866)" fill="#fff"/>
        <path id="Path_2219" data-name="Path 2219" d="M55.147,12.175c-7.179.012-13,6.082-13.007,13.573A13.765,13.765,0,0,0,47.295,36.56l5.8-6.051a5.233,5.233,0,0,1-2.948-4.758,5.118,5.118,0,0,1,5-5.217A5.007,5.007,0,0,1,59.7,23.61l5.8-6.051a12.811,12.811,0,0,0-10.36-5.379Z" transform="translate(-3797.157 2910.169)" fill="#fff"/>
      </g>
      <path id="Path_3004" data-name="Path 3004" d="M15.04-7.52v1.08a6.462,6.462,0,0,1-1.92,4.86A6.831,6.831,0,0,1,8.16.28,7.317,7.317,0,0,1,2.79-1.83,6.973,6.973,0,0,1,.66-6.98a7.064,7.064,0,0,1,2.11-5.18A7.085,7.085,0,0,1,8-14.28a7.311,7.311,0,0,1,3.58.89,6.6,6.6,0,0,1,2.52,2.37L11.74-9.66a3.714,3.714,0,0,0-1.51-1.4,4.7,4.7,0,0,0-2.25-.54,4.42,4.42,0,0,0-3.29,1.31A4.523,4.523,0,0,0,3.4-6.98,4.4,4.4,0,0,0,4.71-3.71,4.731,4.731,0,0,0,8.18-2.42a4.63,4.63,0,0,0,2.65-.71,3.531,3.531,0,0,0,1.43-1.95H8.02V-7.52ZM25.4-1.24A5.15,5.15,0,0,1,21.64.28a5.1,5.1,0,0,1-3.75-1.53A5.1,5.1,0,0,1,16.36-5a5.1,5.1,0,0,1,1.53-3.75,5.1,5.1,0,0,1,3.75-1.53A5.132,5.132,0,0,1,25.4-8.75,5.082,5.082,0,0,1,26.94-5,5.115,5.115,0,0,1,25.4-1.24ZM19.7-3.02a2.634,2.634,0,0,0,1.94.78,2.634,2.634,0,0,0,1.94-.78A2.683,2.683,0,0,0,24.36-5a2.683,2.683,0,0,0-.78-1.98,2.634,2.634,0,0,0-1.94-.78,2.6,2.6,0,0,0-1.93.78A2.7,2.7,0,0,0,18.94-5,2.721,2.721,0,0,0,19.7-3.02ZM37.28-1.24A5.15,5.15,0,0,1,33.52.28a5.1,5.1,0,0,1-3.75-1.53A5.1,5.1,0,0,1,28.24-5a5.1,5.1,0,0,1,1.53-3.75,5.1,5.1,0,0,1,3.75-1.53,5.132,5.132,0,0,1,3.76,1.53A5.082,5.082,0,0,1,38.82-5,5.115,5.115,0,0,1,37.28-1.24Zm-5.7-1.78a2.634,2.634,0,0,0,1.94.78,2.634,2.634,0,0,0,1.94-.78A2.683,2.683,0,0,0,36.24-5a2.683,2.683,0,0,0-.78-1.98,2.634,2.634,0,0,0-1.94-.78,2.6,2.6,0,0,0-1.93.78A2.7,2.7,0,0,0,30.82-5,2.721,2.721,0,0,0,31.58-3.02ZM48.3-10h2.52V-.48a4.26,4.26,0,0,1-1.53,3.54A5.735,5.735,0,0,1,45.6,4.28a6.251,6.251,0,0,1-2.85-.62,4.335,4.335,0,0,1-1.89-1.82L43.06.58a2.73,2.73,0,0,0,2.62,1.4,2.738,2.738,0,0,0,1.92-.64,2.341,2.341,0,0,0,.7-1.82V-1.56A3.769,3.769,0,0,1,45.1-.04a4.721,4.721,0,0,1-3.55-1.49,5.047,5.047,0,0,1-1.43-3.63,5.038,5.038,0,0,1,1.44-3.62,4.715,4.715,0,0,1,3.54-1.5,3.769,3.769,0,0,1,3.2,1.52ZM43.48-3.18a2.816,2.816,0,0,0,2.02.76,2.761,2.761,0,0,0,2.01-.77,2.632,2.632,0,0,0,.79-1.97,2.608,2.608,0,0,0-.79-1.95,2.761,2.761,0,0,0-2.01-.77,2.761,2.761,0,0,0-2.01.77,2.608,2.608,0,0,0-.79,1.95A2.683,2.683,0,0,0,43.48-3.18ZM53.16,0V-14.6h2.58V0Zm7.12-3.94A2.563,2.563,0,0,0,63.1-2.06a2.639,2.639,0,0,0,2.24-1l2.08,1.2A4.96,4.96,0,0,1,63.06.28a5.38,5.38,0,0,1-3.98-1.5A5.125,5.125,0,0,1,57.58-5a5.17,5.17,0,0,1,1.48-3.77,5.09,5.09,0,0,1,3.8-1.51,4.768,4.768,0,0,1,3.63,1.52A5.278,5.278,0,0,1,67.92-5a6.04,6.04,0,0,1-.1,1.06Zm-.04-2h5.1a2.417,2.417,0,0,0-.91-1.52,2.608,2.608,0,0,0-1.57-.5,2.714,2.714,0,0,0-1.72.53A2.533,2.533,0,0,0,60.24-5.94ZM79.48.28a5.1,5.1,0,0,1-3.77-1.52A5.125,5.125,0,0,1,74.2-5a5.125,5.125,0,0,1,1.51-3.76,5.1,5.1,0,0,1,3.77-1.52,5.182,5.182,0,0,1,2.66.7A4.654,4.654,0,0,1,83.96-7.7L81.74-6.4a2.263,2.263,0,0,0-.91-.98,2.644,2.644,0,0,0-1.37-.36,2.585,2.585,0,0,0-1.92.77A2.686,2.686,0,0,0,76.78-5a2.661,2.661,0,0,0,.76,1.95,2.585,2.585,0,0,0,1.92.77,2.743,2.743,0,0,0,1.39-.35,2.2,2.2,0,0,0,.91-.97L84-2.32A5.009,5.009,0,0,1,82.14-.43,5.126,5.126,0,0,1,79.48.28ZM85.36,0V-14.6h2.58V0ZM98.82-1.24A5.15,5.15,0,0,1,95.06.28a5.1,5.1,0,0,1-3.75-1.53A5.1,5.1,0,0,1,89.78-5a5.1,5.1,0,0,1,1.53-3.75,5.1,5.1,0,0,1,3.75-1.53,5.132,5.132,0,0,1,3.76,1.53A5.082,5.082,0,0,1,100.36-5,5.115,5.115,0,0,1,98.82-1.24Zm-5.7-1.78a2.634,2.634,0,0,0,1.94.78A2.634,2.634,0,0,0,97-3.02,2.683,2.683,0,0,0,97.78-5,2.683,2.683,0,0,0,97-6.98a2.634,2.634,0,0,0-1.94-.78,2.6,2.6,0,0,0-1.93.78A2.7,2.7,0,0,0,92.36-5,2.721,2.721,0,0,0,93.12-3.02ZM108.78-10h2.58V0h-2.58V-1.12A3.331,3.331,0,0,1,105.8.28a3.62,3.62,0,0,1-2.71-1.1,4.175,4.175,0,0,1-1.07-3.04V-10h2.58v5.82a2.049,2.049,0,0,0,.54,1.53,1.967,1.967,0,0,0,1.44.53,2.124,2.124,0,0,0,1.6-.62,2.579,2.579,0,0,0,.6-1.86Zm12.52-4h2.58V0H121.3V-1.18A3.87,3.87,0,0,1,118.06.28a4.553,4.553,0,0,1-3.45-1.53A5.287,5.287,0,0,1,113.18-5a5.287,5.287,0,0,1,1.43-3.75,4.553,4.553,0,0,1,3.45-1.53,3.87,3.87,0,0,1,3.24,1.46ZM116.54-2.96a2.75,2.75,0,0,0,2,.78,2.665,2.665,0,0,0,1.98-.79A2.767,2.767,0,0,0,121.3-5a2.767,2.767,0,0,0-.78-2.03,2.665,2.665,0,0,0-1.98-.79,2.7,2.7,0,0,0-1.99.79A2.748,2.748,0,0,0,115.76-5,2.8,2.8,0,0,0,116.54-2.96Z" transform="translate(513 2923)" fill="#fff"/>
      <path id="Path_2400" data-name="Path 2400" d="M418.151,359.939l-59.51,0a191.645,191.645,0,0,1-59.2,58.606H418.151v43.931l88.867-73.228-88.867-73.242Z" transform="translate(739.982 2522.665)" fill="#fff"/>
      <path id="Path_2401" data-name="Path 2401" d="M192.519,412.163a161.1,161.1,0,0,0,160.02-161.078c0-84.044-64.369-152.984-146.484-160.395V46.007l-87.891,73.242,87.891,73.227v-42.45c49.561,7.185,87.891,49.54,87.891,101.059A102.663,102.663,0,0,1,191.406,353.624H0v58.594H192.585C192.556,412.2,192.547,412.181,192.519,412.163Z" transform="translate(747 2528.993)" fill="#fff"/>
      <path id="Path_2402" data-name="Path 2402" d="M120.6,326.343a102.117,102.117,0,0,1-31-73.242c0-34.046,16.862-64.059,42.484-82.718L86.046,132.028A159.447,159.447,0,0,0,49.106,326.343Z" transform="translate(746.273 2526.977)" fill="#fff"/>
      <g id="Group_3290" data-name="Group 3290" transform="translate(1068.624 2771.712) rotate(14)">
        <path id="Path_2357" data-name="Path 2357" d="M7.184,9.678a7.33,7.33,0,0,1-2.325.469A5.493,5.493,0,0,1,2.89,9.809,4.443,4.443,0,0,1,1.334,8.74,4.723,4.723,0,0,1,.3,7.034,4.893,4.893,0,0,1,0,5.16,4.349,4.349,0,0,1,.528,3.285,5.006,5.006,0,0,1,1.841,1.747,7.5,7.5,0,0,1,3.9.623L4.372.454A6.787,6.787,0,0,1,6.7,0,4.876,4.876,0,0,1,8.684.341a4.012,4.012,0,0,1,1.556,1.05,5.193,5.193,0,0,1,1.331,3.75,4.087,4.087,0,0,1-.525,1.875A5.081,5.081,0,0,1,9.734,8.553,6.9,6.9,0,0,1,7.652,9.678Zm-.319-2.4A4.987,4.987,0,0,0,9.209,5.76a2.138,2.138,0,0,0,.244-2.044A2.081,2.081,0,0,0,7.971,2.329,4.612,4.612,0,0,0,5.2,2.647l-.487.169a6.734,6.734,0,0,0-1.425.694,3,3,0,0,0-.9.844,2.157,2.157,0,0,0-.412.956A2.343,2.343,0,0,0,2.1,6.378,2.1,2.1,0,0,0,3.6,7.784a4.781,4.781,0,0,0,2.775-.337Z" transform="translate(0 0)" fill="#010101"/>
        <path id="Path_2358" data-name="Path 2358" d="M4.368,3.712.45,4.462,0,2.175,11.249,0l.825,4.35a5.512,5.512,0,0,1,0,1.875,3.861,3.861,0,0,1-.506,1.462,3.188,3.188,0,0,1-1.012,1.05,4.012,4.012,0,0,1-1.425.581,4.125,4.125,0,0,1-1.519,0A3.356,3.356,0,0,1,6.337,8.7a3.75,3.75,0,0,1-.956-1.181A5.38,5.38,0,0,1,4.8,5.812Zm1.875-.375L6.655,5.4a2.513,2.513,0,0,0,.281.825,1.705,1.705,0,0,0,.45.506,1.182,1.182,0,0,0,.6.225,1.65,1.65,0,0,0,.675,0,2.081,2.081,0,0,0,.675-.244,1.519,1.519,0,0,0,.525-.45,1.425,1.425,0,0,0,.3-.656,1.874,1.874,0,0,0,0-.862L9.768,2.681Z" transform="translate(2.572 11.403)" fill="#010101"/>
        <path id="Path_2359" data-name="Path 2359" d="M5.418,7.218,5.081,2.737l-3.037.225L2.437,8.23.562,8.362,0,.862,11.249,0l.581,7.5L9.955,7.63,9.693,2.4l-2.7.206L7.33,7.087Z" transform="translate(4.427 23.402)" fill="#010101"/>
        <path id="Path_2360" data-name="Path 2360" d="M4.2,4.237V2.362H.056V0L11.418.131V4.35a7.145,7.145,0,0,1-.244,1.762A3.75,3.75,0,0,1,10.5,7.424a2.905,2.905,0,0,1-1.087.806,3.375,3.375,0,0,1-1.481.262,4.182,4.182,0,0,1-1.125-.15,2.624,2.624,0,0,1-.862-.412,2.812,2.812,0,0,1-.675-.656,3.743,3.743,0,0,1-.488-.844L.112,8.83H0V6.318ZM6.074,2.362V4.237a2.627,2.627,0,0,0,.112.806,1.483,1.483,0,0,0,.337.581,1.444,1.444,0,0,0,.525.356,2.531,2.531,0,0,0,.694.131A1.725,1.725,0,0,0,9,5.662a1.875,1.875,0,0,0,.487-1.387V2.4Z" transform="translate(4.933 33.713)" fill="#010101"/>
        <path id="Path_2361" data-name="Path 2361" d="M2.606,7.537,2.962,3.45.694,2.475.9,0,11.849,5.156l-.188,2.175L0,10.593.206,8.118Zm2.175-3.3L4.556,7.068,8.905,6Z" transform="translate(4.015 43.537)" fill="#010101"/>
        <path id="Path_2362" data-name="Path 2362" d="M8.812,9.112l.562-3.431L0,4.143.394,1.837,9.768,3.375,10.33,0,12.2.3l-1.5,9.13Z" transform="translate(3.003 55.686)" fill="#010101"/>
        <path id="Path_2363" data-name="Path 2363" d="M5.006,7.855,6.149,3.525,3.206,2.737l-1.331,5.1L0,7.368,1.875,0,12.861,2.887l-1.875,7.349L9.111,9.749l1.331-5.081L7.837,3.993,6.693,8.324Z" transform="translate(0.059 65.097)" fill="#010101"/>
      </g>
      <g id="Group_3292" data-name="Group 3292" transform="translate(804.326 2747.241) rotate(3)">
        <path id="Path_2352" data-name="Path 2352" d="M12.067,7.782.818,9.751.125,5.832A7.294,7.294,0,0,1,.012,4.07,3.525,3.525,0,0,1,.331,2.664a2.662,2.662,0,0,1,.825-.994,3.206,3.206,0,0,1,1.312-.506,2.53,2.53,0,0,1,.75,0,2.325,2.325,0,0,1,.712.169,2.552,2.552,0,0,1,.637.394,3.037,3.037,0,0,1,.544.637,2.269,2.269,0,0,1,.225-.9A2.175,2.175,0,0,1,5.805.789a2.55,2.55,0,0,1,.656-.45A2.4,2.4,0,0,1,7.249.1,2.943,2.943,0,0,1,9.892.7a4.8,4.8,0,0,1,1.35,2.85ZM5.168,6.62l-.3-1.706a2.138,2.138,0,0,0-.6-1.237A1.275,1.275,0,0,0,3.18,3.414a1.369,1.369,0,0,0-1.031.637,2.419,2.419,0,0,0,0,1.462l.281,1.612ZM6.8,6.339l3.018-.544L9.461,3.92a2.081,2.081,0,0,0-.244-.75,1.725,1.725,0,0,0-.394-.487A1.444,1.444,0,0,0,8.3,2.458a1.612,1.612,0,0,0-.6,0,1.875,1.875,0,0,0-.619.206,1.106,1.106,0,0,0-.45.375,1.275,1.275,0,0,0-.225.562,2.194,2.194,0,0,0,0,.769Z" transform="translate(2.032 37.736)" fill="#010101"/>
        <path id="Path_2353" data-name="Path 2353" d="M0,.723,7.5.029a4.368,4.368,0,0,1,1.744.15A3.543,3.543,0,0,1,11.474,2.26a5.624,5.624,0,0,1,.431,1.725,6.054,6.054,0,0,1-.094,1.762,4.031,4.031,0,0,1-.637,1.444A3.581,3.581,0,0,1,10.011,8.2a4.331,4.331,0,0,1-1.706.487l-7.5.694L.6,7.06l7.5-.694a2.137,2.137,0,0,0,1.556-.694,1.987,1.987,0,0,0,.375-1.519,2.006,2.006,0,0,0-.656-1.425,2.212,2.212,0,0,0-1.669-.375l-7.5.712Z" transform="translate(0.225 26.741)" fill="#010101"/>
        <path id="Path_2354" data-name="Path 2354" d="M11.361,0V2.344L0,2.737V.394Z" transform="translate(0 21.296)" fill="#010101"/>
        <path id="Path_2355" data-name="Path 2355" d="M9.43,4.968,9.524,0H11.4l-.15,7.293L0,7.087V4.743Z" transform="translate(0.019 11.135)" fill="#010101"/>
        <path id="Path_2356" data-name="Path 2356" d="M11.249,9.222,0,8.172.319,4.7a5.625,5.625,0,0,1,.6-2.062A4.518,4.518,0,0,1,2.175,1.123,4.78,4.78,0,0,1,4.05.223,5.793,5.793,0,0,1,6.281.035h.525A6,6,0,0,1,8.962.617a4.687,4.687,0,0,1,1.594,1.219,4.949,4.949,0,0,1,.956,1.744A5.343,5.343,0,0,1,11.7,5.716ZM2.044,6.016l7.5.712V5.6A2.531,2.531,0,0,0,8.83,3.41,4.012,4.012,0,0,0,6.3,2.454H5.774a4.124,4.124,0,0,0-2.681.469A2.568,2.568,0,0,0,2.006,4.929Z" transform="translate(0.282 0)" fill="#010101"/>
      </g>
      <g id="Group_3286" data-name="Group 3286" transform="matrix(0.951, 0.309, -0.309, 0.951, 910.778, 2635.389)">
        <path id="Path_2342" data-name="Path 2342" d="M9.99,5.7a4.893,4.893,0,0,1,.244,1.612,3.75,3.75,0,0,1-.375,1.5,3.937,3.937,0,0,1-.975,1.275,5.623,5.623,0,0,1-1.631.994,4.724,4.724,0,0,1-1.969.394,4.087,4.087,0,0,1-1.762-.45A4.705,4.705,0,0,1,2,9.79,7.684,7.684,0,0,1,.841,7.915L.56,7.221A7.5,7.5,0,0,1,.016,4.99,4.707,4.707,0,0,1,.241,3.115,4.011,4.011,0,0,1,1.2,1.54,4.518,4.518,0,0,1,2.866.453,5.381,5.381,0,0,1,4.741,0,4.012,4.012,0,0,1,6.334.266a3.619,3.619,0,0,1,1.312.825,5.418,5.418,0,0,1,.975,1.331l-2.156.9a3.037,3.037,0,0,0-.506-.769,1.874,1.874,0,0,0-.619-.469,1.631,1.631,0,0,0-.75-.112,2.963,2.963,0,0,0-.975.244A1.875,1.875,0,0,0,2.322,3.678a4.836,4.836,0,0,0,.469,2.7l.281.712a8.381,8.381,0,0,0,.712,1.369,3.338,3.338,0,0,0,.787.881,1.875,1.875,0,0,0,.919.337,2.25,2.25,0,0,0,1.069-.206A2.755,2.755,0,0,0,7.4,9a1.743,1.743,0,0,0,.469-.6,1.631,1.631,0,0,0,.15-.75,2.8,2.8,0,0,0-.169-.9Z" transform="translate(0 6.146)" fill="#010101"/>
        <path id="Path_2343" data-name="Path 2343" d="M9.652,4.754A7.5,7.5,0,0,1,9.877,7.1a5.343,5.343,0,0,1-.525,1.875A4.444,4.444,0,0,1,8.133,10.4a5.025,5.025,0,0,1-1.875.862,4.8,4.8,0,0,1-1.819.188,4.519,4.519,0,0,1-1.762-.694A4.949,4.949,0,0,1,1.29,9.291,6.561,6.561,0,0,1,.372,7.116L.24,6.628A7.368,7.368,0,0,1,.015,4.285,5.25,5.25,0,0,1,.559,2.41,4.125,4.125,0,0,1,1.778.966,5.024,5.024,0,0,1,3.653.1,4.8,4.8,0,0,1,5.64.1,4.368,4.368,0,0,1,7.4.816,4.949,4.949,0,0,1,8.79,2.279a7.67,7.67,0,0,1,.919,2.175Zm-2.419,0A4.78,4.78,0,0,0,5.959,2.279a2.25,2.25,0,0,0-3.543.881,4.706,4.706,0,0,0,0,2.793l.112.487a7.5,7.5,0,0,0,.544,1.481,3.542,3.542,0,0,0,.75.994,2.194,2.194,0,0,0,.937.506,2.306,2.306,0,0,0,1.069,0,2.044,2.044,0,0,0,1.537-1.35,4.744,4.744,0,0,0,0-2.793Z" transform="translate(11.362 2.483)" fill="#010101"/>
        <path id="Path_2344" data-name="Path 2344" d="M1.125,11.753,0,.392,3.468.036A5.624,5.624,0,0,1,5.606.2a4.912,4.912,0,0,1,1.744.937A4.987,4.987,0,0,1,8.587,2.736a6,6,0,0,1,.6,2.156v.525a6.2,6.2,0,0,1-.15,2.231,5.006,5.006,0,0,1-.9,1.875,4.555,4.555,0,0,1-1.519,1.256,5.624,5.624,0,0,1-2.062.6ZM2.494,2.117l.769,7.5L4.387,9.5A2.587,2.587,0,0,0,6.393,8.36,4.143,4.143,0,0,0,6.843,5.7V5.173a4.05,4.05,0,0,0-.975-2.55,2.531,2.531,0,0,0-2.175-.675Z" transform="translate(23.301 0.414)" fill="#010101"/>
        <path id="Path_2345" data-name="Path 2345" d="M6.843,6.524l-4.5-.112V9.449l5.268.131v1.875L0,11.249.3,0,7.8.187V2.062L2.55,1.931v2.7l4.481.131Z" transform="translate(35.338 0)" fill="#010101"/>
      </g>
      <g id="Group_3291" data-name="Group 3291" transform="matrix(0.574, 0.819, -0.819, 0.574, 1029.63, 2665.637)">
        <path id="Path_2346" data-name="Path 2346" d="M4.237,12.243,0,1.706,3.243.413A5.306,5.306,0,0,1,5.343,0,4.463,4.463,0,0,1,7.219.413a4.968,4.968,0,0,1,1.63,1.2A5.624,5.624,0,0,1,10.03,3.487l.188.469a5.924,5.924,0,0,1,.469,2.194,4.685,4.685,0,0,1-.356,1.987A4.931,4.931,0,0,1,9.224,9.768a5.457,5.457,0,0,1-1.875,1.144ZM2.943,2.606,5.756,9.637l1.05-.431A2.531,2.531,0,0,0,8.437,7.574a4.161,4.161,0,0,0-.3-2.7L7.93,4.387A4.2,4.2,0,0,0,6.3,2.213a2.568,2.568,0,0,0-2.287,0Z" transform="translate(0 6.28)" fill="#010101"/>
        <path id="Path_2347" data-name="Path 2347" d="M8.23,6.356,3.881,7.48l.75,2.943,5.1-1.312.469,1.875L2.831,12.861,0,1.875,7.368,0l.469,1.875-5.1,1.312.675,2.606,4.35-1.106Z" transform="translate(11.586 1.856)" fill="#010101"/>
        <path id="Path_2348" data-name="Path 2348" d="M3.225,7.621,3.712,11.6l-2.325.281L0,.628,4.406.084a5.268,5.268,0,0,1,1.875,0,3.9,3.9,0,0,1,1.425.6A3.6,3.6,0,0,1,8.68,1.771a4.012,4.012,0,0,1,.356,2.981,3.168,3.168,0,0,1-.694,1.219,3.863,3.863,0,0,1-1.237.881,6.525,6.525,0,0,1-1.762.469ZM2.981,5.746l2.081-.262a2.511,2.511,0,0,0,.844-.225,1.537,1.537,0,0,0,.544-.412,1.293,1.293,0,0,0,.262-.562,2.135,2.135,0,0,0,0-.694A2.926,2.926,0,0,0,6.524,2.9a1.987,1.987,0,0,0-.413-.544A1.649,1.649,0,0,0,5.474,2a2.681,2.681,0,0,0-.881,0L2.512,2.24Z" transform="translate(22.217 0.572)" fill="#010101"/>
        <path id="Path_2349" data-name="Path 2349" d="M2.325,9.487H7.293v1.875H0V0H2.437Z" transform="translate(34.253 0)" fill="#010101"/>
        <path id="Path_2350" data-name="Path 2350" d="M9.605,6.745a7.165,7.165,0,0,1-.656,2.269A4.875,4.875,0,0,1,7.73,10.626a4.143,4.143,0,0,1-1.65.881,4.668,4.668,0,0,1-1.987.131A5.137,5.137,0,0,1,2.218,11,4.349,4.349,0,0,1,.85,9.688,4.837,4.837,0,0,1,.1,7.813a7.03,7.03,0,0,1,0-2.362V4.945A7.2,7.2,0,0,1,.756,2.7,4.874,4.874,0,0,1,1.975,1.083a4.144,4.144,0,0,1,1.669-.9A4.668,4.668,0,0,1,5.631.052,4.837,4.837,0,0,1,7.505.708,4.293,4.293,0,0,1,8.874,2a5.4,5.4,0,0,1,.75,1.875,7.614,7.614,0,0,1,0,2.362ZM7.337,5.92a4.874,4.874,0,0,0-.281-2.775A2.119,2.119,0,0,0,5.368,1.983a2.156,2.156,0,0,0-1.875.675A4.875,4.875,0,0,0,2.5,5.264v.525a6.454,6.454,0,0,0,0,1.575,3.618,3.618,0,0,0,.338,1.2,1.744,1.744,0,0,0,.675.787,2.306,2.306,0,0,0,2.925-.3A4.874,4.874,0,0,0,7.43,6.445Z" transform="translate(43.189 0.567)" fill="#010101"/>
        <path id="Path_2351" data-name="Path 2351" d="M3.412,6.206,7.031,1.894l2.475.656L4.012,8.568,2.944,12.542.638,11.924,1.725,7.949,0,0,2.475.656Z" transform="translate(55.775 1.875)" fill="#010101"/>
      </g>
      <path id="Path_3000" data-name="Path 3000" d="M5.216-11.2a3.724,3.724,0,0,1,2.72,1.088A3.606,3.606,0,0,1,9.04-7.44a3.606,3.606,0,0,1-1.1,2.672A3.724,3.724,0,0,1,5.216-3.68H3.248V0H1.04V-11.2Zm0,5.456a1.544,1.544,0,0,0,1.168-.488A1.686,1.686,0,0,0,6.848-7.44a1.678,1.678,0,0,0-.464-1.216,1.556,1.556,0,0,0-1.168-.48H3.248v3.392Zm7.632,3.632H17.12V0H10.64V-11.2h2.208ZM26.048,0l-.672-2.016H20.912L20.24,0H17.856l3.92-11.2h2.736L28.448,0ZM21.616-4.08h3.072L23.152-8.656Zm14.56-7.12h2.208V0H36.7L31.9-6.848V0H29.7V-11.2h1.68l4.8,6.832Z" transform="translate(769.5 2918.25)"/>
      <path id="Path_3001" data-name="Path 3001" d="M8.448-11.2v2.112H5.424V0H3.216V-9.088H.208V-11.2Zm3.6,9.088h4.72V0H9.84V-11.2h6.848v2.112h-4.64V-6.7h4.24v2.08h-4.24ZM22.3.224A5,5,0,0,1,19.5-.52a3.979,3.979,0,0,1-1.6-2.024l1.888-1.1a2.516,2.516,0,0,0,2.576,1.712,2.217,2.217,0,0,0,1.36-.336,1.032,1.032,0,0,0,.432-.848,1.028,1.028,0,0,0-.528-.92,8.143,8.143,0,0,0-1.888-.712A11.731,11.731,0,0,1,20.472-5.2a5.486,5.486,0,0,1-1.04-.6,2.447,2.447,0,0,1-.792-.952A3.117,3.117,0,0,1,18.368-8.1a3,3,0,0,1,1.08-2.424,3.918,3.918,0,0,1,2.6-.9,4.323,4.323,0,0,1,2.392.664,4.462,4.462,0,0,1,1.608,1.848L24.192-7.84a2.236,2.236,0,0,0-2.144-1.44,1.69,1.69,0,0,0-1.08.312.985.985,0,0,0-.392.808,1.02,1.02,0,0,0,.44.856,6.151,6.151,0,0,0,1.688.712q.512.16.776.248t.72.272a4.34,4.34,0,0,1,.7.344,5.552,5.552,0,0,1,.568.432,2.213,2.213,0,0,1,.488.56,3.143,3.143,0,0,1,.288.7,3.136,3.136,0,0,1,.12.888A3,3,0,0,1,25.24-.688,4.524,4.524,0,0,1,22.3.224ZM34.976-11.2v2.112H31.952V0H29.744V-9.088H26.736V-11.2Z" transform="translate(862 2918.25)"/>
      <path id="Path_3002" data-name="Path 3002" d="M7.184,0,4.928-3.888H3.248V0H1.04V-11.2H5.52a3.6,3.6,0,0,1,2.64,1.088A3.576,3.576,0,0,1,9.248-7.488,3.407,3.407,0,0,1,8.656-5.56,3.706,3.706,0,0,1,7.088-4.224L9.568,0ZM3.248-9.136v3.312H5.52a1.406,1.406,0,0,0,1.072-.488A1.678,1.678,0,0,0,7.04-7.488a1.649,1.649,0,0,0-.448-1.168,1.416,1.416,0,0,0-1.072-.48Zm9.984,7.024h4.72V0H11.024V-11.2h6.848v2.112h-4.64V-6.7h4.24v2.08h-4.24Zm8.64,0h4.272V0h-6.48V-11.2h2.208Zm7.888,0h4.72V0H27.552V-11.2H34.4v2.112H29.76V-6.7H34v2.08H29.76ZM40.016.224a5,5,0,0,1-2.8-.744,3.979,3.979,0,0,1-1.6-2.024l1.888-1.1A2.516,2.516,0,0,0,40.08-1.936a2.217,2.217,0,0,0,1.36-.336,1.032,1.032,0,0,0,.432-.848,1.028,1.028,0,0,0-.528-.92,8.143,8.143,0,0,0-1.888-.712A11.731,11.731,0,0,1,38.184-5.2a5.486,5.486,0,0,1-1.04-.6,2.447,2.447,0,0,1-.792-.952A3.117,3.117,0,0,1,36.08-8.1a3,3,0,0,1,1.08-2.424,3.918,3.918,0,0,1,2.6-.9,4.323,4.323,0,0,1,2.392.664A4.462,4.462,0,0,1,43.76-8.912L41.9-7.84A2.236,2.236,0,0,0,39.76-9.28a1.69,1.69,0,0,0-1.08.312.985.985,0,0,0-.392.808,1.02,1.02,0,0,0,.44.856,6.151,6.151,0,0,0,1.688.712q.512.16.776.248t.72.272a4.34,4.34,0,0,1,.7.344,5.552,5.552,0,0,1,.568.432,2.213,2.213,0,0,1,.488.56,3.143,3.143,0,0,1,.288.7,3.136,3.136,0,0,1,.12.888A3,3,0,0,1,42.952-.688,4.524,4.524,0,0,1,40.016.224Zm7.792-2.336h4.72V0H45.6V-11.2h6.848v2.112h-4.64V-6.7h4.24v2.08h-4.24Z" transform="translate(938.25 2918.25)"/>
      <path id="Path_3003" data-name="Path 3003" d="M12-11.2V0H9.808V-7.264l-3.152,5.2H6.4L3.248-7.248V0H1.04V-11.2H3.312L6.528-5.9l3.2-5.3ZM23.664-1.456A5.646,5.646,0,0,1,19.536.224a5.605,5.605,0,0,1-4.12-1.688A5.624,5.624,0,0,1,13.728-5.6a5.624,5.624,0,0,1,1.688-4.136,5.605,5.605,0,0,1,4.12-1.688,5.632,5.632,0,0,1,4.128,1.688A5.611,5.611,0,0,1,25.36-5.6,5.637,5.637,0,0,1,23.664-1.456Zm-6.7-1.5a3.527,3.527,0,0,0,2.576,1.024,3.513,3.513,0,0,0,2.576-1.032A3.55,3.55,0,0,0,23.152-5.6a3.577,3.577,0,0,0-1.04-2.64,3.5,3.5,0,0,0-2.576-1.04A3.5,3.5,0,0,0,16.96-8.24,3.577,3.577,0,0,0,15.92-5.6,3.577,3.577,0,0,0,16.96-2.96ZM33.552-11.2H35.76V0H34.08l-4.8-6.848V0H27.072V-11.2h1.68l4.8,6.832ZM38-11.2h2.208V0H38Zm11.856,0v2.112H46.832V0H44.624V-9.088H41.616V-11.2Zm3.6,9.088h4.72V0H51.248V-11.2H58.1v2.112h-4.64V-6.7H57.7v2.08h-4.24ZM66.032,0,63.776-3.888H62.1V0H59.888V-11.2h4.48a3.6,3.6,0,0,1,2.64,1.088A3.576,3.576,0,0,1,68.1-7.488,3.407,3.407,0,0,1,67.5-5.56a3.706,3.706,0,0,1-1.568,1.336L68.416,0ZM62.1-9.136v3.312h2.272a1.406,1.406,0,0,0,1.072-.488,1.678,1.678,0,0,0,.448-1.176,1.649,1.649,0,0,0-.448-1.168,1.416,1.416,0,0,0-1.072-.48Z" transform="translate(1117 2918.25)"/>
      <g id="Group_3270" data-name="Group 3270" transform="translate(5157.285 -275.424)">
        <path id="Path_2222" data-name="Path 2222" d="M68.419,281.089a6.3,6.3,0,0,0-3.918-1.024,12.452,12.452,0,0,0-2.026.178,7.633,7.633,0,0,0-3.428-5.143l-.69-.4-.445.646a9.519,9.519,0,0,0-1.224,2.85,6.765,6.765,0,0,0,.8,5.321,9.444,9.444,0,0,1-3.5.846H22.381a1.492,1.492,0,0,0-1.492,1.492,22.527,22.527,0,0,0,1.38,8.126,12.186,12.186,0,0,0,4.809,6.256c2.36,1.447,6.211,2.271,10.552,2.271a32.372,32.372,0,0,0,5.855-.534,24.164,24.164,0,0,0,7.658-2.783,20.96,20.96,0,0,0,5.209-4.274,28.343,28.343,0,0,0,5.1-8.794H61.9a7.325,7.325,0,0,0,5.365-2.026A5.929,5.929,0,0,0,68.687,282l.2-.579Z" transform="translate(-3819.172 2865.358)" fill="#fff"/>
        <path id="Path_2223" data-name="Path 2223" d="M39.478,260.283h4.23a.375.375,0,0,0,.378-.378V256.12a.375.375,0,0,0-.378-.378h-4.23a.375.375,0,0,0-.378.378V259.9A.39.39,0,0,0,39.478,260.283Zm5.833,0h4.23a.375.375,0,0,0,.378-.378V256.12a.375.375,0,0,0-.378-.378h-4.23a.375.375,0,0,0-.378.378V259.9a.39.39,0,0,0,.378.378m5.944,0h4.23a.375.375,0,0,0,.378-.378V256.12a.375.375,0,0,0-.378-.378h-4.23a.375.375,0,0,0-.378.378V259.9A.362.362,0,0,0,51.255,260.283Zm5.855,0h4.23a.375.375,0,0,0,.378-.378V256.12a.375.375,0,0,0-.378-.378H57.11a.375.375,0,0,0-.378.378V259.9A.375.375,0,0,0,57.11,260.283Zm-11.8-5.41h4.23a.39.39,0,0,0,.378-.378V250.71a.375.375,0,0,0-.378-.378h-4.23a.375.375,0,0,0-.378.378v3.785a.407.407,0,0,0,.378.378m5.944,0h4.23a.39.39,0,0,0,.378-.378V250.71a.375.375,0,0,0-.378-.378h-4.23a.375.375,0,0,0-.378.378v3.785a.375.375,0,0,0,.378.378m5.855,0h4.23a.39.39,0,0,0,.378-.378V250.71a.39.39,0,0,0-.378-.378H57.11a.375.375,0,0,0-.378.378v3.785a.39.39,0,0,0,.378.378m0-5.432h4.23a.375.375,0,0,0,.378-.378v-3.785a.39.39,0,0,0-.378-.378H57.11a.375.375,0,0,0-.378.378v3.785a.39.39,0,0,0,.378.378m5.9,10.842h4.23a.375.375,0,0,0,.378-.379V256.12a.375.375,0,0,0-.378-.378h-4.23a.375.375,0,0,0-.378.378V259.9a.39.39,0,0,0,.378.379" transform="translate(-3833.33 2888.524)" fill="#fff"/>
      </g>
      <path id="Path_3009" data-name="Path 3009" d="M6.86-14a6.38,6.38,0,0,1,4.81,2.02A6.933,6.933,0,0,1,13.6-7a6.933,6.933,0,0,1-1.93,4.98A6.38,6.38,0,0,1,6.86,0H1.3V-14Zm0,11.36A3.882,3.882,0,0,0,9.82-3.85,4.407,4.407,0,0,0,10.96-7a4.407,4.407,0,0,0-1.14-3.15,3.882,3.882,0,0,0-2.96-1.21H4.06v8.72Zm17.1,1.4A5.15,5.15,0,0,1,20.2.28a5.1,5.1,0,0,1-3.75-1.53A5.1,5.1,0,0,1,14.92-5a5.1,5.1,0,0,1,1.53-3.75,5.1,5.1,0,0,1,3.75-1.53,5.132,5.132,0,0,1,3.76,1.53A5.082,5.082,0,0,1,25.5-5,5.115,5.115,0,0,1,23.96-1.24Zm-5.7-1.78a2.634,2.634,0,0,0,1.94.78,2.634,2.634,0,0,0,1.94-.78A2.683,2.683,0,0,0,22.92-5a2.683,2.683,0,0,0-.78-1.98,2.634,2.634,0,0,0-1.94-.78,2.6,2.6,0,0,0-1.93.78A2.7,2.7,0,0,0,17.5-5,2.721,2.721,0,0,0,18.26-3.02ZM32.08.28a5.1,5.1,0,0,1-3.77-1.52A5.125,5.125,0,0,1,26.8-5a5.125,5.125,0,0,1,1.51-3.76,5.1,5.1,0,0,1,3.77-1.52,5.182,5.182,0,0,1,2.66.7A4.654,4.654,0,0,1,36.56-7.7L34.34-6.4a2.263,2.263,0,0,0-.91-.98,2.644,2.644,0,0,0-1.37-.36,2.585,2.585,0,0,0-1.92.77A2.686,2.686,0,0,0,29.38-5a2.661,2.661,0,0,0,.76,1.95,2.585,2.585,0,0,0,1.92.77,2.743,2.743,0,0,0,1.39-.35,2.2,2.2,0,0,0,.91-.97L36.6-2.32A5.009,5.009,0,0,1,34.74-.43,5.126,5.126,0,0,1,32.08.28ZM47.18,0h-3L40.54-4.54V0H37.96V-14h2.58v8.4L43.98-10h3.08L43.04-5.06Zm2.74-3.94a2.563,2.563,0,0,0,2.82,1.88,2.639,2.639,0,0,0,2.24-1l2.08,1.2A4.96,4.96,0,0,1,52.7.28a5.38,5.38,0,0,1-3.98-1.5A5.125,5.125,0,0,1,47.22-5,5.17,5.17,0,0,1,48.7-8.77a5.09,5.09,0,0,1,3.8-1.51,4.768,4.768,0,0,1,3.63,1.52A5.278,5.278,0,0,1,57.56-5a6.04,6.04,0,0,1-.1,1.06Zm-.04-2h5.1a2.417,2.417,0,0,0-.91-1.52,2.608,2.608,0,0,0-1.57-.5,2.714,2.714,0,0,0-1.72.53A2.533,2.533,0,0,0,49.88-5.94ZM61.94-8.28a2.694,2.694,0,0,1,1.19-1.44,3.628,3.628,0,0,1,1.85-.48v2.88a3.038,3.038,0,0,0-2.11.48,2.291,2.291,0,0,0-.93,2.06V0H59.36V-10h2.58Z" transform="translate(1350 2928)" fill="#fff"/>
      <path id="Path_3008" data-name="Path 3008" d="M15.04-7.52v1.08a6.462,6.462,0,0,1-1.92,4.86A6.831,6.831,0,0,1,8.16.28,7.317,7.317,0,0,1,2.79-1.83,6.973,6.973,0,0,1,.66-6.98a7.064,7.064,0,0,1,2.11-5.18A7.085,7.085,0,0,1,8-14.28a7.311,7.311,0,0,1,3.58.89,6.6,6.6,0,0,1,2.52,2.37L11.74-9.66a3.714,3.714,0,0,0-1.51-1.4,4.7,4.7,0,0,0-2.25-.54,4.42,4.42,0,0,0-3.29,1.31A4.523,4.523,0,0,0,3.4-6.98,4.4,4.4,0,0,0,4.71-3.71,4.731,4.731,0,0,0,8.18-2.42a4.63,4.63,0,0,0,2.65-.71,3.531,3.531,0,0,0,1.43-1.95H8.02V-7.52Zm4.42-.76a2.694,2.694,0,0,1,1.19-1.44,3.628,3.628,0,0,1,1.85-.48v2.88a3.038,3.038,0,0,0-2.11.48,2.291,2.291,0,0,0-.93,2.06V0H16.88V-10h2.58ZM31.22-10H33.8V0H31.22V-1.18A3.926,3.926,0,0,1,27.96.28a4.531,4.531,0,0,1-3.43-1.53A5.287,5.287,0,0,1,23.1-5a5.287,5.287,0,0,1,1.43-3.75,4.531,4.531,0,0,1,3.43-1.53,3.926,3.926,0,0,1,3.26,1.46ZM26.46-2.96a2.683,2.683,0,0,0,1.98.78,2.7,2.7,0,0,0,1.99-.79A2.748,2.748,0,0,0,31.22-5a2.748,2.748,0,0,0-.79-2.03,2.7,2.7,0,0,0-1.99-.79,2.665,2.665,0,0,0-1.98.79A2.767,2.767,0,0,0,25.68-5,2.8,2.8,0,0,0,26.46-2.96ZM43.72-14H46.3V0H43.72V-1.18A3.87,3.87,0,0,1,40.48.28a4.553,4.553,0,0,1-3.45-1.53A5.287,5.287,0,0,1,35.6-5a5.287,5.287,0,0,1,1.43-3.75,4.553,4.553,0,0,1,3.45-1.53,3.87,3.87,0,0,1,3.24,1.46ZM38.96-2.96a2.75,2.75,0,0,0,2,.78,2.665,2.665,0,0,0,1.98-.79A2.767,2.767,0,0,0,43.72-5a2.767,2.767,0,0,0-.78-2.03,2.665,2.665,0,0,0-1.98-.79,2.7,2.7,0,0,0-1.99.79A2.748,2.748,0,0,0,38.18-5,2.8,2.8,0,0,0,38.96-2.96ZM48.66,0V-14.6h2.58V0Zm7.12-3.94A2.563,2.563,0,0,0,58.6-2.06a2.639,2.639,0,0,0,2.24-1l2.08,1.2A4.96,4.96,0,0,1,58.56.28a5.38,5.38,0,0,1-3.98-1.5A5.125,5.125,0,0,1,53.08-5a5.17,5.17,0,0,1,1.48-3.77,5.09,5.09,0,0,1,3.8-1.51,4.768,4.768,0,0,1,3.63,1.52A5.278,5.278,0,0,1,63.42-5a6.04,6.04,0,0,1-.1,1.06Zm-.04-2h5.1a2.417,2.417,0,0,0-.91-1.52,2.608,2.608,0,0,0-1.57-.5,2.714,2.714,0,0,0-1.72.53A2.533,2.533,0,0,0,55.74-5.94Z" transform="translate(1351 2813)" fill="#fff"/>
      <g id="Group_3276" data-name="Group 3276" transform="translate(5841 -245)">
        <path id="Path_2377" data-name="Path 2377" d="M44.2,12.95a9.09,9.09,0,0,0,.382-6.493c-.764-2.241-3.9-5.194-4.889-4.023-.127.153-1.935-.051-2.215.331-.433.56-.178.738.025.942.637.56,2.241,1.171,2.979,3.081.306.815,1.019,2.7-.229,3.845-1.4,1.273-2.979,1.579-9.447-4.431C23.932-.188,14.715,2.409,11.659,3.427S7.2,5.464,8.4,7.807a41.18,41.18,0,0,0,2.7,4.863c2.521,4.2,8.072-1.935,8.072-1.935-4.125,6.213-7.664,4.711-9.014,2.546a34.246,34.246,0,0,1-2.164-4.2C-2.447,12.848.379,29.45.379,29.45H5.574c1.324-6.111,6.06-5.882,6.85,0H16.37c3.488-11.942,10.974,0,10.974,0h4.431c0-6.366-.662-8.759,2.6-9.218C39.923,19.494,42.52,16.9,44.2,12.95Z" transform="translate(-4481.03 2987.476)" fill="#fff"/>
        <path id="Path_2380" data-name="Path 2380" d="M45.065,8.592a14.386,14.386,0,0,0-2.775.484c-.025.025-.051.076-.076.1a4.622,4.622,0,0,1-1.477,1.146.9.9,0,0,1-.229.1l-.153.153c-1.4,1.273-3.106,1.579-9.447-4.431-6.8-6.442-16.093-3.794-19.148-2.775S7.3,5.409,8.5,7.752a41.18,41.18,0,0,0,2.7,4.863c2.521,4.2,8.072-1.935,8.072-1.935-4.125,6.213-7.664,4.711-9.014,2.546a34.246,34.246,0,0,1-2.164-4.2C-2.347,12.793.479,29.395.479,29.395H5.674c1.324-6.111,6.06-5.882,6.85,0H16.47c3.488-11.942,10.974,0,10.974,0h4.431c0-6.366-.662-8.759,2.6-9.218,5.576-.764,8.148-3.361,9.829-7.282A9.832,9.832,0,0,0,45.065,8.592Z" transform="translate(-4481.104 2987.531)" fill="#fff"/>
        <g id="Group_3275" data-name="Group 3275" transform="translate(-4455.032 2997.778)">
          <path id="Path_2381" data-name="Path 2381" d="M102.189,34.5s2.393.789,5.6,1.859a3.051,3.051,0,0,1-3.845,1.808A2.771,2.771,0,0,1,102.189,34.5Z" transform="translate(-102.014 -34.5)"/>
          <ellipse id="Ellipse_701" data-name="Ellipse 701" cx="1.451" cy="1.4" rx="1.451" ry="1.4" transform="translate(1.308 0.491) rotate(-6.066)" fill="#fff"/>
        </g>
        <path id="Path_2382" data-name="Path 2382" d="M146.425,2.234a6.886,6.886,0,0,0,.637.458c1.069-.891,2.47-.866,3.667-1.35C149.685.375,148-.363,147.495.248a12.772,12.772,0,0,0-1.069,1.044C145.967,1.852,146.2,2.03,146.425,2.234Z" transform="translate(-4589.953 2988.975)" fill="#fff"/>
      </g>
      <g id="Group_3272" data-name="Group 3272" transform="translate(5164 -419)">
        <path id="Path_2229" data-name="Path 2229" d="M48.955,66.585A17.985,17.985,0,0,1,31.177,84.769a18.189,18.189,0,0,1,0-36.369A17.985,17.985,0,0,1,48.955,66.585" transform="translate(-3812.846 3003.842)" fill="#fff"/>
        <path id="Path_2230" data-name="Path 2230" d="M12.97,77.02S11.683,58.056,29.157,57.515l-1.219-2.032-9.481,3.183-2.709,3.116-2.371,4.538L12.022,71.6l.406,3.522" transform="translate(-3811.693 2997.91)" fill="#fff"/>
        <path id="Path_2231" data-name="Path 2231" d="M16.154,51.684a17.929,17.929,0,0,0,0,24.945,16.947,16.947,0,0,0,24.353,0,17.929,17.929,0,0,0,0-24.945,16.948,16.948,0,0,0-24.353,0ZM15.365,77.4a19.031,19.031,0,0,1,0-26.488,18.05,18.05,0,0,1,25.931,0,19.031,19.031,0,0,1,0,26.488,18.049,18.049,0,0,1-25.931,0" transform="translate(-3810 3006.338)" fill="#fff"/>
        <path id="Path_2232" data-name="Path 2232" d="M70.412,38.418l-2.709.406-3.657.406-2.37.068-2.3-.068-1.761-.542L56.054,37l-1.219-3.454-.271-.745-1.625-.542L51.99,30.7l-.677-2.235.745-1.964,1.761-.61,1.422.677.677,1.49.813-.136L57,27.582l-.271-1.558-.068-1.964.406-2.709L57.054,19.8l1.235-1.974,2.167-1.558,3.793-1.625,4.2.61L72.105,17.9,73.8,20.606l1.084,1.964.271,4.876-.813,4.2L72.85,35.37l-1.422,1.964" transform="translate(-3844.598 3032.11)" fill="#fff"/>
        <path id="Path_2233" data-name="Path 2233" d="M56.245,167.727l-9.685.406v1.625l.813,5.689-.406.474-6.773-2.3-.474-.813-.677-7.653-1.558-4.606-.339-1.084,5.418-3.725,1.693-.678,1.49,1.829,1.287,1.151,1.49.474.677.2.813,3.522.61.745,1.558-.542-1.084,2.1,5.892,2.777-.745.406" transform="translate(-3832.734 2914.518)" fill="#fff"/>
        <path id="Path_2234" data-name="Path 2234" d="M54.5,29.637l1.761-.61,1.422.677.677,1.49.813-.136.2-.813-.406-1.557.406-3.725-.339-2.032,1.219-1.422,2.641-2.1-.745-1.016-3.725,1.829-1.558,1.219-.881,1.9-1.354,1.829-.406,2.167.271,2.3" transform="translate(-3847.041 3028.97)" fill="#fff"/>
        <path id="Path_2235" data-name="Path 2235" d="M57.277,24.444s1.016-2.506,5.079-3.725.2-.881.2-.881l-4.4,1.694-1.693,1.693-.745,1.355,1.558-.136m-2.032,5.892s-1.422-4.741,4-5.418l-.2-.813-3.725.881-1.084,3.522.271,2.3.745-.474" transform="translate(-3847.04 3027.797)" fill="#fff"/>
        <path id="Path_2236" data-name="Path 2236" d="M54.62,29.4l.887-.859a.571.571,0,0,1,.468.52c.068.474.271,4.741,3.183,7.044.265.21-2.167-.339-2.167-.339l-2.167-3.386M67.082,28.11s.158-2.053.711-1.9a.761.761,0,0,1,.553.711S67,27.794,67.082,28.11M72.7,20.593s-1.117.236-1.219,1.219,1.219.2,1.422.135m-8.4-1.287s-1.49.2-1.49,1.151,1.693.88,2.167.474M55.3,25.062s-2.574-1.558-2.845-.068-.881,2.574.406,4.132l-.881-.271-.813-2.1L50.9,24.724,52.453,23.1l1.761.136,1.016.813.068,1.016M56.516,20.8s1.151-5.96,6.976-7.111c4.8-.948,7.314.2,8.263,1.287,0,0-4.267-5.079-8.33-3.522s-7.044,4.4-6.976,6.231a29.868,29.868,0,0,1,.068,3.116m15.713-5.147s-1.964-.068-2.032,1.693a1.344,1.344,0,0,0,.136.542s1.558-1.761,2.506-.813" transform="translate(-3844.248 3035.035)" fill="#fff"/>
        <path id="Path_2237" data-name="Path 2237" d="M109.157,45.33s-.338-2.7-2.642-1.131c-1.49,1.016-1.355,2.438-1.084,2.709s.2.817.4.442.138-1.594.883-1.932,1.966-.717,2.439-.088" transform="translate(-3889.776 3007.771)" fill="#fff"/>
        <path id="Path_2238" data-name="Path 2238" d="M45.746,156.542l-6.366,2.844s2.641,10.5,1.287,13.749l-.948-.338-.068-4-1.761-7.585-.745-2.1,6.637-4.47,1.964,1.9m.655,5.806.9,1.1v4.064H46.22s-.136-2.845-.136-3.183.136-1.558.136-1.558m.2,5.351-3.048.135.88.61,2.167.339" transform="translate(-3832.733 2914.865)" fill="#fff"/>
        <path id="Path_2239" data-name="Path 2239" d="M158.4,233.046l2.506-.068.61,6.231-2.574.339-.542-6.5" transform="translate(-3934.276 2849.266)" fill="#fff"/>
        <path id="Path_2240" data-name="Path 2240" d="M162.563,162.561l3.793-.2s1.558-3.928,1.558-4.131,1.355-5.689,1.355-5.689l-3.048-3.183-.61-.542-1.625,1.625v6.3l-1.422,5.824" transform="translate(-3937.765 2919.75)" fill="#fff"/>
        <path id="Path_2241" data-name="Path 2241" d="M160.766,162.087l-2.371.474.339,1.9c.88.406,2.37-.677,2.37-.677m-.271-13.545,4.741,3.522.135-1.625-3.589-3.319-1.287,1.422" transform="translate(-3934.275 2919.75)" fill="#fff"/>
        <path id="Path_2242" data-name="Path 2242" d="M97.278,246.737l-1.4-5.69-.7-4.2-.115-3.116,6.346-.338h3.948L105,240.506l.61,5.486-.068,1.016-5.147.406-3.115-.677" transform="translate(-3881.237 2848.917)" fill="#fff"/>
        <path id="Path_2243" data-name="Path 2243" d="M130.646,230.885a59.9,59.9,0,0,0,.677,12.055,12.937,12.937,0,0,1-5.012,1.625l5.689-.2.677-.406-.813-11.107-.2-2.371" transform="translate(-3907.406 2851.359)" fill="#dcd9d8"/>
        <path id="Path_2244" data-name="Path 2244" d="M174.537,229.251l2.641-.745,5.012-.271.745-2.3-1.355-4-1.557-.2-2.167.677-2.079,1.015-1.1-.2-.86.338" transform="translate(-3947.186 2858.683)" fill="#fff"/>
        <path id="Path_2245" data-name="Path 2245" d="M177.979,234.871a9.909,9.909,0,0,1,2.032-.745l-.745-3.725.881-.338s.61,3.522.61,3.928c0,0,3.793.2,4.131.2a6.151,6.151,0,0,0,.61-3.183l.745,2.167.068,1.219-1.084,1.625-1.219.271-2.032-.068-.677-.88-2.37.338-.745.271" transform="translate(-3950.675 2851.707)" fill="#dcd9d8"/>
        <path id="Path_2246" data-name="Path 2246" d="M145.9,194.126l-1.49-3.792-1.558-2.235s.339-.948.813-.948h1.558l1.49.542-.135,2.506-.677,3.928" transform="translate(-3921.261 2887.645)" fill="#fff"/>
        <path id="Path_2247" data-name="Path 2247" d="M145.6,192.136a31.57,31.57,0,0,1-1.9-4.2s.339-.813.813-.61,1.49.745,1.49.745v-1.287l-2.3-.474-1.558.2,2.641,6.231.542.068" transform="translate(-3920.667 2888.347)" fill="#dcd9d8"/>
        <path id="Path_2248" data-name="Path 2248" d="M93.7,163.307l-1.876-.2-1.761-.542v.61l.861.949,2.709,1.219" transform="translate(-3877.049 2908.238)" fill="#fff"/>
        <path id="Path_2249" data-name="Path 2249" d="M92.767,168.4s2.1.881,2.777.677l.067.812-1.9-.405-1.151-.813.2-.271" transform="translate(-3879.144 2903.348)" fill="#dcd9d8"/>
        <path id="Path_2250" data-name="Path 2250" d="M160.862,169.23a12.882,12.882,0,0,1-3.1-.427,9.541,9.541,0,0,1,.039-1.007,2.418,2.418,0,0,1,1.061-.222,1.848,1.848,0,0,0-1.179-.133,1.892,1.892,0,0,0-.2-.621c.646-.231,2.171-1.742,3.03-1.242.409.238.583,1.6.614,2.259a2.306,2.306,0,0,1-.273,1.393" transform="translate(-3933.517 2905.795)" fill="#fff"/>
        <path id="Path_2251" data-name="Path 2251" d="M160.862,169.23a12.882,12.882,0,0,1-3.1-.427,9.541,9.541,0,0,1,.039-1.007,2.418,2.418,0,0,1,1.061-.222,1.848,1.848,0,0,0-1.179-.133,1.892,1.892,0,0,0-.2-.621c.646-.231,2.171-1.742,3.03-1.242.409.238.583,1.6.614,2.259a2.306,2.306,0,0,1-.273,1.393Z" transform="translate(-3933.517 2905.795)" fill="none" stroke="#fff" stroke-width="2.5"/>
        <path id="Path_2252" data-name="Path 2252" d="M118.549,168.887c0,.087-.007.175-.01.262-.359.236-.938.233-1.332.431a3.458,3.458,0,0,1,1.433.362l-.025.657a23.388,23.388,0,0,1-2.033,1.543,5.38,5.38,0,0,1-2.041.623c-.22-.051-.24-.325-.328-.583a8.331,8.331,0,0,1-.658-2.262c-.048-1.05-.154-2.808.977-2.592a10.1,10.1,0,0,1,2.681.98,2.769,2.769,0,0,0,1.337.578" transform="translate(-3896.701 2904.259)" fill="#fff"/>
        <path id="Path_2253" data-name="Path 2253" d="M118.549,168.887c0,.087-.007.175-.01.262-.359.236-.938.233-1.332.431a3.458,3.458,0,0,1,1.433.362l-.025.657a23.388,23.388,0,0,1-2.033,1.543,5.38,5.38,0,0,1-2.041.623c-.22-.051-.24-.325-.328-.583a8.331,8.331,0,0,1-.658-2.262c-.048-1.05-.154-2.808.977-2.592a10.1,10.1,0,0,1,2.681.98A2.769,2.769,0,0,0,118.549,168.887Z" transform="translate(-3896.701 2904.259)" fill="none" stroke="#fff" stroke-width="2.5"/>
        <path id="Path_2254" data-name="Path 2254" d="M147.5,177.19a3.868,3.868,0,0,1-.172-1.234c1.525-1.017,1.811,1.746.172,1.234" transform="translate(-3925 2897.209)" fill="#fff"/>
        <path id="Path_2255" data-name="Path 2255" d="M147.5,177.19a3.868,3.868,0,0,1-.172-1.234c1.525-1.017,1.811,1.746.172,1.234Z" transform="translate(-3925 2897.209)" fill="none" stroke="#fff" stroke-width="2.5"/>
        <path id="Path_2256" data-name="Path 2256" d="M118.782,166.629s-.474-.677-.135-.88.677,0,.88-.338,0-.542.068-.948.407-.474.745-.542,1.287-.2,1.422.136l-.406-1.219-.813-.271-2.574,1.49-.135.745v1.49m-6.163,2.573q-.122-1.585-.263-3.168c-.143-1.577.379-1.3,1.746-1.3a3.6,3.6,0,0,1,1.362.406c.369.755-.618.587.426,1.156.88.48,2.436-.291,2.08-1.359-.2-.237-1.038-.074-1.338-.23l-1.587-.823c-.673-.35-2.229-.858-2.947-.37-1.818,1.237.115,4.327.764,5.617" transform="translate(-3894.072 2908.233)" fill="#fff"/>
        <path id="Path_2257" data-name="Path 2257" d="M70.616,48.042c-1.846-.43-2.763.773-3.323,2.02-.5-.121-.3-.8-.175-1.147.33-.909,1.662-2.118,2.75-1.954.468.07,1.1.5.747,1.081m8.994,2.1.088,0A19.1,19.1,0,0,0,81,52.7c-.352.821-2.669,1.548-2.634.073.5-.219,1.366-.045,1.81-.324a5.026,5.026,0,0,1-.568-2.3m-8.049.022A7.743,7.743,0,0,0,72.649,52.2c.253.247.746.548.5,1.234a1.564,1.564,0,0,1-.715.594c-.88.26-2.929.054-2.235-1.043.728.034,1.705.472,2.249-.055-.417-.668-1.162-1.988-.888-2.766M79.28,57.54A7.331,7.331,0,0,1,74.309,59.1a1.472,1.472,0,0,1-.19-1.893c.235.4.087,1.144.741,1.256,1.231.211,2.664-.753,3.55-1.09.549-.926-.048-1.266-.542-1.862-1.013-1.221-2.372-2.734-2.322-4.562.41-.3.445.453.5.59a16.7,16.7,0,0,0,2.831,3.88c.238.261.631.511.675.684.126.5-.328,1.1-.275,1.437m-17.459-.9c-.415-.237-.514-1.281-1-1.31-.7-.042-.569,1.353-.567,2.17a2.55,2.55,0,0,1-.211-2.463c-.4-.2-.581.217-.8.363.286-2.078,3.041-.964,2.583,1.24m18.3,1.761c-.616,1.173-1.488,2.466-3.3,2.5a4.471,4.471,0,0,1,0-1.184,9.5,9.5,0,0,0,3.3-1.319m-8.666.761a11.443,11.443,0,0,0,4.842.626,5.5,5.5,0,0,1,.085,1.187c-2.016.1-4.4-.4-4.928-1.813M71.238,60.3c.8,2,3.54,1.773,5.852,1.717a1.237,1.237,0,0,1-.6.678,5.867,5.867,0,0,1-3.814-.016,5.217,5.217,0,0,1-1.429-1.59c-.172-.222-1.032-.789-.013-.79" transform="translate(-3851.235 3005.06)" fill="#231f20"/>
        <path id="Path_2258" data-name="Path 2258" d="M166.783,192.385a40.807,40.807,0,0,1-2.943,4.665,22.465,22.465,0,0,0,.735-5.408,1.7,1.7,0,0,1,2.208.743" transform="translate(-3938.834 2884.022)" fill="#fff"/>
        <path id="Path_2259" data-name="Path 2259" d="M198.476,232.529c-1.048.21-1.785,1.229-2.807,1.163a3.348,3.348,0,0,1,2.807-1.163m.462,1.64a15.322,15.322,0,0,1-2.724.157c.41-.627,1.991-.41,2.724-.157m.3,1.414c-.96.021-2.154,0-3.066-.075.54-.58,2.443-.215,3.066.075" transform="translate(-3965.49 2849.642)" fill="#231f20"/>
        <path id="Path_2260" data-name="Path 2260" d="M164.878,275.067a22.638,22.638,0,0,1,.556,3.748,3.925,3.925,0,0,1-1.547.335c-.05-1.122-.2-2.838-.155-3.908.35.023.866-.25,1.147-.175" transform="translate(-3938.736 2814.03)" fill="#dcd9d8"/>
        <path id="Path_2261" data-name="Path 2261" d="M142.256,165.793c-.482.315-.893.708-1.356,1.044a2.985,2.985,0,0,1-2.342-.661c.012-.047.088-.026.091-.084,1.1.49,2.5-.2,3.606-.3" transform="translate(-3917.663 2905.531)" fill="#fff"/>
        <path id="Path_2262" data-name="Path 2262" d="M125.806,197.943c.3-1.308,1.485-1.986,2.56-2.707a21.616,21.616,0,0,1,2.527,4.965,25.891,25.891,0,0,1-5.086-2.258" transform="translate(-3906.983 2880.873)" fill="#fff"/>
        <path id="Path_2263" data-name="Path 2263" d="M54.653,53.268c-.045,1.07.105,2.786.155,3.908a3.922,3.922,0,0,0,1.547-.335,22.574,22.574,0,0,0-.556-3.748C55.518,53.019,55,53.292,54.653,53.268ZM43.577,47.183a55.941,55.941,0,0,0,2.394,11.755,15.582,15.582,0,0,0,8.544.155c-.449-2.155-.253-4.779-.515-7.079-.2-1.729-.1-3.468-.368-5.231C50.67,46.168,46.483,46.64,43.577,47.183Zm10.755-.372c-.025,1.852.083,3.678.224,5.533.711-.107,1.194-.178,1.854-.323a39.829,39.829,0,0,0-.625-5.373,4.395,4.395,0,0,0-1.453.163Zm3.608-.3a4.436,4.436,0,0,0-1.053,0c.152,1.51.519,3.176.649,4.76a4.412,4.412,0,0,0,1.2-.3A9.589,9.589,0,0,0,57.94,46.512ZM63.4,51.5a2.347,2.347,0,0,0,1.427-2.882,13.63,13.63,0,0,0-.93-3.149c-.28-.423-1.038-.977-1.643-.589-.985.631-2.719.814-3.437,1.577a25.447,25.447,0,0,1,.62,4.364c1.23.077,2.743-.338,3.766.1a14.3,14.3,0,0,0-2.258.57A4.71,4.71,0,0,0,63.4,51.5Zm-9.835-6.431a21.623,21.623,0,0,0-2.527-4.965c-1.075.721-2.258,1.4-2.56,2.707A25.89,25.89,0,0,0,53.568,45.072ZM55.4,39.662a22.47,22.47,0,0,1-.735,5.408,40.816,40.816,0,0,0,2.943-4.665,1.7,1.7,0,0,0-2.207-.743Zm-2.076-.738c-.421-.046-.778.484-1.325.255-.125.139-.239.289-.367.424,1.209,1.456,1.758,3.523,2.691,5.234a22.972,22.972,0,0,0,.553-5.24C54.187,39.642,53.805,38.976,53.323,38.924Zm-1.335-1.762A3.868,3.868,0,0,0,52.16,38.4c1.639.513,1.353-2.251-.172-1.234Zm-1.818-.6a10.1,10.1,0,0,0-2.681-.981c-1.131-.216-1.025,1.543-.977,2.592a8.32,8.32,0,0,0,.658,2.262c.088.258.108.531.328.583a5.384,5.384,0,0,0,2.041-.623,23.36,23.36,0,0,0,2.033-1.543q.013-.329.026-.657a3.467,3.467,0,0,0-1.433-.362c.394-.2.973-.2,1.332-.431,0-.088.007-.175.01-.262a2.763,2.763,0,0,1-1.337-.578ZM43.422,35.34c-.586.6,1.644,1.407,2.355,1.451,0-.377.215-.732.171-1-.844-.148-1.953-.05-2.526-.448Zm7.223.28c0,.058-.079.037-.091.085a2.986,2.986,0,0,0,2.342.661c.463-.336.874-.729,1.356-1.044C53.142,35.42,51.744,36.109,50.645,35.619Zm6.63,2.011c-.032-.662-.205-2.021-.614-2.259-.858-.5-2.383,1.011-3.029,1.242a1.881,1.881,0,0,1,.2.621,1.845,1.845,0,0,1,1.179.133,2.421,2.421,0,0,0-1.061.222,9.559,9.559,0,0,0-.039,1.007,12.86,12.86,0,0,0,3.1.427,2.309,2.309,0,0,0,.273-1.393ZM42.435,35.916c-.184-.131-1.43-1.752-1.6-1.685a26.813,26.813,0,0,0-6.245,3.88,34.023,34.023,0,0,1,2.649,13.123c2.057.962,3.864,2.349,6.655,2.494-.323-2.285-.618-4.324-.8-6.476-.7-.3-1.708.013-2.364-.092-.005-.791,1-.347,1.086-.878.063-.4-.555-.433-.354-1.066.513.187.783.6,1.33.753.5-1.094-.007-3.029.065-3.944.014-.172.086-.951.47-.814.34.121-.019,2.073.018,2.938a4.54,4.54,0,0,0,.227,2.069,77,77,0,0,1,8.357-.685,20.223,20.223,0,0,1-2.241-1.007c-.454-.256-1.883-.787-2.013-1.218-.209-.686.548-1.052.677-1.64-1.361.743-1.627-.712-1.949-1.742a13.537,13.537,0,0,1-.53-2.168A23.463,23.463,0,0,1,42.435,35.916Zm13.649-1.489c1.878-.911,2.216,3.4,1.48,4.793.114.415.505.573.665.946-1.048,1.877-2.212,3.63-3.281,5.485.8-.5,1.932-.089,2.868-.459.342-.135.59-.919.849-1.545A33.63,33.63,0,0,0,60.458,38.1a7.022,7.022,0,0,0,.234-1.525c-.082-.6-.892-1.04-1.3-1.41-.76-.682-1.238-1.282-2.03-1.92-.321.474-1.011.792-1.273,1.178ZM38.14,17.773c-.9.984-.708,2.83-.6,4.142a2.4,2.4,0,0,1,3.744,1.811c.772-.021.289-.965.149-1.573-.456-1.986.769-4.144.056-5.961A4.909,4.909,0,0,0,38.14,17.773Zm6.4-5.715c-2.026.574-4.622,2.046-5.454,3.866.645-.094,1.092-.419,1.728-.459a4.255,4.255,0,0,0,.831.032c.55-.137,1.015-1.371,1.43-1.83s.891-.64,1.224-1.049c.214-.1.53-.1.542-.417C44.751,12.1,44.654,12.027,44.543,12.059Zm10.546.54c-2.1-1.186-5.662-2.078-7.9-.964-1.8.9-4.244,2.389-5.076,4.276.777,1.821-.23,3.489-.294,5.338-.034.983.463,1.842.5,2.913-.266.439-1.078.493-1.641.463-.189-.947-.52-2.012-1.5-2.119a2.264,2.264,0,0,0-2.452,2.185c-.074,1.4,1.078,3.73,2.712,3.569.631-.062.786-.695,1.473-.688.373.743-.575.977-.672,1.509a4.285,4.285,0,0,0,.139.926,12.638,12.638,0,0,0,1.609,3.745c.826,1.184,2.45,1.362,4.2,1.478.312-.672,1.461-.617,2.209-.441a7.4,7.4,0,0,1-2.423-1.979,4.971,4.971,0,0,1-1.639-2.957c1.5,2.082,2.74,3.9,5.469,4.816,2.065.693,4.476-.317,6.062-1.431a6.966,6.966,0,0,0,1.519-1.87,15.857,15.857,0,0,0,2.388-9.6,10.652,10.652,0,0,0-.553-3.836c-.5-1.011-2.208-1.915-3.206-1-.185-.983.83-1.591,2.021-1.237a11.262,11.262,0,0,0-2.949-3.1Zm3.917,32.421c1.643-.817,4.713-2.2,5.743,0a18.67,18.67,0,0,1,1.023,3.021c.278,1.182-.3,3.666-1.517,4.063a7.205,7.205,0,0,1-3.617.069,1.973,1.973,0,0,1-.44-.577,4.993,4.993,0,0,0-2.516.429c.069.682-.393.792-.825.932-.321,1.272.642,2.934.411,4.094-.164.826-1.181.954-1.928,1.109a6.359,6.359,0,0,0,.084,1.231,1.865,1.865,0,0,1-1.664,1.076c-2.389.287-6.017.416-8.315-.41-.641-1.573-1.147-3.487-1.681-5.282-2.241.239-4.054-.967-5.763-1.757-.592-.274-1.41-.426-1.631-.9a8.061,8.061,0,0,1-.18-2.156,32.749,32.749,0,0,0-.808-6.3c-.25-.969-.686-1.824-.99-2.757a19.931,19.931,0,0,1-.9-2.8c-.19-1.279,1.014-1.35,1.784-1.9,1.19-.857,2.124-1.331,3.413-2.1a7.782,7.782,0,0,0,1.664-1.076c.26-.529-.447-1.275-.636-1.69a5.085,5.085,0,0,1-.5-1.861,3.589,3.589,0,0,1-2.4-1.54,5.9,5.9,0,0,1-.678-5.112c.056-.133.333-.395.374-.6a6.951,6.951,0,0,0-.166-1.366c-.074-2.2.372-4.089,1.85-4.751.6-2.391,2.749-3.186,4.773-4.375a15,15,0,0,1,2.452-1.045c3.09-1.137,7.831-.923,10.4,1.017a13.959,13.959,0,0,1,3.447,3.816c1.642,3.319,1.525,8.867.377,12.9a12.988,12.988,0,0,1-.691,1.99c-.218.455-.9,1.365-.813,1.766S59.689,33.707,60,34.009c.564.544,1.635,1.266,1.722,1.952a6.907,6.907,0,0,1-.532,2.435c-.7,2.352-1.388,4.527-2.185,6.624" transform="translate(-3829.658 3036.003)" fill="#231f20"/>
        <path id="Path_2264" data-name="Path 2264" d="M122.877,124.477c.089-.119.579-.3,1.265.031,0,0-.813.135-.745,1.49l-.339-.068s-.35-1.229-.181-1.454" transform="translate(-3904.491 2940.262)" fill="#fff"/>
        <path id="Path_2265" data-name="Path 2265" d="M155.809,195.019a.372.372,0,1,1-.372-.372.372.372,0,0,1,.372.372m.373,1.727a.373.373,0,1,1-.373-.373.373.373,0,0,1,.373.373" transform="translate(-3931.485 2881.367)" fill="#1d1919"/>
      </g>
      <path id="Path_3007" data-name="Path 3007" d="M5.28.28A4.722,4.722,0,0,1,.66-2.38L3.04-3.74A2.306,2.306,0,0,0,5.28-2.42a2.284,2.284,0,0,0,1.64-.52,1.879,1.879,0,0,0,.54-1.42V-14H10.2v9.64A4.326,4.326,0,0,1,8.82-.94,5.147,5.147,0,0,1,5.28.28Zm9.36-4.22a2.563,2.563,0,0,0,2.82,1.88,2.639,2.639,0,0,0,2.24-1l2.08,1.2A4.96,4.96,0,0,1,17.42.28a5.38,5.38,0,0,1-3.98-1.5A5.125,5.125,0,0,1,11.94-5a5.17,5.17,0,0,1,1.48-3.77,5.09,5.09,0,0,1,3.8-1.51,4.768,4.768,0,0,1,3.63,1.52A5.278,5.278,0,0,1,22.28-5a6.04,6.04,0,0,1-.1,1.06Zm-.04-2h5.1a2.417,2.417,0,0,0-.91-1.52,2.608,2.608,0,0,0-1.57-.5,2.714,2.714,0,0,0-1.72.53A2.533,2.533,0,0,0,14.6-5.94Zm15.04-4.34a3.62,3.62,0,0,1,2.71,1.1,4.175,4.175,0,0,1,1.07,3.04V0H30.84V-5.82a2.049,2.049,0,0,0-.54-1.53,1.967,1.967,0,0,0-1.44-.53,2.124,2.124,0,0,0-1.6.62,2.579,2.579,0,0,0-.6,1.86V0H24.08V-10h2.58v1.12A3.331,3.331,0,0,1,29.64-10.28ZM44.84,0h-3L38.2-4.54V0H35.62V-14H38.2v8.4L41.64-10h3.08L40.7-5.06ZM47.4-11.2a1.518,1.518,0,0,1-1.11-.47,1.518,1.518,0,0,1-.47-1.11,1.551,1.551,0,0,1,.47-1.12,1.5,1.5,0,0,1,1.11-.48,1.525,1.525,0,0,1,1.13.48A1.551,1.551,0,0,1,49-12.78a1.518,1.518,0,0,1-.47,1.11A1.541,1.541,0,0,1,47.4-11.2ZM46.12,0V-10H48.7V0Zm10.5-10.28a3.62,3.62,0,0,1,2.71,1.1A4.175,4.175,0,0,1,60.4-6.14V0H57.82V-5.82a2.049,2.049,0,0,0-.54-1.53,1.967,1.967,0,0,0-1.44-.53,2.124,2.124,0,0,0-1.6.62,2.579,2.579,0,0,0-.6,1.86V0H51.06V-10h2.58v1.12A3.331,3.331,0,0,1,56.62-10.28Zm8.36,3.12q0,.4.53.65a7.068,7.068,0,0,0,1.29.44,13.333,13.333,0,0,1,1.52.48,2.95,2.95,0,0,1,1.29.97,2.682,2.682,0,0,1,.53,1.7A2.747,2.747,0,0,1,68.99-.55a4.777,4.777,0,0,1-2.87.83,4.207,4.207,0,0,1-4.2-2.38l2.24-1.26a1.854,1.854,0,0,0,1.96,1.3q1.38,0,1.38-.86,0-.4-.53-.65a7.565,7.565,0,0,0-1.29-.45,13.487,13.487,0,0,1-1.52-.5,3.121,3.121,0,0,1-1.29-.95,2.5,2.5,0,0,1-.53-1.63,2.794,2.794,0,0,1,1.09-2.33,4.273,4.273,0,0,1,2.71-.85,4.529,4.529,0,0,1,2.22.55,4.02,4.02,0,0,1,1.58,1.57l-2.2,1.2a1.646,1.646,0,0,0-1.6-1.02,1.465,1.465,0,0,0-.83.22A.686.686,0,0,0,64.98-7.16Z" transform="translate(1347 2703)" fill="#fff"/>
    </g>
  </g>
</svg>
