<svg xmlns="http://www.w3.org/2000/svg" xmlns:xlink="http://www.w3.org/1999/xlink" width="100" height="100" viewBox="0 0 100 100">
  <defs>
    <clipPath id="clip-icon">
      <rect width="100" height="100"/>
    </clipPath>
  </defs>
  <g id="icon" clip-path="url(#clip-icon)">
    <g id="Group_3499" data-name="Group 3499">
      <g id="Group_3498" data-name="Group 3498">
        <path id="Path_3003" data-name="Path 3003" d="M60.182,71.846c0,15.67-12.424,28.386-27.759,28.386S4.664,87.516,4.664,71.846,17.088,43.46,32.423,43.46,60.182,56.175,60.182,71.846" transform="translate(17.499 -30.722)"/>
        <path id="Path_3004" data-name="Path 3004" d="M4.729,85.022S2.714,55.428,30,54.577L28.1,51.4l-14.8,4.97L9.072,61.226,5.379,68.3l-2.1,8.238L3.9,82.045" transform="translate(18.575 -36.869)"/>
        <path id="Path_3005" data-name="Path 3005" d="M10.5,49.87a28.008,28.008,0,0,0,0,38.952,26.441,26.441,0,0,0,38.012,0,28.009,28.009,0,0,0,0-38.952,26.441,26.441,0,0,0-38.012,0ZM9.265,90.008a29.71,29.71,0,0,1,0-41.347,28.17,28.17,0,0,1,40.474,0,29.71,29.71,0,0,1,0,41.347,28.17,28.17,0,0,1-40.474,0Z" transform="translate(20.419 -28.11)"/>
        <path id="Path_3006" data-name="Path 3006" d="M77.149,42.343l-4.231.627-5.708.649-3.694.09-3.6-.112-2.754-.851L54.717,40.1l-1.9-5.4-.425-1.164-2.53-.851-1.478-2.44L47.33,26.762,48.494,23.7l2.754-.963,2.216,1.052,1.052,2.328,1.276-.2.425-.537-.425-2.44-.112-3.067.627-4.231-.022-2.418L58.21,10.13l3.38-2.44L67.5,5.16l6.559.962,5.708,4.119,2.642,4.231,1.7,3.067.426,7.611L83.26,31.71,80.932,37.53l-2.194,3.112" transform="translate(-15.541 -1.063)"/>
        <path id="Path_3007" data-name="Path 3007" d="M61.2,183.113l-15.111.627v2.53l1.276,8.887-.627.739-10.566-3.6-.739-1.276-1.052-11.954L31.892,171.9l-.537-1.7,8.462-5.82,2.642-1.052,2.328,2.865L46.8,167.98l2.328.739,1.052.314,1.276,5.507.963,1.164,2.44-.851-1.7,3.291,9.178,4.343-1.142.627" transform="translate(-3.17 -123.543)"/>
        <path id="Path_3008" data-name="Path 3008" d="M51.03,27.2l2.754-.962L56,27.288l1.052,2.328,1.276-.2.314-1.276-.627-2.44.627-5.82L58.1,16.7l1.9-2.216,4.119-3.268L62.962,9.625l-5.82,2.865-2.44,1.9-1.366,2.955-2.1,2.865-.627,3.38.425,3.6" transform="translate(-18.077 -4.52)"/>
        <path id="Path_3009" data-name="Path 3009" d="M55.373,18.555s1.589-3.918,7.925-5.82.314-1.366.314-1.366l-6.873,2.642L54.1,16.652l-1.164,2.1,2.44-.2m-3.179,9.2s-2.216-7.41,6.246-8.462l-.313-1.276-5.82,1.366-1.7,5.507.425,3.6,1.164-.739" transform="translate(-18.077 -5.817)"/>
        <path id="Path_3010" data-name="Path 3010" d="M52.732,30.025l1.388-1.343a.892.892,0,0,1,.739.806c.112.739.425,7.41,4.97,10.992.425.336-3.38-.537-3.38-.537l-3.381-5.283M72.185,28.01s.246-3.2,1.119-2.955a1.2,1.2,0,0,1,.873,1.119s-2.1,1.343-1.992,1.836m8.775-11.73s-1.746.358-1.9,1.9,1.9.313,2.216.2m-13.1-1.992s-2.328.313-2.328,1.791,2.642,1.365,3.38.739M53.806,23.264s-4.007-2.44-4.432-.112S48.009,27.159,50,29.6l-1.366-.425L47.36,25.906l-.425-3.179,2.44-2.53,2.753.2,1.589,1.276.09,1.589m1.9-6.671S57.5,7.28,66.589,5.489C74.066,4.012,78.006,5.8,79.483,7.5c0,0-6.671-7.925-13.006-5.507C60.142,4.437,55.485,8.87,55.6,11.713c.179,4.88.112,4.88.112,4.88M80.222,8.556s-3.067-.112-3.179,2.641a2.217,2.217,0,0,0,.2.851s2.44-2.754,3.918-1.276" transform="translate(-15.234 1.742)" fill="#16191a"/>
        <path id="Path_3011" data-name="Path 3011" d="M114.189,40.732s-.537-4.209-4.119-1.769c-2.328,1.589-2.1,3.806-1.7,4.231.425.425.313,1.276.627.694s.224-2.485,1.388-3.022c1.142-.537,3.067-1.119,3.806-.134" transform="translate(-62.611 -26.65)"/>
        <path id="Path_3012" data-name="Path 3012" d="M44.885,165.881l-9.94,4.432s4.119,16.387,2.015,21.468l-1.477-.537L35.371,185l-2.754-11.82-1.164-3.269,10.365-6.984,3.067,2.955m1.008,9.066,1.41,1.724v6.335H45.624s-.2-4.432-.2-4.97.2-2.44.2-2.44m.313,8.372-4.768.2,1.366.963,3.38.537" transform="translate(-3.246 -123.235)"/>
        <path id="Path_3013" data-name="Path 3013" d="M167.789,251.151l3.917-.112.963,9.715-4.007.537-.873-10.141" transform="translate(-108.823 -191.469)" fill="#1a1a1a"/>
        <path id="Path_3014" data-name="Path 3014" d="M172.453,177.847l5.91-.314s2.44-6.134,2.44-6.447,2.1-8.887,2.1-8.887l-4.768-4.97-.963-.851-2.53,2.53v9.828l-2.194,9.111" transform="translate(-112.435 -118.165)"/>
        <path id="Path_3015" data-name="Path 3015" d="M171.483,177.185l-3.694.739.537,2.955c1.365.627,3.694-1.052,3.694-1.052m-.426-21.155,7.41,5.507.2-2.53-5.6-5.171-2.015,2.194" transform="translate(-108.823 -118.242)"/>
        <path id="Path_3016" data-name="Path 3016" d="M100.016,272.277l-2.194-8.887-1.1-6.559-.179-4.858,9.917-.537h6.156l-.56,11.1.962,8.574-.112,1.589-8.037.627-4.858-1.052" transform="translate(-53.653 -191.776)"/>
        <path id="Path_3017" data-name="Path 3017" d="M138.531,248.887s-.537,10.992,1.052,18.827a20.054,20.054,0,0,1-7.813,2.53l8.887-.313,1.052-.627-1.276-17.327-.336-3.716" transform="translate(-80.931 -189.317)" fill="#16191a"/>
        <path id="Path_3018" data-name="Path 3018" d="M186.273,250.091l4.119-1.164,7.813-.425,1.164-3.6-2.1-6.246-2.44-.313-3.38,1.052-3.224,1.589-1.724-.314-1.343.537" transform="translate(-122.27 -181.633)"/>
        <path id="Path_3019" data-name="Path 3019" d="M189.817,255.187A15.15,15.15,0,0,1,193,254.023l-1.164-5.82,1.366-.537s.963,5.507.963,6.134c0,0,5.91.313,6.447.313a9.624,9.624,0,0,0,.963-4.97l1.164,3.38.112,1.9-1.7,2.53-1.9.426-3.179-.112-1.052-1.366-3.694.537-1.164.426" transform="translate(-125.881 -188.856)" fill="#1c1c1c"/>
        <path id="Path_3020" data-name="Path 3020" d="M154.994,210.421l-2.328-5.91-2.44-3.492s.537-1.477,1.276-1.477h2.44l2.328.851-.2,3.918-1.075,6.111" transform="translate(-95.223 -151.589)" fill="#16191a"/>
        <path id="Path_3021" data-name="Path 3021" d="M154.927,207.561s-2.955-5.708-2.955-6.559c0,0,.537-1.276,1.276-.962s2.328,1.164,2.328,1.164v-2.015l-3.6-.739-2.44.313,4.119,9.76.851.112" transform="translate(-94.685 -150.744)" fill="#16191a"/>
        <path id="Path_3022" data-name="Path 3022" d="M96.576,173.021l-2.932-.314-2.754-.851v.963l1.343,1.478,4.231,1.9" transform="translate(-49.273 -130.151)"/>
        <path id="Path_3023" data-name="Path 3023" d="M94.158,178.406s3.268,1.366,4.343,1.052l.112,1.276-2.955-.627-1.791-1.276.291-.425" transform="translate(-51.579 -135.222)"/>
        <path id="Path_3024" data-name="Path 3024" d="M172.057,181.017a19.546,19.546,0,0,1-4.836-.672,11.054,11.054,0,0,1,.067-1.567,3.694,3.694,0,0,1,1.656-.358,2.862,2.862,0,0,0-1.836-.2,3.042,3.042,0,0,0-.314-.963c1.008-.358,3.381-2.709,4.724-1.948.649.381.918,2.485.963,3.537a3.7,3.7,0,0,1-.425,2.172" transform="translate(-108.054 -132.707)" fill="#d33833"/>
        <path id="Path_3025" data-name="Path 3025" d="M172.057,181.017a19.546,19.546,0,0,1-4.836-.672,11.054,11.054,0,0,1,.067-1.567,3.694,3.694,0,0,1,1.656-.358,2.862,2.862,0,0,0-1.836-.2,3.042,3.042,0,0,0-.314-.963c1.008-.358,3.381-2.709,4.724-1.948.649.381.918,2.485.963,3.537A3.7,3.7,0,0,1,172.057,181.017Z" transform="translate(-108.054 -132.707)" stroke="#000" stroke-width="2"/>
        <path id="Path_3026" data-name="Path 3026" d="M125.16,179.581a2.414,2.414,0,0,1-.023.4c-.56.358-1.455.358-2.082.672a5.867,5.867,0,0,1,2.239.56c-.023.336-.023.694-.045,1.03-1.03.694-1.97,1.746-3.179,2.418-.582.314-2.574,1.119-3.179.963-.336-.09-.381-.515-.515-.918a13.293,13.293,0,0,1-1.03-3.537c-.067-1.634-.246-4.388,1.522-4.052a15.437,15.437,0,0,1,4.186,1.522,4.251,4.251,0,0,0,2.1.94" transform="translate(-69.731 -134.204)" fill="#d33833"/>
        <path id="Path_3027" data-name="Path 3027" d="M125.16,179.581a2.414,2.414,0,0,1-.023.4c-.56.358-1.455.358-2.082.672a5.867,5.867,0,0,1,2.239.56c-.023.336-.023.694-.045,1.03-1.03.694-1.97,1.746-3.179,2.418-.582.314-2.574,1.119-3.179.963-.336-.09-.381-.515-.515-.918a13.293,13.293,0,0,1-1.03-3.537c-.067-1.634-.246-4.388,1.522-4.052a15.437,15.437,0,0,1,4.186,1.522A4.251,4.251,0,0,0,125.16,179.581Z" transform="translate(-69.731 -134.204)" stroke="#000" stroke-width="2"/>
        <path id="Path_3028" data-name="Path 3028" d="M155.6,188.938a6.123,6.123,0,0,1-.269-1.925c2.4-1.589,2.821,2.731.268,1.925" transform="translate(-99.168 -141.613)" fill="#d33833"/>
        <path id="Path_3029" data-name="Path 3029" d="M155.6,188.938a6.123,6.123,0,0,1-.269-1.925c2.4-1.589,2.821,2.731.268,1.925Z" transform="translate(-99.168 -141.613)" stroke="#000" stroke-width="2"/>
        <path id="Path_3030" data-name="Path 3030" d="M126.978,178.116s-.739-1.052-.2-1.366,1.052,0,1.366-.537,0-.851.112-1.478.627-.739,1.164-.851,2.015-.314,2.216.2l-.627-1.9-1.276-.425-4.007,2.328-.2,1.164v2.328m-9.648,4.029c-.134-1.657-.268-3.291-.4-4.947-.224-2.462.582-2.037,2.731-2.037a5.514,5.514,0,0,1,2.127.627c.582,1.186-.963.918.671,1.813,1.366.739,3.806-.448,3.246-2.127-.314-.381-1.612-.112-2.082-.358L119.68,173.3c-1.052-.537-3.47-1.343-4.589-.582-2.843,1.925.179,6.761,1.186,8.775" transform="translate(-67.094 -130.074)"/>
        <path id="Path_3031" data-name="Path 3031" d="M73.958,43.563c-2.888-.672-4.32,1.209-5.194,3.156-.784-.179-.47-1.253-.268-1.791.515-1.41,2.6-3.313,4.3-3.045.716.09,1.7.761,1.164,1.679m14.036,3.268h.134a30.293,30.293,0,0,0,2.037,3.985c-.56,1.3-4.164,2.418-4.119.134.784-.336,2.127-.067,2.821-.515a7.853,7.853,0,0,1-.873-3.6m-12.581.045c.627,1.142.828,2.328,1.7,3.179.4.38,1.164.851.784,1.925a2.463,2.463,0,0,1-1.119.918c-1.365.4-4.567.09-3.492-1.634,1.142.045,2.664.739,3.515-.09-.649-1.03-1.813-3.089-1.388-4.3M87.479,58.383c-2.06,1.321-4.366,2.776-7.768,2.44a2.291,2.291,0,0,1-.291-2.955c.358.627.134,1.791,1.164,1.97,1.925.336,4.164-1.186,5.552-1.7.851-1.455-.067-1.97-.851-2.91-1.589-1.9-3.694-4.276-3.627-7.119.649-.47.694.716.784.918a26.874,26.874,0,0,0,4.41,6.067c.381.4.985.806,1.052,1.075.2.761-.515,1.7-.425,2.216M60.213,56.995c-.649-.381-.806-1.992-1.567-2.037-1.1-.067-.9,2.1-.9,3.38-.739-.671-.873-2.776-.336-3.85-.627-.314-.9.336-1.254.56.47-3.246,4.768-1.5,4.052,1.948m28.565,2.753c-.963,1.836-2.328,3.851-5.149,3.918a6.406,6.406,0,0,1,0-1.858c2.171-.224,3.515-1.321,5.149-2.06M75.256,60.935c1.791.94,5.1,1.052,7.567.985a8.163,8.163,0,0,1,.134,1.858c-3.156.134-6.873-.649-7.7-2.843m-.336,1.746c1.254,3.134,5.529,2.776,9.133,2.686a1.812,1.812,0,0,1-.94,1.052c-1.164.47-4.343.828-5.955-.022a8.311,8.311,0,0,1-2.239-2.485c-.246-.336-1.589-1.209,0-1.231" transform="translate(-22.38 -29.482)" fill="#16191a"/>
        <path id="Path_3032" data-name="Path 3032" d="M178.531,205.759a62.622,62.622,0,0,1-4.589,7.275,35.631,35.631,0,0,0,1.142-8.439,2.652,2.652,0,0,1,3.447,1.164" transform="translate(-113.588 -155.3)"/>
        <path id="Path_3033" data-name="Path 3033" d="M214.05,250.543c-1.634.336-2.776,1.925-4.388,1.813.9-1.231,2.418-1.769,4.388-1.813m.716,2.552a24.645,24.645,0,0,1-4.253.246c.649-.985,3.112-.627,4.253-.246m.47,2.216c-1.5.022-3.358,0-4.791-.112.851-.918,3.828-.336,4.791.112" transform="translate(-141.25 -191.085)" fill="#16191a"/>
        <path id="Path_3034" data-name="Path 3034" d="M175.593,298.378c.224,1.88.963,3.784.873,5.843a6.333,6.333,0,0,1-2.418.515c-.067-1.746-.313-4.432-.246-6.111.537.045,1.343-.381,1.791-.246" transform="translate(-113.471 -228.107)" fill="#dcd9d8"/>
        <path id="Path_3035" data-name="Path 3035" d="M151.24,175.429c-.761.492-1.388,1.1-2.127,1.634a4.592,4.592,0,0,1-3.649-1.03c.022-.067.134-.045.134-.134,1.724.761,3.917-.313,5.641-.47" transform="translate(-91.535 -132.917)"/>
        <path id="Path_3036" data-name="Path 3036" d="M131.175,212.8c.47-2.037,2.328-3.112,4.007-4.231,1.724,2.194,2.776,5.014,3.94,7.745a39.665,39.665,0,0,1-7.947-3.515" transform="translate(-80.47 -158.582)"/>
        <path id="Path_3037" data-name="Path 3037" d="M60.324,67.835c-.067,1.679.157,4.343.246,6.111a6.329,6.329,0,0,0,2.418-.515c.09-2.06-.649-3.962-.873-5.843C61.668,67.433,60.862,67.858,60.324,67.835ZM43.042,58.344A87.769,87.769,0,0,0,46.781,76.7a24.213,24.213,0,0,0,13.342.246c-.694-3.358-.4-7.454-.806-11.059-.314-2.709-.157-5.417-.582-8.171-4.634-.962-11.171-.224-15.693.627Zm16.79-.582c-.045,2.888.134,5.753.358,8.641a27.577,27.577,0,0,0,2.888-.515c-.336-2.776-.291-5.932-.985-8.395a7.121,7.121,0,0,0-2.261.268Zm5.619-.47a7.972,7.972,0,0,0-1.634,0c.246,2.351.806,4.947,1.007,7.432.784.022,1.209-.358,1.858-.47.045-2.172-.179-5.171-1.231-6.962Zm8.529,7.79c1.657-.4,2.686-2.418,2.216-4.5-.313-1.388-.851-4.029-1.455-4.925-.425-.649-1.612-1.522-2.574-.918-1.545.985-4.253,1.276-5.373,2.463a39.219,39.219,0,0,1,.962,6.805c1.925.112,4.276-.537,5.888.157-1.119.358-2.552.358-3.515.9a7.416,7.416,0,0,0,3.85.023ZM58.623,55.03c-1.164-2.731-2.216-5.552-3.94-7.745C53,48.4,51.168,49.479,50.676,51.516a40.827,40.827,0,0,0,7.947,3.515Zm2.865-8.439a35.608,35.608,0,0,1-1.142,8.439,64.544,64.544,0,0,0,4.589-7.275,2.653,2.653,0,0,0-3.447-1.164Zm-3.246-1.142c-.649-.067-1.209.761-2.06.4-.2.224-.381.448-.582.672,1.88,2.283,2.754,5.507,4.209,8.171.784-2.574.694-5.373.873-8.171-1.075.045-1.679-1.007-2.44-1.075ZM56.161,42.7a6.129,6.129,0,0,0,.268,1.925C58.981,45.427,58.556,41.106,56.161,42.7Zm-2.843-.94a15.419,15.419,0,0,0-4.186-1.522c-1.768-.336-1.589,2.418-1.522,4.052a13.551,13.551,0,0,0,1.03,3.537c.134.4.179.828.515.918a8.4,8.4,0,0,0,3.179-.963,32.837,32.837,0,0,0,3.179-2.418c.022-.336.022-.694.045-1.03a5.39,5.39,0,0,0-2.239-.56c.6-.314,1.522-.314,2.082-.672a2.417,2.417,0,0,1,.023-.4,4.685,4.685,0,0,1-2.1-.94ZM42.8,39.853c-.918.94,2.574,2.194,3.671,2.261,0-.582.336-1.142.268-1.567-1.321-.224-3.044-.067-3.94-.694Zm11.283.425c0,.09-.112.067-.134.134a4.642,4.642,0,0,0,3.649,1.03c.717-.515,1.366-1.142,2.127-1.634-1.746.157-3.94,1.231-5.641.47Zm10.342,3.134c-.045-1.03-.314-3.157-.963-3.537-1.343-.784-3.716,1.589-4.723,1.948a3.041,3.041,0,0,1,.313.962,2.848,2.848,0,0,1,1.836.2,3.7,3.7,0,0,0-1.656.358c-.134.425.045.985-.067,1.567A20.649,20.649,0,0,0,64,45.583,3.625,3.625,0,0,0,64.421,43.412Zm-23.17-2.664c-.291-.2-2.239-2.731-2.507-2.619A41.311,41.311,0,0,0,29.006,44.2c2.8,6.022,3.94,13.387,4.142,20.483,3.2,1.5,6.022,3.671,10.387,3.9-.515-3.559-.962-6.761-1.253-10.119-1.1-.47-2.664.023-3.694-.134,0-1.231,1.567-.537,1.7-1.365.09-.627-.873-.672-.56-1.657.806.291,1.231.94,2.082,1.186.784-1.7,0-4.723.112-6.156.023-.268.134-1.478.739-1.276.537.179-.022,3.246.023,4.589.045,1.254-.157,2.44.358,3.224a120.216,120.216,0,0,1,13.051-1.075A29.109,29.109,0,0,1,52.6,54.225c-.716-.4-2.932-1.231-3.134-1.9-.336-1.075.851-1.634,1.052-2.552-2.127,1.164-2.53-1.119-3.044-2.709a22.326,22.326,0,0,1-.828-3.38,42.448,42.448,0,0,1-5.4-2.932ZM62.563,38.42c2.933-1.41,3.47,5.306,2.306,7.477.179.649.784.9,1.03,1.477-1.634,2.933-3.447,5.664-5.127,8.552,1.231-.784,3.022-.134,4.477-.716.537-.2.918-1.433,1.321-2.418a51.65,51.65,0,0,0,2.8-8.641,10.176,10.176,0,0,0,.358-2.373c-.134-.94-1.388-1.634-2.037-2.194-1.186-1.075-1.925-1.992-3.179-3-.47.739-1.545,1.231-1.947,1.836ZM34.558,12.43c-1.388,1.545-1.1,4.41-.94,6.47,2.53-1.589,5.865.134,5.843,2.821,1.209-.023.448-1.5.224-2.463-.717-3.112,1.209-6.47.089-9.313a7.611,7.611,0,0,0-5.216,2.485ZM44.542,3.5c-3.156.9-7.208,3.2-8.507,6.044,1.007-.157,1.7-.649,2.686-.716a6.192,6.192,0,0,0,1.3.045C40.871,8.647,41.61,6.721,42.259,6c.627-.694,1.388-1.007,1.9-1.634.336-.157.828-.157.851-.649a.485.485,0,0,0-.47-.224ZM61,4.348C57.705,2.49,52.154,1.1,48.661,2.848c-2.821,1.41-6.626,3.738-7.925,6.671,1.209,2.843-.358,5.439-.47,8.327-.045,1.545.717,2.866.784,4.545-.425.694-1.679.761-2.552.716-.291-1.478-.806-3.134-2.328-3.313a3.524,3.524,0,0,0-3.828,3.4c-.112,2.194,1.679,5.82,4.231,5.574.985-.09,1.231-1.075,2.306-1.075.582,1.164-.9,1.522-1.052,2.35A5.62,5.62,0,0,0,38.05,31.5a20.222,20.222,0,0,0,2.507,5.843c1.3,1.858,3.828,2.127,6.559,2.306.493-1.052,2.283-.963,3.447-.694a11.521,11.521,0,0,1-3.783-3.089c-1.231-1.366-2.485-2.821-2.552-4.611,2.351,3.246,4.276,6.089,8.529,7.522,3.224,1.074,6.984-.493,9.469-2.239a11.179,11.179,0,0,0,2.373-2.91c2.731-3.94,4.007-9.537,3.738-14.976-.112-2.239-.112-4.477-.873-5.977-.783-1.567-3.447-3-5.014-1.567-.291-1.545,1.3-2.485,3.156-1.925C64.287,7.46,62.9,5.423,61,4.348ZM67.13,54.963c2.574-1.276,7.365-3.425,8.954,0a26.631,26.631,0,0,1,1.589,4.723c.425,1.836-.47,5.731-2.373,6.335a11.366,11.366,0,0,1-5.641.112,3.265,3.265,0,0,1-.694-.9,7.723,7.723,0,0,0-3.918.672c.112,1.074-.6,1.231-1.3,1.455-.493,1.992,1.007,4.589.649,6.38-.246,1.3-1.836,1.5-3,1.724a8.76,8.76,0,0,0,.134,1.925,2.9,2.9,0,0,1-2.6,1.679c-3.738.448-9.4.649-12.984-.649-1.008-2.462-1.791-5.44-2.619-8.238-3.492.38-6.335-1.5-9-2.754-.918-.425-2.194-.672-2.552-1.41a12.773,12.773,0,0,1-.291-3.358,51.607,51.607,0,0,0-1.253-9.828c-.381-1.522-1.075-2.843-1.545-4.3a29.993,29.993,0,0,1-1.41-4.366c-.291-1.992,1.589-2.1,2.776-2.977,1.858-1.343,3.313-2.082,5.328-3.291a11.558,11.558,0,0,0,2.6-1.679c.4-.828-.694-1.992-.985-2.641a7.959,7.959,0,0,1-.784-2.91,5.636,5.636,0,0,1-3.738-2.4C31.2,26.4,30.3,22.929,31.424,20.31c.09-.2.515-.627.582-.94a10.251,10.251,0,0,0-.269-2.127c-.112-3.425.582-6.38,2.888-7.41.94-3.738,4.3-4.97,7.455-6.828a23.464,23.464,0,0,1,3.828-1.634C50.721-.4,58.131-.062,62.138,2.96A21.35,21.35,0,0,1,67.51,8.915c2.574,5.171,2.373,13.835.582,20.148a20.713,20.713,0,0,1-1.075,3.112c-.336.716-1.388,2.127-1.276,2.753.134.649,2.418,2.373,2.91,2.843.873.851,2.552,1.97,2.686,3.045.157,1.142-.492,2.709-.828,3.806-1.075,3.671-2.149,7.052-3.381,10.342Z" transform="translate(0.007 2.704)" fill="#16191a"/>
        <path id="Path_3038" data-name="Path 3038" d="M127.849,129.043c.134-.179.9-.47,1.97.045,0,0-1.276.2-1.164,2.328l-.537-.112c.023.023-.537-1.9-.268-2.261" transform="translate(-77.837 -96.806)" fill="#16191a"/>
        <path id="Path_3039" data-name="Path 3039" d="M165.182,208.458a.582.582,0,1,1-.582-.582.578.578,0,0,1,.582.582m.582,2.709a.582.582,0,1,1-.582-.582.565.565,0,0,1,.582.582" transform="translate(-105.903 -158.044)" fill="#1d1919"/>
        <g id="Group_3496" data-name="Group 3496" transform="translate(21.334 85.896)">
          <path id="Path_3040" data-name="Path 3040" d="M9.029,369.2q-.269.034-.47.067c-.134.022-.268.045-.448.09a.429.429,0,0,0-.358.268,1.327,1.327,0,0,0-.09.448v5.462a3.233,3.233,0,0,1-.313,1.388,2.939,2.939,0,0,1-.828,1.052,3.885,3.885,0,0,1-1.209.627,4.889,4.889,0,0,1-1.411.224,3.271,3.271,0,0,1-2.1-.627,2.064,2.064,0,0,1-.806-1.724,1.6,1.6,0,0,1,.358-1.075,1.242,1.242,0,0,1,1.007-.425,1.283,1.283,0,0,1,.963.358,1.183,1.183,0,0,1,.358.873,1.316,1.316,0,0,1-.313.828,4.212,4.212,0,0,1-.716.694v.09a.584.584,0,0,0,.268.246.97.97,0,0,0,.426.09,1.586,1.586,0,0,0,1.321-.6,2.922,2.922,0,0,0,.47-1.813v-5.6a1.214,1.214,0,0,0-.067-.425c-.045-.112-.179-.2-.381-.291a2.352,2.352,0,0,0-.515-.157c-.2-.045-.358-.067-.493-.09v-.537H8.961v.56Zm8.283,7.7a4.577,4.577,0,0,1-.582.761,3.484,3.484,0,0,1-.784.6,4.237,4.237,0,0,1-.94.4,4.088,4.088,0,0,1-1.1.134,4.843,4.843,0,0,1-1.791-.291,3.423,3.423,0,0,1-1.231-.783,3.333,3.333,0,0,1-.739-1.164,4.41,4.41,0,0,1-.246-1.455,3.539,3.539,0,0,1,.268-1.365,3.956,3.956,0,0,1,.739-1.164,3.366,3.366,0,0,1,1.209-.806,4.222,4.222,0,0,1,1.612-.314,4.7,4.7,0,0,1,1.612.246,2.8,2.8,0,0,1,1.03.649,2.56,2.56,0,0,1,.582.94,3.811,3.811,0,0,1,.179,1.142v.448H12.409a3.5,3.5,0,0,0,.56,2.172,2.04,2.04,0,0,0,1.746.739,2.007,2.007,0,0,0,1.186-.358,3.184,3.184,0,0,0,.9-.918l.515.381Zm-2.664-2.664c0-.269-.022-.56-.045-.851a2,2,0,0,0-.157-.716,1.016,1.016,0,0,0-.336-.492.785.785,0,0,0-.515-.157.944.944,0,0,0-.851.537,3.6,3.6,0,0,0-.358,1.724l2.261-.045Zm12.536,4.321H22.975v-.515a1.766,1.766,0,0,0,.314-.045,1.935,1.935,0,0,0,.291-.067.491.491,0,0,0,.2-.224,1.049,1.049,0,0,0,.067-.425v-3.268a1.813,1.813,0,0,0-.268-1.074.883.883,0,0,0-.784-.358,1.316,1.316,0,0,0-.515.09,1.582,1.582,0,0,0-.47.246,1.433,1.433,0,0,0-.336.291,1.052,1.052,0,0,0-.2.268v3.739a1.086,1.086,0,0,0,.067.4.484.484,0,0,0,.224.246.749.749,0,0,0,.268.112l.336.067v.515H17.916v-.515a2.246,2.246,0,0,0,.358-.045c.112-.022.224-.045.313-.067a.51.51,0,0,0,.314-.246,1.1,1.1,0,0,0,.089-.425v-4.074a1,1,0,0,0-.112-.425,1.054,1.054,0,0,0-.291-.336,1.018,1.018,0,0,0-.314-.134,1.3,1.3,0,0,0-.425-.067v-.515l3.335-.179.112.112v1.008h.023q.245-.2.47-.425.247-.214.515-.4a3.179,3.179,0,0,1,.672-.291,2.891,2.891,0,0,1,.9-.112,2.16,2.16,0,0,1,1.7.649,2.5,2.5,0,0,1,.56,1.724v3.425a.936.936,0,0,0,.067.4.541.541,0,0,0,.291.246,1.842,1.842,0,0,0,.269.09c.112.023.224.045.381.067v.537Zm9.626,0H33.519q-.521-.93-1.119-1.813c-.336-.493-.649-.963-.94-1.366l-.4.358v1.522a1.009,1.009,0,0,0,.067.4.469.469,0,0,0,.291.246,1.1,1.1,0,0,0,.291.09,1.715,1.715,0,0,0,.336.045v.515H27.7v-.515a2.236,2.236,0,0,0,.358-.045c.112-.022.224-.045.314-.067a.509.509,0,0,0,.313-.246,1.09,1.09,0,0,0,.09-.425v-7.79a1.2,1.2,0,0,0-.112-.47.829.829,0,0,0-.291-.381,1.2,1.2,0,0,0-.4-.134,1.991,1.991,0,0,0-.493-.067v-.515l3.47-.179.112.112v7.208c.336-.313.739-.671,1.164-1.074s.784-.739,1.03-1.007c.157-.157.246-.269.246-.358a.591.591,0,0,0,.022-.157c0-.09-.067-.157-.224-.2a4.311,4.311,0,0,0-.672-.157V371.6h3.537v.493a8.424,8.424,0,0,0-1.074.358,7.593,7.593,0,0,0-.806.448q-.286.193-.56.4c-.179.134-.381.314-.627.515.448.672.873,1.276,1.253,1.836s.784,1.164,1.209,1.791a1.047,1.047,0,0,0,.537.448,3.353,3.353,0,0,0,.649.134v.537h.067Zm4.477,0h-4.41v-.515a1.962,1.962,0,0,0,.358-.045,2.933,2.933,0,0,0,.291-.067.51.51,0,0,0,.314-.246.8.8,0,0,0,.089-.425v-4.074a.855.855,0,0,0-.112-.425.68.68,0,0,0-.268-.291,1.634,1.634,0,0,0-.381-.157,2.146,2.146,0,0,0-.47-.09v-.515l3.425-.179.112.112V377.2a.927.927,0,0,0,.112.425.618.618,0,0,0,.291.246,1.3,1.3,0,0,0,.314.112c.112.023.224.045.358.067v.515h-.023Zm-1.007-9.514a1.159,1.159,0,0,1-.4.9,1.413,1.413,0,0,1-.963.381,1.467,1.467,0,0,1-.985-.381,1.193,1.193,0,0,1-.4-.9,1.24,1.24,0,0,1,.4-.918,1.427,1.427,0,0,1,.985-.381,1.373,1.373,0,0,1,.963.381,1.206,1.206,0,0,1,.4.918Zm10.88,9.514H46.951v-.515a1.76,1.76,0,0,0,.313-.045,1.928,1.928,0,0,0,.291-.067.491.491,0,0,0,.2-.224,1.053,1.053,0,0,0,.067-.425v-3.268a1.811,1.811,0,0,0-.269-1.074.883.883,0,0,0-.784-.358,1.315,1.315,0,0,0-.515.09,2.358,2.358,0,0,0-.47.246,1.433,1.433,0,0,0-.336.291,1.052,1.052,0,0,0-.2.268v3.739a1.086,1.086,0,0,0,.067.4.485.485,0,0,0,.224.246.747.747,0,0,0,.268.112l.336.067v.515H41.892v-.515A2.246,2.246,0,0,0,42.25,378c.112-.022.224-.045.313-.067a.51.51,0,0,0,.313-.246,1.094,1.094,0,0,0,.09-.425v-4.074a1.006,1.006,0,0,0-.112-.425,1.054,1.054,0,0,0-.291-.336,1.018,1.018,0,0,0-.314-.134,1.3,1.3,0,0,0-.425-.067v-.515l3.336-.179.112.112v1.008h.023q.245-.2.47-.425.247-.214.515-.4a3.179,3.179,0,0,1,.672-.291,2.891,2.891,0,0,1,.9-.112,2.159,2.159,0,0,1,1.7.649,2.5,2.5,0,0,1,.56,1.724v3.425a.936.936,0,0,0,.067.4.541.541,0,0,0,.291.246,1.847,1.847,0,0,0,.268.09c.112.023.224.045.381.067v.537h.045Zm3.873.246a4.909,4.909,0,0,1-2.328-.627l-.2.47h-.537l-.09-2.6h.515a3.035,3.035,0,0,0,.358.716,4.414,4.414,0,0,0,.56.716,3.855,3.855,0,0,0,.761.537,2.119,2.119,0,0,0,.9.224,1.523,1.523,0,0,0,.94-.246.93.93,0,0,0,.313-.761.827.827,0,0,0-.134-.47,1.361,1.361,0,0,0-.38-.314,3.775,3.775,0,0,0-.6-.246c-.224-.067-.492-.134-.806-.246a4.752,4.752,0,0,1-.806-.291,2.432,2.432,0,0,1-.694-.448,2,2,0,0,1-.492-.649,1.92,1.92,0,0,1-.179-.918,1.868,1.868,0,0,1,.828-1.589,3.614,3.614,0,0,1,2.172-.6,4.76,4.76,0,0,1,1.164.134,5.279,5.279,0,0,1,.9.291l.157-.4h.537l.112,2.373h-.493a2.935,2.935,0,0,0-.828-1.254,1.9,1.9,0,0,0-1.276-.537,1.371,1.371,0,0,0-.851.224.755.755,0,0,0-.314.627.8.8,0,0,0,.448.761,5.6,5.6,0,0,0,1.254.448,4.527,4.527,0,0,1,1.836.873,1.925,1.925,0,0,1,.582,1.41,2,2,0,0,1-.9,1.769,4.567,4.567,0,0,1-2.418.627Z" transform="translate(-0.992 -367.727)"/>
        </g>
      </g>
    </g>
  </g>
</svg>
