<svg xmlns="http://www.w3.org/2000/svg" xmlns:xlink="http://www.w3.org/1999/xlink" width="100" height="100" viewBox="0 0 100 100">
  <defs>
    <clipPath id="clip-icon">
      <rect width="100" height="100"/>
    </clipPath>
  </defs>
  <g id="icon" clip-path="url(#clip-icon)">
    <g id="kubernets_1_" data-name="kubernets(1)" transform="translate(2.468 3.835)">
      <path id="Path_3050" data-name="Path 3050" d="M33.085,92.538A7.169,7.169,0,0,1,27.433,89.8L6.16,63.363a7.136,7.136,0,0,1-1.4-6.2l7.6-33a7.189,7.189,0,0,1,3.951-4.923L47.065,4.528a7.214,7.214,0,0,1,6.321,0L84.141,19.176A7.19,7.19,0,0,1,88.091,24.1l7.6,33a7.332,7.332,0,0,1-1.4,6.2L73.018,89.742a7.358,7.358,0,0,1-5.653,2.735l-34.28.061Z" transform="translate(-2.541 -2.297)"/>
      <path id="Path_3051" data-name="Path 3051" d="M47.623,3.022a5.945,5.945,0,0,1,2.492.547L80.87,18.217a5.9,5.9,0,0,1,3.16,3.951l7.6,33a5.683,5.683,0,0,1-1.155,4.984L69.2,86.594a5.791,5.791,0,0,1-4.558,2.188h-34.1a5.791,5.791,0,0,1-4.558-2.188L4.712,60.155a6.083,6.083,0,0,1-1.155-4.984l7.6-33a5.8,5.8,0,0,1,3.16-3.951L45.071,3.508a7.319,7.319,0,0,1,2.552-.486Zm0-2.857a9.2,9.2,0,0,0-3.768.851L13.1,15.725a8.608,8.608,0,0,0-4.741,5.9l-7.6,33a8.619,8.619,0,0,0,1.7,7.415L23.736,88.479A8.587,8.587,0,0,0,30.483,91.7h34.1a8.586,8.586,0,0,0,6.747-3.221L92.6,62.039a8.574,8.574,0,0,0,1.7-7.415l-7.6-33a8.607,8.607,0,0,0-4.741-5.9L51.33,1.015a8.72,8.72,0,0,0-3.708-.85Z" transform="translate(0)"/>
      <path id="Path_3052" data-name="Path 3052" d="M104.042,76.67h-.061c-.061,0-.121,0-.121-.061-.121,0-.243-.061-.365-.061a8.313,8.313,0,0,0-1.155-.121,2.27,2.27,0,0,1-.608-.061h-.061a16.035,16.035,0,0,1-3.282-.547,1.186,1.186,0,0,1-.669-.669c0-.061-.061-.061-.061-.121l-.79-.243a24.042,24.042,0,0,0-.425-8.57,25.044,25.044,0,0,0-3.4-7.962l.608-.547v-.121a1.375,1.375,0,0,1,.3-.912,17.733,17.733,0,0,1,2.735-1.884c.182-.121.364-.182.547-.3a9.1,9.1,0,0,0,1.033-.608c.061-.061.182-.121.3-.243.061-.061.121-.061.121-.122a2.03,2.03,0,0,0,.425-2.735,1.729,1.729,0,0,0-1.4-.668,2.259,2.259,0,0,0-1.337.486l-.121.121c-.121.061-.183.183-.3.243a10.041,10.041,0,0,0-.79.851,2.792,2.792,0,0,1-.425.425,15.449,15.449,0,0,1-2.431,2.188.98.98,0,0,1-.547.183.767.767,0,0,1-.365-.061h-.121l-.73.487a29.544,29.544,0,0,0-2.492-2.31,24.273,24.273,0,0,0-12.7-5.045l-.061-.79-.121-.121a1.271,1.271,0,0,1-.486-.79,21.351,21.351,0,0,1,.183-3.282v-.061a2.162,2.162,0,0,1,.121-.608c.061-.364.121-.729.183-1.155v-.547a1.855,1.855,0,0,0-3.221-1.4,1.927,1.927,0,0,0-.547,1.4v.486a3.542,3.542,0,0,0,.182,1.155c.061.183.061.365.121.608v.061a15.718,15.718,0,0,1,.183,3.282,1.271,1.271,0,0,1-.486.79l-.121.121-.061.79a30.479,30.479,0,0,0-3.282.486A23.433,23.433,0,0,0,55.9,54.911l-.608-.425h-.121c-.121,0-.243.061-.365.061a.982.982,0,0,1-.547-.182,16.114,16.114,0,0,1-2.431-2.249,2.793,2.793,0,0,0-.425-.425,10.052,10.052,0,0,0-.79-.851c-.061-.061-.182-.121-.3-.243-.061-.061-.121-.061-.121-.121a2.124,2.124,0,0,0-1.337-.486,1.729,1.729,0,0,0-1.4.669,2.03,2.03,0,0,0,.425,2.735c.061,0,.061.061.121.061.121.061.183.182.3.243a9.216,9.216,0,0,0,1.033.608,2.453,2.453,0,0,1,.547.3,17.721,17.721,0,0,1,2.735,1.884,1.116,1.116,0,0,1,.3.912v.121l.608.547a2.147,2.147,0,0,0-.3.486,23.673,23.673,0,0,0-3.4,16.046l-.79.243c0,.061-.061.061-.061.121a1.412,1.412,0,0,1-.669.669,15.334,15.334,0,0,1-3.282.547h-.061a2.068,2.068,0,0,0-.608.061,8.311,8.311,0,0,0-1.155.121c-.121,0-.243.061-.365.061a.224.224,0,0,0-.183.061,1.993,1.993,0,0,0-1.58,2.249,1.874,1.874,0,0,0,1.945,1.4,1.333,1.333,0,0,0,.487-.061c.061,0,.121,0,.121-.061.121,0,.243-.061.364-.061a5.825,5.825,0,0,0,1.094-.425c.182-.061.364-.183.547-.243h.061a14.905,14.905,0,0,1,3.161-.912h.121a1.351,1.351,0,0,1,.79.3c.061,0,.061.061.121.061l.851-.121A24.04,24.04,0,0,0,58.7,90.042,24.649,24.649,0,0,0,61.314,91.8l-.365.79c0,.061.061.061.061.121a1.25,1.25,0,0,1,.121.973,17.1,17.1,0,0,1-1.58,2.857v.061c-.121.183-.243.3-.364.486-.243.3-.426.608-.669.973a1.323,1.323,0,0,0-.182.3.212.212,0,0,1-.061.121,1.923,1.923,0,0,0,.79,2.614,1.619,1.619,0,0,0,.729.183,2.186,2.186,0,0,0,1.823-1.155.212.212,0,0,1,.061-.121,1.339,1.339,0,0,1,.182-.3,11.418,11.418,0,0,0,.365-1.094l.183-.547a14.289,14.289,0,0,1,1.276-3.039,1.562,1.562,0,0,1,.79-.547c.061,0,.061,0,.121-.061l.426-.79a23.744,23.744,0,0,0,8.509,1.58,22.067,22.067,0,0,0,5.288-.608,27.01,27.01,0,0,0,3.16-.912l.364.669c.061,0,.061,0,.122.061a1.127,1.127,0,0,1,.79.547A20.813,20.813,0,0,1,84.531,98v.061l.183.547a7.7,7.7,0,0,0,.364,1.094c.061.121.122.183.183.3a.212.212,0,0,0,.061.121,2.064,2.064,0,0,0,1.823,1.155,1.619,1.619,0,0,0,.729-.183,1.811,1.811,0,0,0,.912-1.094,2.2,2.2,0,0,0-.121-1.519c0-.061-.061-.061-.061-.121a1.339,1.339,0,0,0-.182-.3,5.515,5.515,0,0,0-.669-.973c-.121-.182-.243-.3-.364-.486v-.061a13.607,13.607,0,0,1-1.581-2.857,1.694,1.694,0,0,1,.061-.972c0-.061.061-.061.061-.121l-.3-.729A24.109,24.109,0,0,0,96.2,78.554l.729.121c.061,0,.061-.061.121-.061a1.547,1.547,0,0,1,.79-.3h.121a14.909,14.909,0,0,1,3.161.912h.061c.182.061.364.182.547.243a5.855,5.855,0,0,0,1.094.426c.121,0,.243.061.365.061a.223.223,0,0,1,.182.061,1.341,1.341,0,0,0,.486.061,2.046,2.046,0,0,0,1.945-1.4,2.339,2.339,0,0,0-1.763-2.006ZM75.9,73.692l-2.674,1.277-2.674-1.277-.668-2.856,1.823-2.31h2.978l1.823,2.31L75.9,73.692Zm15.864-6.321a19.165,19.165,0,0,1,.425,6.138l-9.3-2.674a1.648,1.648,0,0,1-1.155-1.945,1.449,1.449,0,0,1,.365-.669L89.455,61.6a19.492,19.492,0,0,1,2.31,5.774ZM86.537,57.95,78.575,63.6a1.619,1.619,0,0,1-2.127-.365,1.356,1.356,0,0,1-.3-.669L75.6,52.662a18.448,18.448,0,0,1,10.94,5.288ZM68.911,52.965c.669-.121,1.276-.243,1.945-.364l-.547,9.725a1.664,1.664,0,0,1-1.641,1.58,1.446,1.446,0,0,1-.729-.182L59.855,57.95a18.541,18.541,0,0,1,9.056-4.984ZM56.937,61.6l7.233,6.443a1.618,1.618,0,0,1,.183,2.249,1.213,1.213,0,0,1-.729.486L54.2,73.509A19.566,19.566,0,0,1,56.937,61.6ZM55.3,78.068l9.665-1.641a1.639,1.639,0,0,1,1.7,1.277,1.738,1.738,0,0,1-.061.973L62.894,87.61a19.159,19.159,0,0,1-7.6-9.542Zm22.185,12.1a19.848,19.848,0,0,1-4.255.486,20.584,20.584,0,0,1-6.138-.972l4.8-8.692a1.6,1.6,0,0,1,1.945-.425,2.591,2.591,0,0,1,.729.668l4.68,8.449c-.547.182-1.155.3-1.763.486Zm11.852-8.448a19.3,19.3,0,0,1-5.835,5.9l-3.829-9.178a1.636,1.636,0,0,1,.851-1.884,1.941,1.941,0,0,1,.851-.182L91.1,78.007a12.236,12.236,0,0,1-1.763,3.708Z" transform="translate(-25.604 -24.113)" fill="#fff"/>
    </g>
  </g>
</svg>
