<svg xmlns="http://www.w3.org/2000/svg" xmlns:xlink="http://www.w3.org/1999/xlink" width="100" height="100" viewBox="0 0 100 100">
  <defs>
    <clipPath id="clip-icon">
      <rect width="100" height="100"/>
    </clipPath>
  </defs>
  <g id="icon" clip-path="url(#clip-icon)">
    <path id="marvel-4_1_" data-name="marvel-4(1)" d="M54.833,20.265l3.918-3.917q1.7-1.7,3.235-2.98t3.066-2.64a35.134,35.134,0,0,1,5.619-4.087,8.989,8.989,0,0,1,4.257-1.192,7.453,7.453,0,0,1,5.193,2.129,6.469,6.469,0,0,1,2.3,4.853A9.011,9.011,0,0,1,81.313,16.6a43.355,43.355,0,0,1-4,5.875Q64.029,39.848,64.029,44.957a1.956,1.956,0,0,0,2.213,2.214,6.656,6.656,0,0,0,3.747-1.448A35.992,35.992,0,0,0,75.268,40.7q1.7-1.872,4.172-5.109t4.343-5.96a18.255,18.255,0,0,1,3.15-3.746,4.627,4.627,0,0,1,2.98-1.022A4.069,4.069,0,0,1,94,28.95q0,3.237-2.98,8.6a68.933,68.933,0,0,1-7.748,10.984A52.91,52.91,0,0,1,71.1,59.6q-6.218,3.917-11.324,3.918a10.461,10.461,0,0,1-7.834-3.15,11.111,11.111,0,0,1-3.065-8.089,26.559,26.559,0,0,1,.426-4.853,32.84,32.84,0,0,1,1.277-4.768,34.889,34.889,0,0,1,2.385-5.279,66.609,66.609,0,0,1,3.916-6.215q.168-.339.852-1.362a56.491,56.491,0,0,0-8.77,8.6,81.464,81.464,0,0,0-8.77,13.367,45.962,45.962,0,0,1-4.939,7.237,5.635,5.635,0,0,1-4.257,1.788,5.845,5.845,0,0,1-4.513-1.958,6.924,6.924,0,0,1-1.788-4.854,15.722,15.722,0,0,1,.425-3.661,29.713,29.713,0,0,1,1.789-4.853,51.7,51.7,0,0,1,2.213-5.195A38.073,38.073,0,0,1,31.5,35.932l3.235-5.62a7.885,7.885,0,0,0,1.022-1.7,61.232,61.232,0,0,0-6.641,6.215q-3.244,3.5-6.215,7.238a70.094,70.094,0,0,0-5.279,7.578,61.6,61.6,0,0,0-3.832,7.408q-2.044,4.769-3.662,6.386a5.647,5.647,0,0,1-4.172,1.617A5.322,5.322,0,0,1,1.7,63.008,7.982,7.982,0,0,1,0,57.729q0-6.469,6.3-22.308a152.332,152.332,0,0,1,7.748-16.688A108.326,108.326,0,0,1,22.307,5.619a23.868,23.868,0,0,1,4.088-4.342A6.1,6.1,0,0,1,30.141,0a5.391,5.391,0,0,1,3.832,1.533A4.969,4.969,0,0,1,35.59,5.279a9.432,9.432,0,0,1-.766,3.576,51.305,51.305,0,0,1-3.662,6.471q-.778,1.313-1.533,2.639-1.022,1.788-2.554,4.513L25.2,26.225q5.108-6.13,8.94-10.387a85.5,85.5,0,0,1,6.727-6.811,26.957,26.957,0,0,1,5.194-3.747,9.228,9.228,0,0,1,4.172-1.192A5.731,5.731,0,0,1,54.323,5.7a5.31,5.31,0,0,1,1.7,4,10.106,10.106,0,0,1-.681,3.406,44.419,44.419,0,0,1-2.895,5.79l-3.576,6.471-1.362,2.554,2.043-2.213q3.066-3.234,5.279-5.449Z" transform="translate(3 17)"/>
  </g>
</svg>
