<svg xmlns="http://www.w3.org/2000/svg" xmlns:xlink="http://www.w3.org/1999/xlink" width="100" height="100" viewBox="0 0 100 100">
  <defs>
    <clipPath id="clip-icon">
      <rect width="100" height="100"/>
    </clipPath>
  </defs>
  <g id="icon" clip-path="url(#clip-icon)">
    <g id="artificial-intelligence_1_" data-name="artificial-intelligence(1)" transform="translate(2.994 2.001)">
      <g id="Group_3486" data-name="Group 3486" transform="translate(0.006 0.999)">
        <g id="Group_3485" data-name="Group 3485" transform="translate(0 0)">
          <circle id="Ellipse_661" data-name="Ellipse 661" cx="1.679" cy="1.679" r="1.679" transform="translate(25.178 41.966)"/>
          <circle id="Ellipse_662" data-name="Ellipse 662" cx="1.679" cy="1.679" r="1.679" transform="translate(35.25 52.038)"/>
          <path id="Path_2984" data-name="Path 2984" d="M137.146,158.116a1.679,1.679,0,1,0,1.679-1.679A1.679,1.679,0,0,0,137.146,158.116Z" transform="translate(-111.968 -127.899)"/>
          <circle id="Ellipse_663" data-name="Ellipse 663" cx="1.679" cy="1.679" r="1.679" transform="translate(35.25 13.431)"/>
          <path id="Path_2985" data-name="Path 2985" d="M33.109,1A12.579,12.579,0,0,0,20.184,12.859a15.091,15.091,0,0,1,5.6,1.781,1.679,1.679,0,0,1-1.628,2.936A11.754,11.754,0,0,0,6.72,27.859a11.561,11.561,0,0,0,.866,4.43,16.656,16.656,0,0,1,5.848-1.073,1.679,1.679,0,0,1,0,3.357,13.307,13.307,0,0,0-6.15,1.506,13.685,13.685,0,0,0-1.207.7c-.212.139-.411.29-.614.44-.255.19-.505.383-.745.588-.218.186-.431.378-.636.577-.156.151-.3.31-.451.47a13.678,13.678,0,0,0-1.061,1.286c-.1.146-.215.285-.314.435-.171.257-.329.525-.483.8-.116.2-.223.408-.327.616-.124.248-.254.5-.363.752A13.308,13.308,0,0,0,.59,44.1c-.057.185-.1.376-.146.564-.1.371-.178.747-.24,1.128-.028.176-.059.353-.081.53A13.765,13.765,0,0,0,.006,48a13.456,13.456,0,0,0,4.423,9.945,15.936,15.936,0,0,1,6.835-4.21,1.679,1.679,0,0,1,.987,3.209,12.542,12.542,0,0,0-6.246,4.324c-.01.013-.013.032-.024.045a12.354,12.354,0,0,0-2.394,5.37c-.015.081-.044.154-.057.235a12.66,12.66,0,0,0-.168,2.063,12.524,12.524,0,0,0,8.443,11.894c-.019-.327-.05-.651-.05-.984a18.332,18.332,0,0,1,3.69-11.082,1.678,1.678,0,0,1,2.684,2.016,15.113,15.113,0,0,0-2.719,12.064c.017.084.04.165.059.247.086.388.181.771.3,1.146.035.114.077.225.114.337.114.342.235.683.373,1.015.045.111.094.218.143.327.146.331.3.656.47.974.054.1.107.2.161.3q.272.483.576.947c.055.082.107.166.165.248.22.321.453.63.7.932.05.062.1.126.149.188.277.331.566.65.87.957.024.025.047.052.072.077a15.331,15.331,0,0,0,2.164,1.789c.118.079.238.149.357.225.263.169.527.334.8.487.168.094.341.178.512.265.235.121.473.238.715.346.191.086.386.165.581.242.237.092.473.18.715.262.2.067.406.133.611.193.25.072.505.136.762.2.2.047.4.1.6.134.294.055.592.1.891.136.171.023.339.052.512.069.477.045.957.074,1.445.074A15.124,15.124,0,0,0,45.328,79.892V66.464H31.6L30.511,71.9a5,5,0,1,1-3.389-.17l1.183-5.924a3.365,3.365,0,0,1,3.292-2.7H45.328V56.394H41.662a5.036,5.036,0,1,1,0-3.357h3.666V46.323H31.591a5.036,5.036,0,1,1,0-3.357H45.328V29.739l-4.556,6.379a3.368,3.368,0,0,1-2.739,1.4,3.3,3.3,0,0,1-1.341-.28L30.6,34.564a5.087,5.087,0,1,1,1.3-3.349c0,.084-.02.163-.025.245l6.165,2.706,7.288-10.2V17.787H41.662a5.036,5.036,0,1,1,0-3.357h3.666v-.839A12.584,12.584,0,0,0,33.109,1Z" transform="translate(-0.006 -0.999)"/>
          <path id="Path_2986" data-name="Path 2986" d="M306.884,66.745a12.349,12.349,0,0,0-2.405-5.413c-.012-.015-.013-.035-.025-.052a12.543,12.543,0,0,0-6.241-4.317,1.679,1.679,0,0,1,.987-3.209,15.936,15.936,0,0,1,6.835,4.21,13.454,13.454,0,0,0,4.421-9.945,13.794,13.794,0,0,0-.118-1.684c-.022-.18-.052-.354-.081-.53-.064-.381-.146-.757-.24-1.128-.049-.188-.089-.379-.146-.564a13.463,13.463,0,0,0-.492-1.355c-.109-.257-.237-.5-.363-.752-.1-.208-.213-.415-.327-.616-.153-.27-.312-.537-.483-.8-.1-.149-.21-.29-.314-.435a13.654,13.654,0,0,0-1.061-1.286c-.148-.158-.3-.319-.451-.47-.2-.2-.418-.391-.636-.577-.24-.2-.49-.4-.745-.588-.2-.151-.4-.3-.614-.44a13.753,13.753,0,0,0-1.207-.7,13.341,13.341,0,0,0-6.15-1.5,1.679,1.679,0,0,1,0-3.357,16.693,16.693,0,0,1,5.848,1.073,11.554,11.554,0,0,0,.866-4.43A11.753,11.753,0,0,0,286.119,17.7a1.679,1.679,0,0,1-1.682-2.907,15.066,15.066,0,0,1,5.84-1.91,12.581,12.581,0,0,0-25.142.725V29.555h5.34l1.088-5.437a5,5,0,1,1,3.387.171l-1.183,5.924a3.365,3.365,0,0,1-3.292,2.7h-5.34v8.393H268.8a5.036,5.036,0,1,1,0,3.357h-3.666v6.714h13.737a5.036,5.036,0,1,1,0,3.357H265.135V67.962l4.556-6.379a3.369,3.369,0,0,1,4.081-1.123l6.095,2.676a5.087,5.087,0,1,1-1.3,3.349c0-.086.022-.163.024-.247l-6.165-2.706-7.288,10.2v6.177A15.126,15.126,0,0,0,280.24,95.018c.489,0,.968-.028,1.445-.074.173-.017.341-.047.512-.069.3-.039.6-.079.891-.136.2-.039.4-.087.6-.134.257-.06.51-.122.762-.2.2-.06.41-.126.611-.195.24-.082.478-.169.713-.262.2-.077.391-.156.582-.242.243-.107.48-.225.715-.344.171-.087.344-.171.512-.265.274-.153.539-.317.8-.487.119-.075.242-.146.357-.225a15.249,15.249,0,0,0,2.164-1.789c.025-.025.047-.052.072-.077.3-.306.592-.624.87-.957.052-.06.1-.126.149-.188.243-.3.477-.611.7-.932.057-.082.109-.166.164-.248q.3-.461.576-.947c.055-.1.109-.2.161-.3.168-.317.322-.643.468-.972.049-.111.1-.22.144-.331.138-.331.259-.671.373-1.014.039-.113.079-.223.114-.337.114-.376.21-.759.3-1.147.019-.082.042-.163.059-.247a15.1,15.1,0,0,0-2.719-12.064,1.678,1.678,0,1,1,2.684-2.016,18.317,18.317,0,0,1,3.693,11.082c0,.332-.034.658-.05.985A12.517,12.517,0,0,0,307.1,69a12.721,12.721,0,0,0-.168-2.065C306.92,66.869,306.9,66.809,306.884,66.745Z" transform="translate(-216.456 -1.017)"/>
          <path id="Path_2987" data-name="Path 2987" d="M305.071,222.115a1.679,1.679,0,1,0-1.679,1.679A1.679,1.679,0,0,0,305.071,222.115Z" transform="translate(-246.321 -180.148)"/>
          <path id="Path_2988" data-name="Path 2988" d="M305.071,94.117a1.679,1.679,0,1,0-1.679,1.679A1.679,1.679,0,0,0,305.071,94.117Z" transform="translate(-246.321 -75.65)"/>
          <path id="Path_2989" data-name="Path 2989" d="M359.927,276.971a1.679,1.679,0,1,0-1.679,1.679A1.679,1.679,0,0,0,359.927,276.971Z" transform="translate(-291.106 -224.933)"/>
          <path id="Path_2990" data-name="Path 2990" d="M146.289,404.968a1.679,1.679,0,1,0,1.679-1.679A1.679,1.679,0,0,0,146.289,404.968Z" transform="translate(-119.432 -329.43)"/>
          <path id="Path_2991" data-name="Path 2991" d="M359.927,350.112a1.679,1.679,0,1,0-1.679,1.679A1.679,1.679,0,0,0,359.927,350.112Z" transform="translate(-291.106 -284.645)"/>
        </g>
      </g>
    </g>
  </g>
</svg>
