<svg xmlns="http://www.w3.org/2000/svg" xmlns:xlink="http://www.w3.org/1999/xlink" width="100" height="100" viewBox="0 0 100 100">
  <defs>
    <clipPath id="clip-icon">
      <rect width="100" height="100"/>
    </clipPath>
  </defs>
  <g id="icon" clip-path="url(#clip-icon)">
    <g id="robot" transform="translate(-22 3)">
      <path id="Path_2977" data-name="Path 2977" d="M162.309,162.043v-11a19.061,19.061,0,0,0,2.754-9.771V130.262A19.23,19.23,0,0,0,163.117,122H128.453a19.229,19.229,0,0,0-1.945,8.262v11.016a19.062,19.062,0,0,0,2.754,9.771v11c-2.625,2.557-8.262,10.214-8.262,28.8a2.752,2.752,0,0,0,2.754,2.754h16.523a2.752,2.752,0,0,0,2.754-2.754c0-18.591-5.637-26.247-8.262-28.8v-4.988a19.086,19.086,0,0,0,22.031,0v4.988c-2.625,2.557-8.262,10.214-8.262,28.8a2.752,2.752,0,0,0,2.754,2.754h16.523a2.752,2.752,0,0,0,2.754-2.754C170.57,172.257,164.933,164.6,162.309,162.043Zm-8.262-20.766a2.752,2.752,0,0,1-2.754,2.754H140.277a2.752,2.752,0,0,1-2.754-2.754V130.262a2.752,2.752,0,0,1,2.754-2.754h11.016a2.752,2.752,0,0,1,2.754,2.754Z" transform="translate(-73.477 -99.602)"/>
      <path id="Path_2978" data-name="Path 2978" d="M42.053,232.573c.178-6.534,1.112-10.24,2.387-12.821A13.773,13.773,0,0,1,40,216.4c-1.774,3.184-3.213,7.81-3.443,16.146A8.15,8.15,0,0,0,31,240.376a2.738,2.738,0,0,0,2.722,2.735,2.926,2.926,0,0,0,2.786-2.7,2.53,2.53,0,0,1,2.754-2.786,2.527,2.527,0,0,1,2.754,2.781,2.754,2.754,0,0,0,5.508-.027A8.159,8.159,0,0,0,42.053,232.573Z" transform="translate(0 -176.669)"/>
      <path id="Path_2979" data-name="Path 2979" d="M401.969,232.544c-.231-8.336-1.669-12.962-3.443-16.146a13.771,13.771,0,0,1-4.442,3.355c1.275,2.58,2.209,6.287,2.387,12.821a8.159,8.159,0,0,0-5.47,7.8,2.738,2.738,0,0,0,2.722,2.735h.032a2.772,2.772,0,0,0,2.754-2.7,2.754,2.754,0,1,1,5.508-.032,2.754,2.754,0,0,0,5.508,0,8.15,8.15,0,0,0-5.555-7.832Z" transform="translate(-293.906 -176.669)"/>
      <path id="Path_2980" data-name="Path 2980" d="M208.539,13.77a13.77,13.77,0,0,0-27.539,0v2.938h27.539Z" transform="translate(-122.461)"/>
      <path id="Path_2981" data-name="Path 2981" d="M241,182h5.508v5.508H241Z" transform="translate(-171.445 -148.586)"/>
      <path id="Path_2982" data-name="Path 2982" d="M96.508,138.534v-7.754a24.082,24.082,0,0,1,1.6-8.145,8.217,8.217,0,0,0-1.6,15.9Z" transform="translate(-48.984 -100.119)"/>
      <path id="Path_2983" data-name="Path 2983" d="M383.866,138.534a8.217,8.217,0,0,0-1.6-15.9,24.082,24.082,0,0,1,1.6,8.145Z" transform="translate(-286.772 -100.119)"/>
    </g>
  </g>
</svg>
