<svg xmlns="http://www.w3.org/2000/svg" width="22" height="22" viewBox="0 0 22 22">
  <g id="logo-instagram" transform="translate(-2.25 -2.25)">
    <path id="Path_3010" data-name="Path 3010" d="M17.833,4.083a4.6,4.6,0,0,1,4.584,4.584v9.167a4.6,4.6,0,0,1-4.584,4.584H8.667a4.6,4.6,0,0,1-4.584-4.584V8.667A4.6,4.6,0,0,1,8.667,4.083h9.167m0-1.833H8.667A6.435,6.435,0,0,0,2.25,8.667v9.167A6.435,6.435,0,0,0,8.667,24.25h9.167a6.435,6.435,0,0,0,6.416-6.417V8.667A6.435,6.435,0,0,0,17.833,2.25Z" fill="#fff"/>
    <path id="Path_3011" data-name="Path 3011" d="M25.937,10.25a1.372,1.372,0,1,1,.973-.4,1.375,1.375,0,0,1-.973.4Z" transform="translate(-6.729 -1.583)" fill="#fff"/>
    <path id="Path_3012" data-name="Path 3012" d="M15.625,11.958a3.667,3.667,0,1,1-3.667,3.667,3.667,3.667,0,0,1,3.667-3.667m0-1.833a5.5,5.5,0,1,0,5.5,5.5A5.5,5.5,0,0,0,15.625,10.125Z" transform="translate(-2.375 -2.375)" fill="#fff"/>
  </g>
</svg>
