<svg xmlns="http://www.w3.org/2000/svg" width="24" height="19.2" viewBox="0 0 24 19.2">
  <path id="social-twitter" d="M25.125,6.775A10.09,10.09,0,0,1,22.3,7.54a4.875,4.875,0,0,0,2.167-2.68,9.887,9.887,0,0,1-3.128,1.175,4.957,4.957,0,0,0-3.6-1.535,4.884,4.884,0,0,0-4.923,4.845,4.661,4.661,0,0,0,.127,1.105A14.035,14.035,0,0,1,2.8,5.385a4.786,4.786,0,0,0,1.53,6.47,4.875,4.875,0,0,1-2.239-.605v.06a4.868,4.868,0,0,0,3.95,4.75,5.038,5.038,0,0,1-1.3.17,4.719,4.719,0,0,1-.925-.09,4.922,4.922,0,0,0,4.6,3.365A9.98,9.98,0,0,1,2.3,21.58a10.151,10.151,0,0,1-1.175-.07A13.934,13.934,0,0,0,8.662,23.7,13.8,13.8,0,0,0,22.684,9.91c0-.21-.006-.42-.016-.625a9.924,9.924,0,0,0,2.457-2.51Z" transform="translate(-1.125 -4.5)" fill="#fff"/>
</svg>
