<svg xmlns="http://www.w3.org/2000/svg" width="330" height="400" viewBox="0 0 330 400">
  <g id="Group_3539" data-name="Group 3539" transform="translate(-10629 -1922)">
    <rect id="Rectangle_873" data-name="Rectangle 873" width="330" height="400" rx="30" transform="translate(10629 1922)" fill="#0d0f10"/>
    <g id="logo" transform="translate(10651 2003.7)">
      <circle id="Ellipse_711" data-name="Ellipse 711" cx="3.001" cy="3.001" r="3.001" transform="translate(137.379 19.462)" fill="#fff"/>
      <circle id="Ellipse_712" data-name="Ellipse 712" cx="3.001" cy="3.001" r="3.001" transform="translate(180.106 68.311)" fill="#fff"/>
      <circle id="Ellipse_713" data-name="Ellipse 713" cx="3.001" cy="3.001" r="3.001" transform="translate(160.543 219.418)" fill="#fff"/>
      <circle id="Ellipse_714" data-name="Ellipse 714" cx="3.001" cy="3.001" r="3.001" transform="translate(131.618 222.299)" fill="#fff"/>
      <rect id="Rectangle_750" data-name="Rectangle 750" width="1.08" height="47.169" transform="translate(212.392 52.348)" fill="#fff"/>
      <rect id="Rectangle_751" data-name="Rectangle 751" width="1.08" height="29.765" transform="translate(222.834 102.277)" fill="#fff"/>
      <rect id="Rectangle_752" data-name="Rectangle 752" width="1.08" height="23.764" transform="translate(233.036 108.998)" fill="#fff"/>
      <rect id="Rectangle_753" data-name="Rectangle 753" width="1.08" height="39.727" transform="translate(241.438 100.597)" fill="#fff"/>
      <rect id="Rectangle_754" data-name="Rectangle 754" width="1.08" height="16.563" transform="translate(191.388 92.195)" fill="#fff"/>
      <rect id="Rectangle_755" data-name="Rectangle 755" width="1.08" height="11.162" transform="translate(199.55 84.754)" fill="#fff"/>
      <rect id="Rectangle_756" data-name="Rectangle 756" width="1.08" height="42.128" transform="translate(203.151 39.266)" fill="#fff"/>
      <rect id="Rectangle_757" data-name="Rectangle 757" width="1.08" height="18.243" transform="translate(166.064 102.397)" fill="#fff"/>
      <rect id="Rectangle_758" data-name="Rectangle 758" width="1.08" height="11.882" transform="translate(150.581 13.821)" fill="#fff"/>
      <rect id="Rectangle_759" data-name="Rectangle 759" width="1.08" height="16.083" transform="translate(144.46 31.824)" fill="#fff"/>
      <rect id="Rectangle_760" data-name="Rectangle 760" width="1.08" height="5.401" transform="translate(188.268 31.104)" fill="#fff"/>
      <rect id="Rectangle_761" data-name="Rectangle 761" width="1.08" height="23.284" transform="translate(177.946 97.116)" fill="#fff"/>
      <g id="Group_3520" data-name="Group 3520" transform="translate(148.301 99.036)">
        <circle id="Ellipse_715" data-name="Ellipse 715" cx="3.001" cy="3.001" r="3.001" fill="#fff"/>
        <rect id="Rectangle_762" data-name="Rectangle 762" width="1.08" height="40.687" transform="translate(2.4 5.521)" fill="#fff"/>
      </g>
      <rect id="Rectangle_763" data-name="Rectangle 763" width="1.08" height="50.049" transform="translate(128.617 105.278)" fill="#fff"/>
      <rect id="Rectangle_764" data-name="Rectangle 764" width="1.08" height="48.249" transform="translate(117.215 109.478)" fill="#fff"/>
      <rect id="Rectangle_765" data-name="Rectangle 765" width="1.08" height="53.05" transform="translate(106.773 79.233)" fill="#fff"/>
      <rect id="Rectangle_766" data-name="Rectangle 766" width="1.08" height="27.365" transform="translate(98.372 72.632)" fill="#fff"/>
      <rect id="Rectangle_767" data-name="Rectangle 767" width="1.08" height="14.043" transform="translate(116.671 69.302) rotate(45)" fill="#fff"/>
      <rect id="Rectangle_768" data-name="Rectangle 768" width="1.08" height="64.332" transform="translate(86.849 70.111)" fill="#fff"/>
      <rect id="Rectangle_769" data-name="Rectangle 769" width="1.08" height="20.404" transform="translate(63.445 52.468)" fill="#fff"/>
      <rect id="Rectangle_770" data-name="Rectangle 770" width="1.08" height="8.762" transform="matrix(0.809, 0.588, -0.588, 0.809, 68.68, 45.337)" fill="#fff"/>
      <rect id="Rectangle_771" data-name="Rectangle 771" width="1.08" height="7.201" transform="matrix(0.652, 0.758, -0.758, 0.652, 80.677, 49.301)" fill="#fff"/>
      <rect id="Rectangle_772" data-name="Rectangle 772" width="1.08" height="38.047" transform="translate(37.52 107.798)" fill="#fff"/>
      <rect id="Rectangle_773" data-name="Rectangle 773" width="1.08" height="15.723" transform="translate(48.923 142.004)" fill="#fff"/>
      <rect id="Rectangle_774" data-name="Rectangle 774" width="1.08" height="12.722" transform="translate(77.608 64.83)" fill="#fff"/>
      <rect id="Rectangle_775" data-name="Rectangle 775" width="1.08" height="7.801" transform="translate(48.682 113.919)" fill="#fff"/>
      <rect id="Rectangle_776" data-name="Rectangle 776" width="1.08" height="8.522" transform="matrix(0.732, -0.682, 0.682, 0.732, 50.233, 78.487)" fill="#fff"/>
      <rect id="Rectangle_777" data-name="Rectangle 777" width="1.08" height="33.966" transform="translate(162.943 185.932)" fill="#fff"/>
      <rect id="Rectangle_778" data-name="Rectangle 778" width="1.08" height="26.765" transform="translate(177.346 191.213)" fill="#fff"/>
      <rect id="Rectangle_779" data-name="Rectangle 779" width="1.08" height="24.364" transform="matrix(0.678, -0.735, 0.735, 0.678, 185.707, 194.046)" fill="#fff"/>
      <rect id="Rectangle_780" data-name="Rectangle 780" width="1.08" height="24.124" transform="translate(105.213 192.293)" fill="#fff"/>
      <rect id="Rectangle_781" data-name="Rectangle 781" width="1.08" height="24.364" transform="translate(106.293 152.206)" fill="#fff"/>
      <rect id="Rectangle_782" data-name="Rectangle 782" width="1.08" height="23.404" transform="translate(98.372 117.52)" fill="#fff"/>
      <rect id="Rectangle_783" data-name="Rectangle 783" width="1.08" height="25.085" transform="translate(131.137 17.182)" fill="#fff"/>
      <rect id="Rectangle_784" data-name="Rectangle 784" width="1.08" height="18.243" transform="translate(120.696 19.942)" fill="#fff"/>
      <rect id="Rectangle_785" data-name="Rectangle 785" width="1.08" height="19.924" transform="translate(78.928 174.41)" fill="#fff"/>
      <rect id="Rectangle_786" data-name="Rectangle 786" width="1.08" height="12.602" transform="translate(121.776 176.091)" fill="#fff"/>
      <rect id="Rectangle_787" data-name="Rectangle 787" width="1.08" height="11.042" transform="translate(56.604 167.689)" fill="#fff"/>
      <rect id="Rectangle_788" data-name="Rectangle 788" width="1.08" height="10.802" transform="matrix(0.669, -0.743, 0.743, 0.669, 56.591, 178.639)" fill="#fff"/>
      <rect id="Rectangle_789" data-name="Rectangle 789" width="1.08" height="13.082" transform="translate(77.608 134.443)" fill="#fff"/>
      <rect id="Rectangle_790" data-name="Rectangle 790" width="1.08" height="11.882" transform="matrix(0.719, 0.695, -0.695, 0.719, 76.009, 116.469)" fill="#fff"/>
      <rect id="Rectangle_791" data-name="Rectangle 791" width="1.08" height="21.244" transform="matrix(0.719, 0.695, -0.695, 0.719, 76.39, 99.823)" fill="#fff"/>
      <rect id="Rectangle_792" data-name="Rectangle 792" width="1.08" height="13.202" transform="translate(68.491 91.22) rotate(43.379)" fill="#fff"/>
      <rect id="Rectangle_793" data-name="Rectangle 793" width="1.08" height="27.605" transform="translate(105.953 50.312) rotate(44.25)" fill="#fff"/>
      <rect id="Rectangle_794" data-name="Rectangle 794" width="1.08" height="20.884" transform="matrix(0.774, 0.633, -0.633, 0.774, 90.898, 48.751)" fill="#fff"/>
      <rect id="Rectangle_795" data-name="Rectangle 795" width="1.08" height="19.203" transform="translate(112.384 59.289) rotate(46.378)" fill="#fff"/>
      <rect id="Rectangle_796" data-name="Rectangle 796" width="1.08" height="6.361" transform="translate(64.045 139.004)" fill="#fff"/>
      <rect id="Rectangle_797" data-name="Rectangle 797" width="1.08" height="23.884" transform="translate(48.697 121.769) rotate(-41.018)" fill="#fff"/>
      <rect id="Rectangle_798" data-name="Rectangle 798" width="1.08" height="15.603" transform="translate(185.747 178.491)" fill="#fff"/>
      <rect id="Rectangle_799" data-name="Rectangle 799" width="1.08" height="10.802" transform="translate(89.37 181.251)" fill="#fff"/>
      <rect id="Rectangle_800" data-name="Rectangle 800" width="1.08" height="7.921" transform="matrix(0.797, -0.605, 0.605, 0.797, 89.355, 192.071)" fill="#fff"/>
      <rect id="Rectangle_801" data-name="Rectangle 801" width="1.08" height="6.961" transform="matrix(0.692, -0.722, 0.722, 0.692, 100.41, 188.134)" fill="#fff"/>
      <rect id="Rectangle_802" data-name="Rectangle 802" width="1.08" height="18.243" transform="translate(90.69 31.104)" fill="#fff"/>
      <rect id="Rectangle_803" data-name="Rectangle 803" width="1.08" height="10.682" transform="translate(80.248 39.386)" fill="#fff"/>
      <rect id="Rectangle_804" data-name="Rectangle 804" width="1.08" height="12.602" transform="translate(113.014 22.343)" fill="#fff"/>
      <rect id="Rectangle_805" data-name="Rectangle 805" width="1.08" height="5.161" transform="translate(109.663 19.44) rotate(-45)" fill="#fff"/>
      <rect id="Rectangle_806" data-name="Rectangle 806" width="1.08" height="15.603" transform="translate(155.502 190.493)" fill="#fff"/>
      <rect id="Rectangle_807" data-name="Rectangle 807" width="1.08" height="11.402" transform="translate(155.86 205.383) rotate(45)" fill="#fff"/>
      <rect id="Rectangle_808" data-name="Rectangle 808" width="1.08" height="10.562" transform="translate(148.496 183.547) rotate(-43.663)" fill="#fff"/>
      <rect id="Rectangle_809" data-name="Rectangle 809" width="1.08" height="13.202" transform="translate(233.516 147.525)" fill="#fff"/>
      <rect id="Rectangle_810" data-name="Rectangle 810" width="1.08" height="8.282" transform="translate(229.555 178.371)" fill="#fff"/>
      <rect id="Rectangle_811" data-name="Rectangle 811" width="1.08" height="6.841" transform="matrix(0.676, -0.737, 0.737, 0.676, 224.881, 174.477)" fill="#fff"/>
      <rect id="Rectangle_812" data-name="Rectangle 812" width="1.08" height="7.921" transform="translate(197.39 175.37)" fill="#fff"/>
      <rect id="Rectangle_813" data-name="Rectangle 813" width="1.08" height="7.561" transform="translate(197.413 183.271) rotate(-50.816)" fill="#fff"/>
      <rect id="Rectangle_814" data-name="Rectangle 814" width="1.08" height="9.842" transform="translate(191.148 198.895)" fill="#fff"/>
      <rect id="Rectangle_815" data-name="Rectangle 815" width="1.08" height="37.087" transform="translate(139.659 114.519)" fill="#fff"/>
      <rect id="Rectangle_816" data-name="Rectangle 816" width="1.08" height="22.444" transform="translate(223.194 61.59)" fill="#fff"/>
      <rect id="Rectangle_817" data-name="Rectangle 817" width="1.08" height="10.082" transform="translate(193.069 57.389)" fill="#fff"/>
      <rect id="Rectangle_818" data-name="Rectangle 818" width="4.201" height="1.08" transform="translate(145.06 182.812)" fill="#fff"/>
      <rect id="Rectangle_819" data-name="Rectangle 819" width="45.008" height="1.08" transform="translate(163.063 134.203)" fill="#fff"/>
      <rect id="Rectangle_820" data-name="Rectangle 820" width="35.646" height="1.08" transform="translate(119.255 90.395)" fill="#fff"/>
      <rect id="Rectangle_821" data-name="Rectangle 821" width="34.086" height="1.08" transform="translate(116.615 69.271)" fill="#fff"/>
      <rect id="Rectangle_822" data-name="Rectangle 822" width="29.285" height="1.08" transform="translate(124.416 79.473)" fill="#fff"/>
      <rect id="Rectangle_823" data-name="Rectangle 823" width="21.124" height="1.08" transform="translate(112.294 59.309)" fill="#fff"/>
      <rect id="Rectangle_824" data-name="Rectangle 824" width="28.805" height="1.08" transform="translate(167.984 144.525)" fill="#fff"/>
      <rect id="Rectangle_825" data-name="Rectangle 825" width="1.08" height="3.001" transform="translate(238.917 81.153)" fill="#fff"/>
      <rect id="Rectangle_826" data-name="Rectangle 826" width="9.362" height="1.08" transform="translate(194.629 123.761)" fill="#fff"/>
      <rect id="Rectangle_827" data-name="Rectangle 827" width="6.001" height="1.08" transform="translate(149.021 175.01)" fill="#fff"/>
      <rect id="Rectangle_828" data-name="Rectangle 828" width="18.483" height="1.08" transform="translate(155.022 165.169)" fill="#fff"/>
      <rect id="Rectangle_829" data-name="Rectangle 829" width="21.244" height="1.08" transform="matrix(0.723, 0.691, -0.691, 0.723, 140.374, 150.761)" fill="#fff"/>
      <rect id="Rectangle_830" data-name="Rectangle 830" width="10.682" height="1.08" transform="translate(203.155 124.128) rotate(-48.718)" fill="#fff"/>
      <rect id="Rectangle_831" data-name="Rectangle 831" width="24.965" height="1.08" transform="translate(222.808 102.314) rotate(-49.161)" fill="#fff"/>
      <rect id="Rectangle_832" data-name="Rectangle 832" width="16.803" height="1.08" transform="matrix(0.721, -0.693, 0.693, 0.721, 191.287, 92.182)" fill="#fff"/>
      <rect id="Rectangle_833" data-name="Rectangle 833" width="28.805" height="1.08" transform="translate(162.823 153.886)" fill="#fff"/>
      <rect id="Rectangle_834" data-name="Rectangle 834" width="15.483" height="1.08" transform="matrix(0.784, 0.621, -0.621, 0.784, 151.356, 144.494)" fill="#fff"/>
      <rect id="Rectangle_835" data-name="Rectangle 835" width="5.401" height="1.08" transform="translate(102.692 41.306)" fill="#fff"/>
      <rect id="Rectangle_836" data-name="Rectangle 836" width="5.161" height="1.08" transform="translate(106.053 50.308)" fill="#fff"/>
      <rect id="Rectangle_837" data-name="Rectangle 837" width="1.08" height="6.601" transform="translate(91.17 206.336)" fill="#fff"/>
      <rect id="Rectangle_838" data-name="Rectangle 838" width="1.08" height="17.763" transform="translate(78.944 194.382) rotate(-44.55)" fill="#fff"/>
      <rect id="Rectangle_839" data-name="Rectangle 839" width="4.201" height="1.08" transform="translate(64.645 184.732)" fill="#fff"/>
      <rect id="Rectangle_840" data-name="Rectangle 840" width="1.08" height="7.921" transform="translate(122.065 187.906) rotate(45)" fill="#fff"/>
      <rect id="Rectangle_841" data-name="Rectangle 841" width="1.08" height="18.003" transform="translate(132.698 174.29)" fill="#fff"/>
      <rect id="Rectangle_842" data-name="Rectangle 842" width="1.08" height="23.884" transform="matrix(0.722, 0.692, -0.692, 0.722, 133.096, 191.567)" fill="#fff"/>
      <rect id="Rectangle_843" data-name="Rectangle 843" width="1.08" height="33.606" transform="matrix(0.695, 0.719, -0.719, 0.695, 144.442, 196.897)" fill="#fff"/>
      <rect id="Rectangle_844" data-name="Rectangle 844" width="1.08" height="21.484" transform="matrix(0.695, -0.719, 0.719, 0.695, 196.057, 145.329)" fill="#fff"/>
      <rect id="Rectangle_845" data-name="Rectangle 845" width="1.08" height="13.562" transform="matrix(0.695, -0.719, 0.719, 0.695, 187.903, 166.71)" fill="#fff"/>
      <rect id="Rectangle_846" data-name="Rectangle 846" width="1.08" height="18.723" transform="translate(172.821 165.976) rotate(-45)" fill="#fff"/>
      <rect id="Rectangle_847" data-name="Rectangle 847" width="1.08" height="32.046" transform="translate(191.028 154.588) rotate(-45)" fill="#fff"/>
      <rect id="Rectangle_848" data-name="Rectangle 848" width="1.08" height="7.201" transform="matrix(0.695, -0.719, 0.719, 0.695, 106.376, 176.59)" fill="#fff"/>
      <rect id="Rectangle_849" data-name="Rectangle 849" width="1.08" height="6.121" transform="matrix(0.669, -0.743, 0.743, 0.669, 117.573, 172.675)" fill="#fff"/>
      <rect id="Rectangle_850" data-name="Rectangle 850" width="1.08" height="23.524" transform="matrix(0.74, -0.672, 0.672, 0.74, 117.161, 157.693)" fill="#fff"/>
      <rect id="Rectangle_851" data-name="Rectangle 851" width="1.08" height="29.165" transform="matrix(0.715, -0.699, 0.699, 0.715, 128.643, 155.264)" fill="#fff"/>
      <rect id="Rectangle_852" data-name="Rectangle 852" width="1.08" height="44.048" transform="matrix(0.704, 0.71, -0.71, 0.704, 98.559, 140.175)" fill="#fff"/>
      <rect id="Rectangle_853" data-name="Rectangle 853" width="1.08" height="23.044" transform="translate(95.251 158.214) rotate(45)" fill="#fff"/>
      <rect id="Rectangle_854" data-name="Rectangle 854" width="1.08" height="9.722" transform="matrix(0.772, 0.635, -0.635, 0.772, 95.478, 173.708)" fill="#fff"/>
      <rect id="Rectangle_855" data-name="Rectangle 855" width="1.08" height="11.042" transform="matrix(0.788, 0.616, -0.616, 0.788, 63.488, 158.962)" fill="#fff"/>
      <rect id="Rectangle_856" data-name="Rectangle 856" width="1.08" height="17.163" transform="translate(154.163 91.188) rotate(-45.365)" fill="#fff"/>
      <rect id="Rectangle_857" data-name="Rectangle 857" width="1.08" height="9.362" transform="translate(171.132 92.958) rotate(-48.99)" fill="#fff"/>
      <rect id="Rectangle_858" data-name="Rectangle 858" width="1.08" height="12.122" transform="matrix(0.951, 0.308, -0.308, 0.951, 181.277, 86.666)" fill="#fff"/>
      <rect id="Rectangle_859" data-name="Rectangle 859" width="1.08" height="6.001" transform="translate(186.031 82.938) rotate(51.741)" fill="#fff"/>
      <rect id="Rectangle_860" data-name="Rectangle 860" width="1.08" height="23.644" transform="translate(171.136 64.716) rotate(50.453)" fill="#fff"/>
      <rect id="Rectangle_861" data-name="Rectangle 861" width="1.08" height="27.005" transform="matrix(0.716, 0.698, -0.698, 0.716, 168.747, 50.305)" fill="#fff"/>
      <rect id="Rectangle_862" data-name="Rectangle 862" width="1.08" height="14.043" transform="matrix(0.716, 0.698, -0.698, 0.716, 155.718, 48.711)" fill="#fff"/>
      <rect id="Rectangle_863" data-name="Rectangle 863" width="1.08" height="6.601" transform="translate(131.394 41.634) rotate(36.407)" fill="#fff"/>
      <rect id="Rectangle_864" data-name="Rectangle 864" width="1.08" height="9.602" transform="translate(113.28 34.222) rotate(38.94)" fill="#fff"/>
      <rect id="Rectangle_865" data-name="Rectangle 865" width="1.08" height="17.283" transform="matrix(0.716, 0.698, -0.698, 0.716, 144.745, 47.234)" fill="#fff"/>
      <rect id="Rectangle_866" data-name="Rectangle 866" width="1.08" height="25.205" transform="translate(161.813 13.673) rotate(43.821)" fill="#fff"/>
      <rect id="Rectangle_867" data-name="Rectangle 867" width="1.08" height="4.921" transform="translate(192.12 28.171) rotate(53.192)" fill="#fff"/>
      <rect id="Rectangle_868" data-name="Rectangle 868" width="1.08" height="8.762" transform="translate(188.525 35.837) rotate(41.307)" fill="#fff"/>
      <circle id="Ellipse_716" data-name="Ellipse 716" cx="3.001" cy="3.001" r="3.001" transform="translate(137.139 109.598)" fill="#fff"/>
      <circle id="Ellipse_717" data-name="Ellipse 717" cx="3.001" cy="3.001" r="3.001" transform="translate(210.712 158.687)" fill="#fff"/>
      <circle id="Ellipse_718" data-name="Ellipse 718" cx="3.001" cy="3.001" r="3.001" transform="translate(204.591 197.694)" fill="#fff"/>
      <circle id="Ellipse_719" data-name="Ellipse 719" cx="3.001" cy="3.001" r="3.001" transform="translate(190.668 24.863)" fill="#fff"/>
      <circle id="Ellipse_720" data-name="Ellipse 720" cx="3.001" cy="3.001" r="3.001" transform="translate(190.668 52.108)" fill="#fff"/>
      <circle id="Ellipse_721" data-name="Ellipse 721" cx="3.001" cy="3.001" r="3.001" transform="translate(172.545 19.702)" fill="#fff"/>
      <circle id="Ellipse_722" data-name="Ellipse 722" cx="3.001" cy="3.001" r="3.001" transform="translate(180.106 57.629)" fill="#fff"/>
      <circle id="Ellipse_723" data-name="Ellipse 723" cx="3.001" cy="3.001" r="3.001" transform="translate(169.064 61.47)" fill="#fff"/>
      <circle id="Ellipse_724" data-name="Ellipse 724" cx="3.001" cy="3.001" r="3.001" transform="translate(163.543 119.92)" fill="#fff"/>
      <circle id="Ellipse_725" data-name="Ellipse 725" cx="3.001" cy="3.001" r="3.001" transform="translate(167.744 45.987)" fill="#fff"/>
      <circle id="Ellipse_726" data-name="Ellipse 726" cx="3.001" cy="3.001" r="3.001" transform="translate(190.668 66.991)" fill="#fff"/>
      <circle id="Ellipse_727" data-name="Ellipse 727" cx="3.001" cy="3.001" r="3.001" transform="translate(185.267 78.993)" fill="#fff"/>
      <circle id="Ellipse_728" data-name="Ellipse 728" cx="3.001" cy="3.001" r="3.001" transform="translate(188.868 108.278)" fill="#fff"/>
      <circle id="Ellipse_729" data-name="Ellipse 729" cx="3.001" cy="3.001" r="3.001" transform="translate(188.748 121.481)" fill="#fff"/>
      <circle id="Ellipse_730" data-name="Ellipse 730" cx="3.001" cy="3.001" r="3.001" transform="translate(175.546 119.8)" fill="#fff"/>
      <circle id="Ellipse_731" data-name="Ellipse 731" cx="3.001" cy="3.001" r="3.001" transform="translate(197.029 95.196)" fill="#fff"/>
      <circle id="Ellipse_732" data-name="Ellipse 732" cx="3.001" cy="3.001" r="3.001" transform="translate(209.152 111.519)" fill="#fff"/>
      <circle id="Ellipse_733" data-name="Ellipse 733" cx="3.001" cy="3.001" r="3.001" transform="translate(166.424 76.952)" fill="#fff"/>
      <circle id="Ellipse_734" data-name="Ellipse 734" cx="3.001" cy="3.001" r="3.001" transform="translate(166.424 87.994)" fill="#fff"/>
      <g id="Group_3521" data-name="Group 3521" transform="translate(155.368 25.583)">
        <rect id="Rectangle_869" data-name="Rectangle 869" width="1.08" height="14.163" transform="translate(0.014 9.722)" fill="#fff"/>
        <rect id="Rectangle_870" data-name="Rectangle 870" width="1.08" height="8.282" transform="translate(5.856 3.821) rotate(45)" fill="#fff"/>
        <circle id="Ellipse_735" data-name="Ellipse 735" cx="3.001" cy="3.001" r="3.001" transform="translate(5.415)" fill="#fff"/>
      </g>
      <circle id="Ellipse_736" data-name="Ellipse 736" cx="3.001" cy="3.001" r="3.001" transform="translate(169.304 31.824)" fill="#fff"/>
      <circle id="Ellipse_737" data-name="Ellipse 737" cx="3.001" cy="3.001" r="3.001" transform="translate(200.63 33.385)" fill="#fff"/>
      <circle id="Ellipse_738" data-name="Ellipse 738" cx="3.001" cy="3.001" r="3.001" transform="translate(209.992 98.916)" fill="#fff"/>
      <circle id="Ellipse_739" data-name="Ellipse 739" cx="3.001" cy="3.001" r="3.001" transform="translate(220.314 131.802)" fill="#fff"/>
      <circle id="Ellipse_740" data-name="Ellipse 740" cx="3.001" cy="3.001" r="3.001" transform="translate(230.996 141.764)" fill="#fff"/>
      <circle id="Ellipse_741" data-name="Ellipse 741" cx="3.001" cy="3.001" r="3.001" transform="translate(236.277 172.25)" fill="#fff"/>
      <circle id="Ellipse_742" data-name="Ellipse 742" cx="3.001" cy="3.001" r="3.001" transform="translate(230.996 160.248)" fill="#fff"/>
      <circle id="Ellipse_743" data-name="Ellipse 743" cx="3.001" cy="3.001" r="3.001" transform="translate(207.951 131.802)" fill="#fff"/>
      <circle id="Ellipse_744" data-name="Ellipse 744" cx="3.001" cy="3.001" r="3.001" transform="translate(212.752 145.365)" fill="#fff"/>
      <circle id="Ellipse_745" data-name="Ellipse 745" cx="3.001" cy="3.001" r="3.001" transform="translate(212.512 188.573)" fill="#fff"/>
      <circle id="Ellipse_746" data-name="Ellipse 746" cx="3.001" cy="3.001" r="3.001" transform="translate(184.307 161.808)" fill="#fff"/>
      <circle id="Ellipse_747" data-name="Ellipse 747" cx="3.001" cy="3.001" r="3.001" transform="translate(166.424 172.61)" fill="#fff"/>
      <circle id="Ellipse_748" data-name="Ellipse 748" cx="3.001" cy="3.001" r="3.001" transform="translate(160.543 180.291)" fill="#fff"/>
      <circle id="Ellipse_749" data-name="Ellipse 749" cx="3.001" cy="3.001" r="3.001" transform="translate(145.18 221.819)" fill="#fff"/>
      <circle id="Ellipse_750" data-name="Ellipse 750" cx="3.001" cy="3.001" r="3.001" transform="translate(154.782 172.61)" fill="#fff"/>
      <circle id="Ellipse_751" data-name="Ellipse 751" cx="3.001" cy="3.001" r="3.001" transform="translate(139.299 180.411)" fill="#fff"/>
      <circle id="Ellipse_752" data-name="Ellipse 752" cx="3.001" cy="3.001" r="3.001" transform="translate(202.67 208.496)" fill="#fff"/>
      <circle id="Ellipse_753" data-name="Ellipse 753" cx="3.001" cy="3.001" r="3.001" transform="translate(188.748 208.496)" fill="#fff"/>
      <g id="Group_3522" data-name="Group 3522" transform="translate(233.03 132.05)">
        <rect id="Rectangle_871" data-name="Rectangle 871" width="1.08" height="7.801" transform="translate(13.568 12.835)" fill="#fff"/>
        <rect id="Rectangle_872" data-name="Rectangle 872" width="1.08" height="18.963" transform="matrix(0.68, -0.733, 0.733, 0.68, 0, 0.792)" fill="#fff"/>
        <circle id="Ellipse_754" data-name="Ellipse 754" cx="3.001" cy="3.001" r="3.001" transform="translate(11.048 20.516)" fill="#fff"/>
      </g>
      <circle id="Ellipse_755" data-name="Ellipse 755" cx="3.001" cy="3.001" r="3.001" transform="translate(143.86 212.937)" fill="#fff"/>
      <circle id="Ellipse_756" data-name="Ellipse 756" cx="3.001" cy="3.001" r="3.001" transform="translate(220.794 56.189)" fill="#fff"/>
      <circle id="Ellipse_757" data-name="Ellipse 757" cx="3.001" cy="3.001" r="3.001" transform="translate(220.794 83.434)" fill="#fff"/>
      <circle id="Ellipse_758" data-name="Ellipse 758" cx="3.001" cy="3.001" r="3.001" transform="translate(236.397 75.392)" fill="#fff"/>
      <circle id="Ellipse_759" data-name="Ellipse 759" cx="3.001" cy="3.001" r="3.001" transform="translate(239.037 95.076)" fill="#fff"/>
      <circle id="Ellipse_760" data-name="Ellipse 760" cx="3.001" cy="3.001" r="3.001" transform="translate(230.516 103.597)" fill="#fff"/>
      <circle id="Ellipse_761" data-name="Ellipse 761" cx="3.001" cy="3.001" r="3.001" transform="translate(227.155 185.692)" fill="#fff"/>
      <circle id="Ellipse_762" data-name="Ellipse 762" cx="3.001" cy="3.001" r="3.001" transform="translate(220.314 169.369)" fill="#fff"/>
      <circle id="Ellipse_763" data-name="Ellipse 763" cx="3.001" cy="3.001" r="3.001" transform="translate(143.86 192.894)" fill="#fff"/>
      <circle id="Ellipse_764" data-name="Ellipse 764" cx="3.001" cy="3.001" r="3.001" transform="translate(174.945 217.378)" fill="#fff"/>
      <circle id="Ellipse_765" data-name="Ellipse 765" cx="3.001" cy="3.001" r="3.001" transform="translate(174.945 185.812)" fill="#fff"/>
      <circle id="Ellipse_766" data-name="Ellipse 766" cx="3.001" cy="3.001" r="3.001" transform="translate(202.67 185.812)" fill="#fff"/>
      <circle id="Ellipse_767" data-name="Ellipse 767" cx="3.001" cy="3.001" r="3.001" transform="translate(212.512 175.85)" fill="#fff"/>
      <circle id="Ellipse_768" data-name="Ellipse 768" cx="3.001" cy="3.001" r="3.001" transform="translate(157.302 131.802)" fill="#fff"/>
      <circle id="Ellipse_769" data-name="Ellipse 769" cx="3.001" cy="3.001" r="3.001" transform="translate(162.703 142.004)" fill="#fff"/>
      <circle id="Ellipse_770" data-name="Ellipse 770" cx="3.001" cy="3.001" r="3.001" transform="translate(142.059 58.109)" fill="#fff"/>
      <circle id="Ellipse_771" data-name="Ellipse 771" cx="3.001" cy="3.001" r="3.001" transform="translate(113.014 167.569)" fill="#fff"/>
      <circle id="Ellipse_772" data-name="Ellipse 772" cx="3.001" cy="3.001" r="3.001" transform="translate(110.734 180.411)" fill="#fff"/>
      <circle id="Ellipse_773" data-name="Ellipse 773" cx="3.001" cy="3.001" r="3.001" transform="translate(112.174 192.173)" fill="#fff"/>
      <circle id="Ellipse_774" data-name="Ellipse 774" cx="3.001" cy="3.001" r="3.001" transform="translate(102.692 216.418)" fill="#fff"/>
      <circle id="Ellipse_775" data-name="Ellipse 775" cx="3.001" cy="3.001" r="3.001" transform="translate(126.097 99.277)" fill="#fff"/>
      <circle id="Ellipse_776" data-name="Ellipse 776" cx="3.001" cy="3.001" r="3.001" transform="translate(114.694 103.597)" fill="#fff"/>
      <circle id="Ellipse_777" data-name="Ellipse 777" cx="3.001" cy="3.001" r="3.001" transform="translate(118.415 77.072)" fill="#fff"/>
      <circle id="Ellipse_778" data-name="Ellipse 778" cx="3.001" cy="3.001" r="3.001" transform="translate(95.851 99.517)" fill="#fff"/>
      <circle id="Ellipse_779" data-name="Ellipse 779" cx="3.001" cy="3.001" r="3.001" transform="translate(95.851 113.799)" fill="#fff"/>
      <circle id="Ellipse_780" data-name="Ellipse 780" cx="3.001" cy="3.001" r="3.001" transform="translate(61.645 144.765)" fill="#fff"/>
      <circle id="Ellipse_781" data-name="Ellipse 781" cx="3.001" cy="3.001" r="3.001" transform="translate(62.845 170.57)" fill="#fff"/>
      <circle id="Ellipse_782" data-name="Ellipse 782" cx="3.001" cy="3.001" r="3.001" transform="translate(68.486 182.332)" fill="#fff"/>
      <circle id="Ellipse_783" data-name="Ellipse 783" cx="3.001" cy="3.001" r="3.001" transform="translate(62.845 196.374)" fill="#fff"/>
      <circle id="Ellipse_784" data-name="Ellipse 784" cx="3.001" cy="3.001" r="3.001" transform="translate(75.327 205.376)" fill="#fff"/>
      <circle id="Ellipse_785" data-name="Ellipse 785" cx="3.001" cy="3.001" r="3.001" transform="translate(88.65 212.457)" fill="#fff"/>
      <circle id="Ellipse_786" data-name="Ellipse 786" cx="3.001" cy="3.001" r="3.001" transform="translate(92.971 197.094)" fill="#fff"/>
      <circle id="Ellipse_787" data-name="Ellipse 787" cx="3.001" cy="3.001" r="3.001" transform="translate(96.211 182.692)" fill="#fff"/>
      <circle id="Ellipse_788" data-name="Ellipse 788" cx="3.001" cy="3.001" r="3.001" transform="translate(84.329 133.483)" fill="#fff"/>
      <circle id="Ellipse_789" data-name="Ellipse 789" cx="3.001" cy="3.001" r="3.001" transform="translate(103.893 146.565)" fill="#fff"/>
      <circle id="Ellipse_790" data-name="Ellipse 790" cx="3.001" cy="3.001" r="3.001" transform="translate(75.207 76.832)" fill="#fff"/>
      <circle id="Ellipse_791" data-name="Ellipse 791" cx="3.001" cy="3.001" r="3.001" transform="translate(118.175 14.421)" fill="#fff"/>
      <circle id="Ellipse_792" data-name="Ellipse 792" cx="3.001" cy="3.001" r="3.001" transform="translate(61.045 72.272)" fill="#fff"/>
      <circle id="Ellipse_793" data-name="Ellipse 793" cx="3.001" cy="3.001" r="3.001" transform="translate(49.643 62.31)" fill="#fff"/>
      <circle id="Ellipse_794" data-name="Ellipse 794" cx="3.001" cy="3.001" r="3.001" transform="translate(55.164 99.397)" fill="#fff"/>
      <circle id="Ellipse_795" data-name="Ellipse 795" cx="3.001" cy="3.001" r="3.001" transform="translate(67.646 87.034)" fill="#fff"/>
      <circle id="Ellipse_796" data-name="Ellipse 796" cx="3.001" cy="3.001" r="3.001" transform="translate(75.087 96.276)" fill="#fff"/>
      <circle id="Ellipse_797" data-name="Ellipse 797" cx="3.001" cy="3.001" r="3.001" transform="translate(75.087 112.599)" fill="#fff"/>
      <circle id="Ellipse_798" data-name="Ellipse 798" cx="3.001" cy="3.001" r="3.001" transform="translate(63.685 124.481)" fill="#fff"/>
      <circle id="Ellipse_799" data-name="Ellipse 799" cx="3.001" cy="3.001" r="3.001" transform="translate(57.444 113.919)" fill="#fff"/>
      <circle id="Ellipse_800" data-name="Ellipse 800" cx="3.001" cy="3.001" r="3.001" transform="translate(46.282 108.278)" fill="#fff"/>
      <circle id="Ellipse_801" data-name="Ellipse 801" cx="3.001" cy="3.001" r="3.001" transform="translate(46.042 72.872)" fill="#fff"/>
      <circle id="Ellipse_802" data-name="Ellipse 802" cx="3.001" cy="3.001" r="3.001" transform="translate(55.164 83.194)" fill="#fff"/>
      <circle id="Ellipse_803" data-name="Ellipse 803" cx="3.001" cy="3.001" r="3.001" transform="translate(46.162 90.995)" fill="#fff"/>
      <circle id="Ellipse_804" data-name="Ellipse 804" cx="3.001" cy="3.001" r="3.001" transform="translate(35 102.277)" fill="#fff"/>
      <circle id="Ellipse_805" data-name="Ellipse 805" cx="3.001" cy="3.001" r="3.001" transform="translate(35 144.765)" fill="#fff"/>
      <circle id="Ellipse_806" data-name="Ellipse 806" cx="3.001" cy="3.001" r="3.001" transform="translate(46.402 136.363)" fill="#fff"/>
      <circle id="Ellipse_807" data-name="Ellipse 807" cx="3.001" cy="3.001" r="3.001" transform="translate(46.402 157.247)" fill="#fff"/>
      <circle id="Ellipse_808" data-name="Ellipse 808" cx="3.001" cy="3.001" r="3.001" transform="translate(75.207 128.682)" fill="#fff"/>
      <circle id="Ellipse_809" data-name="Ellipse 809" cx="3.001" cy="3.001" r="3.001" transform="translate(75.207 146.685)" fill="#fff"/>
      <circle id="Ellipse_810" data-name="Ellipse 810" cx="3.001" cy="3.001" r="3.001" transform="translate(112.414 207.176)" fill="#fff"/>
      <circle id="Ellipse_811" data-name="Ellipse 811" cx="3.001" cy="3.001" r="3.001" transform="translate(116.255 219.418)" fill="#fff"/>
      <circle id="Ellipse_812" data-name="Ellipse 812" cx="3.001" cy="3.001" r="3.001" transform="translate(61.765 154.367)" fill="#fff"/>
      <circle id="Ellipse_813" data-name="Ellipse 813" cx="3.001" cy="3.001" r="3.001" transform="translate(94.411 169.609)" fill="#fff"/>
      <circle id="Ellipse_814" data-name="Ellipse 814" cx="3.001" cy="3.001" r="3.001" transform="translate(94.531 154.367)" fill="#fff"/>
      <circle id="Ellipse_815" data-name="Ellipse 815" cx="3.001" cy="3.001" r="3.001" transform="translate(104.253 131.802)" fill="#fff"/>
      <circle id="Ellipse_816" data-name="Ellipse 816" cx="3.001" cy="3.001" r="3.001" transform="translate(105.573 14.421)" fill="#fff"/>
      <circle id="Ellipse_817" data-name="Ellipse 817" cx="3.001" cy="3.001" r="3.001" transform="translate(113.614 87.874)" fill="#fff"/>
      <circle id="Ellipse_818" data-name="Ellipse 818" cx="3.001" cy="3.001" r="3.001" transform="translate(118.175 37.945)" fill="#fff"/>
      <circle id="Ellipse_819" data-name="Ellipse 819" cx="3.001" cy="3.001" r="3.001" transform="translate(123.336 46.227)" fill="#fff"/>
      <circle id="Ellipse_820" data-name="Ellipse 820" cx="3.001" cy="3.001" r="3.001" transform="translate(99.932 25.943)" fill="#fff"/>
      <circle id="Ellipse_821" data-name="Ellipse 821" cx="3.001" cy="3.001" r="3.001" transform="translate(97.051 38.906)" fill="#fff"/>
      <circle id="Ellipse_822" data-name="Ellipse 822" cx="3.001" cy="3.001" r="3.001" transform="translate(70.767 53.188)" fill="#fff"/>
      <circle id="Ellipse_823" data-name="Ellipse 823" cx="3.001" cy="3.001" r="3.001" transform="translate(77.728 34.825)" fill="#fff"/>
      <circle id="Ellipse_824" data-name="Ellipse 824" cx="3.001" cy="3.001" r="3.001" transform="translate(67.286 40.706)" fill="#fff"/>
      <circle id="Ellipse_825" data-name="Ellipse 825" cx="3.001" cy="3.001" r="3.001" transform="translate(88.17 25.943)" fill="#fff"/>
      <circle id="Ellipse_826" data-name="Ellipse 826" cx="3.001" cy="3.001" r="3.001" transform="translate(110.734 47.787)" fill="#fff"/>
      <circle id="Ellipse_827" data-name="Ellipse 827" cx="3.001" cy="3.001" r="3.001" transform="translate(128.737 11.421)" fill="#fff"/>
      <circle id="Ellipse_828" data-name="Ellipse 828" cx="3.001" cy="3.001" r="3.001" transform="translate(160.783 9.86)" fill="#fff"/>
      <circle id="Ellipse_829" data-name="Ellipse 829" cx="3.001" cy="3.001" r="3.001" transform="translate(148.181 8.3)" fill="#fff"/>
      <circle id="Ellipse_830" data-name="Ellipse 830" cx="3.001" cy="3.001" r="3.001" transform="translate(178.906 40.946)" fill="#fff"/>
      <circle id="Ellipse_831" data-name="Ellipse 831" cx="3.001" cy="3.001" r="3.001" transform="translate(209.992 47.067)" fill="#fff"/>
    </g>
  </g>
</svg>
