<svg xmlns="http://www.w3.org/2000/svg" width="70" height="70" viewBox="0 0 70 70">
  <g id="Group_3208" data-name="Group 3208" transform="translate(-1301 -4704)">
    <g id="Path_2168" data-name="Path 2168" transform="translate(1301 4704)" fill="none">
      <path d="M35,0A35,35,0,1,1,0,35,35,35,0,0,1,35,0Z" stroke="none"/>
      <path d="M 35 3 C 30.67870712280273 3 26.4882698059082 3.845657348632812 22.54508209228516 5.513481140136719 C 18.73489379882812 7.125057220458984 15.3123779296875 9.432788848876953 12.37258911132812 12.37258911132812 C 9.432788848876953 15.3123779296875 7.125057220458984 18.73489379882812 5.513481140136719 22.54508209228516 C 3.845657348632812 26.4882698059082 3 30.67870712280273 3 35 C 3 39.32129669189453 3.845657348632812 43.5117301940918 5.513481140136719 47.45491790771484 C 7.125057220458984 51.26510620117188 9.432788848876953 54.6876220703125 12.37258911132812 57.62741088867188 C 15.3123779296875 60.56721115112305 18.73489379882812 62.87494277954102 22.54508209228516 64.48651885986328 C 26.4882698059082 66.15434265136719 30.67870712280273 67 35 67 C 39.32129669189453 67 43.5117301940918 66.15434265136719 47.45491790771484 64.48651885986328 C 51.26510620117188 62.87494277954102 54.6876220703125 60.56721115112305 57.62741088867188 57.62741088867188 C 60.56721115112305 54.6876220703125 62.87494277954102 51.26510620117188 64.48651885986328 47.45491790771484 C 66.15434265136719 43.5117301940918 67 39.32129669189453 67 35 C 67 30.67870712280273 66.15434265136719 26.4882698059082 64.48651885986328 22.54508209228516 C 62.87494277954102 18.73489379882812 60.56721115112305 15.3123779296875 57.62741088867188 12.37258911132812 C 54.6876220703125 9.432788848876953 51.26510620117188 7.125057220458984 47.45491790771484 5.513481140136719 C 43.5117301940918 3.845657348632812 39.32129669189453 3 35 3 M 35 0 C 54.32996368408203 0 70 15.67003631591797 70 35 C 70 54.32996368408203 54.32996368408203 70 35 70 C 15.67003631591797 70 0 54.32996368408203 0 35 C 0 15.67003631591797 15.67003631591797 0 35 0 Z" stroke="none" fill="#6e6e6e"/>
    </g>
    <g id="Ellipse_662" data-name="Ellipse 662" transform="translate(1301 4726)" fill="none" stroke="#fff" stroke-width="3">
      <circle cx="13" cy="13" r="13" stroke="none"/>
      <circle cx="13" cy="13" r="11.5" fill="none"/>
    </g>
    <g id="Ellipse_663" data-name="Ellipse 663" transform="translate(1301 4716)" fill="none" stroke="#a1a1a1" stroke-width="3">
      <ellipse cx="24" cy="23" rx="24" ry="23" stroke="none"/>
      <ellipse cx="24" cy="23" rx="22.5" ry="21.5" fill="none"/>
    </g>
  </g>
</svg>
